<svg width="1200" height="316" viewBox="0 0 1200 316" fill="none" xmlns="http://www.w3.org/2000/svg">
<g clip-path="url(#clip0_1643_15289)">
<circle cx="623.683" cy="240.5" r="127.062" fill="#F5F5F5"/>
<circle cx="413.005" cy="184.757" r="50.0052" fill="#F5F5F5"/>
<circle cx="809.357" cy="281.898" r="26.6421" fill="#F5F5F5"/>
<circle cx="794.603" cy="126.964" r="15.1655" fill="#F5F5F5"/>
<path d="M466.66 261.399C461.214 284.307 475.703 301.768 483.022 305.23C513.466 294.03 574.385 270.41 574.507 265.522C574.659 259.414 581.368 245.211 583.503 232.535C585.638 219.859 581.063 215.43 576.184 206.879C571.305 198.327 567.017 173.202 547.823 174.044C513.012 175.57 502.081 211.46 496.287 223.22C490.493 234.979 472.105 238.492 466.66 261.399Z" fill="black"/>
<path d="M500.705 264.544C507.776 257.243 518.614 253.62 524.319 250.994C532.881 247.629 551.247 241.176 556.218 242.282C562.432 243.665 569.57 247.951 583.241 265.374C594.522 281.275 606.483 306.302 606.483 320.959H480.544C480.268 303.122 491.867 273.67 500.705 264.544Z" fill="#FF454B"/>
<path d="M537.456 216.958C543.433 213.171 552.551 196.85 556.363 189.163C557.837 191.351 560.998 196.157 561.852 197.867C562.919 200.006 568.561 205.046 569.781 206.725C571.001 208.405 569.781 209.016 567.646 211.612C569.018 215.43 569.781 221.234 567.341 225.51C564.901 229.786 554.943 229.48 554.486 230.55C554.028 231.619 555.143 242.615 555.448 250.403C555.6 263.69 549.196 266.897 543.86 269.034C526.02 271.784 516.262 255.749 516.262 254.527C516.262 253.305 532.377 249.334 535.321 234.979C535.827 232.512 535.931 230.55 535.931 227.037C529.07 227.343 528.718 221.844 529.937 218.485C531.157 215.125 536.236 215.583 537.456 216.958Z" fill="#FAC7AC"/>
<path fill-rule="evenodd" clip-rule="evenodd" d="M551.117 230.031C552.545 230.259 553.948 230.198 554.799 230.073L554.843 230.375C553.966 230.504 552.532 230.566 551.069 230.332C549.609 230.1 548.095 229.57 547.086 228.496L547.308 228.287C548.25 229.289 549.685 229.803 551.117 230.031Z" fill="#FAC7AC"/>
<path d="M633.338 144.854C635.93 138.745 645.281 131.975 651.33 128.666L665.357 124.848C668.458 124.644 683.807 123.321 690.821 127.444C697.834 131.568 703.629 145.77 705.306 154.323C706.983 162.875 704.696 189.448 703.019 191.434C701.341 193.419 677.25 186.547 669.627 187.768C662.003 188.99 641.876 188.532 639.589 187.768C637.302 187.005 641.419 185.172 635.015 174.482C628.611 163.791 630.126 152.423 633.338 144.854Z" fill="#FF454B"/>
<path d="M647.058 129.582C642.484 121.641 646.143 114.157 645.228 107.743L670.387 95.8311L687.769 98.8854V118.739C687.464 120.673 685.924 123.195 682.585 124.389C680.45 125.153 679.448 127.139 677.706 129.582C675.963 132.026 671.454 135.56 666.727 136.913C662.001 138.265 655.902 137.065 653.462 135.844C651.022 134.622 649.567 133.938 647.058 129.582Z" fill="#FAC7AC"/>
<path d="M660.229 109.434C653.528 111.775 644.7 110.183 641.924 108.707C638.271 106.764 630.859 100.658 631.432 94.2693C634.925 94.5836 640.741 91.4759 643.02 87.9521C659.373 69.49 671.008 67.777 684.231 79.0869C705.32 88.038 695.381 112.596 690.362 119.044C687.24 123.057 680.756 125.611 680.756 125.611C680.756 125.611 688.348 119.578 684.873 115.837C681.399 112.096 678.777 117.696 678.777 117.696C678.777 117.696 675.733 110.676 673.052 108.135C670.685 105.89 668.606 106.508 660.229 109.434Z" fill="black"/>
<path d="M626.506 225.657C633.69 217.583 660.927 214.953 673.648 214.647C679.934 218.317 695.858 228.839 709.268 241.562C722.677 254.286 741.793 302.836 749.675 325.521H595.676V308.24C599.018 303.142 596.933 287.319 599.567 272.148C602.859 253.185 617.526 235.751 626.506 225.657Z" fill="white"/>
<path d="M627.694 201.665C632.573 197.512 638.063 188.837 640.197 185.019L644.771 188.378L665.66 206.4C666.27 208.793 666.88 219.472 666.88 222.283C659.257 224.573 654.987 225.337 649.651 229.002C644.676 232.419 640.197 238.165 637.605 244.58C635.531 249.711 631.252 252.114 629.371 252.674C623.374 256.186 610.526 259.21 607.11 243.205C602.841 223.199 621.595 206.858 627.694 201.665Z" fill="#FF454B"/>
<path d="M691.74 212.814C690.764 210.37 690.621 203.447 690.672 200.291C691.028 196.779 693.996 189.815 703.023 190.059C714.306 190.364 718.118 195.709 719.795 202.276C721.472 208.844 720.252 239.234 719.795 242.288C719.338 245.343 709.579 240.151 705.157 242.288C700.736 244.427 700.126 263.669 697.229 262.295C694.332 260.921 687.013 240.914 688.69 235.263C690.367 229.613 692.959 215.869 691.74 212.814Z" fill="#FF454B"/>
<path d="M661.241 225.49C664.169 222.802 663.376 213.831 663.681 207.774L678.776 194.946L690.669 200.597C691.736 206.196 692.742 217.121 691.889 221.519C690.821 227.016 688.534 237.402 678.776 239.692C669.017 241.983 661.241 232.362 659.411 230.377C657.582 228.391 659.259 228.238 661.241 225.49Z" fill="#FAC7AC"/>
<path d="M644.168 179.674C643.68 174.421 646.303 170.358 647.675 168.983L668.564 161.348L679.39 179.674C680.356 183.797 682.043 192.502 681.067 194.335C679.847 196.626 676.34 201.512 672.681 205.636C669.022 209.759 661.855 214.341 653.774 214.647C645.693 214.952 646.455 207.469 647.675 204.567C648.895 201.665 648.133 200.597 646.455 200.597C640.814 201.208 640.661 198 642.034 194.335C643.406 190.669 644.778 186.241 644.168 179.674Z" fill="#FAC7AC"/>
<path d="M692.495 202.123C686.766 206.153 682.431 200.444 680.297 196.32C679.229 197.694 677.895 199.283 676.79 200.749C672.52 208.079 664.866 211.823 661.695 212.966C657.883 214.341 650.412 216.173 648.124 212.508C645.837 208.843 647.667 204.872 648.124 203.345C648.582 201.818 648.124 201.512 648.124 201.207C650.869 200.291 649.802 203.804 658.493 204.872C667.184 205.941 670.081 196.32 671.301 192.044C672.52 187.767 668.404 182.881 665.507 180.285C664.744 170.358 659.865 169.288 658.493 168.22C657.12 167.151 649.802 169.899 648.124 170.358C646.447 170.816 644.157 171.176 641.415 168.22C639.433 166.082 635.926 163.333 642.483 153.101C649.039 142.868 677.552 145.159 684.108 145.159C690.665 145.159 698.136 153.101 701.033 157.988C703.93 162.875 703.32 188.989 702.405 190.211C701.491 191.433 699.661 197.083 692.495 202.123Z" fill="black"/>
<path d="M675.42 194.335L672.98 183.95C674.607 182.015 678.195 179.522 679.537 185.019C680.879 190.517 677.351 193.521 675.42 194.335Z" fill="#FAC7AC"/>
<path d="M621.756 277.413C622 272.038 614.742 267.335 610.32 266.876C605.899 266.418 597.817 270.964 597.817 272.832C597.817 273.749 596.293 279.705 595.835 282.148C595.458 284.162 593.396 292.533 591.109 297.879C588.821 303.223 594.31 318.648 606.813 319.717C619.316 320.786 619.621 312.081 620.384 309.79C621.146 307.5 621.451 284.134 621.756 277.413Z" fill="#FAC7AC"/>
<path d="M713.382 316.51C709.966 312.601 711.959 288.002 713.382 276.193C719.583 273.036 732.472 266.54 734.423 265.807C736.863 264.891 732.289 271.611 737.32 277.109C742.352 282.607 745.859 302.612 746.926 311.165C747.384 314.831 746.926 319.565 742.047 319.565C736.711 319.565 717.651 321.397 713.382 316.51Z" fill="#FAC7AC"/>
<path d="M612.145 245.038C610.803 245.649 606.605 251.503 604.674 254.354C611.484 258.732 625.532 267.548 627.24 267.793C629.375 268.098 631.204 266.571 631.967 266.265C632.729 265.96 634.101 263.669 634.559 262.447C634.925 261.471 634.406 259.801 634.101 259.088C634.508 258.325 635.382 256.644 635.626 256.033C635.87 255.422 635.423 254.251 635.169 253.743C635.626 253.641 636.572 252.887 636.694 250.689C636.846 247.94 629.375 245.038 627.545 244.122C625.715 243.205 623.123 240.914 620.379 240.457C617.634 239.998 613.822 244.275 612.145 245.038Z" fill="#FAC7AC"/>
<path d="M721.183 244.018C722.421 246.924 726.055 254.225 727.718 257.511L710.69 263.912C707.308 264.95 700.096 266.611 698.307 264.95C696.072 262.874 697.276 259.588 696.072 257.511C694.868 255.436 695.556 253.879 694.868 251.975C694.286 250.366 696.932 249.554 696.072 248.344C695.212 247.132 696.244 244.018 698.307 244.018C700.372 244.018 709.143 234.677 710.69 234.504C712.239 234.331 719.635 240.385 721.183 244.018Z" fill="#FAC7AC"/>
<path d="M590.044 257.255C590.41 250.78 597.516 249.161 601.023 249.161C603.462 249.772 606.889 253.574 608.646 254.964C609.912 255.965 613.267 258.946 616.88 261.073C621.534 263.813 626.514 265.731 626.943 266.418C627.706 267.64 627.553 270.083 626.943 273.749C626.333 277.414 618.1 280.01 611.848 280.468C605.597 280.926 598.583 273.443 594.924 270.083C591.264 266.724 589.587 265.349 590.044 257.255Z" fill="#7E7E7E"/>
<path d="M736.106 257.725C734.888 254.845 729.605 255.468 727.115 256.141C706.849 253.837 706.241 262.91 704.412 263.774C702.583 264.638 699.536 266.51 699.078 272.703C698.621 278.896 704.412 282.641 707.154 283.216C709.897 283.793 716.907 282.641 722.849 281.488C728.792 280.337 734.43 274.288 737.63 269.247C740.83 264.206 737.63 261.325 736.106 257.725Z" fill="#7E7E7E"/>
<path d="M647.167 148.42C646.448 147.531 648.6 146.863 649.766 146.64C649.993 146.39 650.578 145.783 651.107 145.346C651.767 144.8 652.306 145.466 653.247 144.132C654.187 142.798 655.346 143.322 655.745 143.362C656.145 143.402 656.986 141.038 658.643 142.633C660.599 145.278 666.023 145.646 665.165 147.444C664.62 148.586 663.513 148.427 661.755 147.842C661.755 148.523 661.685 150.162 661.411 151.277C661.071 152.671 659.412 153.117 658.731 153.865C658.051 154.613 656.774 153.261 656.253 154.433C655.732 155.605 653.453 156.192 652.714 155.506C651.976 154.82 652.394 156.698 650.575 156.72C648.757 156.742 648.065 149.53 647.167 148.42Z" fill="#FAC7AC"/>
<path d="M676.455 145.979C674.055 146.301 670.475 145.29 668.986 144.744C670.737 142.337 673.52 143.247 675.461 143.792C677.402 144.338 679.523 143.79 681.313 142.513C683.103 141.236 682.924 142.33 683.69 141.782C684.457 141.235 686.106 142.182 687.644 142.436L690.501 142.908C691.379 143.053 692.221 143.417 692.7 144.62C693.179 145.823 693.589 148.812 693.628 149.942C693.668 151.072 692.828 152.056 691.439 152.276C690.048 152.496 690.527 153.698 689.429 153.517C688.33 153.335 686.979 154.685 685.77 153.811C684.56 152.936 685.107 152.353 683.278 152.5C681.449 152.647 680.999 148.528 681.067 146.742C681.137 144.955 679.454 145.576 676.455 145.979Z" fill="#FAC7AC"/>
<path fill-rule="evenodd" clip-rule="evenodd" d="M653.049 120.852C653.196 120.213 653.316 119.598 653.316 119.044H653.621C653.621 119.636 653.493 120.281 653.346 120.921C653.309 121.079 653.271 121.237 653.234 121.394C653.118 121.878 653.004 122.353 652.933 122.809C652.839 123.413 652.824 123.957 652.971 124.409C653.114 124.852 653.415 125.221 653.987 125.471L653.865 125.751C653.218 125.467 652.852 125.034 652.68 124.503C652.512 123.982 652.536 123.381 652.632 122.762C652.705 122.293 652.823 121.8 652.939 121.313C652.977 121.159 653.013 121.004 653.049 120.852Z" fill="#E8887E"/>
<path d="M655.599 124.847C654.013 125.458 653.109 124.796 652.855 124.389C652.753 124.746 653.255 126.069 654.379 126.069C655.447 126.069 655.498 125.255 655.599 124.847Z" fill="#E8887E"/>
</g>
<defs>
<clipPath id="clip0_1643_15289">
<rect width="1200" height="316" fill="white"/>
</clipPath>
</defs>
</svg>
