<svg width="386" height="393" viewBox="0 0 386 393" fill="none" xmlns="http://www.w3.org/2000/svg">
<g clip-path="url(#clip0_628_11155)">
<path fill-rule="evenodd" clip-rule="evenodd" d="M271.399 350.018V349.896C271.399 349.856 271.399 349.817 271.399 349.781C271.399 349.745 271.399 349.701 271.399 349.662L271.458 339.427L184.776 338.898L184.713 349.489H184.734C185.293 354.565 204.441 358.755 228.009 358.899C251.578 359.043 270.782 355.087 271.399 350.018Z" fill="#F5F5F5"/>
<path d="M271.468 340.107C271.498 334.923 252.118 330.6 228.182 330.452C204.245 330.305 184.817 334.389 184.788 339.574C184.758 344.759 204.138 349.081 228.074 349.229C252.01 349.376 271.439 345.292 271.468 340.107Z" fill="#F5F5F5"/>
<path d="M268.675 339.8C268.699 335.58 250.566 332.046 228.174 331.908C205.782 331.771 187.61 335.08 187.586 339.301C187.562 343.522 205.695 347.055 228.087 347.193C250.479 347.331 268.651 344.021 268.675 339.8Z" fill="#E5E5E5"/>
<path fill-rule="evenodd" clip-rule="evenodd" d="M271.399 335.806V335.684C271.399 335.644 271.399 335.608 271.399 335.569C271.399 335.529 271.399 335.49 271.399 335.45L271.458 325.216L184.776 324.686L184.713 335.281H184.734C185.293 340.357 204.441 344.55 228.009 344.691C251.578 344.831 270.782 340.878 271.399 335.806Z" fill="#F5F5F5"/>
<path d="M271.468 325.897C271.498 320.712 252.118 316.39 228.182 316.242C204.245 316.095 184.817 320.179 184.788 325.364C184.758 330.548 204.138 334.871 228.074 335.019C252.01 335.166 271.439 331.082 271.468 325.897Z" fill="#F5F5F5"/>
<path d="M268.672 325.59C268.696 321.369 250.563 317.836 228.171 317.698C205.779 317.56 187.607 320.87 187.583 325.091C187.559 329.312 205.692 332.845 228.084 332.983C250.476 333.121 268.648 329.811 268.672 325.59Z" fill="#E5E5E5"/>
<path fill-rule="evenodd" clip-rule="evenodd" d="M271.427 321.601V321.475C271.427 321.439 271.427 321.4 271.427 321.36V321.241L271.482 311.007L184.8 310.478L184.741 321.072H184.759C185.317 326.148 204.469 330.342 228.034 330.486C251.598 330.63 270.809 326.67 271.427 321.601Z" fill="#F5F5F5"/>
<path d="M271.497 311.691C271.526 306.506 252.146 302.183 228.21 302.036C204.274 301.888 184.846 305.972 184.816 311.157C184.786 316.342 204.166 320.665 228.103 320.812C252.039 320.96 271.467 316.876 271.497 311.691Z" fill="#F5F5F5"/>
<path d="M268.704 311.384C268.728 307.163 250.596 303.63 228.204 303.492C205.812 303.354 187.64 306.664 187.615 310.884C187.591 315.105 205.724 318.639 228.116 318.776C250.508 318.914 268.68 315.605 268.704 311.384Z" fill="#E5E5E5"/>
<path fill-rule="evenodd" clip-rule="evenodd" d="M194.013 280.027L193.913 279.966L193.816 279.905L193.715 279.851L185.147 274.782L142.271 352.963L151.141 358.201C155.681 360.181 168.576 344.903 180.235 323.643C191.894 302.382 197.972 283.062 194.013 280.027Z" fill="#F5F5F5"/>
<path d="M172.195 318.829C184.037 297.242 190.116 277.663 185.773 275.098C181.431 272.533 168.312 287.953 156.47 309.541C144.629 331.128 138.549 350.707 142.892 353.272C147.234 355.837 160.354 340.417 172.195 318.829Z" fill="#F5F5F5"/>
<path d="M170.494 317.822C181.572 297.628 187.686 279.564 184.151 277.476C180.617 275.388 168.771 290.066 157.693 310.261C146.616 330.456 140.501 348.519 144.036 350.607C147.571 352.695 159.417 338.017 170.494 317.822Z" fill="#E5E5E5"/>
<path fill-rule="evenodd" clip-rule="evenodd" d="M184.29 267.852L184.186 267.791C184.155 267.769 184.122 267.748 184.089 267.73C184.056 267.709 184.023 267.689 183.988 267.672L175.416 262.611L132.54 340.789L141.41 346.03V346.012C145.951 347.995 158.845 332.718 170.504 311.454C182.163 290.189 188.248 270.894 184.29 267.852Z" fill="#F5F5F5"/>
<path d="M162.472 306.655C174.313 285.068 180.393 265.488 176.05 262.923C171.708 260.358 158.588 275.779 146.747 297.366C134.906 318.953 128.826 338.533 133.169 341.098C137.511 343.663 150.63 328.242 162.472 306.655Z" fill="#F5F5F5"/>
<path d="M160.77 305.648C171.848 285.453 177.963 267.389 174.428 265.301C170.893 263.213 159.047 277.892 147.97 298.086C136.892 318.281 130.778 336.345 134.312 338.433C137.847 340.521 149.693 325.843 160.77 305.648Z" fill="#E5E5E5"/>
<path d="M190.711 271.02C190.589 270.996 190.463 271.014 190.353 271.073C190.243 271.132 190.155 271.227 190.104 271.344C189.549 272.637 188.727 273.788 187.697 274.716C186.667 275.643 185.453 276.324 184.141 276.712C184.03 276.745 183.932 276.811 183.858 276.902C183.784 276.993 183.738 277.105 183.724 277.223V277.302C183.708 277.42 183.727 277.541 183.777 277.649C183.827 277.756 183.906 277.846 184.005 277.907C185.205 278.613 186.23 279.598 187.001 280.785C187.771 281.972 188.266 283.328 188.446 284.746C188.462 284.881 188.518 285.007 188.607 285.105C188.696 285.204 188.814 285.272 188.942 285.297C189.071 285.3 189.198 285.264 189.307 285.192C189.417 285.12 189.503 285.017 189.556 284.894C190.088 283.632 190.868 282.5 191.848 281.57C192.827 280.64 193.983 279.933 195.241 279.494C195.351 279.461 195.45 279.395 195.524 279.304C195.598 279.213 195.644 279.101 195.658 278.983L195.699 278.663C195.715 278.545 195.697 278.425 195.648 278.317C195.599 278.21 195.52 278.12 195.422 278.058C194.309 277.338 193.357 276.38 192.63 275.248C191.904 274.115 191.418 272.835 191.207 271.492C191.171 271.375 191.107 271.27 191.02 271.187C190.933 271.104 190.826 271.047 190.711 271.02Z" fill="#FFD600"/>
<path d="M226.691 278.644C226.628 278.668 226.573 278.714 226.538 278.775C226.503 278.835 226.488 278.906 226.497 278.976C226.59 279.749 226.519 280.534 226.288 281.275C226.058 282.016 225.673 282.696 225.162 283.267C225.119 283.314 225.091 283.374 225.081 283.438C225.071 283.502 225.08 283.568 225.106 283.627V283.666C225.131 283.727 225.171 283.778 225.224 283.815C225.276 283.851 225.338 283.871 225.401 283.871C226.16 283.848 226.914 284.008 227.604 284.339C228.293 284.67 228.899 285.163 229.373 285.779C229.418 285.838 229.48 285.881 229.549 285.902C229.619 285.922 229.693 285.92 229.761 285.895C229.82 285.857 229.868 285.804 229.899 285.741C229.93 285.677 229.944 285.606 229.938 285.535C229.842 284.783 229.898 284.018 230.104 283.29C230.309 282.562 230.659 281.887 231.132 281.308C231.174 281.261 231.202 281.201 231.213 281.137C231.223 281.074 231.215 281.008 231.191 280.948L231.121 280.786C231.096 280.726 231.055 280.674 231.002 280.637C230.949 280.601 230.887 280.582 230.823 280.581C230.102 280.569 229.392 280.398 228.74 280.079C228.088 279.759 227.509 279.3 227.042 278.731C226.996 278.686 226.939 278.655 226.878 278.64C226.816 278.624 226.752 278.626 226.691 278.644Z" fill="#FFD600"/>
<path d="M168.531 314.945C168.466 314.925 168.397 314.928 168.334 314.953C168.271 314.979 168.218 315.025 168.184 315.086C167.805 315.765 167.288 316.35 166.667 316.799C166.047 317.249 165.339 317.551 164.594 317.685C164.531 317.696 164.473 317.726 164.428 317.772C164.382 317.817 164.35 317.876 164.337 317.94V317.984C164.319 318.049 164.321 318.118 164.342 318.183C164.363 318.247 164.402 318.303 164.455 318.343C165.08 318.803 165.594 319.408 165.956 320.11C166.317 320.811 166.516 321.591 166.536 322.386C166.538 322.461 166.562 322.534 166.606 322.594C166.649 322.654 166.71 322.698 166.779 322.721C166.851 322.729 166.923 322.716 166.987 322.682C167.052 322.649 167.106 322.598 167.143 322.534C167.507 321.87 168 321.293 168.591 320.839C169.183 320.385 169.86 320.065 170.578 319.899C170.64 319.887 170.699 319.857 170.745 319.812C170.791 319.766 170.824 319.708 170.838 319.643L170.876 319.47C170.894 319.405 170.892 319.335 170.871 319.271C170.85 319.207 170.81 319.151 170.758 319.11C170.188 318.645 169.72 318.06 169.385 317.392C169.05 316.725 168.856 315.992 168.815 315.24C168.801 315.168 168.767 315.101 168.716 315.048C168.665 314.996 168.601 314.96 168.531 314.945Z" fill="#FFD600"/>
<path d="M191.977 338.031C191.942 338.033 191.91 338.047 191.883 338.07C191.857 338.094 191.839 338.125 191.831 338.161C191.76 338.548 191.608 338.915 191.386 339.236C191.164 339.556 190.876 339.822 190.544 340.014C190.516 340.03 190.494 340.055 190.479 340.084C190.465 340.114 190.46 340.147 190.465 340.18V340.202C190.467 340.235 190.48 340.267 190.5 340.294C190.52 340.32 190.548 340.339 190.579 340.349C190.948 340.461 191.287 340.66 191.569 340.93C191.851 341.2 192.069 341.535 192.206 341.908C192.219 341.944 192.242 341.974 192.273 341.995C192.303 342.017 192.339 342.028 192.376 342.027C192.411 342.018 192.443 341.999 192.468 341.972C192.493 341.945 192.51 341.912 192.518 341.875C192.583 341.498 192.725 341.138 192.933 340.821C193.141 340.503 193.411 340.235 193.725 340.032C193.753 340.015 193.776 339.99 193.79 339.96C193.805 339.93 193.811 339.897 193.809 339.863V339.777C193.806 339.744 193.794 339.712 193.774 339.686C193.754 339.66 193.728 339.64 193.698 339.629C193.351 339.51 193.033 339.316 192.765 339.059C192.497 338.802 192.285 338.488 192.143 338.139C192.128 338.107 192.104 338.08 192.075 338.061C192.045 338.042 192.012 338.032 191.977 338.031Z" fill="#FFD600"/>
<path d="M158.658 303.095H157.354C154.579 307.486 151.626 310.521 149.868 310.499L147.946 310.478L142.909 320.266L141.327 320.244L150.197 303.005H149.039L150.516 300.125H151.675L152.9 297.745H151.741L153.219 294.865H154.377L158.193 287.457L161.7 287.5C162.439 287.5 162.831 288.055 162.911 289.005C163.022 290.322 162.536 292.421 161.523 294.952H162.831L161.35 297.832H160.25C160.06 298.235 159.865 298.642 159.657 299.041C159.449 299.441 159.227 299.851 159.026 300.211H160.125L158.658 303.095ZM154.495 297.76L153.271 300.136L157.434 300.186C157.635 299.826 157.857 299.423 158.065 299.023C158.273 298.624 158.467 298.213 158.658 297.81L154.495 297.76ZM152.112 305.953C152.99 305.953 154.256 304.848 155.581 303.073L151.765 303.026L150.263 305.946L152.084 305.967L152.112 305.953ZM157.447 291.982L155.945 294.898L159.761 294.945C159.968 294.297 160.065 293.618 160.046 292.936C159.997 292.349 159.754 292.011 159.279 292.004L157.461 291.982" fill="#F8FDFC"/>
<path d="M235.346 315.64L233.806 314.618C228.651 314.618 223.871 313.844 221.793 312.458L219.531 310.953L209.405 311.885L207.539 310.643L225.366 309.002L223.999 308.091L226.972 307.818L228.339 308.728L230.798 308.501L229.435 307.591L232.401 307.317L233.768 308.228L241.431 307.508L245.562 310.255C246.433 310.834 246.665 311.41 246.357 311.943C245.927 312.684 244.459 313.343 242.194 313.826L243.731 314.848L240.761 315.122L239.464 314.261C239.065 314.312 238.666 314.362 238.25 314.398C237.833 314.434 237.393 314.463 237.004 314.488L238.302 315.348L235.346 315.64ZM232.665 309.747L230.205 309.974L235.114 313.239C235.506 313.217 235.943 313.188 236.359 313.152C236.775 313.116 237.178 313.062 237.577 313.012L232.665 309.747ZM226.362 311.95C227.402 312.641 229.373 313.073 231.714 313.224L227.232 310.247L224.214 310.525L226.362 311.965V311.95ZM238.652 309.207L235.638 309.488L240.116 312.465C240.73 312.238 241.157 311.979 241.306 311.695C241.455 311.41 241.354 311.007 240.796 310.636L238.652 309.196" fill="#F8FDFC"/>
<path d="M203.699 339.147L199.026 366.999L212.073 372.856L220.048 346.271L203.699 339.147Z" fill="#EFB595"/>
<path d="M166.827 369.63C165.898 372.723 163.705 377.19 174.289 380.142C184.873 383.094 195.717 380.552 201.996 381.697C208.899 382.953 211.015 383.763 213.648 379.703C216.281 375.642 218.851 365.508 214.931 362.737C213.11 365.181 208.122 367.776 203.383 362.377C200.109 358.64 198.776 358.143 190.767 360.577C182.757 363.01 167.757 366.538 166.827 369.63Z" fill="black"/>
<path d="M234.122 343.006L241.989 370.073L256.181 369.231L251.813 341.757L234.122 343.006Z" fill="#EFB595"/>
<path d="M214.796 386.712C215.406 389.89 215.545 394.916 226.195 392.244C236.844 389.573 245.208 381.974 251.244 379.868C257.887 377.546 260.121 377.204 260.562 372.334C261.002 367.463 258.595 357.287 253.873 356.797C253.398 359.846 250.21 364.594 243.557 362.197C238.957 360.541 237.562 360.757 231.648 366.877C225.733 372.996 214.192 383.533 214.796 386.712Z" fill="black"/>
<path d="M282.371 184.156L282.191 183.66C282.309 183.613 294.013 179.009 304.58 170.841C310.772 166.053 315.365 160.999 318.233 155.815C321.806 149.36 322.694 142.683 320.88 135.969C319.389 130.454 319.056 119.77 319.898 104.204C320.523 92.627 321.598 82.5367 321.612 82.4359L322.119 82.4972C322.077 82.8968 317.845 122.794 321.373 135.825C323.229 142.683 322.32 149.504 318.674 156.081C315.77 161.33 311.125 166.442 304.874 171.273C294.252 179.484 282.489 184.113 282.371 184.156Z" fill="#FFE7E8"/>
<path d="M369.744 17.3365C368.741 19.4388 367.662 20.5296 366.518 20.5763H366.434C365.047 20.5763 363.659 19.0932 362.865 18.0096V17.2501H347.754C347.579 16.4888 347.212 15.7898 346.689 15.2258C346.166 14.6618 345.507 14.2533 344.781 14.0426V10H343.047V14.0426C342.32 14.2527 341.66 14.6611 341.137 15.2251C340.614 15.7892 340.245 16.4884 340.07 17.2501H325.709H325.688H325.341V17.7973C324.356 19.2372 323.003 20.6771 321.619 20.5763C320.002 20.4468 318.698 18.2112 318.334 17.3616L316.749 18.0816C316.818 18.2436 318.483 22.1135 321.48 22.3619H321.779C323.426 22.3619 325.046 21.2423 326.607 19.0284H339.942C340.119 21.0263 341.395 22.6498 343.064 23.0746V291.363H344.799V23.0746C346.464 22.6498 347.74 21.0263 347.921 19.0284H361.474C362.365 20.2523 364.218 22.3546 366.455 22.3546H366.608C368.433 22.2754 370.014 20.8463 371.319 18.1068L369.744 17.3365Z" fill="#E5E5E5"/>
<path d="M322.604 21.8181H321.126V47.9601H322.604V21.8181Z" fill="#E5E5E5"/>
<path d="M332.8 36.0195H310.567V81.9822H332.8V36.0195Z" fill="#E5E5E5"/>
<path d="M331.343 40.6598H312.024V80.7187H331.343V40.6598Z" fill="#F5F5F5"/>
<path d="M312.024 40.6597C312.024 40.6597 311.33 37.6647 320.305 37.7799C320.339 37.3851 320.522 37.0206 320.815 36.7657C321.107 36.5107 321.485 36.3862 321.866 36.4192C323.343 36.4192 323.055 37.4271 323.42 37.7943C323.784 38.1615 329.882 36.6352 331.343 40.6526L312.024 40.6597Z" fill="#F5F5F5"/>
<path d="M339.744 276.272H316.131C315.455 276.272 314.906 276.841 314.906 277.543V372.564C314.906 373.266 315.455 373.835 316.131 373.835H339.744C340.42 373.835 340.969 373.266 340.969 372.564V277.543C340.969 276.841 340.42 276.272 339.744 276.272Z" fill="#E5E5E5"/>
<path d="M349.232 138.996C325.598 136.739 303.005 146.941 298.777 161.783C294.926 175.753 291.077 189.724 287.228 203.696H225.377C224.753 203.685 224.133 203.802 223.552 204.04C222.971 204.277 222.442 204.631 221.993 205.082C221.544 205.532 221.185 206.07 220.937 206.664C220.688 207.258 220.555 207.897 220.545 208.545C220.551 209.377 220.764 210.193 221.165 210.914C221.566 211.634 222.14 212.234 222.831 212.656L222.799 212.75L221.249 217.595L220.399 220.255L212.191 263.262H215.258L222.89 221.987L224.336 217.476L225.647 213.372H284.561C280.595 227.772 276.628 242.171 272.662 256.57H254.69C253.874 256.57 253.104 257.42 252.442 258.903C252.138 259.593 251.883 260.306 251.679 261.034C251.148 262.954 250.775 264.917 250.562 266.902C250.271 269.401 250.129 271.916 250.135 274.433C250.135 279.364 250.645 283.835 251.47 287.065C252.095 289.527 252.907 291.28 253.819 291.967C254.067 292.172 254.373 292.287 254.69 292.295H354.391C356.906 292.295 358.946 284.3 358.946 274.433C358.982 270.564 358.621 266.702 357.867 262.913L384.366 169.962C388.591 155.109 372.87 141.25 349.232 138.996Z" fill="#E5E5E5"/>
<path d="M291.366 159.44C291.713 162.604 288.417 186.73 287.266 192.043C274.708 191.543 237.091 196.003 228.724 196.039C227.974 196.111 226.479 195.791 224.707 195.319C223.066 194.891 221.186 194.34 219.437 193.879C217.044 193.231 214.9 192.72 213.946 192.868C211.538 193.228 205.09 197.421 204.399 197.972C203.709 198.523 203.092 201.417 202.641 203.926C202.19 206.435 201.843 208.009 202.641 208.052C205.624 208.192 205.794 201.212 207.098 200.733C208.024 200.373 209.457 199.653 210.689 199.466C208.382 201.266 207.612 202.181 207.414 203.188C207.216 204.196 206.98 210.939 207.546 211.108C208.031 211.241 208.933 210.723 209.492 208.995C209.54 209.88 209.637 210.51 209.804 210.554C210.338 210.698 211.07 210.222 211.538 208.088C211.587 208.923 211.684 209.506 211.847 209.549C212.374 209.693 213.096 209.229 213.582 207.155C213.766 207.116 213.96 207.08 214.158 207.033C216.357 206.529 223.666 207.256 225.456 206.824C227.246 206.392 228.203 204.992 230.108 204.121C242.624 204.985 243.078 204.6 257.346 206.457C260.576 206.878 288.99 210.143 297.628 201.623C303.577 197.54 305.19 185.358 305.884 180.11C306.182 177.867 306.473 174.516 306.487 174.235C306.668 170.395 306.85 166.563 307.035 162.737L291.366 159.44ZM213.977 203.865C214.001 203.669 214.063 203.479 214.158 203.307C214.338 202.947 215.292 202 216.281 201.039C216.616 201.191 216.9 201.441 217.099 201.759C217.522 202.663 216.006 203.458 213.977 203.865Z" fill="#EFB595"/>
<path d="M318.753 125.886C328.813 131.023 309.127 156.438 309.436 160.037C309.522 161.027 303.507 176.532 299.265 175.617C294.266 174.538 286.464 174.242 287.085 171.866C290.967 157.01 291.661 144.659 303.296 132.268C306.345 129.018 317.511 125.252 318.753 125.886Z" fill="#FF0008"/>
<path d="M329.088 227.869C328.291 226.804 327.239 225.976 326.037 225.466C324.834 224.956 323.524 224.783 322.237 224.964L236.748 236.451C231.019 237.217 225.554 239.413 220.822 242.851H220.801L220.291 243.211C220.291 243.211 220.267 243.229 220.253 243.24L220.121 243.348C219.483 243.828 218.86 244.341 218.251 244.885L218.206 244.929H218.185C216.655 246.266 215.645 248.135 215.344 250.188C214.92 251.415 214.643 252.692 214.519 253.989C213.388 265.703 199.602 331 196.928 344.705L224.634 352.178C225.019 350.983 235.319 291.089 235.686 289.869C235.759 289.664 236.321 272.82 237.813 265.728C238.188 263.964 238.534 262.226 238.854 260.512C246.1 260.699 252.382 261.041 257.586 261.401C276.707 262.73 290.371 264.951 309.818 261.175C329.265 257.398 332.859 251.84 333.691 250.429C338.333 242.553 332.807 232.923 329.088 227.869Z" fill="black"/>
<path d="M232.536 197.54C228.103 197.54 223.271 197.062 219.33 195.334L219.521 194.862C226.487 197.915 236.366 196.997 241.674 196.507L242.877 196.396C266.237 194.362 268.374 193.57 272.249 192.133C272.783 191.935 273.352 191.723 274.015 191.496C276.488 190.647 276.79 189.826 277.227 188.692C277.72 187.389 278.334 185.769 282.302 183.609L282.531 184.063C278.715 186.132 278.15 187.662 277.674 188.879C277.234 190.049 276.852 191.057 274.16 191.982C273.501 192.209 272.936 192.418 272.405 192.616C268.489 194.056 266.334 194.866 242.919 196.907L241.719 197.015C239.346 197.238 236.068 197.54 232.536 197.54Z" fill="#FFE7E8"/>
<path d="M243.553 195.143C242.787 196.093 242.051 199.131 242.051 199.131L237.84 199.297C237.84 199.297 238.752 196.374 239.574 195.535C240.892 195.323 242.221 195.192 243.553 195.143Z" fill="white"/>
<path d="M224.704 195.327C223.937 195.579 223.223 198.455 223.091 198.995C222.89 198.995 217.842 197.778 217.28 197.573C217.787 194.823 219.434 193.872 219.434 193.872C221.183 194.347 224.537 195.273 224.704 195.327Z" fill="white"/>
<path d="M344.708 236.642C343.057 231.764 339.776 228.827 338.159 227.559C324.977 228.708 248.983 235.526 233.074 245.631H233.046C231.573 246.382 230.323 247.532 229.428 248.96C228.224 250.454 227.076 252.467 227.177 254.778C227.177 254.875 227.177 254.969 227.201 255.062C226.958 256.807 227.005 258.582 227.34 260.311C227.34 260.354 227.34 260.404 227.364 260.447C229.074 269.155 225.002 349.612 229.446 353.435C233.889 357.258 256.424 349.324 256.424 349.324C259.612 349.324 256.736 305.892 255.976 289.869C255.598 283.634 253.742 276.319 253.409 270.826C257.471 270.981 262.373 271.02 268.943 271.366C293.018 272.629 306.897 272.543 329.06 267.899C338.964 265.826 341.573 260.757 343.671 254.616C344.06 253.503 347.772 245.703 344.708 236.642Z" fill="black"/>
<path d="M345.663 247.466C342.048 249.036 324.235 251.448 309.315 247.466C295.641 243.816 285.952 233.377 283.347 230.187C283.895 228.629 301.732 176.499 300.466 173.209C293.587 155.178 298.312 141.491 303.848 135.252C307.189 131.487 319.313 120.594 335.468 123.373C339.141 124.007 348.931 127.333 354.287 131.447C368.645 142.474 362.286 161.877 361.499 171.658C360.711 181.438 357.683 194.988 352.865 213.542C351.398 218.823 350.303 224.208 349.59 229.654C348.841 235.565 345.666 244.543 345.663 247.466Z" fill="#FF0008"/>
<path d="M321.72 114.46V125.842C321.72 125.842 319.035 130.774 321.72 131.311C327.617 132.499 336.137 125.853 336.137 125.853V108.47L321.72 114.46Z" fill="#EFB595"/>
<path d="M318.17 85.2689C318.17 85.2689 312.859 96.0684 311.531 106.112C310.587 113.247 323.627 122.671 334.249 112.613C344.871 102.555 341.919 87.1876 341.919 87.1876L318.17 85.2689Z" fill="#EFB595"/>
<path d="M340.303 103.473C341.434 102.102 344.545 104.128 344.684 103.804C348.472 102.85 352.167 100.205 349.936 97.0367C352.895 94.3548 352.576 90.2726 349.319 87.9579C350.706 85.1285 349.298 82.479 347.397 81.2694C347.82 77.6696 344.216 74.2786 341.559 75.5349C340.883 74.4706 339.895 73.6603 338.742 73.2239C338 72.9318 337.194 72.8656 336.418 73.0331C336.394 72.5473 336.268 72.0728 336.049 71.6431C335.829 71.2133 335.522 70.8386 335.148 70.5455C333.247 68.9652 330.767 69.948 328.716 71.1827C326.933 67.9717 321.817 67.6189 319.281 70.0236C313.054 69.8544 307.802 74.2138 312.038 80.9167C316.794 88.4475 329.084 89.1711 338.346 89.3007C338.346 89.3007 343.21 93.0445 340.303 103.473Z" fill="black"/>
<path d="M319.482 111.803C317.952 111.163 312.974 105.259 311.503 106.144C310.033 107.03 310.196 114.456 312.232 116.818C314.268 119.179 316.592 121.84 318.604 122.56C320.616 123.28 329.299 122.736 330.77 122.268C332.241 121.8 339.893 108.808 340.136 104.841C340.379 100.874 343.213 96.8137 341.645 97.1629C340.077 97.5121 334.589 112.981 332.022 114.032C329.455 115.083 322.198 112.945 319.482 111.803Z" fill="black"/>
<path fill-rule="evenodd" clip-rule="evenodd" d="M304.552 240.447V240.332C304.552 240.296 304.552 240.259 304.552 240.223C304.552 240.188 304.552 240.151 304.552 240.112L304.604 230.518L223.357 230.025L223.298 239.954C223.822 244.712 241.774 248.64 263.861 248.777C285.948 248.913 303.972 245.202 304.552 240.447Z" fill="#F5F5F5"/>
<path d="M304.617 231.151C304.644 226.29 286.479 222.238 264.043 222.1C241.607 221.961 223.396 225.79 223.368 230.651C223.34 235.512 241.506 239.564 263.942 239.702C286.378 239.841 304.589 236.012 304.617 231.151Z" fill="#F5F5F5"/>
<path d="M302.002 230.867C302.024 226.911 285.027 223.599 264.037 223.47C243.048 223.34 226.014 226.443 225.991 230.399C225.969 234.355 242.966 237.667 263.955 237.797C284.945 237.926 301.979 234.824 302.002 230.867Z" fill="#E5E5E5"/>
<path fill-rule="evenodd" clip-rule="evenodd" d="M304.552 227.592V227.477C304.552 227.441 304.552 227.405 304.552 227.369C304.552 227.333 304.552 227.293 304.552 227.257L304.604 217.663L223.368 217.185L223.309 227.113C223.832 231.876 241.784 235.803 263.871 235.936C285.958 236.069 303.972 232.344 304.552 227.592Z" fill="#F5F5F5"/>
<path d="M304.617 218.292C304.645 213.431 286.479 209.378 264.043 209.24C241.607 209.102 223.396 212.931 223.369 217.791C223.341 222.652 241.506 226.705 263.943 226.843C286.379 226.981 304.589 223.153 304.617 218.292Z" fill="#F5F5F5"/>
<path d="M302.002 218.008C302.024 214.051 285.027 210.739 264.037 210.61C243.048 210.481 226.014 213.583 225.991 217.54C225.969 221.496 242.966 224.808 263.955 224.937C284.945 225.066 301.979 221.964 302.002 218.008Z" fill="#E5E5E5"/>
<path fill-rule="evenodd" clip-rule="evenodd" d="M307.296 215.597V215.482C307.296 215.442 307.296 215.406 307.296 215.37V215.262L307.348 205.669L226.098 205.172L226.042 215.1H226.06C226.584 219.859 244.532 223.79 266.622 223.924C288.713 224.057 306.723 220.349 307.296 215.597Z" fill="#F5F5F5"/>
<path d="M307.364 206.298C307.392 201.437 289.226 197.385 266.79 197.247C244.354 197.108 226.143 200.937 226.115 205.798C226.087 210.659 244.253 214.711 266.689 214.849C289.125 214.988 307.336 211.159 307.364 206.298Z" fill="#F5F5F5"/>
<path d="M304.749 206.01C304.771 202.054 287.774 198.742 266.784 198.613C245.795 198.484 228.761 201.586 228.738 205.542C228.716 209.499 245.713 212.811 266.702 212.94C287.692 213.069 304.726 209.967 304.749 206.01Z" fill="#E5E5E5"/>
<path d="M269.803 210.255L268.263 209.233C263.112 209.233 258.331 208.459 256.253 207.073L253.988 205.568L243.869 206.5L242 205.258L259.826 203.617L258.46 202.706L261.433 202.433L262.799 203.343L265.259 203.116L263.892 202.206L266.865 201.932L268.232 202.843L275.891 202.123L280.023 204.87C280.893 205.449 281.126 206.025 280.817 206.558C280.387 207.3 278.92 207.958 276.654 208.441L278.195 209.463L275.222 209.737L273.924 208.876C273.529 208.927 273.126 208.977 272.707 209.013C272.287 209.049 271.857 209.078 271.465 209.099L272.762 209.963L269.803 210.255ZM267.125 204.362L264.666 204.589L269.578 207.854C269.966 207.832 270.403 207.804 270.82 207.768C271.236 207.732 271.638 207.677 272.037 207.627L267.125 204.362ZM260.822 206.565C261.863 207.256 263.83 207.688 266.175 207.84L261.696 204.862L258.675 205.14L260.822 206.58V206.565ZM273.113 203.822L270.098 204.103L274.576 207.08C275.19 206.853 275.617 206.594 275.77 206.31C275.922 206.025 275.815 205.622 275.256 205.251L273.113 203.811" fill="#F8FDFC"/>
<path d="M362.619 170.657L344.355 166.787C344.639 169.39 344.931 188.422 345.149 198.357C342.048 198.555 333.757 200.636 330.205 201.295C319.125 203.347 299.331 206.792 292.286 208.419C288.106 208.081 279.891 206.018 278.011 206.302C275.822 206.637 269.963 210.446 269.339 210.95C268.714 211.454 268.149 214.082 267.739 216.349C267.33 218.617 267.014 220.068 267.739 220.101C269.738 220.198 270.4 217.069 271.087 215.237C270.952 217.257 270.889 221.314 271.306 221.425C271.722 221.537 272.582 221.065 273.075 219.503C273.12 220.306 273.207 220.878 273.359 220.918C273.845 221.047 274.511 220.615 274.941 218.675C274.986 219.434 275.073 219.967 275.222 220.007C275.735 220.144 276.45 219.647 276.877 217.404C277.025 216.694 277.109 215.971 277.13 215.244C278.091 215.964 279.076 216.994 279.61 217.458C281.511 219.107 286.846 219.377 288.473 218.985C289.705 218.686 290.503 217.887 291.568 217.185C297.486 218.193 303.477 217.357 316.69 218.049C319.777 218.211 345.402 219.557 354.307 211.619C355.134 210.896 355.832 210.029 356.371 209.056C360.187 202.969 360.812 193.026 361.464 188.048C361.776 185.787 362.435 174.487 362.619 170.657Z" fill="#EFB595"/>
<path d="M352.514 131.026C362.452 136.163 363.85 152.348 364.156 155.948C364.239 156.938 365.418 179.962 365.033 180.427C363.063 182.867 345.201 182.525 341.465 180.387C337.958 178.382 340.664 166.409 339.713 164.577C334.25 154.022 333.122 133.712 341.482 129.55C345.375 127.624 351.279 130.393 352.514 131.026Z" fill="#FF0008"/>
<path d="M293.986 220.929L293.573 222.21L292.057 226.951L291.367 229.111L290.201 232.75L289.171 235.976L282.594 256.567L280.506 263.083L279.767 265.394L279.486 266.272L271.171 292.292H268.104L276.492 266.06L276.683 265.462L277.498 262.917L279.527 256.567L286.857 233.643L286.999 233.182L288.168 229.543L289.469 225.464L290.455 222.383L290.621 221.864L290.836 221.188L291.204 220.039L291.669 220.187L291.776 220.223L293.986 220.929Z" fill="#E5E5E5"/>
<path d="M293.971 223.034H357.592C358.85 223.057 360.066 222.56 360.971 221.652C361.877 220.745 362.398 219.502 362.421 218.196C362.399 216.89 361.878 215.646 360.972 214.738C360.067 213.83 358.851 213.332 357.592 213.355H293.971C292.712 213.332 291.496 213.83 290.591 214.738C289.685 215.646 289.164 216.89 289.143 218.196C289.165 219.502 289.687 220.745 290.592 221.652C291.498 222.56 292.713 223.057 293.971 223.034Z" fill="#E5E5E5"/>
<path d="M288.917 188.649L288.046 192.511L290.031 192.31L291.703 188.915L288.983 188.739L288.917 188.649Z" fill="white"/>
</g>
<defs>
<clipPath id="clip0_628_11155">
<rect width="385" height="393" fill="white" transform="translate(0.306152)"/>
</clipPath>
</defs>
</svg>
