<svg width="149" height="148" viewBox="0 0 149 148" fill="none" xmlns="http://www.w3.org/2000/svg">
<mask id="mask0_1862_3352" style="mask-type:alpha" maskUnits="userSpaceOnUse" x="19" y="18" width="112" height="111">
<path d="M74.8062 129C105.458 129 130.306 104.152 130.306 73.5C130.306 42.8482 105.458 18 74.8062 18C44.1544 18 19.3062 42.8482 19.3062 73.5C19.3062 104.152 44.1544 129 74.8062 129Z" fill="#FFE7E8"/>
</mask>
<g mask="url(#mask0_1862_3352)">
<path d="M74.8062 129C105.458 129 130.306 104.152 130.306 73.5C130.306 42.8482 105.458 18 74.8062 18C44.1544 18 19.3062 42.8482 19.3062 73.5C19.3062 104.152 44.1544 129 74.8062 129Z" fill="white"/>
<path d="M70.0891 55.482C78.5868 51.7899 90.3801 42.176 80.3147 29.9885C76.7919 25.7216 75.2291 23.8283 70.884 24.316C66.539 24.8036 62.1257 31.1295 60.5213 35.8861C56.8999 32.7931 47.6382 28.436 41.6097 37.7031C41.6097 37.7031 24.1044 20.536 21.6973 36.5723C19.766 49.3987 32.0491 57.1841 37.4587 59.4977L37.8397 59.4549C21.4467 73.3524 -0.893812 141.743 51.3787 135.877L74.3898 133.294C127.186 127.364 88.9732 64.4505 70.0891 55.482Z" fill="#FF454B"/>
<path fill-rule="evenodd" clip-rule="evenodd" d="M92.0435 62.7233C89.0331 60.8586 85.7918 59.3955 82.4019 58.3713C82.444 58.1255 82.4802 57.8749 82.4993 57.6155L82.5155 57.4261L82.4947 57.2408C82.1348 54.0337 80.8413 51.5798 78.3979 50.2463C76.0806 48.9844 73.2347 49.0304 70.4712 49.571C65.8467 50.4812 60.2349 53.051 54.6974 55.8536C55.5834 54.0632 56.1325 52.125 56.3172 50.1359C56.5097 48.3667 56.5785 46.5862 56.523 44.8074C56.4951 44.5587 56.5155 44.3581 56.5147 44.2082L55.9472 44.2128C55.9644 44.3663 55.9512 44.5822 55.9579 44.8333C56.0119 46.5849 55.9454 48.3381 55.759 50.0806C55.4704 52.2834 54.9213 54.6012 53.7805 56.3262L52.2599 57.1024C49.9608 56.1918 47.5975 55.4521 45.1895 54.8895C44.6969 52.8695 44.3973 50.8073 44.2946 48.7306L43.8959 48.711C43.9926 50.7607 44.2785 52.7971 44.7501 54.7941C40.2058 53.7929 35.9283 53.5923 32.3657 54.2708C29.5592 54.8109 27.028 55.9417 25.2623 57.8279C24.3666 58.8095 23.7005 59.978 23.312 61.2487C22.9235 62.5194 22.8225 63.8607 23.0161 65.1753C23.0363 65.3552 23.0559 65.5299 23.0755 65.7045C20.6 67.3406 18.3803 69.3342 16.4887 71.6205C10.2525 79.1799 9.34539 88.0972 9.20428 93.4774L11.4028 93.5362L13.6065 93.5943C13.7379 88.5099 14.6022 80.8354 19.8811 74.4391C21.4157 72.5915 23.2015 70.9678 25.1864 69.6155C25.8394 70.1407 26.5962 70.5215 27.4071 70.7328C29.672 71.336 32.3727 70.8079 34.9741 69.9693C37.6534 69.0549 40.2682 67.9611 42.8007 66.6955C41.0116 69.0572 39.9666 71.8984 39.7991 74.8565L40.3378 74.8818C40.5248 71.6575 41.779 68.587 43.9028 66.1538C46.117 65.064 48.4005 63.8752 50.6764 62.7142C51.744 62.6765 52.8582 62.6568 54.0191 62.6552C56.1691 64.1448 57.7661 67.0578 57.4712 71.6406L58.0099 71.6659C58.2829 67.4124 56.9605 64.4633 54.9943 62.7494C61.3371 64.926 67.1465 65.9783 71.7229 65.738C74.5086 65.5861 77.058 64.9517 78.9867 63.6098C79.5236 63.2465 80.0155 62.8208 80.452 62.3415C83.6568 63.2623 86.7207 64.6169 89.5586 66.3676C97.4794 71.2878 101.628 77.9818 102.779 82.3596L107.261 81.8566C105.817 76.3864 100.874 68.206 92.0435 62.7233ZM28.6005 60.5936C29.5039 59.6187 31.0121 58.8278 33.1789 58.4132C35.9171 57.8862 39.4406 58.0052 43.3654 58.8348C36.9506 59.6458 31.7034 61.2154 27.4195 63.2502C27.5036 62.2572 27.9196 61.3214 28.6005 60.5936V60.5936ZM33.6253 65.9728C32.608 66.3215 31.5587 66.5685 30.4927 66.7102C32.9235 65.6593 35.4471 64.8378 38.0307 64.2566C36.5925 64.9034 35.1221 65.4762 33.6253 65.9728ZM71.5941 61.4867C69.1225 61.564 66.6507 61.3429 64.232 60.8284C67.649 60.5424 71.0866 60.6183 74.4877 61.0548C73.5414 61.3018 72.5713 61.4465 71.5941 61.4867V61.4867ZM62.8471 56.6538C65.5596 55.3694 68.4023 54.3802 71.3262 53.7033C73.6857 53.2402 75.2209 53.4056 76.173 53.915C76.9315 54.3229 77.7065 55.2113 78.024 57.2763C73.0224 56.3298 67.9094 56.1201 62.8471 56.6538V56.6538Z" fill="black"/>
<path d="M47.0994 93.6351L49.9096 93.3197L49.2521 87.4611L57.7569 86.5067C62.0278 86.0273 65.607 88.0747 67.275 91.3816L70.4504 91.0252L70.7058 93.301L68.0331 93.6009C68.112 93.9155 68.1729 94.2343 68.2153 94.5558C68.2451 94.8663 68.2551 95.1784 68.2451 95.4902L70.9178 95.1903L71.1732 97.466L67.9978 97.8224C67.1455 101.45 64.0722 104.244 59.8013 104.723L55.1387 105.246L56.0094 113.005L52.1671 113.436L50.6336 99.7711L47.8234 100.086L47.568 97.8108L50.3782 97.4954L50.1662 95.606L47.356 95.9214L47.0994 93.6351ZM53.4923 90.5758L53.7518 92.8885L62.9711 91.8539C62.333 91.171 61.5389 90.653 60.6568 90.3441C59.7747 90.0353 58.8309 89.9448 57.9061 90.0804L53.4923 90.5758ZM64.1156 94.0298L54.0072 95.1642L54.2193 97.0536L64.3276 95.9192C64.3357 95.6074 64.3239 95.2955 64.2925 94.9853C64.2518 94.6637 64.1928 94.3447 64.1156 94.0298V94.0298ZM63.6939 98.2947L54.4746 99.3293L54.7342 101.642L59.1481 101.147C60.082 101.082 60.9855 100.788 61.7785 100.291C62.5715 99.793 63.2294 99.1075 63.6939 98.2947V98.2947Z" fill="white"/>
</g>
<path d="M41.6098 37.703C37.4164 41.6202 33.7949 47.4441 37.4164 50.5371L32.9579 51.6517C29.255 50.0681 26.8324 53.7665 23.4518 47.1933C21.8937 44.1637 21.0882 40.6188 21.6975 36.5722C24.1046 20.5359 41.6098 37.703 41.6098 37.703Z" fill="#FF454B"/>
<path fill-rule="evenodd" clip-rule="evenodd" d="M118.19 118.085V118.023C118.19 118 118.19 117.982 118.19 117.963C118.19 117.945 118.19 117.923 118.19 117.9L118.22 112.683L72.3394 112.413L72.3062 117.815C72.6022 120.405 82.7365 122.54 95.2055 122.625C107.674 122.71 117.849 120.672 118.19 118.085Z" fill="#F5F5F5"/>
<path d="M118.256 113.072C118.272 110.427 108.017 108.223 95.3523 108.148C82.6872 108.073 72.4074 110.155 72.3917 112.799C72.376 115.444 82.6304 117.648 95.2955 117.723C107.961 117.798 118.24 115.716 118.256 113.072Z" fill="#F5F5F5"/>
<path d="M116.776 112.918C116.789 110.766 107.195 108.965 95.3471 108.894C83.4994 108.824 73.8845 110.511 73.8718 112.663C73.859 114.815 83.4531 116.616 95.3009 116.686C107.149 116.757 116.763 115.069 116.776 112.918Z" fill="#E5E5E5"/>
<path fill-rule="evenodd" clip-rule="evenodd" d="M118.19 111.092V111.029C118.19 111.007 118.19 110.989 118.19 110.97C118.19 110.952 118.19 110.929 118.19 110.907L118.22 105.69L72.3396 105.42L72.3101 110.837C72.6061 113.427 82.7404 115.562 95.2094 115.647C107.678 115.732 117.85 113.675 118.19 111.092Z" fill="#F5F5F5"/>
<path d="M118.256 106.078C118.272 103.434 108.017 101.229 95.3523 101.154C82.6872 101.079 72.4074 103.161 72.3917 105.806C72.376 108.45 82.6304 110.654 95.2955 110.729C107.961 110.805 118.24 108.722 118.256 106.078Z" fill="#F5F5F5"/>
<path d="M116.776 105.924C116.788 103.772 107.194 101.971 95.3466 101.901C83.4989 101.83 73.884 103.518 73.8713 105.669C73.8585 107.821 83.4526 109.622 95.3004 109.693C107.148 109.763 116.763 108.076 116.776 105.924Z" fill="#E5E5E5"/>
<path fill-rule="evenodd" clip-rule="evenodd" d="M118.19 103.848V103.785C118.19 103.763 118.19 103.744 118.19 103.726C118.19 103.707 118.19 103.685 118.19 103.663L118.22 98.4458L72.3396 98.1757L72.3101 103.578C72.6061 106.168 82.7404 108.303 95.2094 108.388C107.678 108.473 117.85 106.43 118.19 103.848Z" fill="#F5F5F5"/>
<path d="M118.256 98.8309C118.272 96.1867 108.017 93.9822 95.3523 93.9071C82.6872 93.8319 72.4074 95.9146 72.3917 98.5587C72.376 101.203 82.6304 103.407 95.2955 103.483C107.961 103.558 118.24 101.475 118.256 98.8309Z" fill="#F5F5F5"/>
<path d="M116.776 98.677C116.789 96.5252 107.195 94.7239 95.3471 94.6536C83.4994 94.5833 73.8845 96.2706 73.8718 98.4224C73.859 100.574 83.4531 102.375 95.3009 102.446C107.149 102.516 116.763 100.829 116.776 98.677Z" fill="#E5E5E5"/>
<path d="M98.4316 100.94L97.5658 100.385C94.6539 100.385 91.9566 99.9627 90.7837 99.2116L89.5072 98.3939L83.7796 98.9008L82.7251 98.2237L92.7854 97.332L92.0158 96.8362L93.6919 96.6882L94.4652 97.184L95.8527 97.0582L95.0794 96.5661L96.7592 96.4144L97.5288 96.9102L101.854 96.5402L104.185 98.0202C104.677 98.3384 104.81 98.6492 104.637 98.9415C104.392 99.3411 103.564 99.7037 102.294 99.9627L103.16 100.521L101.484 100.669L100.744 100.2C100.522 100.229 100.293 100.255 100.056 100.277L99.3566 100.322L100.097 100.792L98.4316 100.94ZM96.922 97.7353L95.5308 97.8574L98.3058 99.6334L99.0051 99.589C99.2419 99.5668 99.4676 99.5409 99.6933 99.5113L96.922 97.7353ZM93.3626 98.9341C93.9472 99.3041 95.0609 99.5446 96.3855 99.626L93.8547 98.0054L92.1527 98.1571L93.3626 98.9341V98.9341ZM100.3 97.4356L98.5981 97.5873L101.125 99.2079C101.388 99.1414 101.624 98.9938 101.799 98.7861C101.906 98.6085 101.825 98.4161 101.51 98.2089L100.3 97.4356Z" fill="#F8FDFC"/>
<path fill-rule="evenodd" clip-rule="evenodd" d="M132.361 123.539L132.413 123.51L132.464 123.48L132.516 123.45L137.023 120.812L113.861 81.2223L109.199 83.9492C107.123 85.5254 110.453 95.3304 116.751 106.094C123.048 116.857 129.971 124.579 132.361 123.539Z" fill="#F5F5F5"/>
<path d="M136.71 121.005C138.993 119.67 135.658 109.726 129.262 98.7938C122.867 87.862 115.832 80.0824 113.549 81.4177C111.267 82.753 114.602 92.6974 120.997 103.629C127.393 114.561 134.428 122.341 136.71 121.005Z" fill="#F5F5F5"/>
<path d="M136.086 119.656C137.943 118.57 134.598 109.399 128.615 99.1723C122.633 88.946 116.277 81.5368 114.419 82.6234C112.562 83.71 115.907 92.8809 121.89 103.107C127.873 113.334 134.228 120.743 136.086 119.656Z" fill="#E5E5E5"/>
<path d="M124.946 96.5403L124.839 97.5652C126.156 100.155 126.985 102.745 126.84 104.147L126.7 105.657L129.719 110.53L129.589 111.777L124.269 103.189L124.176 104.099L123.288 102.667L123.385 101.757L122.645 100.573L122.552 101.483L121.664 100.052L121.757 99.1414L119.474 95.4414L119.759 92.6886C119.821 92.1077 120.04 91.8487 120.38 91.8746C120.846 91.9079 121.538 92.4888 122.345 93.5063L122.452 92.4814L123.34 93.9133L123.248 94.7754C123.373 94.9641 123.499 95.1454 123.618 95.3563C123.736 95.5672 123.866 95.7707 123.988 95.9631L124.076 95.0973L124.946 96.5403ZM122.759 99.3301L123.499 100.518L123.84 97.2396C123.729 97.0509 123.607 96.8363 123.47 96.6365C123.333 96.4367 123.222 96.2443 123.1 96.0556L122.759 99.3301ZM125.431 101.972C125.505 101.28 125.212 100.177 124.691 98.9601L124.376 101.946L125.279 103.4L125.427 101.972H125.431ZM120.968 96.4478L121.89 97.8871L122.201 94.9012C122.024 94.6955 121.787 94.5516 121.523 94.4905C121.313 94.472 121.176 94.6348 121.153 95.0048L121.002 96.4367" fill="#F8FDFC"/>
<path d="M116.543 72.2538C116.657 72.9585 116.92 73.6307 117.314 74.2259C117.709 74.8211 118.225 75.3256 118.829 75.7059C118.884 75.7373 118.928 75.7846 118.955 75.8414C118.982 75.8982 118.991 75.9619 118.981 76.0241L118.959 76.1906C118.952 76.253 118.927 76.312 118.887 76.3602C118.847 76.4083 118.793 76.4433 118.733 76.4607C118.047 76.6908 117.416 77.0622 116.882 77.551C116.348 78.0398 115.922 78.6351 115.632 79.2986C115.603 79.3628 115.555 79.4172 115.496 79.4552C115.436 79.4932 115.367 79.5133 115.296 79.5132C115.226 79.4995 115.161 79.4638 115.113 79.4112C115.064 79.3586 115.034 79.292 115.026 79.2209C114.926 78.4751 114.656 77.7624 114.236 77.1385C113.815 76.5145 113.256 75.9964 112.602 75.6245C112.548 75.5927 112.505 75.5453 112.478 75.4886C112.45 75.4319 112.441 75.3684 112.45 75.3063V75.2656C112.458 75.203 112.484 75.1441 112.525 75.0961C112.565 75.0481 112.619 75.0131 112.68 74.9955C113.395 74.7923 114.057 74.4344 114.619 73.9472C115.181 73.4601 115.63 72.8555 115.932 72.1761C115.959 72.1145 116.007 72.064 116.067 72.033C116.127 72.0021 116.195 71.9925 116.261 72.0059C116.326 72.0184 116.386 72.048 116.436 72.0916C116.485 72.1352 116.522 72.1911 116.543 72.2538ZM120.202 108.181C120.136 108.169 120.068 108.179 120.008 108.21C119.949 108.241 119.901 108.29 119.873 108.351C119.569 109.031 119.12 109.636 118.558 110.124C117.995 110.611 117.333 110.97 116.617 111.174C116.557 111.191 116.503 111.225 116.463 111.273C116.423 111.32 116.398 111.379 116.391 111.44V111.485C116.383 111.547 116.393 111.611 116.421 111.667C116.449 111.724 116.492 111.771 116.546 111.803C117.201 112.174 117.76 112.692 118.18 113.316C118.6 113.94 118.869 114.654 118.966 115.399C118.976 115.47 119.007 115.536 119.057 115.588C119.106 115.64 119.17 115.675 119.24 115.688C119.31 115.688 119.378 115.668 119.437 115.631C119.496 115.593 119.543 115.54 119.573 115.477C119.863 114.813 120.289 114.216 120.823 113.727C121.358 113.237 121.99 112.866 122.677 112.636C122.737 112.618 122.79 112.584 122.83 112.537C122.871 112.489 122.896 112.431 122.903 112.369L122.925 112.199C122.933 112.137 122.923 112.074 122.896 112.018C122.869 111.961 122.827 111.914 122.773 111.881C122.169 111.501 121.652 110.998 121.257 110.403C120.862 109.809 120.598 109.137 120.483 108.432C120.463 108.369 120.427 108.312 120.377 108.268C120.328 108.224 120.267 108.194 120.202 108.181ZM86.6207 109.091C86.5853 109.096 86.5527 109.113 86.5285 109.139C86.5042 109.166 86.4897 109.2 86.4876 109.235C86.458 109.627 86.3433 110.007 86.1516 110.349C85.9599 110.692 85.6957 110.989 85.3776 111.218C85.35 111.237 85.3288 111.264 85.3169 111.295C85.305 111.326 85.3029 111.36 85.3109 111.392V111.415C85.318 111.447 85.3343 111.477 85.3579 111.501C85.3816 111.524 85.4115 111.541 85.4441 111.548C85.8368 111.615 86.2084 111.773 86.5296 112.008C86.8507 112.244 87.1124 112.551 87.2941 112.906C87.3104 112.94 87.3373 112.967 87.3706 112.985C87.404 113.002 87.442 113.008 87.4791 113.002C87.5148 112.99 87.5463 112.968 87.5693 112.938C87.5924 112.909 87.6061 112.873 87.6087 112.835C87.6354 112.453 87.7417 112.081 87.9208 111.743C88.0998 111.405 88.3476 111.108 88.6483 110.871C88.6741 110.851 88.6937 110.824 88.7048 110.793C88.716 110.762 88.7182 110.729 88.7113 110.697V110.608C88.7049 110.576 88.6893 110.546 88.6663 110.522C88.6433 110.498 88.6139 110.482 88.5818 110.475C88.2126 110.394 87.8649 110.235 87.5618 110.009C87.2588 109.783 87.0074 109.496 86.8243 109.165C86.8024 109.133 86.771 109.108 86.7345 109.095C86.6979 109.082 86.6581 109.08 86.6207 109.091Z" fill="#FFE145"/>
<path d="M102.823 85.2761C102.858 85.2419 102.904 85.2208 102.953 85.2165C103.006 85.212 103.059 85.2236 103.105 85.25C103.151 85.2764 103.187 85.3163 103.21 85.3642C103.409 85.8437 103.708 86.2753 104.086 86.6301C104.465 86.985 104.916 87.2549 105.407 87.4218C105.451 87.4318 105.491 87.4544 105.523 87.4868C105.554 87.5191 105.576 87.56 105.584 87.6042L105.597 87.7267C105.602 87.7723 105.593 87.8183 105.573 87.8593C105.552 87.9004 105.521 87.9349 105.482 87.9589C105.035 88.2371 104.65 88.6059 104.354 89.0415C104.058 89.4771 103.856 89.97 103.761 90.4883C103.75 90.5383 103.724 90.5839 103.687 90.6197C103.65 90.6555 103.604 90.68 103.553 90.6904C103.501 90.6915 103.45 90.6765 103.407 90.6476C103.363 90.6186 103.33 90.5771 103.311 90.5285C103.117 90.0166 102.807 89.5568 102.404 89.1856C102.002 88.8144 101.519 88.542 100.993 88.39C100.95 88.3757 100.912 88.3491 100.884 88.3136C100.855 88.278 100.838 88.235 100.834 88.1899L100.816 88.1716C100.81 88.1269 100.818 88.0815 100.839 88.0413C100.859 88.0012 100.891 87.9682 100.931 87.9466C101.402 87.6813 101.81 87.3164 102.126 86.8774C102.442 86.4383 102.658 85.9356 102.76 85.4044C102.765 85.3556 102.788 85.3103 102.823 85.2761Z" fill="#FFE145"/>
<path d="M124.974 82.0089C125.003 81.989 125.038 81.9794 125.074 81.9816C125.106 81.9844 125.136 81.9949 125.163 82.0123C125.19 82.0297 125.212 82.0535 125.228 82.0814C125.334 82.4437 125.517 82.779 125.763 83.065C126.01 83.3509 126.314 83.581 126.657 83.7396C126.687 83.753 126.712 83.7749 126.729 83.8026C126.747 83.8302 126.756 83.8624 126.755 83.895L126.766 83.9831C126.767 84.0164 126.758 84.0492 126.74 84.0774C126.723 84.1055 126.697 84.1277 126.667 84.1411C126.321 84.3075 126.014 84.5444 125.766 84.8365C125.518 85.1287 125.334 85.4696 125.225 85.8373C125.214 85.8732 125.193 85.905 125.164 85.9287C125.135 85.9523 125.1 85.9666 125.063 85.9697C125.026 85.9674 124.99 85.9533 124.962 85.9294C124.933 85.9054 124.913 85.873 124.904 85.8368C124.802 85.4523 124.612 85.0966 124.35 84.7972C124.088 84.4979 123.76 84.2631 123.392 84.1109C123.362 84.0963 123.337 84.0738 123.319 84.0459C123.301 84.0179 123.291 83.9855 123.29 83.9522L123.287 83.9302C123.287 83.897 123.297 83.8645 123.315 83.837C123.334 83.8094 123.36 83.7879 123.391 83.7754C123.752 83.6221 124.074 83.3921 124.337 83.1012C124.6 82.8104 124.796 82.4658 124.912 82.0915C124.923 82.0578 124.945 82.0288 124.974 82.0089Z" fill="#FFD600"/>
</svg>
