<svg width="360" height="120" viewBox="0 0 360 120" fill="none" xmlns="http://www.w3.org/2000/svg">
<g clip-path="url(#clip0_1643_16388)">
<rect width="360" height="120" fill="#F5F5F5"/>
<path fill-rule="evenodd" clip-rule="evenodd" d="M124.891 105.595C123.329 99.4102 121.768 93.2254 120.207 87.0408C120.128 86.5526 120.008 86.086 119.854 85.6396C119.827 85.5326 119.8 85.4257 119.773 85.3187C119.78 85.347 119.779 85.3826 119.775 85.4194C118.632 82.3977 115.816 80.3651 112.304 79.3108C112.903 78.8204 113.423 78.2361 113.84 77.5789C114.455 76.6125 114.846 75.4899 114.941 74.2844C114.942 74.2822 114.944 74.2799 114.946 74.2777C115.771 73.869 116.34 73.021 116.342 72.0379C117.056 70.5332 117.456 68.8505 117.456 67.0742C117.456 60.6724 112.267 55.4827 105.865 55.4827C103.84 55.4827 101.937 56.0024 100.28 56.9148C99.2812 55.6895 97.7602 54.9067 96.0559 54.9067C93.0464 54.9067 90.6066 57.3464 90.6066 60.356C90.6066 62.7786 92.1881 64.831 94.3745 65.5396C94.3081 66.0418 94.2733 66.5539 94.2733 67.0742C94.2733 71.4887 96.7413 75.3264 100.372 77.2839V77.9637L94.4581 78.9016C90.4458 79.4947 87.1555 81.5231 85.6685 84.6452L85.6561 84.6032L75.6327 104.555C74.2761 107.256 75.1638 110.544 77.6948 112.195C79.3575 113.279 81.3835 113.43 83.1247 112.742L82.3025 124.527H85.6511H117.818L118.62 113.038C119.044 113.221 119.521 113.31 119.929 113.336C121.58 113.441 123.263 112.738 124.349 111.49C126.342 109.199 125.535 108.149 124.891 105.595Z" fill="#E5E5E5"/>
<path fill-rule="evenodd" clip-rule="evenodd" d="M132.383 90.2658C132.443 90.6772 132.439 91.0953 132.377 91.5059L131.357 91.7483C131.709 91.2622 132.028 90.7448 132.383 90.2658ZM155.377 109.157L158.047 108.392L156.807 103.065C155.005 97.1129 152.555 94.7374 151.264 93.8525C151.027 93.6708 150.763 93.5202 150.476 93.4081C150.415 93.3824 150.382 93.3719 150.382 93.3719L150.382 93.375C150.331 93.357 150.282 93.3375 150.23 93.322L144.5 91.6073L143.686 91.3637C144.235 91.1215 144.757 90.8202 145.24 90.4442C147.319 88.8284 148.267 86.116 148.546 83.4973C148.654 82.4572 148.576 81.4201 148.47 80.3816C148.486 80.2977 148.496 80.2115 148.496 80.1229C148.496 79.9339 148.457 79.7539 148.387 79.5904C148.32 78.9657 148.258 78.3397 148.235 77.7118C148.17 76.007 147.755 74.2944 147.42 73.1613C147.386 73.043 147.35 72.9248 147.312 72.807C147.123 72.2036 146.981 71.8354 146.981 71.8354C146.947 71.8005 146.912 71.7681 146.876 71.7366C146.468 70.9148 145.896 70.1453 145.1 69.5138C142.516 67.4633 138.89 67.0867 135.672 67.8684C135.827 67.6285 135.951 67.3669 136.037 67.0884L136.135 67.0465C136.104 67.0532 136.074 67.0609 136.043 67.0678C136.131 66.7767 136.179 66.4682 136.179 66.1482C136.179 64.3934 134.756 62.9707 133.001 62.9707C131.247 62.9707 129.824 64.3934 129.824 66.1482C129.824 67.3753 130.52 68.4392 131.538 68.9686C131.469 69.0135 131.399 69.0586 131.331 69.1049L131.589 68.9943C131.836 69.1173 132.101 69.2094 132.38 69.2646C131.764 69.6898 131.223 70.2064 130.809 70.8339C130.783 70.8679 130.753 70.9159 130.722 70.9736C130.341 71.5954 130.096 72.2898 129.961 73.0101C129.712 73.778 129.493 74.5087 129.409 74.7629C128.642 77.1216 128.152 79.5767 127.141 81.8429C126.136 84.1078 124.503 86.2385 122.186 87.1352C123.011 88.3551 124.123 89.3381 125.386 90.1072C125.65 90.2652 125.917 90.4169 126.192 90.5564C127.607 89.717 128.812 88.5212 129.638 87.0958C129.289 88.6019 128.511 90.001 127.442 91.1092C127.962 91.3196 128.495 91.49 129.028 91.6336C129.51 91.7624 129.995 91.8686 130.483 91.9563L128.477 92.4333C127.984 92.5512 127.536 92.7645 127.149 93.0499V93.0496C127.149 93.0496 122.781 95.5148 120.765 103.065L119.524 108.392L122.194 109.157L119.524 124.804L119.923 124.926L120.523 125.109L123.617 126.053L127.003 112.876L127.991 125.188H149.9L150.908 114.198L153.954 126.053L154.893 125.767L158.047 124.804L155.377 109.157Z" fill="#C5C5C5"/>
<path fill-rule="evenodd" clip-rule="evenodd" d="M281.255 83.6712L271.537 80.4333L268.578 79.4481L267.649 69.862L267.782 67.7782C268.481 67.7512 269.047 67.1856 269.062 66.4775C269.076 65.8446 268.645 65.3066 268.057 65.1581L268.722 62.7768C268.912 62.2816 269.077 61.7768 269.179 61.2914C269.397 60.238 269.407 59.1214 269.048 58.1117C268.688 57.0972 267.931 56.1992 266.926 55.8156C265.921 55.4321 264.684 55.636 263.95 56.4224C263.63 55.5244 262.616 55.0875 261.683 54.903C259.431 54.4563 257.018 54.9078 255.082 56.1312C253.324 57.2427 251.921 58.9758 249.936 59.5972C250.645 60.7622 251.693 61.7039 252.897 62.335C253.173 62.478 253.476 62.6159 253.795 62.7428L253.941 71.4769C253.98 74.0666 255.78 76.228 258.199 76.8182V80.2843L255.969 81.3216L248.774 84.6664C246.643 85.6567 245.342 87.8557 245.503 90.2003L247.852 125.064H281.891L285.119 89.5742C285.357 86.9479 283.755 84.5061 281.255 83.6712Z" fill="#E5E5E5"/>
<path fill-rule="evenodd" clip-rule="evenodd" d="M248.006 108.478L253.296 116.334L246.108 123.171L248.006 108.478ZM261.923 116.954C261.926 116.932 261.928 116.909 261.93 116.887C261.932 116.856 261.934 116.825 261.935 116.793C261.937 116.772 261.938 116.75 261.939 116.729C261.94 116.695 261.94 116.662 261.94 116.629C261.94 116.609 261.941 116.59 261.941 116.57C261.94 116.531 261.939 116.492 261.937 116.454C261.936 116.439 261.936 116.425 261.935 116.411C261.932 116.358 261.928 116.305 261.923 116.252C261.922 116.24 261.92 116.228 261.918 116.216C261.914 116.175 261.909 116.134 261.903 116.093C261.9 116.074 261.897 116.055 261.893 116.036C261.888 116.002 261.882 115.969 261.876 115.935C261.872 115.914 261.867 115.892 261.862 115.871C261.856 115.84 261.849 115.808 261.841 115.777C261.837 115.758 261.832 115.738 261.826 115.718C261.825 115.714 261.824 115.709 261.823 115.705C261.815 115.677 261.807 115.648 261.799 115.62C261.793 115.598 261.786 115.576 261.779 115.554C261.772 115.53 261.765 115.507 261.757 115.484C261.754 115.477 261.752 115.471 261.75 115.464C261.742 115.442 261.734 115.42 261.726 115.398C261.715 115.368 261.704 115.338 261.692 115.308C261.685 115.289 261.677 115.271 261.67 115.252C261.668 115.247 261.666 115.243 261.664 115.239C261.652 115.21 261.639 115.181 261.626 115.152C261.617 115.132 261.608 115.112 261.599 115.093C261.59 115.074 261.581 115.056 261.571 115.037C261.564 115.023 261.557 115.01 261.55 114.996C261.55 114.995 261.549 114.994 261.549 114.993C261.54 114.976 261.532 114.96 261.523 114.943C261.497 114.894 261.47 114.845 261.441 114.796L255.605 105.005L255.896 105.719L251.179 97.9979C251.107 97.8763 251.028 97.761 250.944 97.6507C252.789 97.4049 254.588 96.804 256.197 95.8654C253.997 95.1744 252.602 93.0288 251.67 90.92C251.21 89.879 250.806 88.7938 250.326 87.759L251.921 88.9229C251.866 88.8448 251.813 88.766 251.761 88.687C250.95 87.4522 250.353 86.0693 249.386 84.9521C247.987 83.3359 245.834 82.4104 243.701 82.4762C244.61 80.8745 245.126 79.0215 245.119 77.0481C245.098 71.0069 240.184 66.1266 234.143 66.1475C228.101 66.1686 223.221 71.0829 223.242 77.1241C223.26 82.1854 226.712 86.431 231.384 87.6631L231.386 88.2132L227.862 89.5597L223.717 91.1423C223.13 91.3659 222.612 91.6998 222.178 92.1128L222.157 91.9424C222.157 91.9424 217.789 94.4077 215.773 101.958L214.533 107.285L216.066 107.724L213.34 123.697L214.163 123.948L214.138 124.096L218.231 125.345L222.3 109.51L222.442 109.551L224.746 128.303L245.454 128.23L245.533 127.622L246.512 128.698L260.347 119.572C260.347 119.572 260.347 119.572 260.347 119.572C260.352 119.569 260.356 119.566 260.36 119.563C260.362 119.562 260.364 119.56 260.366 119.559C261.214 118.991 261.742 118.117 261.894 117.177C261.896 117.169 261.898 117.162 261.899 117.154C261.901 117.14 261.902 117.126 261.904 117.112C261.908 117.09 261.911 117.067 261.914 117.045C261.917 117.015 261.92 116.984 261.923 116.954Z" fill="#C5C5C5"/>
<path fill-rule="evenodd" clip-rule="evenodd" d="M179.567 32.7264C181.855 31.9598 184.623 31.9024 184.785 31.4141C184.785 31.4141 185.014 29.9467 182.196 30.4497C179.765 30.8846 179.678 30.8536 179.743 29.0142C179.743 29.0142 176.504 31.287 175.431 33.2027C174.624 34.6438 175.865 35.9292 176.055 35.6343C177.52 33.3595 179.033 32.9049 179.567 32.7264Z" fill="#FAC7AC"/>
<path fill-rule="evenodd" clip-rule="evenodd" d="M208.271 33.7887C206.027 32.902 203.266 32.6979 203.13 32.2017C203.13 32.2017 202.979 30.7243 205.766 31.3759C208.171 31.939 208.667 31.8534 208.7 30.0132C208.7 30.0132 211.406 32.5137 212.376 34.4835C213.106 35.9654 211.798 37.1832 211.624 36.8786C210.282 34.5293 208.794 33.9952 208.271 33.7887Z" fill="#FAC7AC"/>
<path fill-rule="evenodd" clip-rule="evenodd" d="M174.544 71.7634C177.783 79.4022 185.968 85.5881 194.066 83.7835C200.822 82.278 208.087 74.6427 211.349 68.5381C211.349 68.5381 225.187 81.0742 211.219 95.4125C210.595 96.0532 209.757 96.5005 209.322 97.2829C208.875 98.089 208.819 99.047 208.773 99.9681C208.148 112.498 207.62 124.488 209.174 136.949C201.436 138.012 193.664 139.076 185.854 138.991C178.043 138.905 170.134 137.626 163.111 134.208C162.828 123.402 164.763 113.221 165.167 102.443C165.393 96.378 165.604 92.8999 162.833 87.2084C162.833 87.2084 156.175 70.1084 174.544 71.7634Z" fill="#FF454B"/>
<path fill-rule="evenodd" clip-rule="evenodd" d="M185.733 79.1295V85.4797C185.733 85.4797 184.232 88.2324 185.733 88.5322C189.032 89.1932 193.794 85.4854 193.794 85.4854V75.7891L185.733 79.1295Z" fill="#FAC7AC"/>
<path fill-rule="evenodd" clip-rule="evenodd" d="M183.754 62.8413C183.754 62.8413 180.784 68.861 180.042 74.4709C179.515 78.4531 186.805 83.7072 192.744 78.0993C198.682 72.4914 197.032 63.9122 197.032 63.9122L183.754 62.8413Z" fill="#FAC7AC"/>
<path fill-rule="evenodd" clip-rule="evenodd" d="M196.123 72.9999C196.755 72.2328 198.496 73.3653 198.572 73.1836C200.69 72.6518 202.756 71.1827 201.508 69.408C203.163 67.9119 202.985 65.6327 201.163 64.3416C201.949 62.7641 201.153 61.2852 200.088 60.6106C200.325 58.6039 198.31 56.7095 196.825 57.4113C196.459 56.8467 195.938 56.381 195.25 56.1219C194.769 55.9422 194.343 55.9287 193.951 56.0135C193.919 55.5072 193.721 55.0239 193.241 54.6258C192.177 53.7444 190.791 54.2932 189.644 54.9815C188.647 53.1914 185.787 52.994 184.368 54.3357C180.888 54.2409 177.953 56.6728 180.321 60.4134C182.978 64.6159 189.85 65.0181 195.029 65.0916C195.029 65.0916 197.748 67.1794 196.123 72.9999Z" fill="black"/>
<path fill-rule="evenodd" clip-rule="evenodd" d="M184.482 77.6468C183.627 77.2882 180.844 73.9952 180.015 74.4883C179.187 74.9816 179.285 79.126 180.422 80.4442C181.558 81.7625 182.86 83.246 183.986 83.6478C185.112 84.0495 189.964 83.7467 190.786 83.4849C191.608 83.2232 195.887 75.9752 196.02 73.7618C196.154 71.5485 197.74 69.2826 196.863 69.477C195.987 69.6714 192.918 78.303 191.483 78.8906C190.048 79.4781 185.999 78.2826 184.482 77.6468Z" fill="black"/>
<path fill-rule="evenodd" clip-rule="evenodd" d="M206.048 101.247C211.386 103.782 224.557 73.723 224.339 70.6448C223.833 63.5021 215.798 58.9829 208.642 63.2411C201.485 67.4994 201.296 98.9905 206.048 101.247Z" fill="#FF454B"/>
<path fill-rule="evenodd" clip-rule="evenodd" d="M170.656 95.9506C165.125 98.0339 154.496 66.9848 154.968 63.9353C156.065 56.8592 164.448 53.0227 171.226 57.8604C178.004 62.6979 175.579 94.0962 170.656 95.9506Z" fill="#FF454B"/>
<path fill-rule="evenodd" clip-rule="evenodd" d="M170.001 38.5564C170.247 37.4964 173.313 30.9365 173.313 30.9365C176.611 32.4127 176.217 33.7232 176.217 33.7232L173.644 64.6944C172.425 69.5187 165.998 73.4717 162.706 71.9929C159.411 70.5112 158.242 64.0166 159.459 59.1896L170.001 38.5564Z" fill="#FAC7AC"/>
<path fill-rule="evenodd" clip-rule="evenodd" d="M216.518 43.2398C216.508 42.1518 214.939 35.083 214.939 35.083C211.399 35.8086 211.499 37.1732 211.499 37.1732L207.292 67.9652C207.435 72.9389 212.852 78.192 216.386 77.4626C219.924 76.731 222.474 70.6448 222.333 65.6688L216.518 43.2398Z" fill="#FAC7AC"/>
<path fill-rule="evenodd" clip-rule="evenodd" d="M180.809 28.6128C178.019 27.1051 175.358 24.3941 175.654 22.1464C175.837 20.7525 177.12 19.7676 178.514 19.9507C178.857 19.9959 179.42 20.2644 179.979 20.7146C179.923 20.7128 179.867 20.7111 179.809 20.7089C179.868 20.7111 179.923 20.7134 179.98 20.7157C180.66 21.2639 181.333 22.082 181.599 23.0972C181.63 23.3114 181.664 23.5237 181.699 23.7342C181.497 23.8722 181.182 23.9893 180.721 24.1407C181.166 23.9945 181.484 23.9021 181.726 23.8878C181.94 25.1037 182.231 26.2561 182.583 27.3412C182.585 27.3457 182.586 27.3502 182.588 27.3547C182.613 27.4313 182.638 27.5075 182.663 27.5834C183.077 28.8503 183.579 30.0441 184.161 31.152C183.358 30.215 182.169 29.3472 180.809 28.6128ZM209.483 21.365C210.888 21.3097 212.076 22.4074 212.131 23.8122C212.221 26.0775 209.324 28.5347 206.408 29.7816C204.916 30.4195 203.598 31.2207 202.708 32.1346C204.072 30.0791 205.239 27.5813 205.991 24.6759V24.6776C205.993 24.669 205.995 24.6604 205.997 24.6517C206.013 24.5907 206.028 24.5294 206.043 24.4681C206.594 22.514 208.682 21.3967 209.483 21.365ZM202.657 53.106L202.656 53.1057L202.656 53.105C202.657 53.0906 202.654 53.0759 202.65 53.061L202.04 48.3087C202.055 47.9817 200.832 47.6323 198.887 47.3439L198.928 46.4402C198.935 46.2966 198.436 46.1415 197.598 45.9992C195.804 44.8856 193.231 41.0266 197.173 37.6597C198.724 36.7245 200.349 35.2856 201.818 33.3787C201.613 33.8148 201.51 34.2677 201.531 34.7341C201.531 34.7341 201.583 35.4665 202.208 35.8237C202.802 36.1632 203.6 35.8755 203.856 35.6149C204.109 35.3582 204.073 35.0722 203.949 34.8298L203.614 34.814C203.706 35.0424 203.737 35.3535 203.32 35.4881C202.271 35.8269 202.115 34.7612 202.115 34.7612C202.128 32.4533 204.824 31.5308 207.299 30.3553C210.602 28.7864 214.017 27.1642 213.883 23.7429C213.789 21.3729 211.784 19.5207 209.414 19.6139C208.403 19.6539 207.451 20.051 206.713 20.7121C206.775 20.1392 206.822 19.5543 206.852 18.9573C206.852 18.956 206.853 18.9546 206.853 18.9532C206.885 18.2542 201.198 17.4265 194.15 17.1045C187.102 16.7828 181.363 17.0886 181.331 17.7878C181.331 17.7898 181.332 17.7919 181.332 17.794C181.308 18.383 181.301 18.9615 181.311 19.5299C180.639 18.8174 179.735 18.344 178.743 18.2133C178.546 18.1875 178.351 18.1766 178.158 18.1776C178.157 18.1776 178.156 18.1776 178.155 18.1775C178.087 18.178 178.019 18.1801 177.951 18.1837C177.948 18.1838 177.946 18.1839 177.943 18.1841C177.877 18.1878 177.811 18.193 177.745 18.1997C177.741 18.2002 177.737 18.2005 177.733 18.2009C177.668 18.2076 177.605 18.2159 177.541 18.2256C177.536 18.2264 177.53 18.227 177.525 18.2279C177.463 18.2376 177.401 18.2486 177.34 18.2609C177.333 18.2623 177.326 18.2636 177.319 18.265C177.259 18.2773 177.2 18.291 177.141 18.3057C177.133 18.3077 177.125 18.3097 177.117 18.3116C177.059 18.3265 177.002 18.3426 176.945 18.3597C176.936 18.3626 176.927 18.3653 176.918 18.3681C176.862 18.3852 176.807 18.4036 176.752 18.4229C176.742 18.4265 176.732 18.4302 176.722 18.4338C176.669 18.4531 176.616 18.4734 176.564 18.4948C176.553 18.4994 176.541 18.5041 176.53 18.5087C176.479 18.5301 176.429 18.5522 176.379 18.5755C176.366 18.5812 176.354 18.5869 176.342 18.5926C176.294 18.6157 176.245 18.6396 176.198 18.6645C176.185 18.6713 176.172 18.6783 176.158 18.6853C176.112 18.71 176.067 18.7353 176.022 18.7616C176.007 18.7699 175.993 18.7785 175.979 18.7869C175.936 18.8129 175.892 18.8395 175.85 18.867C175.835 18.8767 175.82 18.8866 175.805 18.8964C175.764 18.9238 175.723 18.9516 175.683 18.9803C175.668 18.9915 175.652 19.003 175.637 19.0144C175.598 19.0428 175.56 19.0715 175.522 19.1013C175.506 19.114 175.49 19.1272 175.474 19.1402C175.437 19.1695 175.402 19.1992 175.366 19.2297C175.35 19.2442 175.333 19.2591 175.317 19.2738C175.283 19.3039 175.249 19.3341 175.217 19.3653C175.2 19.3817 175.183 19.3985 175.166 19.4151C175.135 19.4458 175.104 19.4766 175.073 19.5081C175.056 19.5265 175.039 19.5451 175.022 19.5636C174.993 19.5947 174.964 19.6258 174.936 19.6579C174.919 19.678 174.902 19.6986 174.885 19.7191C174.858 19.7507 174.832 19.7823 174.806 19.8146C174.789 19.8365 174.772 19.8589 174.755 19.8812C174.731 19.9131 174.706 19.9449 174.683 19.9773C174.666 20.0015 174.649 20.0261 174.633 20.0505C174.611 20.0825 174.589 20.1142 174.568 20.1468C174.551 20.1727 174.535 20.1993 174.519 20.2257C174.499 20.2576 174.479 20.2895 174.46 20.322C174.444 20.35 174.428 20.3786 174.413 20.407C174.395 20.4391 174.377 20.4709 174.36 20.5036C174.345 20.5335 174.33 20.5641 174.315 20.5943C174.3 20.6264 174.284 20.658 174.269 20.6904C174.254 20.7224 174.241 20.7552 174.227 20.7876C174.213 20.8193 174.199 20.8507 174.187 20.8828C174.173 20.9171 174.16 20.9519 174.148 20.9867C174.136 21.0179 174.124 21.0487 174.113 21.0803C174.1 21.1174 174.089 21.155 174.077 21.1925C174.068 21.2226 174.058 21.2524 174.049 21.2828C174.037 21.3232 174.027 21.3645 174.017 21.4055C174.01 21.4337 174.001 21.4616 173.995 21.4902C173.984 21.5372 173.974 21.5853 173.965 21.6331C173.96 21.656 173.955 21.6787 173.95 21.7017C173.937 21.7731 173.926 21.845 173.916 21.9179C173.899 22.051 173.889 22.1812 173.883 22.3099C173.881 22.3462 173.88 22.3822 173.879 22.4182C173.877 22.52 173.877 22.6203 173.881 22.7194C173.883 22.7473 173.883 22.7754 173.884 22.803C173.892 22.9241 173.904 23.0433 173.921 23.1605C173.926 23.1903 173.932 23.2195 173.937 23.249C173.952 23.3404 173.97 23.4306 173.991 23.5195C173.999 23.5536 174.007 23.5877 174.016 23.6213C174.045 23.7329 174.078 23.8434 174.116 23.9516C174.12 23.9642 174.126 23.9763 174.13 23.989C174.166 24.0863 174.205 24.1821 174.247 24.2766C174.262 24.3105 174.277 24.3442 174.293 24.3778C174.331 24.4584 174.372 24.5382 174.415 24.6168C174.429 24.6427 174.442 24.6691 174.456 24.6947C174.512 24.7933 174.572 24.8903 174.635 24.9862C174.654 25.0163 174.675 25.0459 174.696 25.0756C174.744 25.1466 174.794 25.2168 174.846 25.2862C174.87 25.3176 174.893 25.3493 174.918 25.3805C174.989 25.4717 175.062 25.5621 175.139 25.6507C175.156 25.6706 175.175 25.69 175.193 25.7099C175.257 25.7825 175.323 25.8543 175.391 25.9255C175.422 25.9571 175.452 25.9886 175.483 26.0198C175.549 26.0858 175.615 26.1511 175.684 26.2157C175.708 26.2392 175.732 26.2629 175.757 26.2861C175.846 26.369 175.938 26.4507 176.032 26.5316C176.065 26.56 176.098 26.588 176.132 26.6161C176.201 26.675 176.272 26.7336 176.344 26.7916C176.379 26.8192 176.413 26.8468 176.447 26.8741C176.547 26.9528 176.648 27.031 176.751 27.1082C176.776 27.1264 176.801 27.1441 176.825 27.1622C176.912 27.2261 176.999 27.2894 177.088 27.3523C177.105 27.3644 177.121 27.377 177.138 27.3891C177.138 27.3887 177.137 27.3876 177.137 27.3871C177.991 27.9891 178.935 28.5489 179.87 29.103C182.228 30.499 184.828 31.6636 184.631 33.9627C184.631 33.9627 184.379 35.0098 183.365 34.5769C182.962 34.4049 183.021 34.0974 183.133 33.8789L182.798 33.8636C182.653 34.0938 182.59 34.3757 182.819 34.6544C183.051 34.9371 183.819 35.296 184.441 35.0126C185.096 34.7134 185.214 33.9892 185.214 33.9892C185.271 33.5786 185.229 33.1696 185.104 32.7662C185.765 33.7847 186.5 34.7117 187.301 35.5357C187.313 35.5481 187.325 35.5606 187.337 35.573C187.345 35.5812 187.353 35.5896 187.361 35.5979C187.973 36.2383 188.597 36.7908 189.216 37.2523C189.579 37.6552 190.744 39.0456 191.021 40.5476L191.021 40.5474C191.432 42.8997 189.99 44.8484 188.482 45.5384C187.398 45.5984 186.725 45.7176 186.717 45.883L186.676 46.7885C184.726 46.8989 183.485 47.1349 183.471 47.4605L182.429 52.1376C182.424 52.152 182.421 52.1664 182.42 52.1813H182.42L182.42 52.1817C182.39 52.8351 186.881 53.879 192.47 54.1338C198.058 54.3891 202.626 53.759 202.657 53.106Z" fill="#F9D649"/>
<path fill-rule="evenodd" clip-rule="evenodd" d="M169.206 23.2707C169.25 23.3038 169.285 23.3512 169.3 23.4092C169.339 23.5467 169.258 23.6889 169.12 23.7268L163.99 25.1446C163.852 25.1829 163.71 25.1021 163.672 24.9647C163.634 24.827 163.715 24.685 163.852 24.6468L168.983 23.229C169.063 23.2072 169.144 23.225 169.206 23.2707Z" fill="#F9D649"/>
<path fill-rule="evenodd" clip-rule="evenodd" d="M169.845 20.237C169.92 20.2927 169.963 20.3879 169.946 20.4867C169.923 20.6277 169.791 20.7228 169.65 20.6997L158.314 18.8377C158.174 18.8152 158.078 18.6819 158.101 18.5413C158.125 18.4005 158.257 18.305 158.398 18.3282L169.734 20.1902C169.776 20.1971 169.813 20.2136 169.845 20.237Z" fill="#F9D649"/>
<path fill-rule="evenodd" clip-rule="evenodd" d="M175.534 8.36006C175.577 8.39176 175.61 8.43722 175.627 8.49234L177.176 13.5849C177.217 13.7213 177.14 13.8653 177.004 13.9069C176.867 13.9481 176.724 13.8715 176.682 13.7349L175.133 8.64258C175.091 8.50609 175.168 8.36204 175.305 8.3203C175.386 8.29552 175.47 8.31311 175.534 8.36006Z" fill="#F9D649"/>
<path fill-rule="evenodd" clip-rule="evenodd" d="M168.439 4.5483C168.471 4.57171 168.498 4.60317 168.517 4.64107L173.617 14.934C173.681 15.0618 173.628 15.2166 173.501 15.28C173.373 15.3432 173.218 15.2914 173.155 15.1632L168.054 4.87034C167.991 4.74252 168.043 4.58769 168.171 4.52452C168.261 4.47993 168.364 4.49256 168.439 4.5483Z" fill="#F9D649"/>
<path fill-rule="evenodd" clip-rule="evenodd" d="M163.851 11.5481L171.046 16.8689C171.16 16.9536 171.184 17.1154 171.099 17.2301C171.015 17.3447 170.853 17.3689 170.739 17.2842L163.544 11.9634C163.429 11.8785 163.405 11.717 163.49 11.6023C163.574 11.4877 163.736 11.4633 163.851 11.5481Z" fill="#F9D649"/>
<path fill-rule="evenodd" clip-rule="evenodd" d="M210.221 14.4402C210.17 14.4815 210.107 14.5073 210.036 14.5088C209.869 14.5131 209.73 14.3812 209.726 14.2137L209.57 7.97335C209.565 7.80588 209.698 7.66741 209.865 7.6632C210.032 7.65874 210.171 7.79053 210.175 7.95836L210.331 14.1986C210.334 14.2955 210.29 14.3829 210.221 14.4402Z" fill="#F9D649"/>
<path fill-rule="evenodd" clip-rule="evenodd" d="M213.491 16.0294C213.406 16.0994 213.286 16.1209 213.178 16.074C213.024 16.0076 212.954 15.8296 213.02 15.6759L218.359 3.30694C218.424 3.15298 218.603 3.08287 218.756 3.14877C218.91 3.21516 218.981 3.39352 218.915 3.54723L213.576 15.9158C213.556 15.9616 213.527 16 213.491 16.0294Z" fill="#F9D649"/>
<path fill-rule="evenodd" clip-rule="evenodd" d="M225.389 25.8757C225.341 25.9155 225.279 25.9407 225.212 25.9441L218.977 26.2602C218.811 26.2683 218.668 26.1399 218.66 25.9728C218.652 25.8058 218.78 25.6643 218.947 25.6551L225.181 25.3392C225.348 25.3309 225.491 25.4594 225.499 25.6265C225.504 25.7259 225.46 25.8167 225.389 25.8757Z" fill="#F9D649"/>
<path fill-rule="evenodd" clip-rule="evenodd" d="M231.741 18.8865C231.706 18.916 231.662 18.938 231.614 18.9484L218.453 21.8279C218.29 21.8641 218.129 21.7602 218.093 21.5969C218.057 21.4338 218.16 21.2719 218.324 21.2365L231.484 18.3567C231.648 18.3208 231.809 18.4244 231.845 18.5877C231.87 18.7028 231.826 18.8165 231.741 18.8865Z" fill="#F9D649"/>
<path fill-rule="evenodd" clip-rule="evenodd" d="M225.08 11.677L216.982 18.3521C216.853 18.4584 216.662 18.44 216.556 18.311C216.45 18.182 216.468 17.9911 216.597 17.8848L224.695 11.2097C224.824 11.1034 225.015 11.1219 225.121 11.2509C225.227 11.3799 225.209 11.5707 225.08 11.677Z" fill="#F9D649"/>
<path fill-rule="evenodd" clip-rule="evenodd" d="M212.116 37.7929C212.116 37.7929 211.774 35.1136 209.462 33.1113C209.687 28.8267 212.446 29.5016 211.332 25.6288C211.005 24.4882 212.619 26.4958 212.908 27.3748C213.51 29.2051 214.504 30.8102 215.05 33.4296C215.05 33.4296 215.222 36.6748 213.884 37.1657C213.884 37.1657 213.684 37.6326 212.116 37.7929Z" fill="#FAC7AC"/>
<path fill-rule="evenodd" clip-rule="evenodd" d="M209.209 26.9176C209.735 26.6992 210.049 27.1861 210.792 28.3273L210.997 30.1271C211.34 30.78 211.191 31.4857 210.665 31.7027C210.139 31.9212 209.434 31.5686 209.092 30.9161L209.656 29.0546C209.314 28.4024 208.683 27.1351 209.209 26.9176Z" fill="#FAC7AC"/>
<path fill-rule="evenodd" clip-rule="evenodd" d="M207.987 27.8216C208.465 27.5218 208.825 27.9755 209.675 29.0384L210.533 31.8555C210.941 32.4748 210.885 33.2202 210.407 33.5203C209.93 33.8194 209.211 33.5602 208.804 32.9411L208.675 29.9484C208.266 29.3286 207.51 28.1219 207.987 27.8216Z" fill="#FAC7AC"/>
<path fill-rule="evenodd" clip-rule="evenodd" d="M211.315 25.0686C211.757 24.9954 211.94 25.3925 212.375 26.3229L213.346 28.576C213.53 29.0966 213.916 31.0718 213.474 31.1435C213.033 31.2162 212.525 30.8538 212.34 30.3342L211.387 26.6635C211.202 26.1436 210.873 25.1407 211.315 25.0686Z" fill="#FAC7AC"/>
<path fill-rule="evenodd" clip-rule="evenodd" d="M210.187 25.927C210.748 25.7849 211.017 26.294 211.655 27.4909L212.713 30.4073C212.994 31.0806 212.766 31.7417 212.204 31.8831C211.643 32.0255 210.96 31.5953 210.679 30.9223L210.414 28.0442C210.134 27.3711 209.625 26.0697 210.187 25.927Z" fill="#FAC7AC"/>
<path fill-rule="evenodd" clip-rule="evenodd" d="M175.651 35.9524C175.651 35.9524 176.228 33.3139 178.707 31.5235C178.862 27.2357 176.054 27.6644 177.505 23.9052C177.933 22.7978 176.147 24.6552 175.782 25.5051C175.021 27.2752 173.888 28.7862 173.114 31.3473C173.114 31.3473 172.656 34.5646 173.945 35.1716C173.945 35.1716 174.103 35.6543 175.651 35.9524Z" fill="#FAC7AC"/>
<path fill-rule="evenodd" clip-rule="evenodd" d="M179.507 25.3769C179.002 25.1128 178.646 25.57 177.805 26.6413L177.442 28.416C177.043 29.036 177.129 29.7519 177.634 30.0146C178.138 30.2787 178.871 29.9899 179.27 29.3701L178.872 27.4659C179.271 26.8466 180.011 25.64 179.507 25.3769Z" fill="#FAC7AC"/>
<path fill-rule="evenodd" clip-rule="evenodd" d="M180.644 26.3848C180.194 26.0441 179.796 26.4642 178.855 27.4479L177.752 30.1782C177.29 30.7591 177.281 31.5066 177.73 31.8476C178.179 32.1877 178.918 31.9929 179.379 31.4122L179.771 28.4428C180.233 27.8614 181.093 26.7262 180.644 26.3848Z" fill="#FAC7AC"/>
<path fill-rule="evenodd" clip-rule="evenodd" d="M177.572 23.3487C177.138 23.2367 176.92 23.6161 176.406 24.5047L175.239 26.6631C175.01 27.1652 174.451 29.0988 174.885 29.2093C175.318 29.3207 175.856 29.0045 176.086 28.5032L177.36 24.9312C177.59 24.4295 178.006 23.4596 177.572 23.3487Z" fill="#FAC7AC"/>
<path fill-rule="evenodd" clip-rule="evenodd" d="M178.62 24.3034C178.073 24.1123 177.761 24.5957 177.019 25.7315L175.709 28.5432C175.369 29.1891 175.537 29.8676 176.084 30.0581C176.632 30.2495 177.35 29.8812 177.689 29.2358L178.207 26.3922C178.545 25.7466 179.167 24.495 178.62 24.3034Z" fill="#FAC7AC"/>
</g>
<defs>
<clipPath id="clip0_1643_16388">
<rect width="360" height="120" fill="white"/>
</clipPath>
</defs>
</svg>
