<svg width="1200" height="318" viewBox="0 0 1200 318" fill="none" xmlns="http://www.w3.org/2000/svg">
<g clip-path="url(#clip0_1643_13845)">
<path fill-rule="evenodd" clip-rule="evenodd" d="M427.709 303.718C422.837 285.388 417.965 267.056 413.092 248.725C412.844 247.278 412.471 245.896 411.989 244.572C411.905 244.255 411.82 243.938 411.736 243.621C411.758 243.705 411.754 243.811 411.744 243.92C408.176 234.963 399.388 228.939 388.426 225.814C390.297 224.361 391.919 222.629 393.22 220.681C395.14 217.816 396.359 214.489 396.655 210.916C396.661 210.91 396.667 210.903 396.672 210.896C399.248 209.685 401.024 207.172 401.029 204.258C403.258 199.798 404.507 194.81 404.507 189.545C404.507 170.571 388.31 155.189 368.329 155.189C362.01 155.189 356.07 156.729 350.901 159.434C347.782 155.802 343.035 153.482 337.716 153.482C328.323 153.482 320.709 160.713 320.709 169.633C320.709 176.814 325.644 182.897 332.468 184.997C332.261 186.486 332.152 188.004 332.152 189.545C332.152 202.63 339.855 214.005 351.188 219.807V221.821L332.729 224.601C320.206 226.359 309.937 232.371 305.297 241.625L305.258 241.5L273.975 300.638C269.741 308.641 272.511 318.387 280.411 323.28C285.6 326.495 291.923 326.941 297.357 324.902L294.791 359.834H305.242H405.636L408.137 325.779C409.463 326.323 410.952 326.587 412.224 326.664C417.377 326.975 422.631 324.891 426.019 321.191C432.238 314.402 429.721 311.289 427.709 303.718Z" fill="#F5F5F5"/>
<path fill-rule="evenodd" clip-rule="evenodd" d="M451.094 258.284C451.281 259.503 451.27 260.742 451.075 261.959L447.894 262.678C448.992 261.237 449.986 259.703 451.094 258.284ZM522.86 314.276L531.193 312.009L527.322 296.219C521.697 278.578 514.053 271.537 510.022 268.914C509.283 268.376 508.46 267.929 507.564 267.597C507.373 267.521 507.27 267.49 507.27 267.49L507.269 267.499C507.111 267.446 506.957 267.388 506.795 267.342L488.913 262.26L486.372 261.538C488.086 260.82 489.715 259.927 491.222 258.812C497.709 254.023 500.669 245.984 501.54 238.222C501.878 235.139 501.634 232.066 501.303 228.987C501.354 228.739 501.382 228.483 501.382 228.221C501.382 227.661 501.261 227.127 501.043 226.643C500.836 224.791 500.642 222.935 500.568 221.074C500.366 216.021 499.07 210.945 498.024 207.587C497.92 207.236 497.808 206.886 497.688 206.537C497.098 204.748 496.654 203.657 496.654 203.657C496.551 203.554 496.441 203.458 496.327 203.364C495.053 200.928 493.268 198.648 490.785 196.776C482.721 190.698 471.403 189.582 461.361 191.899C461.844 191.188 462.231 190.413 462.5 189.587L462.805 189.463C462.709 189.483 462.614 189.506 462.518 189.526C462.793 188.663 462.942 187.749 462.942 186.801C462.942 181.599 458.502 177.383 453.025 177.383C447.548 177.383 443.108 181.599 443.108 186.801C443.108 190.438 445.28 193.591 448.458 195.16C448.241 195.293 448.024 195.427 447.81 195.564L448.615 195.236C449.387 195.601 450.215 195.874 451.085 196.037C449.163 197.298 447.473 198.829 446.182 200.689C446.1 200.789 446.008 200.932 445.911 201.103C444.72 202.946 443.958 205.004 443.535 207.139C442.759 209.415 442.075 211.58 441.813 212.334C439.42 219.325 437.891 226.602 434.736 233.319C431.596 240.032 426.5 246.347 419.271 249.005C421.846 252.621 425.314 255.534 429.258 257.813C430.08 258.282 430.914 258.732 431.773 259.145C436.188 256.657 439.951 253.113 442.528 248.888C441.438 253.352 439.011 257.499 435.674 260.783C437.298 261.407 438.961 261.912 440.624 262.338C442.127 262.72 443.64 263.034 445.165 263.294L438.904 264.708C437.365 265.057 435.966 265.69 434.759 266.535V266.535C434.759 266.535 421.126 273.841 414.834 296.219L410.963 312.009L419.296 314.276L410.963 360.653L412.208 361.014L414.08 361.556L423.736 364.355L434.304 325.299L437.387 361.79H505.767L508.912 329.217L518.42 364.355L521.348 363.506L531.193 360.653L522.86 314.276Z" fill="#E5E5E5"/>
<path fill-rule="evenodd" clip-rule="evenodd" d="M915.725 238.737L885.394 229.141L876.159 226.22L873.26 197.808L873.676 191.632C875.857 191.552 877.622 189.875 877.67 187.776C877.713 185.901 876.37 184.306 874.533 183.866L876.611 176.808C877.202 175.34 877.717 173.844 878.034 172.405C878.717 169.283 878.747 165.973 877.625 162.981C876.504 159.974 874.141 157.312 871.004 156.175C867.869 155.038 864.005 155.643 861.717 157.974C860.718 155.312 857.551 154.017 854.642 153.47C847.612 152.146 840.082 153.484 834.037 157.11C828.552 160.405 824.174 165.542 817.978 167.384C820.19 170.837 823.462 173.628 827.22 175.498C828.079 175.922 829.027 176.331 830.022 176.707L830.477 202.594C830.6 210.27 836.216 216.676 843.767 218.425V228.699L836.806 231.774L814.352 241.687C807.701 244.622 803.641 251.14 804.141 258.089L811.474 361.425H917.71L927.785 256.234C928.527 248.449 923.527 241.212 915.725 238.737Z" fill="#F5F5F5"/>
<path fill-rule="evenodd" clip-rule="evenodd" d="M811.955 312.263L828.467 335.548L806.031 355.813L811.955 312.263ZM855.392 337.385C855.399 337.319 855.406 337.253 855.412 337.186C855.419 337.094 855.425 337.002 855.43 336.909C855.433 336.845 855.437 336.781 855.44 336.717C855.443 336.619 855.444 336.521 855.445 336.423C855.445 336.364 855.446 336.305 855.446 336.246C855.444 336.131 855.44 336.017 855.434 335.902C855.432 335.86 855.432 335.818 855.43 335.775C855.42 335.618 855.407 335.462 855.391 335.305C855.387 335.269 855.381 335.233 855.377 335.197C855.362 335.076 855.347 334.955 855.328 334.834C855.32 334.777 855.308 334.72 855.299 334.664C855.282 334.564 855.264 334.465 855.244 334.366C855.231 334.302 855.216 334.239 855.202 334.175C855.181 334.083 855.16 333.99 855.136 333.898C855.121 333.839 855.105 333.781 855.09 333.723C855.085 333.709 855.082 333.696 855.078 333.682C855.055 333.599 855.03 333.515 855.005 333.432C854.984 333.366 854.963 333.3 854.941 333.235C854.919 333.166 854.896 333.097 854.872 333.029C854.865 333.009 854.857 332.989 854.849 332.968C854.826 332.903 854.802 332.838 854.777 332.773C854.743 332.684 854.707 332.596 854.67 332.508C854.647 332.452 854.624 332.396 854.6 332.34C854.594 332.327 854.589 332.314 854.583 332.301C854.544 332.215 854.504 332.13 854.463 332.045C854.435 331.986 854.408 331.927 854.379 331.868C854.351 331.813 854.322 331.759 854.293 331.704C854.272 331.663 854.25 331.623 854.228 331.581C854.226 331.578 854.224 331.575 854.223 331.572C854.196 331.523 854.171 331.474 854.144 331.425C854.062 331.279 853.976 331.134 853.885 330.99L835.673 301.968L836.58 304.085L821.86 281.201C821.634 280.84 821.386 280.498 821.124 280.172C826.885 279.443 832.498 277.662 837.519 274.88C830.653 272.832 826.301 266.473 823.392 260.222C821.956 257.137 820.695 253.92 819.196 250.853L824.174 254.303C824.004 254.071 823.837 253.838 823.675 253.604C821.144 249.944 819.28 245.845 816.262 242.534C811.897 237.743 805.177 235 798.519 235.195C801.356 230.448 802.967 224.956 802.946 219.107C802.88 201.201 787.542 186.736 768.688 186.798C749.833 186.86 734.601 201.426 734.667 219.332C734.722 234.333 745.497 246.917 760.079 250.569L760.085 252.199L749.087 256.19L736.148 260.881C734.318 261.544 732.701 262.533 731.348 263.757L731.28 263.253C731.28 263.253 717.647 270.559 711.356 292.937L707.485 308.727L712.269 310.029L703.764 357.371L706.332 358.116L706.254 358.554L719.027 362.256L731.726 315.322L732.17 315.442L739.36 371.022L803.992 370.806L804.238 369.004L807.294 372.193L850.472 345.145C850.473 345.145 850.473 345.144 850.473 345.144C850.487 345.135 850.5 345.127 850.513 345.119C850.519 345.115 850.524 345.11 850.531 345.106C853.179 343.424 854.826 340.833 855.301 338.047C855.306 338.024 855.312 338.002 855.316 337.978C855.323 337.937 855.327 337.895 855.333 337.854C855.343 337.788 855.352 337.721 855.361 337.655C855.373 337.565 855.383 337.475 855.392 337.385Z" fill="#E5E5E5"/>
<path fill-rule="evenodd" clip-rule="evenodd" d="M598.351 87.74C605.493 85.4679 614.13 85.2975 614.638 83.8503C614.638 83.8503 615.351 79.5011 606.557 80.992C598.971 82.2809 598.7 82.1891 598.902 76.7371C598.902 76.7371 588.792 83.4737 585.444 89.1515C582.924 93.423 586.798 97.2329 587.39 96.3588C591.963 89.6163 596.686 88.269 598.351 87.74Z" fill="#FAC7AC"/>
<path fill-rule="evenodd" clip-rule="evenodd" d="M687.94 90.8881C680.934 88.2599 672.318 87.6549 671.892 86.1842C671.892 86.1842 671.423 81.8053 680.121 83.7367C687.625 85.4056 689.174 85.1519 689.276 79.6976C689.276 79.6976 697.723 87.109 700.75 92.9473C703.027 97.3395 698.947 100.949 698.404 100.046C694.214 93.0831 689.572 91.5001 687.94 90.8881Z" fill="#FAC7AC"/>
<path fill-rule="evenodd" clip-rule="evenodd" d="M582.677 203.443C592.787 226.084 618.332 244.418 643.607 239.069C664.693 234.607 687.367 211.977 697.548 193.883C697.548 193.883 740.736 231.039 697.141 273.537C695.192 275.436 692.577 276.762 691.221 279.081C689.825 281.47 689.65 284.31 689.506 287.04C687.556 324.179 685.91 359.717 690.757 396.65C666.607 399.798 642.35 402.952 617.975 402.7C593.6 402.447 568.914 398.655 546.994 388.526C546.112 356.497 552.151 326.32 553.411 294.374C554.119 276.399 554.775 266.09 546.126 249.221C546.126 249.221 525.349 198.537 582.677 203.443Z" fill="#FF454B"/>
<path fill-rule="evenodd" clip-rule="evenodd" d="M617.597 225.276V244.098C617.597 244.098 612.912 252.257 617.597 253.145C627.892 255.104 642.756 244.115 642.756 244.115V215.375L617.597 225.276Z" fill="#FAC7AC"/>
<path fill-rule="evenodd" clip-rule="evenodd" d="M611.419 176.999C611.419 176.999 602.152 194.841 599.835 211.468C598.191 223.271 620.943 238.844 639.477 222.223C658.011 205.601 652.862 180.173 652.862 180.173L611.419 176.999Z" fill="#FAC7AC"/>
<path fill-rule="evenodd" clip-rule="evenodd" d="M650.026 207.108C651.997 204.834 657.429 208.191 657.668 207.652C664.277 206.076 670.726 201.722 666.832 196.462C671.997 192.027 671.441 185.272 665.755 181.445C668.207 176.769 665.722 172.386 662.401 170.387C663.14 164.439 656.85 158.824 652.216 160.904C651.073 159.231 649.447 157.85 647.299 157.082C645.797 156.55 644.469 156.51 643.245 156.761C643.146 155.26 642.527 153.828 641.031 152.648C637.709 150.035 633.384 151.662 629.803 153.702C626.693 148.397 617.767 147.811 613.338 151.788C602.475 151.507 593.314 158.715 600.705 169.802C609 182.258 630.445 183.45 646.611 183.668C646.611 183.668 655.095 189.856 650.026 207.108Z" fill="black"/>
<path fill-rule="evenodd" clip-rule="evenodd" d="M613.694 220.882C611.024 219.819 602.339 210.059 599.753 211.52C597.166 212.982 597.472 225.266 601.02 229.173C604.568 233.081 608.632 237.478 612.145 238.668C615.658 239.859 630.803 238.962 633.368 238.186C635.934 237.41 649.288 215.927 649.704 209.367C650.12 202.807 655.07 196.091 652.335 196.667C649.599 197.243 640.022 222.827 635.542 224.569C631.063 226.31 618.429 222.766 613.694 220.882Z" fill="black"/>
<path fill-rule="evenodd" clip-rule="evenodd" d="M680.998 290.831C697.66 298.345 738.766 209.251 738.085 200.128C736.507 178.957 711.429 165.562 689.094 178.183C666.76 190.805 666.168 284.143 680.998 290.831Z" fill="#FF454B"/>
<path fill-rule="evenodd" clip-rule="evenodd" d="M570.542 275.132C553.281 281.307 520.105 189.279 521.581 180.241C525.004 159.268 551.167 147.896 572.321 162.235C593.475 176.573 585.906 269.636 570.542 275.132Z" fill="#FF454B"/>
<path fill-rule="evenodd" clip-rule="evenodd" d="M568.5 105.02C569.267 101.878 578.834 82.4352 578.834 82.4352C589.128 86.8105 587.9 90.6946 587.9 90.6946L579.868 182.491C576.064 196.79 556.006 208.507 545.732 204.124C535.448 199.732 531.798 180.483 535.597 166.176L568.5 105.02Z" fill="#FAC7AC"/>
<path fill-rule="evenodd" clip-rule="evenodd" d="M713.679 118.902C713.648 115.677 708.749 94.7253 708.749 94.7253C697.701 96.8759 698.013 100.92 698.013 100.92L684.884 192.186C685.33 206.928 702.235 222.498 713.265 220.336C724.309 218.167 732.268 200.128 731.828 185.38L713.679 118.902Z" fill="#FAC7AC"/>
<path fill-rule="evenodd" clip-rule="evenodd" d="M602.23 75.5478C593.523 71.0789 585.218 63.0438 586.141 56.3817C586.713 52.2501 590.717 49.3312 595.067 49.8738C596.137 50.0078 597.893 50.8037 599.638 52.1378C599.463 52.1326 599.29 52.1275 599.109 52.1209C599.291 52.1275 599.465 52.1345 599.642 52.1411C601.765 53.7659 603.866 56.1908 604.693 59.1997C604.791 59.8348 604.896 60.464 605.009 61.0877C604.377 61.4967 603.393 61.844 601.956 62.2926C603.344 61.8594 604.335 61.5856 605.09 61.543C605.76 65.147 606.669 68.5626 607.767 71.7786C607.772 71.7922 607.776 71.8054 607.781 71.8186C607.858 72.0459 607.937 72.2716 608.017 72.4967C609.308 76.2516 610.874 79.7899 612.692 83.0737C610.185 80.2965 606.473 77.7244 602.23 75.5478ZM691.723 54.0654C696.106 53.9016 699.814 57.155 699.987 61.3189C700.267 68.0331 691.227 75.316 682.126 79.0118C677.47 80.9025 673.354 83.2773 670.578 85.9859C674.836 79.8936 678.476 72.4903 680.823 63.8788V63.8839C680.829 63.8582 680.837 63.8329 680.843 63.8072C680.892 63.6262 680.94 63.4445 680.987 63.2628C682.705 57.4711 689.223 54.1593 691.723 54.0654ZM670.416 148.144L670.415 148.143L670.415 148.141C670.417 148.098 670.409 148.055 670.396 148.01L668.492 133.925C668.538 132.956 664.721 131.92 658.652 131.065L658.781 128.387C658.801 127.961 657.243 127.501 654.628 127.08C649.03 123.779 641 112.341 653.301 102.362C658.141 99.5901 663.214 95.3253 667.797 89.6732C667.159 90.9658 666.836 92.3084 666.904 93.6906C666.904 93.6906 667.066 95.8613 669.016 96.9201C670.869 97.9264 673.359 97.0736 674.16 96.3011C674.951 95.5405 674.836 94.6928 674.451 93.9743L673.404 93.9274C673.69 94.6043 673.787 95.5265 672.486 95.9256C669.213 96.9296 668.726 93.771 668.726 93.771C668.767 86.9305 677.18 84.1962 684.904 80.7122C695.213 76.0619 705.873 71.2538 705.452 61.1132C705.159 54.0888 698.903 48.5989 691.506 48.8753C688.351 48.9939 685.378 50.1709 683.075 52.1302C683.27 50.4323 683.417 48.6988 683.51 46.9292C683.51 46.9252 683.514 46.9212 683.514 46.9171C683.614 44.8451 665.863 42.392 643.867 41.4375C621.87 40.4841 603.959 41.3905 603.859 43.4629C603.858 43.4688 603.863 43.475 603.863 43.4813C603.787 45.2269 603.766 46.9417 603.797 48.6264C601.698 46.5144 598.879 45.1113 595.78 44.724C595.167 44.6476 594.559 44.6153 593.957 44.6182C593.953 44.6182 593.95 44.6182 593.947 44.6179C593.733 44.6193 593.52 44.6256 593.308 44.6362C593.301 44.6366 593.293 44.637 593.285 44.6373C593.077 44.6483 592.872 44.6638 592.666 44.6836C592.654 44.6851 592.641 44.6862 592.628 44.6873C592.428 44.7071 592.229 44.7317 592.031 44.7603C592.013 44.7629 591.996 44.7647 591.979 44.7673C591.786 44.7959 591.593 44.8286 591.402 44.8649C591.381 44.8693 591.359 44.873 591.338 44.8771C591.151 44.9138 590.965 44.9541 590.781 44.9978C590.756 45.0037 590.731 45.0096 590.707 45.0155C590.527 45.0595 590.348 45.1072 590.17 45.1579C590.142 45.1663 590.113 45.1744 590.085 45.1829C589.911 45.2335 589.739 45.2879 589.569 45.3451C589.537 45.3558 589.505 45.3668 589.474 45.3774C589.308 45.4347 589.143 45.4949 588.98 45.5584C588.945 45.572 588.909 45.586 588.874 45.5995C588.715 45.6631 588.558 45.7284 588.402 45.7974C588.364 45.8143 588.326 45.8312 588.288 45.8481C588.137 45.9167 587.986 45.9876 587.837 46.0614C587.796 46.0816 587.756 46.1021 587.715 46.1231C587.571 46.1961 587.429 46.271 587.288 46.3492C587.244 46.3738 587.199 46.3991 587.155 46.4241C587.019 46.5012 586.885 46.5801 586.752 46.6616C586.705 46.6903 586.659 46.7196 586.613 46.7486C586.485 46.8298 586.357 46.9124 586.232 46.9972C586.183 47.0306 586.135 47.0647 586.087 47.0985C585.966 47.1826 585.846 47.2677 585.729 47.3558C585.678 47.3936 585.628 47.4326 585.577 47.4711C585.465 47.5581 585.353 47.6462 585.243 47.7365C585.19 47.7795 585.139 47.8235 585.088 47.8672C584.983 47.9564 584.878 48.046 584.776 48.1385C584.722 48.187 584.67 48.2369 584.617 48.2861C584.519 48.3772 584.423 48.4682 584.328 48.5618C584.273 48.6162 584.221 48.6712 584.167 48.7263C584.077 48.8184 583.988 48.9106 583.901 49.0057C583.846 49.0651 583.793 49.1264 583.739 49.187C583.657 49.2806 583.574 49.3743 583.494 49.4701C583.44 49.535 583.388 49.6015 583.335 49.6676C583.259 49.7619 583.183 49.8563 583.111 49.9525C583.057 50.0241 583.006 50.0971 582.953 50.1694C582.885 50.2641 582.816 50.3581 582.75 50.4547C582.697 50.5314 582.648 50.6103 582.597 50.6885C582.535 50.7833 582.473 50.8776 582.414 50.9742C582.363 51.0571 582.315 51.1419 582.266 51.226C582.211 51.3211 582.155 51.4154 582.102 51.5123C582.054 51.6008 582.009 51.6915 581.963 51.7811C581.914 51.8762 581.864 51.9698 581.818 52.066C581.772 52.1607 581.73 52.258 581.687 52.3542C581.644 52.4481 581.601 52.541 581.561 52.6361C581.518 52.7378 581.479 52.8409 581.439 52.9441C581.403 53.0366 581.365 53.128 581.331 53.2217C581.292 53.3314 581.257 53.443 581.22 53.5543C581.191 53.6435 581.159 53.7316 581.132 53.8219C581.095 53.9416 581.064 54.0638 581.031 54.1853C581.008 54.269 580.983 54.3516 580.962 54.4364C580.928 54.5759 580.898 54.7184 580.869 54.8601C580.854 54.928 580.837 54.9952 580.824 55.0635C580.783 55.2749 580.748 55.4882 580.718 55.7041C580.663 56.0988 580.632 56.4846 580.613 56.866C580.607 56.9736 580.605 57.0804 580.601 57.1869C580.593 57.4887 580.596 57.786 580.608 58.0797C580.612 58.1623 580.612 58.2457 580.618 58.3275C580.64 58.6866 580.68 59.0397 580.733 59.387C580.747 59.4755 580.765 59.5622 580.781 59.6495C580.829 59.9205 580.886 60.1877 580.951 60.4513C580.976 60.5523 581.001 60.6532 581.029 60.7531C581.12 61.0839 581.221 61.4113 581.34 61.7318C581.354 61.7693 581.371 61.8052 581.385 61.8427C581.496 62.1312 581.617 62.415 581.748 62.6951C581.795 62.7957 581.844 62.8956 581.894 62.9951C582.013 63.2341 582.139 63.4705 582.273 63.7036C582.316 63.7803 582.357 63.8585 582.402 63.9345C582.576 64.2268 582.763 64.5142 582.959 64.7984C583.021 64.8876 583.086 64.9753 583.15 65.0634C583.301 65.2738 583.457 65.4819 583.62 65.6875C583.694 65.7808 583.767 65.8747 583.843 65.9673C584.065 66.2375 584.294 66.5055 584.534 66.7679C584.588 66.8271 584.645 66.8843 584.7 66.9434C584.901 67.1586 585.108 67.3715 585.321 67.5826C585.415 67.6762 585.511 67.7694 585.608 67.862C585.812 68.0576 586.02 68.2511 586.233 68.4427C586.31 68.5121 586.385 68.5826 586.463 68.6513C586.741 68.8969 587.028 69.1392 587.32 69.3789C587.423 69.463 587.527 69.5459 587.631 69.6293C587.849 69.804 588.071 69.9777 588.295 70.1495C588.402 70.2313 588.508 70.3132 588.616 70.394C588.927 70.6275 589.243 70.8591 589.566 71.0878C589.641 71.1418 589.719 71.1943 589.795 71.2479C590.066 71.4373 590.339 71.6249 590.616 71.8114C590.669 71.8474 590.72 71.8845 590.773 71.9205C590.773 71.9193 590.77 71.916 590.769 71.9146C593.435 73.6988 596.381 75.3581 599.299 77.0003C606.657 81.1381 614.772 84.5897 614.158 91.4041C614.158 91.4041 613.37 94.5078 610.206 93.2247C608.95 92.7148 609.132 91.8036 609.484 91.156L608.437 91.1105C607.984 91.7929 607.788 92.6285 608.502 93.4545C609.226 94.2923 611.624 95.3562 613.565 94.5162C615.61 93.6293 615.978 91.4827 615.978 91.4827C616.156 90.2657 616.024 89.0535 615.635 87.8578C617.697 90.8766 619.993 93.6241 622.492 96.0666C622.529 96.1033 622.566 96.1403 622.603 96.1771C622.628 96.2013 622.653 96.2262 622.678 96.2508C624.587 98.1488 626.536 99.7866 628.469 101.154C629.6 102.349 633.237 106.47 634.1 110.922L634.101 110.921C635.384 117.893 630.882 123.669 626.178 125.714C622.794 125.892 620.694 126.245 620.67 126.735L620.541 129.419C614.454 129.746 610.582 130.446 610.536 131.411L607.287 145.274C607.27 145.316 607.259 145.359 607.258 145.403H607.257L607.256 145.404C607.163 147.341 621.181 150.435 638.622 151.19C656.063 151.947 670.322 150.079 670.416 148.144Z" fill="#F9D649"/>
<path fill-rule="evenodd" clip-rule="evenodd" d="M566.015 59.7141C566.154 59.8122 566.262 59.9528 566.311 60.1246C566.43 60.5321 566.179 60.9535 565.749 61.0659L549.737 65.2683C549.307 65.3817 548.864 65.1423 548.745 64.7348C548.626 64.327 548.877 63.9059 549.307 63.7928L565.32 59.5904C565.568 59.5258 565.822 59.5787 566.015 59.7141Z" fill="#D1B000"/>
<path fill-rule="evenodd" clip-rule="evenodd" d="M568.011 50.7216C568.246 50.8868 568.379 51.1688 568.327 51.4617C568.255 51.8795 567.841 52.1615 567.401 52.0932L532.023 46.5743C531.584 46.5075 531.287 46.1125 531.358 45.6958C531.431 45.2784 531.845 44.9953 532.285 45.064L567.663 50.5829C567.794 50.6034 567.912 50.6522 568.011 50.7216Z" fill="#D1B000"/>
<path fill-rule="evenodd" clip-rule="evenodd" d="M585.765 15.5197C585.899 15.6137 586.003 15.7485 586.055 15.9118L590.891 31.0059C591.019 31.4101 590.779 31.837 590.353 31.9604C589.927 32.0823 589.479 31.8554 589.348 31.4505L584.513 16.3571C584.384 15.9526 584.624 15.5256 585.05 15.4019C585.304 15.3285 585.566 15.3806 585.765 15.5197Z" fill="#D1B000"/>
<path fill-rule="evenodd" clip-rule="evenodd" d="M563.623 4.22156C563.722 4.29095 563.807 4.3842 563.865 4.49654L579.784 35.0041C579.982 35.3829 579.818 35.8418 579.42 36.0298C579.022 36.217 578.537 36.0636 578.34 35.6836L562.421 5.17607C562.223 4.79721 562.386 4.33831 562.785 4.15108C563.066 4.01892 563.388 4.05636 563.623 4.22156Z" fill="#D1B000"/>
<path fill-rule="evenodd" clip-rule="evenodd" d="M549.3 24.9687L571.756 40.7393C572.114 40.9904 572.189 41.4699 571.924 41.8098C571.66 42.1494 571.155 42.2214 570.798 41.9703L548.342 26.1996C547.984 25.9481 547.909 25.4694 548.174 25.1295C548.438 24.7899 548.943 24.7175 549.3 24.9687Z" fill="#D1B000"/>
<path fill-rule="evenodd" clip-rule="evenodd" d="M694.024 33.54C693.868 33.6626 693.668 33.7389 693.449 33.7433C692.926 33.7562 692.493 33.3652 692.48 32.8689L691.994 14.3727C691.98 13.8764 692.392 13.4659 692.914 13.4535C693.437 13.4402 693.87 13.8308 693.883 14.3283L694.37 32.8241C694.377 33.1112 694.241 33.3704 694.024 33.54Z" fill="#D1B000"/>
<path fill-rule="evenodd" clip-rule="evenodd" d="M704.232 38.2507C703.966 38.4581 703.591 38.522 703.255 38.3829C702.775 38.1861 702.554 37.6585 702.761 37.2029L719.423 0.542149C719.628 0.0858208 720.186 -0.121968 720.665 0.0733387C721.144 0.270114 721.366 0.798765 721.158 1.25436L704.497 37.9141C704.435 38.0499 704.343 38.1637 704.232 38.2507Z" fill="#D1B000"/>
<path fill-rule="evenodd" clip-rule="evenodd" d="M741.363 67.4351C741.212 67.553 741.021 67.6278 740.81 67.6378L721.352 68.5746C720.832 68.5989 720.389 68.2182 720.361 67.7229C720.336 67.2281 720.736 66.8084 721.258 66.7813L740.715 65.8451C741.237 65.8205 741.68 66.2012 741.707 66.6965C741.723 66.9913 741.586 67.2604 741.363 67.4351Z" fill="#D1B000"/>
<path fill-rule="evenodd" clip-rule="evenodd" d="M761.19 46.7192C761.078 46.8066 760.943 46.8719 760.792 46.9028L719.718 55.4375C719.207 55.5447 718.704 55.2367 718.592 54.7528C718.481 54.2693 718.803 53.7895 719.314 53.6845L760.388 45.149C760.898 45.0426 761.401 45.3495 761.512 45.8337C761.591 46.1748 761.455 46.5118 761.19 46.7192Z" fill="#D1B000"/>
<path fill-rule="evenodd" clip-rule="evenodd" d="M740.401 25.3498L715.127 45.1345C714.725 45.4495 714.129 45.3948 713.797 45.0126C713.465 44.6301 713.522 44.0644 713.925 43.7494L739.199 23.9647C739.601 23.6497 740.197 23.7044 740.529 24.0869C740.86 24.4691 740.804 25.0348 740.401 25.3498Z" fill="#D1B000"/>
<path fill-rule="evenodd" clip-rule="evenodd" d="M699.94 102.756C699.94 102.756 698.871 94.8147 691.657 88.8799C692.359 76.1805 700.968 78.1809 697.494 66.7023C696.47 63.3215 701.51 69.2721 702.411 71.8772C704.289 77.3021 707.393 82.0595 709.095 89.8234C709.095 89.8234 709.632 99.4419 705.456 100.897C705.456 100.897 704.833 102.281 699.94 102.756Z" fill="#FAC7AC"/>
<path fill-rule="evenodd" clip-rule="evenodd" d="M690.865 70.5234C692.508 69.8758 693.487 71.319 695.807 74.7016L696.445 80.0362C697.516 81.9713 697.052 84.0628 695.41 84.706C693.769 85.3536 691.569 84.3087 690.5 82.3748L692.262 76.8573C691.193 74.9241 689.224 71.1681 690.865 70.5234Z" fill="#FAC7AC"/>
<path fill-rule="evenodd" clip-rule="evenodd" d="M687.053 73.2015C688.544 72.3131 689.667 73.6579 692.32 76.8081L694.999 85.1578C696.272 86.9934 696.097 89.2027 694.605 90.0923C693.115 90.9789 690.873 90.2105 689.601 88.3756L689.199 79.5053C687.924 77.6683 685.563 74.0918 687.053 73.2015Z" fill="#FAC7AC"/>
<path fill-rule="evenodd" clip-rule="evenodd" d="M697.44 65.0418C698.819 64.8249 699.391 66.0019 700.747 68.7596L703.778 75.4375C704.353 76.9805 705.558 82.835 704.178 83.0475C702.8 83.263 701.216 82.1888 700.639 80.6488L697.663 69.7692C697.085 68.2281 696.059 65.2555 697.44 65.0418Z" fill="#FAC7AC"/>
<path fill-rule="evenodd" clip-rule="evenodd" d="M693.918 67.5866C695.67 67.1655 696.509 68.6744 698.501 72.2218L701.8 80.866C702.678 82.8616 701.968 84.821 700.215 85.2402C698.461 85.662 696.33 84.387 695.453 82.3925L694.627 73.8617C693.752 71.8668 692.165 68.0095 693.918 67.5866Z" fill="#FAC7AC"/>
<path fill-rule="evenodd" clip-rule="evenodd" d="M586.131 97.3012C586.131 97.3012 587.934 89.4808 595.672 84.1741C596.153 71.4652 587.392 72.7358 591.92 61.5938C593.253 58.3117 587.681 63.8167 586.541 66.3358C584.166 71.5823 580.631 76.0608 578.214 83.6517C578.214 83.6517 576.785 93.1876 580.809 94.9869C580.809 94.9869 581.302 96.4175 586.131 97.3012Z" fill="#FAC7AC"/>
<path fill-rule="evenodd" clip-rule="evenodd" d="M598.165 65.9557C596.589 65.173 595.479 66.528 592.854 69.7032L591.722 74.9633C590.476 76.8011 590.743 78.923 592.319 79.7017C593.894 80.4844 596.182 79.6283 597.427 77.7912L596.185 72.1475C597.429 70.3119 599.74 66.7354 598.165 65.9557Z" fill="#FAC7AC"/>
<path fill-rule="evenodd" clip-rule="evenodd" d="M601.712 68.9431C600.31 67.9332 599.066 69.1784 596.13 72.0941L592.686 80.1865C591.247 81.9083 591.217 84.1238 592.62 85.1345C594.021 86.1426 596.326 85.5651 597.764 83.8441L598.99 75.0428C600.43 73.3195 603.114 69.9549 601.712 68.9431Z" fill="#FAC7AC"/>
<path fill-rule="evenodd" clip-rule="evenodd" d="M592.125 59.9442C590.771 59.6123 590.092 60.7368 588.486 63.3705L584.845 69.7679C584.129 71.2562 582.385 76.9873 583.739 77.3148C585.092 77.6448 586.77 76.7076 587.487 75.2218L591.464 64.6345C592.182 63.1477 593.481 60.2728 592.125 59.9442Z" fill="#FAC7AC"/>
<path fill-rule="evenodd" clip-rule="evenodd" d="M595.397 62.7744C593.69 62.2079 592.714 63.6408 590.401 67.0072L586.31 75.3408C585.251 77.2553 585.775 79.2664 587.483 79.831C589.191 80.3982 591.432 79.3068 592.491 77.3937L594.106 68.9654C595.164 67.052 597.103 63.3423 595.397 62.7744Z" fill="#FAC7AC"/>
</g>
<defs>
<clipPath id="clip0_1643_13845">
<rect width="1200" height="320" fill="white"/>
</clipPath>
</defs>
</svg>
