<svg width="125" height="124" viewBox="0 0 125 124" fill="none" xmlns="http://www.w3.org/2000/svg">
<path d="M62.3062 124C96.5478 124 124.306 96.2417 124.306 62C124.306 27.7583 96.5478 0 62.3062 0C28.0645 0 0.306152 27.7583 0.306152 62C0.306152 96.2417 28.0645 124 62.3062 124Z" fill="#FFE7E8"/>
<path d="M97.138 1.16992H26.7432V52.6672H97.138V1.16992Z" fill="black"/>
<path d="M97.1376 51.2071C97.1376 70.6586 61.9588 86.4231 61.9588 86.4231C61.9588 86.4231 26.7428 70.6586 26.7428 51.2071C26.6924 46.5529 27.5655 41.9348 29.3117 37.6202C31.0579 33.3056 33.6425 29.3802 36.9159 26.0711C40.1893 22.7621 44.0865 20.1351 48.3819 18.3423C52.6773 16.5494 57.2856 15.6262 61.9402 15.6262C66.5947 15.6262 71.2031 16.5494 75.4985 18.3423C79.7939 20.1351 83.6911 22.7621 86.9645 26.0711C90.2379 29.3802 92.8224 33.3056 94.5687 37.6202C96.3149 41.9348 97.188 46.5529 97.1376 51.2071Z" fill="black"/>
<path d="M91.5867 7.86572H32.6206V51.0178H91.5867V7.86572Z" fill="#FF0008"/>
<path d="M91.5867 49.8978C91.5867 66.179 62.1037 79.4099 62.1037 79.4099C62.1037 79.4099 32.6206 66.1831 32.6206 49.8978C32.6206 42.0784 35.7268 34.5793 41.256 29.0502C46.7851 23.521 54.2843 20.4148 62.1037 20.4148C69.9231 20.4148 77.4222 23.521 82.9513 29.0502C88.4805 34.5793 91.5867 42.0784 91.5867 49.8978Z" fill="#FF0008"/>
<path d="M66.0466 7.86572L32.6162 21.39V32.3847L83.0966 7.86572H66.0466Z" fill="#FF454B"/>
<path d="M91.5823 13.8633L32.6162 40.7299V49.8977L91.5823 23.031V13.8633Z" fill="#FF454B"/>
<path d="M66.9146 23.7007H56.9946V54.0352H66.9146V23.7007Z" fill="white"/>
<path d="M77.0827 43.8467V33.8977H46.7812V43.8467H77.0827Z" fill="white"/>
<path d="M90.8224 100.217H80.2782C77.9772 100.217 76.1118 102.082 76.1118 104.383V114.927C76.1118 117.228 77.9772 119.094 80.2782 119.094H90.8224C93.1234 119.094 94.9888 117.228 94.9888 114.927V104.383C94.9888 102.082 93.1234 100.217 90.8224 100.217Z" fill="#FF8B8E"/>
<path d="M65.3858 100.217H54.8417C52.5407 100.217 50.6753 102.082 50.6753 104.383V114.927C50.6753 117.228 52.5407 119.094 54.8417 119.094H65.3858C67.6869 119.094 69.5522 117.228 69.5522 114.927V104.383C69.5522 102.082 67.6869 100.217 65.3858 100.217Z" fill="#FF8B8E"/>
<path d="M40.1427 100.217H29.5985C27.2975 100.217 25.4321 102.082 25.4321 104.383V114.927C25.4321 117.228 27.2975 119.094 29.5985 119.094H40.1427C42.4437 119.094 44.3091 117.228 44.3091 114.927V104.383C44.3091 102.082 42.4437 100.217 40.1427 100.217Z" fill="#FF8B8E"/>
</svg>
