<svg width="125" height="124" viewBox="0 0 125 124" fill="none" xmlns="http://www.w3.org/2000/svg">
<path d="M62.3062 124C96.5478 124 124.306 96.2417 124.306 62C124.306 27.7583 96.5478 0 62.3062 0C28.0645 0 0.306152 27.7583 0.306152 62C0.306152 96.2417 28.0645 124 62.3062 124Z" fill="#FFE7E8"/>
<mask id="mask0_1873_3562" style="mask-type:alpha" maskUnits="userSpaceOnUse" x="0" y="0" width="125" height="124">
<path d="M62.3062 124C96.5478 124 124.306 96.2417 124.306 62C124.306 27.7583 96.5478 0 62.3062 0C28.0645 0 0.306152 27.7583 0.306152 62C0.306152 96.2417 28.0645 124 62.3062 124Z" fill="#FFE7E8"/>
</mask>
<g mask="url(#mask0_1873_3562)">
<path d="M19.832 69.0096C19.0963 65.5087 19.4848 49.9468 19.2905 42.1926C19.2905 42.1926 71.2259 48.1777 64.5671 68.1541C62.7773 73.5275 62.5004 80.8682 59.9625 82.4802C59.2185 86.9649 58.3061 127.999 58.3061 127.999L25.6395 115.999C25.8668 114.309 25.3707 85.8902 23.8785 81.8354C22.3864 77.7806 20.0635 70.7374 19.832 69.0096Z" fill="#FAC7AC"/>
<path d="M55.9817 40.7714C62.5702 40.7714 66.5506 40.7259 67.3401 40.7259C68.0345 40.7259 68.1296 38.8784 70.3078 38.618H75.6398C75.9622 38.3907 75.9994 37.4771 76.8798 37.506C81.0958 37.6383 87.1098 37.5061 88.6061 38.2956C90.6728 37.3449 93.0205 41.4327 93.6198 43.5201C93.905 44.5079 98.555 52.3076 101.973 63.914C105.441 75.6733 118.436 101.655 120.834 110.811L94.9727 115.334C93.6045 110.167 84.7869 80.1662 82.6086 73.8876C79.8889 66.0343 73.9286 57.6974 73.5153 57.3543C73.1598 57.0856 70.5889 52.2538 70.3244 51.0675C69.4398 50.6542 65.2486 49.5424 60.3713 48.7529C57.4573 48.2817 54.2953 48.5503 52.7329 46.1199C51.5466 44.2806 53.0181 40.7714 55.9817 40.7714Z" fill="#FAC7AC"/>
</g>
<path d="M57.7305 29.3423C57.7305 29.3423 56.3459 26.5482 56.3831 25.7836C57.28 24.9569 60.2973 24.0972 61.7564 25.6678C63.9388 27.9908 60.7768 34.3272 60.0741 33.7113C59.2888 33.021 57.7305 29.3423 57.7305 29.3423Z" fill="#FAC7AC"/>
<path d="M62.3433 38.6101C62.3433 38.6101 60.9503 35.8448 60.9875 35.0884C61.8886 34.2948 64.7695 33.3689 66.4766 34.6172C69.0393 36.4937 65.4185 43.5328 64.7117 42.9252C63.9222 42.2432 62.3433 38.6101 62.3433 38.6101Z" fill="#FAC7AC"/>
<path d="M66.4727 48.0332C66.4727 48.0332 65.5675 46.2187 65.5923 45.7227C66.1792 45.2019 67.9359 44.4497 69.118 45.6483C70.7135 47.2686 68.4774 51.2614 68.0144 50.8604C67.5515 50.4595 66.4727 48.0332 66.4727 48.0332Z" fill="#EEBC9E"/>
<path d="M56.1269 84.4071C56.0605 84.4063 55.9966 84.3811 55.9478 84.336C55.8989 84.291 55.8685 84.2295 55.8624 84.1633C55.8601 84.1285 55.8648 84.0936 55.876 84.0607C55.8873 84.0277 55.9049 83.9974 55.928 83.9713C55.951 83.9451 55.979 83.9238 56.0103 83.9085C56.0416 83.8932 56.0756 83.8844 56.1104 83.8822C57.896 83.7624 59.7105 82.9233 60.2437 81.9685C60.2777 81.9071 60.3347 81.8617 60.4021 81.8423C60.4695 81.8229 60.5419 81.8311 60.6033 81.8651C60.6647 81.8991 60.7101 81.9561 60.7294 82.0236C60.7488 82.091 60.7406 82.1634 60.7066 82.2248C60.0825 83.3366 58.1233 84.2914 56.16 84.4071H56.1269Z" fill="#AC7563"/>
<path d="M56.276 77.4994C55.9106 77.4921 55.55 77.4151 55.2137 77.2721C54.8404 77.1233 54.4898 76.9229 54.1721 76.6768C54.1449 76.6551 54.1223 76.6283 54.1056 76.5978C54.0888 76.5674 54.0782 76.534 54.0744 76.4994C54.0705 76.4649 54.0735 76.4299 54.0832 76.3965C54.0929 76.3631 54.109 76.332 54.1308 76.3049C54.1525 76.2777 54.1793 76.2551 54.2098 76.2384C54.2402 76.2216 54.2736 76.211 54.3082 76.2072C54.3427 76.2034 54.3777 76.2063 54.4111 76.216C54.4445 76.2256 54.4756 76.2418 54.5027 76.2635C54.9491 76.6231 55.8709 77.0902 56.5694 76.9414C56.6033 76.9338 56.6384 76.9329 56.6727 76.9389C56.7069 76.9449 56.7397 76.9575 56.769 76.9761C56.7984 76.9948 56.8238 77.019 56.8438 77.0474C56.8638 77.0758 56.878 77.1079 56.8856 77.1418C56.8932 77.1758 56.8941 77.2109 56.8881 77.2452C56.8821 77.2794 56.8695 77.3121 56.8509 77.3414C56.8323 77.3708 56.808 77.3962 56.7796 77.4162C56.7512 77.4362 56.7191 77.4505 56.6851 77.4581C56.5505 77.4857 56.4134 77.4995 56.276 77.4994Z" fill="#AC7563"/>
<path d="M5.98935 16.6123C3.99295 11.6233 6.75815 7.51884 8.80415 7.02284C17.8975 4.76191 36.4975 3.20779 39.6843 2.59192C42.8711 1.97606 45.1857 4.12539 45.9504 5.27859L76.4627 65.0756C76.4627 65.0756 77.1323 66.3899 76.4627 67.3902C75.884 68.2499 73.9042 69.18 73.9042 69.18L48.0667 80.0507C42.4412 82.6092 39.7546 79.8398 39.1139 78.1327C28.2887 58.9334 7.83282 21.2168 5.98935 16.6123Z" fill="black"/>
<path d="M6.54749 13.3958C4.70816 8.79128 8.16776 6.95602 10.1311 6.61709C19.2244 4.35615 35.5966 0.896561 38.7338 0.115361C41.2882 -0.525305 44.6155 1.64889 45.5124 3.69489L75.7602 63.6778C75.7602 63.6778 77.0291 65.2774 76.7191 66.3644C76.4091 67.4515 74.2887 68.1542 74.2887 68.1542L50.2906 78.6239C44.661 81.1824 41.9743 78.4131 41.3378 76.706C30.5084 57.5191 8.39096 18.0127 6.54749 13.3958Z" fill="black"/>
<path d="M10.3623 14.5373C8.67588 10.3089 11.7387 8.58113 13.4788 8.25046C21.5388 6.0722 36.1708 3.14174 38.9897 2.54241C41.8087 1.94307 43.5612 4.19576 44.2597 5.24976L72.8831 62.4013C72.8831 62.4013 73.7841 63.8728 73.7759 64.3192C73.7759 65.1459 72.1225 65.7286 72.1225 65.7286L50.0051 74.2557C45.0203 76.6696 42.6023 74.1441 42.0112 72.5776C32.1615 54.9903 12.0528 18.7657 10.3623 14.5373Z" fill="white"/>
<path d="M57.1892 39.0185L36.7416 45.7062C36.4019 45.7794 36.0814 45.9233 35.8009 46.1284C35.5204 46.3335 35.2861 46.5953 35.1133 46.8967C34.9404 47.1982 34.8328 47.5326 34.7975 47.8783C34.7622 48.224 34.7999 48.5732 34.9082 48.9033C35.0165 49.2335 35.193 49.5373 35.4263 49.7949C35.6595 50.0525 35.9443 50.2582 36.2621 50.3986C36.5799 50.5391 36.9237 50.6113 37.2712 50.6104C37.6187 50.6094 37.9621 50.5355 38.2792 50.3934L58.7144 43.6602C59.0218 43.5617 59.3067 43.4035 59.5527 43.1945C59.7987 42.9855 60.0009 42.7298 60.1476 42.4423C60.2944 42.1548 60.3828 41.8411 60.4078 41.5192C60.4328 41.1974 60.3939 40.8739 60.2933 40.5671C60.1927 40.2604 60.0324 39.9767 59.8217 39.7322C59.6109 39.4877 59.3539 39.2873 59.0653 39.1426C58.7768 38.9978 58.4625 38.9116 58.1405 38.8889C57.8185 38.8662 57.4952 38.9074 57.1892 39.0102V39.0185Z" fill="#FF0008"/>
<path d="M51.2913 29.4329L31.7654 35.9265C31.4637 36.0181 31.1834 36.1692 30.9411 36.3709C30.6987 36.5726 30.4993 36.8208 30.3545 37.1009C30.2096 37.381 30.1224 37.6873 30.0979 38.0016C30.0735 38.316 30.1122 38.632 30.2119 38.9311C30.3116 39.2303 30.4703 39.5065 30.6785 39.7433C30.8867 39.9801 31.1402 40.1727 31.4241 40.3099C31.708 40.4471 32.0165 40.526 32.3314 40.542C32.6463 40.5579 32.9613 40.5106 33.2576 40.4028L52.7752 33.8763C53.345 33.6645 53.8102 33.2396 54.0727 32.6912C54.3351 32.1428 54.3741 31.5139 54.1815 30.9372C53.989 30.3606 53.5799 29.8813 53.0406 29.6007C52.5013 29.32 51.8741 29.2598 51.2913 29.4329Z" fill="#FF0008"/>
<path d="M45.2684 20.7456L27.8753 26.4C27.6075 26.4806 27.3585 26.6138 27.1429 26.7918C26.9273 26.9699 26.7494 27.1893 26.6198 27.4371C26.4901 27.6848 26.4112 27.956 26.3878 28.2347C26.3643 28.5133 26.3968 28.7939 26.4832 29.0598C26.5697 29.3258 26.7084 29.5717 26.8912 29.7834C27.074 29.995 27.2972 30.168 27.5478 30.2922C27.7984 30.4163 28.0712 30.4892 28.3503 30.5065C28.6294 30.5238 28.9092 30.4851 29.1732 30.3928L46.5786 24.7094C46.8389 24.6248 47.0799 24.4897 47.288 24.3118C47.4961 24.134 47.667 23.9169 47.7912 23.673C47.9154 23.4291 47.9903 23.1632 48.0117 22.8903C48.033 22.6174 48.0004 22.343 47.9158 22.0827C47.8311 21.8224 47.696 21.5814 47.5181 21.3733C47.3403 21.1652 47.1232 20.9943 46.8793 20.8702C46.6354 20.746 46.3694 20.671 46.0966 20.6497C45.8237 20.6283 45.5493 20.661 45.289 20.7456H45.2684Z" fill="#FF0008"/>
<path d="M20.3613 8.2797L17.7573 6.62637L35.6629 2.40625C35.5348 3.17092 35.5348 3.68343 35.4067 4.45223C35.3667 4.73712 35.2508 5.00605 35.0712 5.23076C34.8916 5.45547 34.6548 5.62772 34.3857 5.72947C31.1865 6.58093 23.7135 8.57315 22.8124 8.77982C21.9623 8.89563 21.0981 8.7193 20.3613 8.2797Z" fill="black"/>
<path d="M27.3508 41.2962C24.3831 41.6062 23.792 48.0584 23.9656 51.4229C19.8034 77.7481 38.6224 89.1313 40.2758 82.0798C41.9291 75.0283 36.5558 64.5586 35.9275 61.6157C35.2992 58.6727 34.4602 50.5135 33.9476 47.8268C33.4351 45.1401 31.0584 40.916 27.3508 41.2962Z" fill="#FAC7AC"/>
<path d="M25.8092 47.7065C25.6108 47.7158 25.414 47.6669 25.2429 47.566C25.1443 47.5015 25.0598 47.4178 24.9944 47.3197C24.929 47.2217 24.8842 47.1115 24.8627 46.9956C24.5816 45.7556 25.6315 44.032 25.6893 43.9576C25.7067 43.9277 25.73 43.9017 25.7577 43.8811C25.7854 43.8604 25.817 43.8456 25.8506 43.8375C25.8842 43.8294 25.9191 43.8281 25.9532 43.8339C25.9873 43.8396 26.0198 43.8522 26.0489 43.8708C26.1082 43.9068 26.151 43.9647 26.168 44.0319C26.185 44.0992 26.1749 44.1705 26.1399 44.2303C25.7265 44.8793 25.2181 46.1235 25.3917 46.8799C25.3958 46.9278 25.4105 46.9741 25.4348 47.0156C25.4592 47.0571 25.4924 47.0926 25.5323 47.1195C25.7596 47.2601 26.3176 47.1196 26.9045 46.9832C27.5566 46.8005 28.2282 46.6964 28.9051 46.6732C29.0377 46.6836 29.1699 46.6482 29.2797 46.573C29.3895 46.4978 29.4702 46.3873 29.5085 46.2599C29.5909 45.8459 29.5637 45.4176 29.4296 45.0173C29.2954 44.6171 29.0591 44.259 28.7439 43.9783C28.7014 43.9324 28.6765 43.8729 28.6737 43.8104C28.6708 43.748 28.6902 43.6866 28.7283 43.6371C28.7665 43.5875 28.8209 43.5531 28.882 43.5399C28.9431 43.5267 29.0069 43.5356 29.0621 43.5649C29.4644 43.9129 29.7648 44.3634 29.9315 44.8685C30.0982 45.3736 30.1248 45.9144 30.0087 46.4334C29.9395 46.6695 29.7932 46.8756 29.5932 47.0187C29.3931 47.1618 29.1508 47.2337 28.9051 47.2229C28.2702 47.2471 27.6404 47.3456 27.0285 47.5163C26.6303 47.6243 26.2214 47.6881 25.8092 47.7065Z" fill="#AC7563"/>
<path d="M22.0892 60.4917C22.0191 60.4917 21.9518 60.4638 21.9022 60.4142C21.8526 60.3646 21.8247 60.2973 21.8247 60.2271C21.8247 58.1852 22.6514 55.1431 23.1763 53.3245C23.3375 52.7541 23.4615 52.3077 23.4904 52.1258C23.5938 51.5265 23.9038 48.3439 23.9327 47.2981C23.9338 47.2636 23.9417 47.2295 23.956 47.198C23.9704 47.1666 23.9908 47.1382 24.0162 47.1148C24.0416 47.0913 24.0715 47.0732 24.1039 47.0614C24.1364 47.0496 24.171 47.0443 24.2055 47.046C24.2749 47.0492 24.3403 47.0796 24.3875 47.1306C24.4347 47.1817 24.4599 47.2492 24.4576 47.3187C24.4122 48.4058 24.1146 51.5844 24.0112 52.2126C23.9782 52.4193 23.8542 52.8574 23.6847 53.4526C23.2218 55.1266 22.3538 58.2432 22.3538 60.2148C22.3555 60.2506 22.3499 60.2863 22.3373 60.3198C22.3248 60.3534 22.3056 60.384 22.2808 60.4099C22.2561 60.4358 22.2264 60.4563 22.1934 60.4704C22.1605 60.4845 22.125 60.4917 22.0892 60.4917Z" fill="#AC7563"/>
<path d="M39.8824 82.8728C39.8289 82.8722 39.7768 82.8549 39.7336 82.8232C39.7053 82.8038 39.6811 82.7789 39.6624 82.7501C39.6437 82.7212 39.631 82.6889 39.6248 82.6551C39.6187 82.6213 39.6193 82.5866 39.6266 82.553C39.6339 82.5194 39.6478 82.4876 39.6675 82.4595C40.0436 81.9139 40.304 80.9013 40.4115 79.529C40.4982 78.4778 40.4899 77.4208 40.3867 76.3711C40.3808 76.3012 40.4019 76.2318 40.4458 76.1772C40.4896 76.1226 40.5528 76.0869 40.6223 76.0776C40.6916 76.0718 40.7606 76.0931 40.8145 76.137C40.8685 76.181 40.9033 76.2441 40.9116 76.3132C41.0769 77.793 41.0935 81.3186 40.0849 82.757C40.0618 82.7901 40.0317 82.8177 39.9967 82.8377C39.9617 82.8577 39.9226 82.8697 39.8824 82.8728Z" fill="#AC7563"/>
<path d="M64.5916 50.4721C64.3808 50.2613 65.2033 49.0667 65.6456 48.4963C68.8076 47.0207 72.1431 52.361 73.4162 55.2171C70.5642 53.725 64.8024 50.6664 64.5916 50.4721Z" fill="#AC7563"/>
<path d="M71.6065 54.2706C71.5617 54.2699 71.5178 54.2586 71.4783 54.2375C70.3499 53.6216 69.9862 51.3442 69.7671 49.9679C69.7671 49.848 69.7299 49.7322 69.7134 49.633C69.7014 49.564 69.7173 49.493 69.7576 49.4356C69.7979 49.3783 69.8593 49.3393 69.9283 49.3272C69.9978 49.3164 70.0688 49.3332 70.126 49.3742C70.1832 49.4151 70.222 49.477 70.2342 49.5462C70.2342 49.6496 70.2672 49.7612 70.2879 49.8852C70.478 51.0715 70.8294 53.2828 71.7305 53.7746C71.7815 53.8028 71.8218 53.8471 71.845 53.9006C71.8683 53.954 71.8732 54.0137 71.8591 54.0703C71.8449 54.1269 71.8125 54.1772 71.7668 54.2134C71.7211 54.2496 71.6648 54.2697 71.6065 54.2706Z" fill="#AC7563"/>
<path d="M70.3664 51.96C70.301 51.9593 70.2382 51.9345 70.1902 51.8902C70.1421 51.8459 70.1121 51.7854 70.106 51.7204C70.1669 50.9211 70.4681 50.1589 70.9698 49.5338C71.02 49.4846 71.0876 49.457 71.1579 49.457C71.2282 49.457 71.2957 49.4846 71.346 49.5338C71.394 49.5839 71.4208 49.6505 71.4208 49.7198C71.4208 49.7891 71.394 49.8558 71.346 49.9058C70.9585 50.4221 70.7121 51.0303 70.6309 51.6707C70.6367 51.7407 70.6148 51.8102 70.57 51.8643C70.5252 51.9184 70.461 51.9527 70.3912 51.96H70.3664Z" fill="#AC7563"/>
<path d="M55.9817 40.7714C62.5702 40.7714 66.5506 40.7259 67.3401 40.7259C68.0345 40.7259 68.1296 38.8784 70.3078 38.618H75.6398C75.9622 38.3907 75.9994 37.4771 76.8798 37.506C81.0958 37.6383 87.1098 37.5061 88.6061 38.2956C90.6728 37.3449 93.0205 41.4327 93.6198 43.5201C93.905 44.5079 98.555 52.3076 101.973 63.914C105.441 75.6733 106.575 80.845 108.973 90.0003L93.6198 106C92.2517 100.834 84.7869 80.1662 82.6086 73.8876C79.8889 66.0343 73.9286 57.6974 73.5153 57.3543C73.1598 57.0856 70.5889 52.2538 70.3244 51.0675C69.4398 50.6542 65.2486 49.5424 60.3713 48.7529C57.4573 48.2817 54.2953 48.5503 52.7329 46.1199C51.5466 44.2806 53.0181 40.7714 55.9817 40.7714Z" fill="#FAC7AC"/>
<path d="M84.618 43.888C84.574 43.8872 84.5307 43.8758 84.4919 43.855C84.4531 43.8341 84.4198 43.8044 84.3948 43.7681C84.308 43.6317 84.2171 43.4622 84.1096 43.2638C83.744 42.4898 83.2251 41.7979 82.5844 41.2302C81.5676 40.3828 80.9311 40.4696 79.6622 40.7176C78.3354 40.9863 68.0558 40.9864 67.6218 40.9864C67.5845 40.991 67.5467 40.9877 67.5109 40.9767C67.475 40.9656 67.4419 40.9471 67.4138 40.9223C67.3856 40.8975 67.3631 40.8669 67.3476 40.8327C67.3322 40.7985 67.3242 40.7614 67.3242 40.7239C67.3242 40.6864 67.3322 40.6492 67.3476 40.615C67.3631 40.5808 67.3856 40.5503 67.4138 40.5255C67.4419 40.5007 67.475 40.4822 67.5109 40.4711C67.5467 40.4601 67.5845 40.4567 67.6218 40.4614C67.7251 40.4614 78.2816 40.4614 79.5588 40.201C80.836 39.9406 81.7247 39.8331 82.9192 40.821C83.6113 41.4349 84.1734 42.1812 84.5726 43.0158C84.6718 43.2018 84.7585 43.363 84.8329 43.4788C84.8708 43.537 84.8842 43.6078 84.8703 43.6758C84.8564 43.7439 84.8162 43.8037 84.7586 43.8425C84.7168 43.8702 84.6682 43.886 84.618 43.888Z" fill="#AC7563"/>
<path d="M88.6354 41.5723C88.5821 41.5735 88.5297 41.5577 88.4859 41.5273C88.4421 41.4968 88.409 41.4533 88.3915 41.4029C87.7798 39.8405 85.5809 38.6748 84.0226 38.6748H75.9213C75.8511 38.6748 75.7838 38.6469 75.7342 38.5973C75.6846 38.5477 75.6567 38.4805 75.6567 38.4103C75.6567 38.3402 75.6846 38.2729 75.7342 38.2233C75.7838 38.1736 75.8511 38.1458 75.9213 38.1458H84.0267C85.7586 38.1458 88.1601 39.4064 88.8834 41.2127C88.9091 41.2779 88.9079 41.3508 88.88 41.4151C88.8521 41.4794 88.7998 41.53 88.7346 41.5558C88.703 41.5681 88.6693 41.5737 88.6354 41.5723Z" fill="#AC7563"/>
<path d="M92.0656 41.0603C92.0119 41.0611 91.9591 41.0452 91.9147 41.0149C91.8703 40.9846 91.8364 40.9413 91.8176 40.8909C91.4043 39.8286 90.0899 38.6919 88.7714 38.6919C88.7012 38.6919 88.6339 38.664 88.5843 38.6144C88.5347 38.5648 88.5068 38.4975 88.5068 38.4273C88.5068 38.3572 88.5347 38.29 88.5843 38.2403C88.6339 38.1907 88.7012 38.1628 88.7714 38.1628C90.3586 38.1628 91.8466 39.4813 92.3095 40.7048C92.3222 40.7368 92.3284 40.7711 92.3277 40.8055C92.3271 40.8399 92.3196 40.8738 92.3058 40.9053C92.292 40.9368 92.272 40.9653 92.2471 40.9891C92.2222 41.0128 92.1928 41.0314 92.1607 41.0438C92.1302 41.0549 92.098 41.0605 92.0656 41.0603Z" fill="#AC7563"/>
<path d="M57.0936 42.6431C56.4571 42.6431 55.3866 42.5728 55.027 42.1306C54.9603 42.0514 54.9182 41.9544 54.9057 41.8517C54.8933 41.7489 54.911 41.6447 54.9567 41.5519C55.1716 41.1096 55.9983 40.7996 56.9696 40.7996C57.0336 40.8076 57.0924 40.8387 57.135 40.8871C57.1776 40.9354 57.2012 40.9976 57.2012 41.062C57.2012 41.1265 57.1776 41.1888 57.135 41.2371C57.0924 41.2854 57.0336 41.3165 56.9696 41.3245C55.9652 41.3245 55.4527 41.6759 55.4279 41.7875C55.5891 41.99 56.4364 42.1264 57.3251 42.0975C57.5353 41.8437 57.8031 41.6439 58.1063 41.5147C58.744 41.2057 59.4365 41.0259 60.144 40.9856C60.1784 40.9828 60.2129 40.9869 60.2456 40.9978C60.2783 41.0086 60.3085 41.0259 60.3343 41.0487C60.3602 41.0715 60.3812 41.0992 60.396 41.1302C60.4109 41.1613 60.4194 41.195 60.421 41.2294C60.4238 41.264 60.4197 41.2987 60.4089 41.3317C60.3981 41.3646 60.3808 41.3951 60.3581 41.4213C60.3354 41.4475 60.3077 41.4688 60.2766 41.4841C60.2455 41.4995 60.2117 41.5085 60.1771 41.5106C59.5808 41.542 58.9953 41.6821 58.4494 41.9239C58.187 42.0301 57.9492 42.1891 57.7508 42.3909C57.7397 42.4494 57.7092 42.5025 57.6642 42.5415C57.6192 42.5805 57.5623 42.6032 57.5028 42.6059C57.445 42.6348 57.2879 42.6431 57.0936 42.6431Z" fill="#AC7563"/>
<path d="M64.4595 49.5504L71.8375 54.1631C83.2992 52.1874 89.6108 66.9434 86.858 69.1837C84.1052 71.424 74.735 67.2079 70.3867 63.7814C67.6298 61.6114 64.9844 58.9082 61.2934 56.4034C57.6023 53.8986 57.0774 50.6167 58.524 49.2858C59.702 48.2359 62.831 48.7609 64.4595 49.5504Z" fill="#FAC7AC"/>
<path d="M84.3859 70.0926H84.047C82.8697 70.0346 81.7051 69.822 80.5833 69.4602C80.5501 69.4494 80.5194 69.4322 80.4929 69.4095C80.4664 69.3868 80.4446 69.3592 80.4289 69.3281C80.4131 69.2969 80.4037 69.2629 80.4011 69.2282C80.3985 69.1934 80.4028 69.1584 80.4138 69.1253C80.4241 69.0923 80.4409 69.0617 80.4632 69.0352C80.4855 69.0088 80.5128 68.987 80.5436 68.9712C80.5744 68.9555 80.608 68.946 80.6425 68.9434C80.677 68.9407 80.7116 68.945 80.7445 68.9559C81.8148 69.305 82.9267 69.5107 84.0511 69.5676C85.0625 69.6523 86.0771 69.4488 86.9775 68.9807C87.0374 68.9457 87.1087 68.9356 87.176 68.9526C87.2432 68.9696 87.3011 69.0124 87.3371 69.0716C87.3551 69.1015 87.367 69.1346 87.3722 69.169C87.3774 69.2035 87.3757 69.2386 87.3672 69.2724C87.3588 69.3062 87.3438 69.3379 87.323 69.3659C87.3022 69.3939 87.2761 69.4175 87.2462 69.4353C86.3683 69.9051 85.3809 70.132 84.3859 70.0926Z" fill="#AC7563"/>
</svg>
