<svg width="1200" height="318" viewBox="0 0 1200 318" fill="none" xmlns="http://www.w3.org/2000/svg">
<g clip-path="url(#clip0_1643_13904)">
<path fill-rule="evenodd" clip-rule="evenodd" d="M835.694 194.79C834.741 194.79 833.815 194.923 832.926 195.173C832.971 194.732 832.995 194.284 832.995 193.83C832.995 187.783 828.864 182.881 823.767 182.881C821.533 182.881 819.485 183.823 817.888 185.389C816.987 178.989 812.297 174.11 806.647 174.11C801.496 174.11 797.144 178.164 795.731 183.727C794.054 182.134 791.926 181.181 789.611 181.181C786.117 181.181 783.051 183.35 781.315 186.615C779.828 184.361 777.514 182.913 774.915 182.913C773.849 182.913 772.832 183.16 771.899 183.603C771.412 183.414 770.925 183.224 770.434 183.032C770.403 183.02 770.371 183.008 770.339 182.995C769.712 182.75 769.08 182.502 768.447 182.252C768.33 182.206 768.213 182.159 768.095 182.113C767.487 181.873 766.875 181.63 766.261 181.386C766.129 181.333 765.996 181.28 765.863 181.227C765.24 180.979 764.616 180.729 763.988 180.477C763.891 180.438 763.795 180.399 763.698 180.36C763.078 180.111 762.455 179.859 761.83 179.606C761.769 179.581 761.708 179.557 761.647 179.532C761.002 179.27 760.353 179.006 759.702 178.739C759.574 178.687 759.446 178.635 759.318 178.582C758.813 178.376 758.306 178.167 757.798 177.957C755.743 175.579 752.937 174.11 749.839 174.11C749.481 174.11 749.128 174.132 748.779 174.17C748.605 174.095 748.431 174.022 748.256 173.947C748.123 173.89 747.99 173.832 747.856 173.775C747.176 173.483 746.494 173.189 745.81 172.893C745.754 172.869 745.699 172.845 745.644 172.821C744.982 172.534 744.318 172.245 743.653 171.954C743.541 171.905 743.43 171.856 743.319 171.808C742.646 171.513 741.971 171.216 741.294 170.917C741.151 170.854 741.007 170.791 740.864 170.727C740.191 170.43 739.517 170.13 738.842 169.829C738.716 169.773 738.59 169.717 738.464 169.66C737.77 169.35 737.075 169.038 736.378 168.724C736.344 168.709 736.311 168.694 736.277 168.679C735.578 168.363 734.877 168.045 734.176 167.726C734.046 167.667 733.916 167.608 733.787 167.549C733.105 167.238 732.422 166.925 731.738 166.61C731.591 166.543 731.443 166.474 731.295 166.406C730.606 166.089 729.916 165.769 729.224 165.448C729.109 165.394 728.994 165.341 728.879 165.287C728.198 164.97 727.516 164.651 726.833 164.33C726.768 164.299 726.703 164.269 726.639 164.239C725.929 163.905 725.218 163.568 724.507 163.231C724.367 163.164 724.227 163.098 724.087 163.031C723.396 162.702 722.704 162.372 722.011 162.039C721.865 161.969 721.718 161.898 721.571 161.827C720.866 161.488 720.161 161.148 719.454 160.804C719.355 160.756 719.257 160.708 719.158 160.66C718.48 160.33 717.801 159.999 717.122 159.665C717.026 159.618 716.929 159.571 716.832 159.523C716.125 159.175 715.417 158.825 714.709 158.474C714.559 158.399 714.409 158.325 714.259 158.25C685.678 144.032 656.183 126.539 631.395 105.876C631.317 105.811 631.238 105.745 631.159 105.68C630.541 105.163 629.927 104.645 629.314 104.124C629.161 103.994 629.007 103.863 628.854 103.732C628.237 103.205 627.623 102.678 627.013 102.148C626.985 102.123 626.957 102.099 626.929 102.074C626.339 101.561 625.753 101.046 625.169 100.529C625.021 100.398 624.873 100.267 624.726 100.135C624.13 99.6058 623.537 99.0745 622.948 98.541C622.86 98.4607 622.772 98.3802 622.684 98.2999C622.156 97.8205 621.631 97.3392 621.109 96.8566C620.975 96.7325 620.841 96.6089 620.707 96.4848C620.129 95.9489 619.555 95.4112 618.985 94.8712C618.867 94.7598 618.75 94.6479 618.632 94.5362C618.13 94.0587 617.63 93.5796 617.133 93.0992C617.022 92.9921 616.911 92.8853 616.8 92.778C616.238 92.2321 615.679 91.684 615.124 91.1341C614.995 91.0067 614.867 90.8791 614.739 90.7515C614.231 90.2456 613.725 89.7381 613.223 89.2287C613.153 89.1576 613.082 89.0868 613.011 89.0157C612.462 88.4563 611.917 87.8947 611.375 87.3315C611.243 87.195 611.112 87.0584 610.982 86.9216C610.434 86.35 609.889 85.7771 609.35 85.2015C609.338 85.1888 609.327 85.1763 609.315 85.1636C608.785 84.5966 608.259 84.0272 607.737 83.4562C607.612 83.3199 607.487 83.1834 607.363 83.0466C606.84 82.472 606.32 81.8961 605.806 81.3175C605.738 81.2413 605.671 81.1642 605.603 81.0877C605.137 80.5621 604.675 80.0346 604.217 79.5057C604.104 79.3765 603.992 79.2472 603.88 79.1177C603.38 78.5375 602.883 77.9557 602.392 77.3714C602.297 77.2597 602.204 77.1475 602.11 77.0353C601.674 76.5137 601.24 75.9908 600.81 75.466C600.72 75.3557 600.629 75.2457 600.539 75.1354C600.058 74.5454 599.582 73.9535 599.11 73.3595C599.006 73.2279 598.902 73.0962 598.798 72.9645C598.365 72.4167 597.936 71.8676 597.512 71.3163C597.455 71.243 597.398 71.17 597.341 71.0967C596.879 70.4941 596.422 69.889 595.969 69.2822C595.863 69.1398 595.757 68.997 595.651 68.8545C595.193 68.2381 594.739 67.6205 594.293 67H583.367C582.908 67.6378 582.442 68.2727 581.971 68.9062C581.824 69.1052 581.674 69.3033 581.525 69.5023C581.194 69.943 580.862 70.383 580.526 70.8218C580.357 71.0435 580.186 71.2649 580.016 71.4864C579.679 71.9217 579.34 72.3559 578.999 72.7893C578.842 72.9883 578.686 73.1878 578.528 73.3863C578.055 73.9814 577.579 74.5749 577.096 75.1662C577.074 75.1938 577.052 75.2219 577.029 75.2495C576.525 75.867 576.014 76.4816 575.501 77.0945C575.338 77.2884 575.173 77.4814 575.01 77.6747C574.65 78.1006 574.288 78.5259 573.923 78.9498C573.735 79.168 573.547 79.3857 573.358 79.6033C572.996 80.02 572.631 80.4355 572.265 80.85C572.089 81.0488 571.915 81.248 571.738 81.4462C571.246 81.9986 570.751 82.5491 570.251 83.0977C570.204 83.149 570.158 83.201 570.111 83.2526C569.567 83.8485 569.018 84.4423 568.465 85.0338C568.287 85.2245 568.107 85.4137 567.928 85.6035C567.543 86.0134 567.155 86.4225 566.765 86.8302C566.561 87.0446 566.355 87.2585 566.148 87.4724C565.763 87.8723 565.375 88.2711 564.985 88.6688C564.794 88.8645 564.603 89.0608 564.41 89.2558C563.9 89.7733 563.387 90.2892 562.87 90.8029C562.802 90.8705 562.735 90.9383 562.667 91.0059C562.086 91.5821 561.5 92.1556 560.912 92.7274C560.721 92.9121 560.529 93.0957 560.339 93.2798C559.928 93.6756 559.517 94.0706 559.103 94.4643C558.883 94.6733 558.662 94.8823 558.441 95.0908C558.034 95.4744 557.626 95.8573 557.216 96.2391C557.008 96.4321 556.801 96.6254 556.593 96.8179C556.069 97.3027 555.541 97.7859 555.011 98.2674C554.923 98.3483 554.835 98.4294 554.746 98.5102C554.132 99.0664 553.514 99.6204 552.893 100.172C552.694 100.35 552.493 100.526 552.293 100.702C551.858 101.086 551.422 101.47 550.984 101.852C550.752 102.055 550.519 102.257 550.285 102.459C549.861 102.827 549.434 103.194 549.007 103.56C548.784 103.75 548.562 103.94 548.339 104.13C547.805 104.584 547.268 105.037 546.729 105.488C546.618 105.58 546.51 105.673 546.4 105.765C545.756 106.302 545.109 106.836 544.459 107.369C544.254 107.537 544.047 107.705 543.841 107.873C543.383 108.246 542.925 108.618 542.464 108.989C542.222 109.184 541.98 109.379 541.736 109.573C541.293 109.929 540.847 110.283 540.4 110.637C540.167 110.821 539.936 111.005 539.703 111.188C539.156 111.618 538.607 112.047 538.056 112.474C537.931 112.571 537.807 112.669 537.681 112.766C537.012 113.284 536.339 113.8 535.664 114.313C535.453 114.474 535.242 114.633 535.031 114.792C515.01 129.953 492.699 143.234 470.647 154.584C470.587 154.615 470.528 154.645 470.469 154.676C469.774 155.033 469.08 155.388 468.386 155.741C468.255 155.808 468.124 155.875 467.993 155.941C467.285 156.301 466.578 156.659 465.87 157.015C465.717 157.092 465.563 157.169 465.41 157.246C464.691 157.607 463.973 157.966 463.255 158.323C463.186 158.357 463.117 158.392 463.047 158.426C462.364 158.766 461.681 159.103 460.999 159.438C460.868 159.503 460.738 159.567 460.608 159.631C459.904 159.977 459.201 160.32 458.499 160.662C458.346 160.736 458.193 160.81 458.04 160.884C457.326 161.231 456.613 161.576 455.901 161.918C455.828 161.954 455.755 161.988 455.682 162.023C455.005 162.349 454.328 162.672 453.653 162.993C453.527 163.053 453.4 163.113 453.274 163.173C452.577 163.505 451.881 163.834 451.185 164.161C451.03 164.234 450.875 164.307 450.719 164.38C450.017 164.71 449.316 165.039 448.616 165.364C448.53 165.404 448.445 165.443 448.36 165.483C447.702 165.789 447.044 166.093 446.388 166.396C446.26 166.455 446.132 166.514 446.005 166.572C445.315 166.89 444.625 167.206 443.937 167.52C443.788 167.588 443.64 167.655 443.491 167.723C442.794 168.04 442.099 168.355 441.405 168.669C441.32 168.707 441.236 168.744 441.152 168.782C440.501 169.076 439.852 169.367 439.205 169.656C439.08 169.712 438.956 169.768 438.832 169.823C438.153 170.126 437.475 170.427 436.799 170.726C436.648 170.792 436.498 170.859 436.348 170.925C435.665 171.227 434.983 171.527 434.303 171.824C434.215 171.863 434.127 171.901 434.038 171.94C433.4 172.219 432.763 172.496 432.128 172.772C432.011 172.823 431.893 172.874 431.776 172.924C431.109 173.213 430.444 173.5 429.781 173.785C429.629 173.85 429.478 173.915 429.326 173.98C428.659 174.266 427.994 174.55 427.331 174.832C427.238 174.871 427.147 174.91 427.054 174.949C426.428 175.215 425.804 175.479 425.181 175.741C425.073 175.787 424.964 175.833 424.856 175.878C424.198 176.155 423.543 176.43 422.889 176.703C422.745 176.763 422.602 176.822 422.458 176.882C421.806 177.154 421.156 177.424 420.509 177.691C420.41 177.732 420.312 177.772 420.213 177.813C419.609 178.062 419.008 178.31 418.408 178.555C418.3 178.6 418.191 178.644 418.083 178.689C417.443 178.95 416.805 179.21 416.17 179.468C416.03 179.525 415.891 179.581 415.751 179.638C415.115 179.896 414.48 180.152 413.849 180.406C413.754 180.444 413.659 180.482 413.565 180.52C412.975 180.756 412.389 180.991 411.804 181.224C411.699 181.266 411.594 181.308 411.49 181.35C410.87 181.596 410.253 181.841 409.639 182.084C409.499 182.139 409.359 182.194 409.22 182.249C409.105 182.294 408.992 182.339 408.877 182.383C407.906 181.922 406.848 181.666 405.737 181.666C403.031 181.666 400.622 183.173 399.074 185.519C397.267 182.121 394.075 179.862 390.438 179.862C388.027 179.862 385.812 180.855 384.065 182.514C382.594 176.721 378.063 172.501 372.701 172.501C366.817 172.501 361.935 177.58 360.996 184.244C359.334 182.612 357.201 181.632 354.876 181.632C349.57 181.632 345.268 186.736 345.268 193.031C345.268 193.505 345.293 193.972 345.34 194.43C344.415 194.17 343.45 194.031 342.458 194.031C335.578 194.031 330 200.649 330 208.812C330 209.282 330.019 209.747 330.055 210.205H381.711C381.718 210.245 381.724 210.285 381.732 210.325H438.539H481.553H538.361C538.364 210.285 538.365 210.245 538.368 210.205H540.793C540.8 210.245 540.806 210.285 540.814 210.325H562.081H597.058H654.98H661.903H690.978H711.225H747.785H790.799H847.607C847.641 209.884 847.66 209.438 847.66 208.987C847.66 201.146 842.303 194.79 835.694 194.79Z" fill="#F5F5F5"/>
<path fill-rule="evenodd" clip-rule="evenodd" d="M600.226 223.002C600.226 218.539 603.844 214.92 608.307 214.92C612.77 214.92 616.389 218.539 616.389 223.002C616.389 227.465 612.77 231.084 608.307 231.084C603.844 231.084 600.226 227.465 600.226 223.002ZM593.905 223.082C593.905 231.213 600.496 237.805 608.628 237.805C616.759 237.805 623.35 231.213 623.35 223.082C623.35 214.951 616.759 208.359 608.628 208.359C600.496 208.359 593.905 214.951 593.905 223.082Z" fill="#C5C5C5"/>
<path fill-rule="evenodd" clip-rule="evenodd" d="M481.429 223.002C481.429 218.539 485.047 214.92 489.511 214.92C493.974 214.92 497.592 218.539 497.592 223.002C497.592 227.465 493.974 231.084 489.511 231.084C485.047 231.084 481.429 227.465 481.429 223.002ZM475.108 223.082C475.108 231.213 481.7 237.805 489.831 237.805C497.962 237.805 504.554 231.213 504.554 223.082C504.554 214.951 497.962 208.359 489.831 208.359C481.7 208.359 475.108 214.951 475.108 223.082Z" fill="#C5C5C5"/>
<path fill-rule="evenodd" clip-rule="evenodd" d="M535.014 196.517H535.157V163.23H560.223V188.527C556.723 188.653 553.897 191.547 553.897 195.076V211.879H535.014V207.399V196.517ZM557.578 149.148H570.54V144.827H557.578V149.148ZM565.174 163.23H586.148V188.515H576.622H565.174V163.23ZM573.421 149.148H586.383V144.827H573.421V149.148ZM589.264 149.148H602.226V144.827H589.264V149.148ZM591.1 188.515H612.074V163.23H591.1V188.515ZM617.024 188.515H637.998V163.23H617.024V188.515ZM620.95 149.148H633.912V144.827H620.95V149.148ZM605.107 149.148H618.069V144.827H605.107V149.148ZM541.735 149.148H554.698V144.827H541.735V149.148ZM642.949 163.231H650.876C650.876 163.231 651.412 161.611 651.37 159.473C652.575 159.446 654 159.644 655.2 160.471C656.956 161.68 657.924 164.03 658.078 167.456L658.077 213.524L655.668 217.138C655.309 217.054 654.939 217.001 654.556 217.001H650.876V188.515H642.949V163.231ZM456.999 216.601C456.999 216.601 457.239 221.161 461.08 221.161H464.92V222.442H466.841H471.642C471.642 212.189 479.953 203.878 490.205 203.878C500.457 203.878 508.769 212.189 508.769 222.442H511.329H560.458H576.621H590.064C590.064 212.189 598.375 203.878 608.627 203.878C618.88 203.878 627.191 212.189 627.191 222.442H635.561C635.808 224.944 637.909 226.923 640.473 226.923H654.556C657.284 226.923 659.517 224.69 659.517 221.961C659.517 220.656 658.996 219.473 658.165 218.585L660.715 214.759C660.873 214.522 660.957 214.244 660.957 213.96V167.391C660.759 162.939 659.365 159.829 656.812 158.084C654.878 156.76 652.672 156.515 650.931 156.606C649.848 153.029 646.39 149.317 636.793 149.158V144.827H643.514C645.362 144.827 646.874 143.315 646.874 141.466C646.874 139.618 645.362 138.106 643.514 138.106H532.613C530.765 138.106 529.252 139.618 529.252 141.466C529.252 143.315 530.765 144.827 532.613 144.827H538.854V149.148H536.614C536.614 149.148 528.795 149.783 526.944 156.187V160.03V163.23V179.874H522.531H484.764H479.319C475.699 174.323 468.121 176.033 468.121 176.033V183.074H464.92V210.599H460.119C460.119 210.599 456.999 211.08 456.999 216.601Z" fill="#C5C5C5"/>
<path fill-rule="evenodd" clip-rule="evenodd" d="M851.643 168.401C840.046 166.862 830.971 249.895 833.045 257.07C837.857 273.72 855.691 277.718 867.118 261.474C878.544 245.23 861.966 169.771 851.643 168.401Z" fill="#FF454B"/>
<path fill-rule="evenodd" clip-rule="evenodd" d="M817.381 290.746C816.034 292.266 809.372 304.021 809.372 304.021C815.183 307.441 816.75 305.426 816.75 305.426L861.074 268.025C867.094 260.955 866.157 246.906 860.349 243.498C854.532 240.088 843.39 245.332 837.365 252.402L817.381 290.746Z" fill="#FAC7AC"/>
<path fill-rule="evenodd" clip-rule="evenodd" d="M836.316 213.901C829.414 217.352 830.459 231.006 831.709 249.285C832.965 267.571 831.028 325.829 831.028 325.829C831.028 325.829 831.363 332.913 829.921 335.194C827.016 339.782 819.03 340.132 790.907 339.782C764.661 339.455 744.34 335.942 733.486 336.239C722.629 336.535 725.761 326.338 725.761 326.338C725.761 326.338 727.976 308.328 729.398 295.296C730.83 282.255 734.261 258.541 735.102 243.136C735.944 227.731 739.23 225.281 735.817 219.593C732.401 213.907 731.058 214.246 729.848 207.126L714.185 170.673C724.142 152.513 727.636 152.408 737.163 149.294C746.698 146.188 767.302 140.093 767.302 140.093L801.253 141.248C801.253 141.248 811.579 144.399 822.849 148.812C833.59 153.015 845.016 155.181 855.644 172.276L836.316 213.901Z" fill="#FF454B"/>
<path fill-rule="evenodd" clip-rule="evenodd" d="M776.885 133.259V149.425C776.885 149.425 773.064 156.432 776.885 157.195C785.283 158.878 797.406 149.44 797.406 149.44V124.756L776.885 133.259Z" fill="#FAC7AC"/>
<path fill-rule="evenodd" clip-rule="evenodd" d="M760.334 95.5716C760.334 95.5716 758.922 112.6 762.402 126.579C764.872 136.501 787.042 142.138 795.87 123.313C804.697 104.487 792.78 85.7102 792.78 85.7102L760.334 95.5716Z" fill="#FAC7AC"/>
<path fill-rule="evenodd" clip-rule="evenodd" d="M799.114 108.08C799.893 105.674 805.073 106.731 805.084 106.229C809.603 102.993 813.125 97.5839 808.513 94.5462C811.035 89.458 808.486 84.2262 802.966 82.8694C803.353 78.4001 800.087 75.6412 796.936 75.0372C795.624 70.0641 789.082 67.4593 786.221 70.5073C784.827 69.512 783.158 68.8956 781.286 68.9245C779.979 68.9483 778.959 69.3136 778.109 69.8808C777.561 68.7114 776.64 67.7516 775.133 67.2565C771.79 66.1626 769.02 68.7566 766.945 71.4579C762.914 68.149 755.957 70.3515 753.849 74.8538C745.518 77.8791 740.836 86.3789 749.937 93.0267C760.155 100.498 776.804 95.0347 789.139 90.3726C789.139 90.3726 797.526 92.7793 799.114 108.08Z" fill="black"/>
<path fill-rule="evenodd" clip-rule="evenodd" d="M775.883 129.955C773.523 129.905 763.857 124.704 762.356 126.645C760.854 128.587 764.955 138.311 768.878 140.371C772.801 142.432 777.27 144.729 780.311 144.63C783.351 144.531 794.561 139.283 796.263 137.895C797.966 136.508 801.332 115.348 799.581 109.982C797.83 104.615 799.47 97.7685 797.576 99.0474C795.682 100.326 796.474 123.633 793.623 126.365C790.773 129.096 780.07 130.044 775.883 129.955Z" fill="black"/>
<path fill-rule="evenodd" clip-rule="evenodd" d="M733.146 151.573C748.007 153.916 732.493 236.006 727.612 242.161C716.286 256.444 692.907 254.395 683.988 235.165C675.069 215.935 719.919 149.487 733.146 151.573Z" fill="#FF454B"/>
<path fill-rule="evenodd" clip-rule="evenodd" d="M776.016 218.283C778.632 217.373 794.404 207.833 794.404 207.833C789.772 199.886 786.562 201.238 786.562 201.238L708.868 216.158C696.988 220.552 688.727 237.892 693.363 245.823C698.008 253.762 714.764 254.959 726.651 250.567L776.016 218.283Z" fill="#FAC7AC"/>
<path fill-rule="evenodd" clip-rule="evenodd" d="M789.905 197.149C793.426 192.115 795.562 185.4 796.872 185.355C796.872 185.355 800.619 185.855 797.359 192.372C794.545 197.992 794.558 198.227 799.095 199.395C799.095 199.395 791.211 205.665 785.76 206.903C781.66 207.834 779.416 203.877 780.273 203.627C786.883 201.69 789.084 198.323 789.905 197.149Z" fill="#FAC7AC"/>
<path fill-rule="evenodd" clip-rule="evenodd" d="M781.864 205.972C781.864 205.972 788.545 204.345 792.954 197.929C803.857 197.282 805.243 202.507 814.724 198.591C817.516 197.438 810.586 204.037 808.445 205.017C803.985 207.059 800.207 210.031 793.735 212.154C793.735 212.154 785.574 213.51 783.953 210.265C783.953 210.265 782.715 209.892 781.864 205.972Z" fill="#FAC7AC"/>
<path fill-rule="evenodd" clip-rule="evenodd" d="M823.932 182.427C824.634 183.696 823.491 184.629 820.815 186.833L800.938 200.963C799.384 202.017 797.556 201.841 796.858 200.572C796.156 199.303 796.848 197.421 798.401 196.368L818.653 184.166C820.206 183.114 823.232 181.158 823.932 182.427Z" fill="#FAC7AC"/>
<path fill-rule="evenodd" clip-rule="evenodd" d="M817.508 179.598C818.401 180.721 817.356 181.761 814.908 184.213L796.435 200.281C794.984 201.489 793.082 201.559 792.187 200.435C791.295 199.312 791.747 197.421 793.197 196.214L812.322 181.94C813.774 180.732 816.612 178.475 817.508 179.598Z" fill="#FAC7AC"/>
<path fill-rule="evenodd" clip-rule="evenodd" d="M821.035 196.996C821.346 198.093 820.393 198.67 818.163 200.032L805.53 206.467C804.265 207.08 799.378 208.618 799.071 207.52C798.762 206.423 799.534 205.036 800.797 204.421L817.02 197.629C818.284 197.014 820.727 195.897 821.035 196.996Z" fill="#FAC7AC"/>
<path fill-rule="evenodd" clip-rule="evenodd" d="M825.103 189.014C825.622 190.394 824.41 191.219 821.563 193.173L800.717 205.384C799.093 206.286 797.356 205.899 796.839 204.517C796.319 203.136 797.214 201.287 798.836 200.385L819.811 190.191C821.434 189.29 824.582 187.634 825.103 189.014Z" fill="#FAC7AC"/>
</g>
<defs>
<clipPath id="clip0_1643_13904">
<rect width="1200" height="320" fill="white"/>
</clipPath>
</defs>
</svg>
