<svg width="360" height="120" viewBox="0 0 360 120" fill="none" xmlns="http://www.w3.org/2000/svg">
<g clip-path="url(#clip0_1643_16452)">
<rect width="360" height="120" fill="#F5F5F5"/>
<path fill-rule="evenodd" clip-rule="evenodd" d="M302.077 94.1434C301.604 94.1434 301.144 94.2094 300.702 94.3333C300.725 94.1148 300.737 93.8924 300.737 93.6667C300.737 90.6644 298.685 88.2306 296.155 88.2306C295.046 88.2306 294.029 88.6981 293.236 89.4759C292.788 86.2983 290.46 83.876 287.655 83.876C285.097 83.876 282.937 85.8885 282.235 88.6509C281.402 87.8599 280.346 87.3866 279.196 87.3866C277.462 87.3866 275.939 88.4635 275.078 90.0843C274.339 88.9655 273.19 88.2466 271.9 88.2466C271.37 88.2466 270.865 88.369 270.402 88.589C270.16 88.495 269.919 88.4011 269.675 88.3058C269.659 88.2996 269.644 88.2935 269.628 88.2874C269.317 88.1655 269.003 88.0422 268.689 87.9181C268.63 87.8952 268.572 87.8723 268.514 87.8493C268.212 87.73 267.908 87.6096 267.603 87.4882C267.537 87.462 267.472 87.4357 267.405 87.4094C267.096 87.2862 266.786 87.1621 266.474 87.0369C266.427 87.0177 266.379 86.9982 266.331 86.979C266.023 86.8551 265.714 86.7304 265.403 86.6046C265.373 86.5923 265.343 86.5802 265.312 86.5679C264.992 86.4379 264.67 86.3065 264.346 86.1743C264.283 86.1484 264.22 86.1224 264.156 86.0964C263.905 85.9938 263.653 85.8901 263.401 85.786C262.381 84.605 260.988 83.876 259.45 83.876C259.272 83.876 259.097 83.8867 258.923 83.9057C258.837 83.8685 258.751 83.832 258.664 83.7948C258.598 83.7665 258.531 83.7379 258.465 83.7096C258.127 83.5645 257.789 83.4185 257.449 83.2714C257.422 83.2595 257.394 83.2475 257.367 83.2357C257.038 83.0932 256.709 82.9496 256.378 82.8052C256.323 82.7809 256.268 82.7569 256.212 82.7327C255.878 82.5864 255.543 82.439 255.207 82.2906C255.136 82.2592 255.065 82.2278 254.994 82.1963C254.66 82.0485 254.325 81.8999 253.99 81.7502C253.927 81.7224 253.865 81.6945 253.802 81.6666C253.458 81.5126 253.112 81.3578 252.766 81.2017C252.75 81.1942 252.733 81.1866 252.716 81.1791C252.369 81.0226 252.021 80.8647 251.673 80.7061C251.608 80.6768 251.544 80.6475 251.48 80.6183C251.141 80.4639 250.802 80.3086 250.463 80.1523C250.389 80.1186 250.316 80.0848 250.243 80.051C249.9 79.8934 249.558 79.7347 249.214 79.5749C249.157 79.5485 249.1 79.5218 249.043 79.4952C248.705 79.3377 248.366 79.1793 248.027 79.02C247.995 79.0048 247.963 78.9899 247.931 78.9747C247.579 78.8091 247.225 78.642 246.872 78.4743C246.803 78.4413 246.733 78.4082 246.664 78.3752C246.321 78.212 245.977 78.0478 245.633 77.8827C245.56 77.8477 245.487 77.8126 245.415 77.7774C245.065 77.6091 244.714 77.44 244.364 77.2696C244.315 77.2457 244.266 77.2217 244.216 77.1979C243.88 77.0341 243.543 76.8696 243.206 76.7039C243.158 76.6804 243.11 76.6571 243.062 76.6334C242.711 76.4608 242.359 76.287 242.008 76.1124C241.933 76.0754 241.859 76.0385 241.784 76.0014C227.594 68.9422 212.95 60.2566 200.643 49.9979C200.604 49.9653 200.564 49.9329 200.525 49.9001C200.218 49.6439 199.913 49.3863 199.609 49.128C199.533 49.0632 199.457 48.998 199.381 48.9331C199.074 48.6717 198.769 48.4098 198.467 48.1465C198.453 48.1345 198.439 48.1222 198.425 48.1102C198.132 47.8552 197.841 47.5994 197.551 47.3427C197.478 47.2777 197.404 47.2126 197.331 47.1475C197.035 46.8845 196.741 46.6208 196.449 46.3559C196.405 46.316 196.361 46.276 196.317 46.2362C196.055 45.9981 195.795 45.7592 195.535 45.5196C195.469 45.458 195.402 45.3966 195.336 45.335C195.049 45.0689 194.764 44.8019 194.481 44.5338C194.422 44.4785 194.364 44.423 194.306 44.3675C194.056 44.1304 193.808 43.8926 193.561 43.654C193.506 43.6009 193.451 43.5478 193.396 43.4945C193.117 43.2235 192.839 42.9514 192.564 42.6783C192.5 42.6151 192.436 42.5518 192.373 42.4884C192.12 42.2372 191.869 41.9853 191.62 41.7323C191.585 41.697 191.55 41.6619 191.515 41.6266C191.242 41.3488 190.971 41.07 190.702 40.7904C190.637 40.7226 190.572 40.6548 190.507 40.5869C190.235 40.3031 189.965 40.0186 189.697 39.7328C189.691 39.7265 189.685 39.7203 189.68 39.714C189.416 39.4325 189.156 39.1498 188.896 38.8663C188.834 38.7986 188.772 38.7308 188.71 38.6629C188.451 38.3776 188.193 38.0917 187.938 37.8044C187.904 37.7666 187.87 37.7283 187.837 37.6903C187.605 37.4294 187.376 37.1675 187.148 36.9049C187.093 36.8407 187.037 36.7765 186.981 36.7122C186.733 36.4242 186.486 36.1353 186.242 35.8452C186.195 35.7897 186.149 35.734 186.103 35.6783C185.886 35.4194 185.67 35.1597 185.457 34.8992C185.412 34.8444 185.367 34.7898 185.322 34.735C185.083 34.4421 184.847 34.1482 184.613 33.8533C184.561 33.7879 184.51 33.7225 184.458 33.6572C184.243 33.3852 184.03 33.1126 183.819 32.8388C183.791 32.8025 183.763 32.7662 183.735 32.7298C183.505 32.4306 183.278 32.1302 183.053 31.8289C183.001 31.7582 182.948 31.6873 182.895 31.6166C182.668 31.3105 182.443 31.0039 182.221 30.6958H176.797C176.569 31.0125 176.337 31.3277 176.104 31.6422C176.03 31.741 175.956 31.8394 175.882 31.9382C175.718 32.157 175.553 32.3754 175.386 32.5933C175.302 32.7034 175.217 32.8133 175.133 32.9233C174.966 33.1394 174.797 33.355 174.628 33.5702C174.55 33.669 174.472 33.7681 174.394 33.8666C174.159 34.1621 173.923 34.4567 173.683 34.7503C173.672 34.764 173.661 34.778 173.65 34.7916C173.399 35.0983 173.146 35.4034 172.891 35.7077C172.81 35.804 172.728 35.8998 172.647 35.9958C172.468 36.2072 172.289 36.4184 172.107 36.6289C172.014 36.7372 171.921 36.8453 171.827 36.9533C171.647 37.1602 171.466 37.3665 171.284 37.5723C171.197 37.671 171.11 37.7699 171.023 37.8683C170.778 38.1426 170.532 38.4159 170.284 38.6883C170.261 38.7138 170.238 38.7396 170.215 38.7652C169.945 39.0611 169.672 39.3559 169.397 39.6496C169.309 39.7442 169.22 39.8382 169.131 39.9324C168.94 40.1359 168.747 40.3391 168.554 40.5415C168.452 40.6479 168.35 40.7541 168.247 40.8603C168.056 41.0589 167.863 41.2569 167.67 41.4543C167.575 41.5515 167.48 41.649 167.384 41.7458C167.131 42.0027 166.876 42.2588 166.62 42.5139C166.586 42.5475 166.553 42.5812 166.519 42.6147C166.231 42.9008 165.94 43.1855 165.647 43.4694C165.553 43.5611 165.458 43.6523 165.363 43.7437C165.159 43.9402 164.955 44.1363 164.749 44.3318C164.64 44.4356 164.53 44.5393 164.421 44.6428C164.219 44.8333 164.016 45.0234 163.812 45.213C163.709 45.3088 163.607 45.4048 163.503 45.5004C163.243 45.7411 162.981 45.981 162.718 46.22C162.674 46.2602 162.63 46.3005 162.586 46.3406C162.281 46.6167 161.975 46.8918 161.666 47.1659C161.567 47.2538 161.467 47.3412 161.368 47.429C161.152 47.6196 160.936 47.81 160.719 47.9997C160.603 48.1004 160.488 48.2008 160.372 48.3011C160.161 48.4838 159.949 48.6659 159.737 48.8476C159.626 48.9419 159.516 49.0366 159.405 49.1307C159.14 49.3562 158.873 49.5809 158.606 49.8051C158.551 49.8507 158.497 49.8968 158.442 49.9424C158.123 50.209 157.801 50.4744 157.479 50.7389C157.377 50.8225 157.274 50.9058 157.172 50.9893C156.944 51.1745 156.717 51.3592 156.488 51.5435C156.368 51.6403 156.248 51.7368 156.127 51.8335C155.907 52.01 155.685 52.1859 155.463 52.3615C155.348 52.4528 155.233 52.5442 155.117 52.6351C154.846 52.8486 154.573 53.0614 154.3 53.2735C154.237 53.322 154.176 53.3706 154.113 53.4188C153.781 53.676 153.447 53.932 153.112 54.1869C153.007 54.2664 152.903 54.3454 152.798 54.4246C142.857 61.9518 131.78 68.5458 120.831 74.1814C120.802 74.1966 120.772 74.2114 120.743 74.2266C120.398 74.404 120.053 74.5802 119.709 74.7557C119.643 74.7888 119.578 74.822 119.513 74.855C119.162 75.0337 118.811 75.2113 118.46 75.3879C118.383 75.4263 118.307 75.4646 118.231 75.5029C117.874 75.6821 117.517 75.8605 117.161 76.0375C117.127 76.0546 117.092 76.0716 117.058 76.0888C116.719 76.2573 116.379 76.4248 116.041 76.5914C115.976 76.6232 115.911 76.6553 115.847 76.687C115.497 76.8587 115.148 77.0292 114.8 77.1987C114.723 77.2356 114.648 77.2726 114.572 77.3093C114.217 77.4814 113.863 77.6527 113.51 77.8227C113.473 77.8401 113.437 77.8573 113.401 77.8748C113.065 78.0363 112.729 78.1967 112.393 78.3563C112.331 78.3861 112.268 78.416 112.206 78.4457C111.859 78.6103 111.514 78.7737 111.168 78.9362C111.091 78.9725 111.014 79.0087 110.937 79.045C110.588 79.2089 110.24 79.3718 109.892 79.5336C109.85 79.5533 109.808 79.5728 109.766 79.5924C109.439 79.7445 109.112 79.8955 108.786 80.0457C108.723 80.075 108.66 80.1043 108.597 80.1334C108.254 80.2913 107.911 80.4479 107.57 80.6038C107.496 80.6375 107.422 80.671 107.348 80.7046C107.002 80.8621 106.657 81.0187 106.312 81.1742C106.27 81.1931 106.229 81.2118 106.187 81.2307C105.864 81.3762 105.541 81.5208 105.22 81.6645C105.158 81.6921 105.096 81.7199 105.035 81.7474C104.698 81.8977 104.361 82.0471 104.025 82.1956C103.951 82.2286 103.876 82.2617 103.802 82.2945C103.462 82.4444 103.124 82.5932 102.787 82.741C102.743 82.7602 102.699 82.7792 102.655 82.7984C102.338 82.937 102.022 83.0746 101.706 83.2114C101.648 83.2367 101.59 83.262 101.532 83.2871C101.201 83.4306 100.871 83.5729 100.541 83.7144C100.466 83.7468 100.391 83.779 100.315 83.8112C99.9843 83.9531 99.6539 84.0943 99.3247 84.2342C99.2788 84.2538 99.2332 84.273 99.1874 84.2925C98.8765 84.4246 98.5665 84.5556 98.2574 84.6858C98.2037 84.7085 98.1497 84.7313 98.096 84.7539C97.7693 84.8913 97.444 85.0276 97.1195 85.163C97.048 85.1928 96.9766 85.2225 96.9052 85.2523C96.5816 85.3871 96.259 85.521 95.9378 85.6538C95.8887 85.6741 95.8398 85.6942 95.7908 85.7144C95.4909 85.8381 95.1922 85.961 94.8945 86.083C94.8406 86.105 94.7867 86.1271 94.733 86.1492C94.4152 86.2791 94.0987 86.408 93.7834 86.536C93.714 86.5642 93.6447 86.5923 93.5754 86.6203C93.2593 86.7484 92.9444 86.8757 92.631 87.0016C92.5838 87.0205 92.5368 87.0393 92.4898 87.0582C92.1972 87.1757 91.9059 87.2924 91.6155 87.4081C91.5637 87.4287 91.5116 87.4496 91.4598 87.4702C91.152 87.5928 90.8458 87.7141 90.5405 87.8347C90.4711 87.8621 90.4017 87.8895 90.3324 87.9169C90.2756 87.9393 90.2194 87.9613 90.1626 87.9836C89.6804 87.7547 89.1547 87.6273 88.6035 87.6273C87.26 87.6273 86.0639 88.3758 85.2953 89.5405C84.398 87.8532 82.813 86.7319 81.0072 86.7319C79.8101 86.7319 78.7104 87.2247 77.8434 88.0483C77.1128 85.172 74.8633 83.0769 72.2009 83.0769C69.2798 83.0769 66.8557 85.5988 66.3896 88.9073C65.5643 88.0973 64.5055 87.6105 63.3509 87.6105C60.7163 87.6105 58.5806 90.1446 58.5806 93.2703C58.5806 93.5053 58.5928 93.737 58.6163 93.9644C58.157 93.8354 57.6781 93.7666 57.1856 93.7666C53.7693 93.7666 51 97.0523 51 101.105C51 101.339 51.0095 101.569 51.0275 101.797H76.6743C76.678 101.817 76.6808 101.837 76.6847 101.857H104.89H126.246H154.451C154.452 101.837 154.453 101.817 154.454 101.797H155.658C155.662 101.817 155.665 101.837 155.669 101.857H166.228H183.594H212.352H215.79H230.225H240.278H258.43H279.786H307.991C308.008 101.638 308.018 101.416 308.018 101.192C308.018 97.2991 305.358 94.1434 302.077 94.1434Z" fill="#E5E5E5"/>
<path fill-rule="evenodd" clip-rule="evenodd" d="M185.167 108.15C185.167 105.934 186.963 104.138 189.179 104.138C191.395 104.138 193.192 105.934 193.192 108.15C193.192 110.366 191.395 112.163 189.179 112.163C186.963 112.163 185.167 110.366 185.167 108.15ZM182.029 108.19C182.029 112.227 185.301 115.5 189.338 115.5C193.376 115.5 196.648 112.227 196.648 108.19C196.648 104.153 193.376 100.88 189.338 100.88C185.301 100.88 182.029 104.153 182.029 108.19Z" fill="#E5E5E5"/>
<path fill-rule="evenodd" clip-rule="evenodd" d="M126.185 108.15C126.185 105.934 127.981 104.138 130.197 104.138C132.413 104.138 134.209 105.934 134.209 108.15C134.209 110.366 132.413 112.163 130.197 112.163C127.981 112.163 126.185 110.366 126.185 108.15ZM123.046 108.19C123.046 112.227 126.319 115.5 130.356 115.5C134.393 115.5 137.666 112.227 137.666 108.19C137.666 104.153 134.393 100.88 130.356 100.88C126.319 100.88 123.046 104.153 123.046 108.19Z" fill="#E5E5E5"/>
<path fill-rule="evenodd" clip-rule="evenodd" d="M152.789 95.001H152.86V78.4744H165.306V91.0343C163.568 91.0968 162.165 92.5337 162.165 94.2859V102.629H152.789V100.404V95.001ZM163.992 71.4824H170.428V69.3372H163.992V71.4824ZM167.764 78.4744H178.177V91.0283H173.447H167.764V78.4744ZM171.858 71.4824H178.294V69.3372H171.858V71.4824ZM179.724 71.4824H186.16V69.3372H179.724V71.4824ZM180.636 91.0283H191.049V78.4744H180.636V91.0283ZM193.507 91.0283H203.921V78.4744H193.507V91.0283ZM195.456 71.4824H201.892V69.3372H195.456V71.4824ZM187.59 71.4824H194.026V69.3372H187.59V71.4824ZM156.126 71.4824H162.562V69.3372H156.126V71.4824ZM206.379 78.4744H210.314C210.314 78.4744 210.58 77.6704 210.56 76.609C211.158 76.5952 211.866 76.6937 212.461 77.1041C213.333 77.7045 213.814 78.8712 213.89 80.5725L213.89 103.445L212.694 105.239C212.516 105.198 212.332 105.171 212.142 105.171H210.314V91.0283H206.379V78.4744ZM114.055 104.973C114.055 104.973 114.174 107.237 116.081 107.237H117.988V107.873H118.941H121.325C121.325 102.782 125.452 98.6559 130.542 98.6559C135.632 98.6559 139.759 102.782 139.759 107.873H141.03H165.422H173.447H180.122C180.122 102.782 184.248 98.6559 189.338 98.6559C194.429 98.6559 198.555 102.782 198.555 107.873H202.711C202.834 109.115 203.877 110.097 205.15 110.097H212.142C213.497 110.097 214.605 108.989 214.605 107.634C214.605 106.986 214.346 106.399 213.934 105.958L215.2 104.058C215.278 103.941 215.32 103.803 215.32 103.662V80.5403C215.221 78.3298 214.529 76.7856 213.262 75.9191C212.302 75.262 211.206 75.1402 210.342 75.1854C209.805 73.4092 208.087 71.5662 203.322 71.4874V69.3372H206.66C207.577 69.3372 208.328 68.5863 208.328 67.6686C208.328 66.7509 207.577 66 206.66 66H151.597C150.68 66 149.929 66.7509 149.929 67.6686C149.929 68.5863 150.68 69.3372 151.597 69.3372H154.696V71.4824H153.584C153.584 71.4824 149.702 71.7976 148.782 74.9771V76.8854V78.4744V86.7378H146.592H127.84H125.137C123.34 83.9817 119.577 84.8309 119.577 84.8309V88.3268H117.988V101.993H115.604C115.604 101.993 114.055 102.231 114.055 104.973Z" fill="#C5C5C5"/>
<path fill-rule="evenodd" clip-rule="evenodd" d="M263.822 73.3455C258.064 72.5813 253.559 113.807 254.588 117.37C256.977 125.636 265.832 127.621 271.505 119.556C277.179 111.491 268.948 74.0255 263.822 73.3455Z" fill="#FF454B"/>
<path fill-rule="evenodd" clip-rule="evenodd" d="M246.811 134.09C246.143 134.845 242.835 140.681 242.835 140.681C245.72 142.379 246.498 141.379 246.498 141.379L268.505 122.809C271.494 119.299 271.029 112.323 268.145 110.631C265.257 108.938 259.725 111.542 256.733 115.052L246.811 134.09Z" fill="#FAC7AC"/>
<path fill-rule="evenodd" clip-rule="evenodd" d="M256.212 95.9362C252.785 97.6497 253.304 104.429 253.925 113.505C254.549 122.583 253.587 151.509 253.587 151.509C253.587 151.509 253.753 155.026 253.037 156.158C251.595 158.436 247.63 158.61 233.667 158.436C220.636 158.274 210.546 156.529 205.157 156.677C199.767 156.824 201.322 151.761 201.322 151.761C201.322 151.761 202.422 142.819 203.128 136.349C203.839 129.874 205.542 118.1 205.96 110.451C206.378 102.803 208.009 101.587 206.314 98.7623C204.619 95.9394 203.952 96.1075 203.351 92.5727L195.574 74.4735C200.518 65.4571 202.253 65.4048 206.983 63.8592C211.717 62.3167 221.947 59.2905 221.947 59.2905L238.803 59.864C238.803 59.864 243.93 61.4283 249.526 63.6196C254.859 65.7066 260.532 66.7817 265.809 75.2696L256.212 95.9362Z" fill="#FF454B"/>
<path fill-rule="evenodd" clip-rule="evenodd" d="M226.705 55.8978V63.924C226.705 63.924 224.808 67.4031 226.705 67.7818C230.874 68.6175 236.894 63.9312 236.894 63.9312V51.6758L226.705 55.8978Z" fill="#FAC7AC"/>
<path fill-rule="evenodd" clip-rule="evenodd" d="M218.488 37.1857C218.488 37.1857 217.787 45.6403 219.514 52.5807C220.741 57.5073 231.748 60.3061 236.131 50.9592C240.514 41.6124 234.597 32.2896 234.597 32.2896L218.488 37.1857Z" fill="#FAC7AC"/>
<path fill-rule="evenodd" clip-rule="evenodd" d="M237.741 43.3963C238.128 42.2015 240.7 42.7263 240.706 42.4771C242.949 40.8704 244.698 38.1849 242.408 36.6767C243.66 34.1504 242.395 31.5528 239.654 30.8792C239.846 28.6601 238.224 27.2903 236.66 26.9904C236.008 24.5213 232.761 23.228 231.34 24.7414C230.648 24.2472 229.82 23.9411 228.89 23.9555C228.241 23.9673 227.734 24.1487 227.312 24.4303C227.04 23.8497 226.583 23.3732 225.835 23.1274C224.175 22.5842 222.8 23.8721 221.77 25.2133C219.768 23.5705 216.314 24.664 215.267 26.8994C211.131 28.4015 208.807 32.6216 213.325 35.9222C218.399 39.6316 226.664 36.9192 232.789 34.6045C232.789 34.6045 236.953 35.7994 237.741 43.3963Z" fill="black"/>
<path fill-rule="evenodd" clip-rule="evenodd" d="M226.208 54.257C225.036 54.232 220.237 51.6499 219.491 52.6139C218.746 53.5779 220.782 58.4057 222.73 59.4287C224.678 60.4517 226.896 61.5925 228.406 61.5431C229.916 61.4938 235.481 58.8882 236.327 58.1994C237.172 57.5105 238.843 47.0047 237.974 44.3403C237.104 41.676 237.919 38.2765 236.978 38.9114C236.038 39.5463 236.431 51.1183 235.016 52.4744C233.6 53.8305 228.286 54.3013 226.208 54.257Z" fill="black"/>
<path fill-rule="evenodd" clip-rule="evenodd" d="M204.989 64.9902C212.367 66.1536 204.664 106.911 202.241 109.967C196.618 117.059 185.01 116.041 180.582 106.494C176.154 96.9457 198.421 63.9546 204.989 64.9902Z" fill="#FF454B"/>
<path fill-rule="evenodd" clip-rule="evenodd" d="M226.273 98.112C227.572 97.6605 235.403 92.9239 235.403 92.9239C233.103 88.9781 231.509 89.649 231.509 89.649L192.935 97.0569C187.036 99.2386 182.934 107.848 185.236 111.786C187.543 115.727 195.862 116.322 201.764 114.141L226.273 98.112Z" fill="#FAC7AC"/>
<path fill-rule="evenodd" clip-rule="evenodd" d="M233.169 87.6193C234.918 85.1199 235.978 81.7857 236.628 81.7634C236.628 81.7634 238.489 82.0119 236.87 85.2473C235.473 88.0379 235.479 88.1543 237.732 88.7343C237.732 88.7343 233.817 91.8471 231.111 92.4618C229.075 92.9243 227.962 90.9596 228.387 90.8352C231.669 89.8736 232.762 88.2018 233.169 87.6193Z" fill="#FAC7AC"/>
<path fill-rule="evenodd" clip-rule="evenodd" d="M229.177 91.9997C229.177 91.9997 232.494 91.192 234.683 88.0064C240.096 87.6849 240.784 90.2793 245.492 88.3351C246.878 87.7625 243.437 91.0391 242.374 91.5256C240.16 92.5393 238.284 94.015 235.071 95.069C235.071 95.069 231.019 95.7425 230.214 94.1314C230.214 94.1314 229.599 93.9462 229.177 91.9997Z" fill="#FAC7AC"/>
<path fill-rule="evenodd" clip-rule="evenodd" d="M250.064 80.3095C250.412 80.9398 249.845 81.4028 248.516 82.4971L238.647 89.5129C237.875 90.036 236.968 89.9489 236.621 89.3185C236.273 88.6888 236.616 87.7539 237.388 87.2314L247.443 81.173C248.213 80.6508 249.716 79.6797 250.064 80.3095Z" fill="#FAC7AC"/>
<path fill-rule="evenodd" clip-rule="evenodd" d="M246.874 78.905C247.318 79.4626 246.799 79.9788 245.583 81.1962L236.411 89.1742C235.691 89.7741 234.747 89.8085 234.302 89.2506C233.859 88.6931 234.084 87.7543 234.804 87.1551L244.299 80.0681C245.02 79.4679 246.429 78.3476 246.874 78.905Z" fill="#FAC7AC"/>
<path fill-rule="evenodd" clip-rule="evenodd" d="M248.625 87.5431C248.78 88.088 248.307 88.3742 247.199 89.0507L240.927 92.2454C240.299 92.5499 237.873 93.3134 237.72 92.7682C237.567 92.2238 237.95 91.5351 238.577 91.2299L246.632 87.8576C247.259 87.5519 248.473 86.9975 248.625 87.5431Z" fill="#FAC7AC"/>
<path fill-rule="evenodd" clip-rule="evenodd" d="M250.645 83.5802C250.902 84.2654 250.301 84.6748 248.888 85.6451L238.537 91.7076C237.731 92.1555 236.869 91.9633 236.612 91.2775C236.354 90.5918 236.798 89.6734 237.604 89.2257L248.018 84.1644C248.823 83.7171 250.386 82.895 250.645 83.5802Z" fill="#FAC7AC"/>
</g>
<defs>
<clipPath id="clip0_1643_16452">
<rect width="360" height="120" fill="white"/>
</clipPath>
</defs>
</svg>
