<svg width="125" height="124" viewBox="0 0 125 124" fill="none" xmlns="http://www.w3.org/2000/svg">
<path d="M62.3062 124C96.5478 124 124.306 96.2417 124.306 62C124.306 27.7583 96.5478 0 62.3062 0C28.0645 0 0.306152 27.7583 0.306152 62C0.306152 96.2417 28.0645 124 62.3062 124Z" fill="#FFE7E8"/>
<path d="M67.3404 63.8684C72.9576 62.4052 96.4722 101.304 96.4722 101.304L70.3619 115.018C70.3619 115.018 54.9693 67.0924 67.3404 63.8684Z" fill="#6FCADB"/>
<path d="M69.432 78.248C69.432 78.6076 69.432 78.9754 69.4072 79.3433C69.4072 79.8682 69.3742 80.3974 69.3494 80.9305C69.0352 88.3953 68.0308 96.8687 67.1008 103.536C66.8404 105.412 66.5842 107.148 66.3527 108.673C65.8484 111.98 65.4558 114.315 65.3483 115.055C65.1995 116.056 65.2781 117.949 65.4517 120.259C65.5385 121.388 65.6459 122.615 65.7658 123.892C64.5561 123.964 63.3354 124 62.1037 124C61.7193 124 61.3307 124 60.9463 124C49.7566 123.803 38.8398 120.512 29.4048 114.493C28.295 113.785 27.1729 113.045 25.5815 111.852C21.3742 108.699 17.4206 105.179 14.1529 101.06C13.103 94.9508 12.0655 87.8043 11.3174 81.9226C10.5445 75.8631 10.2551 70.9692 11.1231 69.3985C11.4204 68.8622 11.746 68.342 12.0986 67.8403C18.0837 59.2512 31.1946 56.3413 38.3577 55.0683C39.8415 54.8037 41.0691 54.6095 41.9247 54.4524C41.9247 54.4524 43.8674 54.8038 46.6946 55.461C47.1327 55.5643 47.5915 55.6717 48.0669 55.7916C50.3319 56.3455 52.9938 57.0647 55.6226 57.9244C60.347 59.4785 64.9722 61.4998 67.0595 63.8888L67.105 63.9343L67.3365 64.2236C68.4897 65.7364 69.0973 68.6793 69.3329 72.42C69.3618 72.9284 69.3866 73.4575 69.4072 73.9948C69.4072 74.2056 69.4072 74.4082 69.4072 74.6314C69.4568 75.7887 69.4568 76.9956 69.432 78.248Z" fill="#FF454B"/>
<path d="M106.247 103.858L106.222 105.098C103.713 107.728 100.974 110.13 98.0385 112.274L97.6913 112.526C96.4595 113.416 95.1947 114.258 93.8969 115.051C92.7065 115.779 91.4885 116.468 90.243 117.118C87.662 118.465 84.9861 119.623 82.2367 120.582C80.5255 121.18 78.5498 121.897 76.7725 122.347C73.0887 123.273 69.5574 123.657 65.7654 123.88C64.5557 123.952 63.335 123.987 62.1033 123.987C61.7189 123.987 61.3303 123.987 60.9459 123.987H60.917C55.7338 122.285 50.997 119.78 49.6041 116.316C49.4682 115.956 49.3617 115.585 49.2858 115.208C49.2155 114.861 49.1535 114.477 49.1039 114.059C49.0667 113.782 49.0378 113.489 49.013 113.183C48.8336 110.105 48.8667 107.018 49.1122 103.945C49.4677 98.6005 50.2282 92.3716 51.1789 86.7131C52.4602 79.0747 54.0722 72.4531 55.5478 70.3699C57.6145 67.4104 63.0333 65.1949 67.0633 63.9012C69.0803 63.2522 70.7543 62.8389 71.4818 62.6612L71.6926 62.6157C72.0357 62.6157 72.5813 62.6157 73.2715 62.6157C75.7515 62.6405 80.0089 62.7935 83.2246 62.9299H83.4643L85.3946 63.0208C86.4858 63.0786 87.2422 63.1241 87.4282 63.1531C87.8002 63.2109 88.1681 63.2771 88.5277 63.3556C90.4906 63.758 92.3652 64.5098 94.0622 65.5752C94.104 65.597 94.144 65.6219 94.1821 65.6496C95.7221 66.6384 97.0997 67.8598 98.2658 69.2704C98.3068 69.3152 98.3455 69.3621 98.3815 69.4109C99.5955 70.8963 100.628 72.5211 101.457 74.2511C104.71 80.8644 105.941 89.5444 106.206 97.9557C106.206 98.0425 106.206 98.1293 106.206 98.2161C106.268 100.138 106.276 102.019 106.247 103.858Z" fill="white"/>
<path d="M73.2676 62.6281C75.7476 62.6529 80.0049 62.8058 83.2206 62.9464L83.3405 56.0851H85.742C87.3953 56.0851 88.7386 51.2821 89.524 47.0289L89.2346 46.9339C83.2 44.8672 77.901 40.2833 77.901 40.2833C75.8344 40.2626 75.0077 44.3464 74.5324 50.009C74.0653 55.1881 73.342 62.3016 73.2676 62.6281Z" fill="#EFB595"/>
<path d="M62.0789 56.8829C62.9634 59.0942 68.6426 62.0082 73.4042 61.4295C73.4042 61.3758 73.4455 61.3221 73.4621 61.2642C74.2019 58.437 74.0655 55.2006 74.5161 50.0174C75.0079 44.3547 75.8057 40.271 77.8848 40.2917C77.8848 40.2917 83.1837 44.8756 89.2184 46.9422L89.5077 47.0373C88.7223 51.2905 87.3625 56.0934 85.7257 56.0934H83.3408L83.2209 62.9548C89.0075 63.3392 93.5542 62.8183 94.4966 61.7933C97.0386 59.0446 96.6873 53.4853 92.8433 47.6325C94.0154 47.6512 95.174 47.3801 96.2161 46.843C103.755 42.875 84.1757 30.3097 76.8969 32.8186C69.6181 35.3275 59.8552 51.3194 62.0789 56.8829Z" fill="black"/>
<path d="M101.552 74.8836C101.511 75.053 100.746 77.5289 101.06 79.2029C100.928 79.1574 94.0335 79.4219 93.8516 79.4509C93.1373 78.473 92.1759 77.7027 91.0658 77.2189C90.7698 77.0851 90.492 76.9143 90.2391 76.7105C89.9231 76.4641 89.6447 76.1731 89.4124 75.8466C87.4574 73.0649 88.3708 67.799 89.028 64.8271C89.9332 65.5257 92.5207 65.6538 95.8687 65.5753C98.0015 65.5257 98.6463 67.8238 99.0472 71.5273C99.3366 73.9494 101.449 75.0282 101.552 74.8836Z" fill="#EFB595"/>
<path d="M101.577 74.8877C101.482 75.0944 101.457 75.4168 101.379 75.6193C101.379 75.6193 99.2912 75.5904 98.9729 71.6431C98.6753 67.9231 97.8735 65.6001 95.7448 65.6497C92.3968 65.7283 89.9581 65.5257 89.0612 64.8231C88.4247 64.3395 88.4949 63.4219 89.9457 62.3927C94.4924 59.1852 99.5061 59.5489 101.469 61.5123C104.47 64.5213 105.057 67.4891 101.577 74.8877Z" fill="black"/>
<path d="M107.417 104.276C107.161 104.557 106.9 104.834 106.636 105.102C104.126 107.733 101.388 110.134 98.4518 112.278L98.1046 112.53C96.8728 113.42 95.608 114.262 94.3102 115.055C93.1198 115.783 91.9018 116.472 90.6563 117.122C88.0753 118.47 85.3994 119.627 82.65 120.586C82.3247 119.361 82.0653 118.119 81.873 116.866C81.7297 116.057 81.6977 115.232 81.7779 114.415C81.7986 114.275 81.829 114.137 81.8688 114.002C81.8845 113.943 81.9052 113.887 81.9308 113.832C81.974 113.734 82.0295 113.643 82.0962 113.559C82.2822 113.336 82.5095 113.105 82.7327 112.865L82.9104 112.687C82.9724 112.621 83.0344 112.559 83.1006 112.497L83.4808 112.137L83.8942 111.765L84.3075 111.393C84.6588 111.083 85.0267 110.778 85.3946 110.48L85.7831 110.166C86.1964 109.835 86.6098 109.513 87.0231 109.211L87.4034 108.926C88.2796 108.264 89.0567 107.723 89.5155 107.388L90.028 107.033V106.929C89.9784 106.347 89.8999 105.689 89.8048 105.012C89.47 102.639 88.9451 100.051 88.9327 99.9688C88.9203 99.8862 88.8914 99.7126 88.8542 99.5018C88.817 99.291 88.7922 99.1132 88.7922 99.1132C88.7922 99.1132 89.5816 94.8683 90.3091 90.7763C90.4703 89.8587 90.6315 88.9452 90.7803 88.0938C90.8712 87.5647 90.958 87.0563 91.0366 86.5851C91.2634 85.228 91.574 83.8862 91.9666 82.5675C92.4502 81.0051 93.1239 79.6742 93.8844 79.4262C94.645 79.1782 97.3151 78.6574 101.089 79.174C101.247 79.2097 101.402 79.2581 101.552 79.3187C102.449 79.608 103.904 80.3355 104.4 83.8075C104.424 83.9894 104.474 84.2911 104.536 84.6962C104.912 87.0728 105.875 92.9215 106.603 97.9228L106.64 98.1874C106.975 100.473 107.26 102.565 107.417 104.057C107.405 104.168 107.409 104.222 107.417 104.276Z" fill="#FF454B"/>
<path d="M89.5035 107.413C89.0282 107.748 88.2635 108.289 87.3914 108.95L87.0111 109.236C86.5978 109.537 86.1845 109.86 85.7711 110.19L85.3826 110.505C85.0147 110.802 84.6469 111.108 84.2955 111.418C84.155 111.538 84.0103 111.662 83.8822 111.79L83.4689 112.162C83.3366 112.282 83.2126 112.402 83.0886 112.522C82.9646 112.642 82.9605 112.646 82.8985 112.712C82.8362 112.768 82.7768 112.827 82.7207 112.89C82.4851 113.129 82.2702 113.361 82.0842 113.584C82.016 113.666 81.9603 113.758 81.9189 113.857C81.8933 113.911 81.8725 113.968 81.8569 114.026C81.8129 114.161 81.7824 114.299 81.7659 114.44C81.6858 115.257 81.7177 116.082 81.861 116.891C82.0534 118.144 82.3128 119.385 82.6381 120.611C80.9269 121.209 79.1826 121.732 77.4053 122.181C77.4053 120.619 77.459 119.139 77.521 117.87C77.5491 116.668 77.6875 115.471 77.9343 114.295C78.3683 112.741 80.869 111.158 83.4978 109.88C85.4525 108.947 87.4575 108.124 89.5035 107.413Z" fill="#FF454B"/>
<path d="M103.49 86.4983C103.077 90.8053 92.4048 98.6214 91.264 99.1381C87.4365 100.878 75.144 96.1993 75.144 96.1993C74.5489 96.2664 73.9462 96.1971 73.3819 95.9965C72.8176 95.796 72.3063 95.4696 71.8869 95.042C71.6365 94.7609 71.4633 94.4196 71.3843 94.0516C71.3053 93.6835 71.3233 93.3012 71.4364 92.9422C71.7381 92.0411 72.9285 92.9422 74.2636 93.5126C76.6196 94.517 86.0973 93.3762 86.8 93.0249C88.7427 92.0536 94.4384 80.939 98.3279 80.6621C99.6008 80.6318 100.838 81.0833 101.792 81.9264C102.747 82.7695 103.347 83.9418 103.474 85.2087C103.52 85.6371 103.525 86.0689 103.49 86.4983Z" fill="#EFB595"/>
<path d="M111.402 99.4726C110.187 101.096 108.897 102.655 107.533 104.151L107.401 104.11C107.161 104.032 106.913 103.949 106.661 103.858C106.326 103.738 105.983 103.61 105.644 103.474C104.473 103.022 103.362 102.426 102.338 101.7C101.511 101.064 100.994 100.382 101.127 99.704C101.175 99.4999 101.268 99.3089 101.398 99.1441C101.528 98.9792 101.692 98.8445 101.879 98.7492C102.116 98.6092 102.368 98.4968 102.631 98.4144C102.727 98.3806 102.825 98.3516 102.925 98.3276C103.896 98.0911 104.892 97.9718 105.892 97.9722H106.628C107.756 97.9722 108.695 98.0631 109.063 98.0962H109.207C109.492 98.1671 109.768 98.2654 110.034 98.3896C110.166 98.453 110.295 98.5248 110.418 98.6046C110.778 98.8551 111.109 99.1464 111.402 99.4726Z" fill="#EFB595"/>
<path d="M98.1047 112.538C96.873 113.428 95.6082 114.27 94.3103 115.064C92.4007 115.291 90.3258 115.506 88.6972 115.663C86.9736 115.837 85.7543 115.944 85.7543 115.944C85.7543 115.944 84.411 116.287 81.8731 116.878C80.6827 117.151 79.2319 117.478 77.5331 117.854C74.429 118.532 70.5065 119.354 65.8647 120.259L64.5627 120.512C58.3958 120.152 52.109 117.874 49.7241 114.386C49.6538 114.283 49.5835 114.171 49.5174 114.051C49.3914 113.831 49.2769 113.605 49.1743 113.373L49.4264 113.175C51.5592 111.522 55.4363 108.975 59.6317 108.703C61.5867 108.574 64.0956 108.587 66.7658 108.674L68.9193 108.76C73.3667 108.967 77.9671 109.335 81.0382 109.624C82.0384 109.715 82.8734 109.798 83.4934 109.864L84.32 109.959C84.5722 109.988 85.0888 110.075 85.7874 110.191C87.2175 110.434 89.4164 110.823 91.7063 111.187C92.533 111.319 93.4051 111.447 94.2359 111.563C95.5561 111.752 96.8528 112.079 98.1047 112.538Z" fill="#EFB595"/>
<path d="M72.6063 92.7558C71.7796 92.4458 70.4735 92.3425 69.7791 93.0204C69.4443 93.351 69.651 93.5701 70.056 93.4337C70.829 93.1444 71.449 93.1816 70.271 93.5412C70.0312 93.6156 69.5766 93.8842 69.6303 94.062C69.746 94.4422 70.5644 94.062 70.9406 93.9545C71.2795 94.0206 70.4363 94.4339 70.3412 94.5951C69.9279 95.3391 71.5068 94.5951 71.5812 94.6943C71.8458 94.9299 70.6926 95.2523 71.2175 95.4755C71.606 95.645 72.5236 94.9175 72.8708 94.8638C73.1643 94.8225 73.3916 94.9919 73.5859 94.7067C74.0488 94.0619 72.9494 92.8881 72.6063 92.7558Z" fill="#EFB595"/>
<path d="M72.9288 92.9791C72.718 92.7146 72.1972 92.0739 71.8624 91.9706C71.6764 91.9127 71.4243 91.9458 71.54 92.1938C71.6299 92.3478 71.758 92.476 71.912 92.5658C72.0319 92.6485 72.1394 92.7724 72.2675 92.8427C72.4786 92.9252 72.7023 92.9714 72.9288 92.9791Z" fill="#EFB595"/>
<path d="M102.606 98.4106C100.308 97.5302 96.6005 97.2285 94.6496 99.1505C93.7072 100.076 94.2941 100.7 95.4225 100.275C97.6049 99.4481 99.3574 99.5638 96.0301 100.585C95.3605 100.791 94.0792 101.548 94.2321 102.048C94.5628 103.114 96.8568 102.048 97.919 101.746C98.8697 101.932 96.4972 103.09 96.2368 103.553C95.0381 105.644 99.5104 103.594 99.779 103.829C100.523 104.487 97.299 105.392 98.754 106.028C99.8534 106.504 102.428 104.458 103.433 104.305C104.26 104.181 104.904 104.664 105.45 103.867C106.669 102.089 103.578 98.7826 102.606 98.4106Z" fill="#EFB595"/>
<path d="M103.073 99.0346C102.478 98.2906 101.007 96.4885 100.064 96.1909C99.5433 96.0297 98.8241 96.1207 99.1589 96.8233C99.4131 97.2539 99.773 97.6125 100.205 97.8649C100.548 98.1005 100.845 98.4477 101.201 98.6503C101.556 98.8528 103.152 99.1338 103.073 99.0346Z" fill="#EFB595"/>
<path d="M96.0756 111.232C95.3386 110.993 94.58 110.827 93.8105 110.736C93.4019 110.725 92.9942 110.781 92.6036 110.902C92.3266 110.976 92.029 111.071 91.719 111.187C89.9624 111.836 87.8998 113.133 88.0982 114.745C88.1069 114.94 88.1685 115.128 88.2763 115.29C88.3841 115.451 88.5341 115.58 88.71 115.663C89.1193 115.826 89.5158 116.02 89.8962 116.242C90.1952 116.499 90.4555 116.799 90.6692 117.13C91.9119 116.483 93.1299 115.794 94.323 115.064C95.6209 114.27 96.8857 113.428 98.1174 112.538L98.4646 112.286C97.7102 111.847 96.9088 111.493 96.0756 111.232Z" fill="#EFB595"/>
<path d="M94.6746 111.497C95.1375 111.497 95.6211 111.286 96.0882 111.228C96.6542 111.198 97.2032 111.024 97.6837 110.724C98.3863 110.19 97.7126 109.723 97.105 109.616C95.9973 109.418 93.5751 110.467 92.5873 110.906C92.4591 110.963 94.2034 111.513 94.6746 111.497Z" fill="#EFB595"/>
<path d="M59.5782 31.8432C60.624 33.9884 58.1316 43.6687 56.6601 44.0613C53.3534 44.9376 42.7638 45.3551 40.7881 44.1192C38.8124 42.8834 38.6181 34.6911 40.6972 30.3304C43.3425 24.7876 57.5322 27.6355 59.5782 31.8432Z" fill="black"/>
<path d="M41.0401 38.0969C40.1597 46.0247 38.031 57.5236 37.44 58.9248C36.8489 60.326 42.619 63.5128 46.7896 63.5417C52.539 63.583 55.8829 61.4131 55.8829 60.1111C55.8829 58.8091 53.9898 49.104 53.9898 49.104L49.4886 39.1427L41.0401 38.0969Z" fill="#EFB595"/>
<path d="M53.502 30.264C57.2468 31.3759 60.1525 33.3599 58.2512 39.903C56.3498 46.446 55.6513 47.996 52.9564 50.9844C50.2614 53.9728 42.342 48.2854 41.8873 48.0911C41.4326 47.8968 41.7013 40.9818 41.1805 39.6054C40.6597 38.229 39.4238 35.9639 40.1596 34.9926C40.8953 34.0212 42.28 35.6539 42.28 35.6539C42.28 35.6539 42.499 26.9987 53.502 30.264Z" fill="#EFB595"/>
<path d="M52.4401 43.6975C53.4445 43.7389 56.6106 45.4335 57.1976 46.2974C57.7845 47.1613 55.4864 53.8532 53.7628 54.6261C52.0392 55.399 48.8482 55.8992 47.5628 55.7793C46.2773 55.6594 42.6482 52.5718 41.9621 51.9353C41.276 51.2988 40.4038 42.2137 41.2925 39.9775C42.1812 37.7414 41.6645 34.7861 42.4374 35.3813C43.2104 35.9765 41.929 42.3749 43.074 43.6149C44.2189 44.8549 50.6545 43.6149 52.4401 43.6975Z" fill="black"/>
<path d="M62.9424 84.0016C61.7933 88.6268 56.1265 96.815 49.1123 103.519C43.1727 109.182 36.2659 113.766 30.3139 114.171C30.0079 114.189 29.7009 114.158 29.4045 114.08C28.2513 113.791 26.9493 112.84 25.5812 111.439C20.2079 105.842 13.7723 92.6734 11.3171 81.5092C10.3209 76.9998 9.97373 72.8292 10.602 69.5969C10.6796 69.1485 10.8535 68.7223 11.1119 68.3477C11.3702 67.973 11.7067 67.6589 12.0983 67.4269C13.702 66.4928 16.4341 66.9392 19.8111 70.684C26.0731 77.6321 31.868 96.352 33.2072 96.6496C34.3108 96.8935 43.7141 91.0655 51.1748 86.2873C54.4815 84.1793 57.3748 82.278 59.0281 81.1951L60.4665 80.2444C60.4665 80.2444 63.5459 81.5588 62.9424 84.0016Z" fill="#FF454B"/>
<path d="M59.1688 76.5245C59.454 75.6689 60.198 74.2181 60.7106 73.7924C60.9338 73.6105 62.087 73.3046 62.4631 73.1352C63.7031 72.5813 64.3686 71.4074 64.5711 72.2795C65.0382 74.2635 62.2234 75.2555 62.4672 75.6275C63.265 75.1191 65.8896 73.1475 66.923 72.8499C68.0307 72.511 70.8703 71.9282 70.7835 73.2178C70.7422 73.813 67.9728 74.3462 67.5099 74.5653C67.047 74.7844 65.3358 76.1814 65.4763 76.2434C65.7615 76.3633 67.1007 75.4167 68.8532 74.8133C70.6058 74.2098 72.1144 74.0775 72.4327 74.3999C72.9659 74.9786 72.6476 76.7725 71.7879 77.2065C70.6058 77.8058 67.8695 78.6284 67.6256 79.5873C67.5306 79.9552 71.0274 78.6532 71.2175 79.3228C71.6308 80.8025 68.1216 81.0794 67.5802 81.3398C66.8279 81.6994 63.9676 84.3158 62.5582 84.4853C60.9958 84.6754 58.8382 83.5636 58.9787 82.2616C59.1854 80.5545 58.8754 77.3636 59.1688 76.5245Z" fill="#EFB595"/>
</svg>
