<svg width="149" height="148" viewBox="0 0 149 148" fill="none" xmlns="http://www.w3.org/2000/svg">
<mask id="mask0_1862_3446" style="mask-type:alpha" maskUnits="userSpaceOnUse" x="18" y="18" width="112" height="112">
<path d="M74.3062 129.5C104.958 129.5 129.806 104.652 129.806 74C129.806 43.3482 104.958 18.5 74.3062 18.5C43.6544 18.5 18.8062 43.3482 18.8062 74C18.8062 104.652 43.6544 129.5 74.3062 129.5Z" fill="white"/>
</mask>
<g mask="url(#mask0_1862_3446)">
<path d="M74.3062 129.5C104.958 129.5 129.806 104.652 129.806 74C129.806 43.3482 104.958 18.5 74.3062 18.5C43.6544 18.5 18.8062 43.3482 18.8062 74C18.8062 104.652 43.6544 129.5 74.3062 129.5Z" fill="white"/>
<path d="M125.306 92H23.3062V139H125.306V92Z" fill="#C5C5C5"/>
<path d="M130.306 89H15.3062V101H130.306V89Z" fill="#E5E5E5"/>
</g>
<path d="M63.0615 59.2733C63.0615 59.2733 63.5003 55.0025 62.8675 53.721C62.2347 52.4394 61.1535 52.5062 60.1899 52.1309C59.9452 52.0391 59.6846 51.997 59.4234 52.0071C59.1622 52.0172 58.9057 52.0792 58.6688 52.1897C58.4319 52.3001 58.2194 52.4568 58.0437 52.6503C57.8681 52.8439 57.7329 53.0706 57.6459 53.3171C57.2866 54.3793 57.5346 56.6752 58.7208 58.1953C59.7956 59.5722 60.2249 60.9396 61.2075 60.7011C62.1902 60.4626 62.0344 60.9873 63.0615 59.2733Z" fill="#EFB595"/>
<path d="M79.1332 54.8213C78.7007 53.8037 71.9623 54.0677 71.9623 54.0677C71.9623 54.0677 67.9045 72.1588 68.0317 73.8442C68.1367 75.2243 72.8431 74.6233 72.9894 74.2767C74.5699 70.4447 79.5434 55.7817 79.1332 54.8213Z" fill="#EFB595"/>
<path d="M58.4883 124.295L59.2006 132.287L63.341 132.9L63.6622 125.004L58.4883 124.295Z" fill="#EFB595"/>
<path d="M74.9419 126.655L79.0187 134.096L82.5771 132.439L80.5069 124.295L74.9419 126.655Z" fill="#EFB595"/>
<path d="M83.7159 80.8816C83.7159 80.8816 64.7534 94.3998 64.7534 101.234C64.7534 108.068 73.791 127.761 74.7291 128.798C75.4796 129.628 81.9351 126.779 81.9351 125.78C80.927 110.198 76.7071 102.045 76.7071 102.045C76.7071 102.045 95.1862 101.307 97.0593 98.006C98.9323 94.7051 98.2454 77.9496 95.2435 77.498C92.2415 77.0465 83.7159 80.8816 83.7159 80.8816Z" fill="black"/>
<path d="M76.3697 82.408C76.3697 82.408 54.8187 90.6029 53.1015 97.6148C51.3842 104.627 58.2785 124.775 58.234 125.405C58.1895 126.035 62.5557 127.631 64.0089 125.828C65.4622 124.025 67.3925 103.972 65.2046 102.817C67.7009 99.4242 89.1852 89.5662 88.7654 83.8199C88.3456 78.0736 86.9719 75.6409 86.9719 75.6409L76.3697 82.408Z" fill="black"/>
<path d="M94.7376 61.1273C94.7376 61.1273 94.5881 48.5248 90.3396 46.9762C88.6483 46.3705 86.9202 45.8735 85.1657 45.4879C83.9687 45.1871 82.736 45.0523 81.5023 45.0873C80.4243 45.0237 77.7276 45.4052 76.4906 46.2479C71.0305 50.0322 70.1306 54.9326 68.814 59.6867C68.7123 60.0588 70.8556 60.981 73.46 61.9414C73.6 63.1021 73.778 64.2501 73.9466 65.3535C74.3632 67.8975 74.4077 83.2157 74.166 83.75C75.0373 84.9425 77.4446 84.5831 82.3545 86.2367C87.7097 88.043 96.1876 83.8231 97.5519 83.3747C97.6282 82.3412 94.7376 61.1273 94.7376 61.1273Z" fill="#FF0008"/>
<path d="M98.5567 71.084C98.5058 68.4509 98.3945 64.6445 98.4708 63.452C98.5694 61.9637 97.9302 58.8791 97.6249 57.4099L90.4572 58.2939C89.4554 59.7536 91.0932 70.6102 91.8945 75.4311C88.3965 80.5191 88.7145 80.182 82.2464 87.5343C82.2464 87.5343 78.3763 87.5152 77.1933 88.2752C75.6351 89.2769 74.3821 89.6394 74.7955 90.3549C75.6891 90.9528 77.7466 88.9144 77.7307 89.3723C77.6798 90.692 73.5967 91.2453 74.0832 91.9449C74.7192 92.8385 77.435 94.0469 78.3317 94.0183C79.2285 93.9897 81.1302 93.2265 81.9379 92.1103C82.7456 90.9941 83.8014 89.9225 84.1639 89.4137C97.0621 83.1299 98.6966 76.6459 98.5471 73.6598C98.5949 73.3959 98.5821 72.3846 98.5567 71.084Z" fill="#EFB595"/>
<path d="M91.017 47.3038C96.4993 49.0591 98.0766 55.9375 98.2007 57.3367C98.2325 57.7183 99.1196 63.2356 98.9575 64.0974C98.7317 65.3154 89.9675 65.8083 88.4634 64.9783C87.0483 64.196 84.5202 49.6824 87.8974 48.067C89.4651 47.3133 90.4891 47.1352 91.017 47.3038Z" fill="#FF0008"/>
<path d="M80.0649 42.5687V46.5915C80.0649 46.5915 79.9282 49.0178 80.9235 49.1355C85.3565 49.7015 85.3565 46.5915 85.3565 46.5915V40.4476L80.0649 42.5687Z" fill="#EFB595"/>
<path d="M78.0874 32.8665C78.0874 32.8665 77.0062 37.0005 77.2924 40.5876C77.4991 43.1316 82.886 45.3576 85.9261 41.0391C88.9662 36.7206 86.7402 31.6549 86.7402 31.6549L78.0874 32.8665Z" fill="#EFB595"/>
<path d="M89.4459 31.3369C89.5657 30.8926 89.5079 30.4191 89.2847 30.0166C89.0616 29.6142 88.6905 29.3145 88.2502 29.1808C88.1262 27.9088 86.5775 27.0184 85.7062 27.6607C85.3832 27.3461 84.9671 27.1442 84.52 27.0852C84.2326 27.0436 83.9393 27.0844 83.6742 27.2028C83.6294 27.0377 83.5494 26.8842 83.4396 26.753C83.3298 26.6218 83.1928 26.516 83.0381 26.4428C82.2368 26.0485 81.4227 26.5827 80.7835 27.171C79.8995 26.217 78.0392 26.4873 77.3141 27.5176C75.0722 27.9501 73.5203 29.8677 75.5492 31.8488C77.8261 34.0749 82.2845 33.353 85.6108 32.6661C85.6108 32.6661 86.8319 33.2226 87.2612 35.2674C87.0526 35.7412 86.8948 36.2358 86.7906 36.7429H82.2559C82.2559 35.8334 81.6198 35.0956 80.8789 35.0956C80.1857 35.0956 79.6069 35.7316 79.521 36.5235L78.5925 36.4185C78.5925 36.3708 78.5925 36.3263 78.5925 36.2786C78.5925 35.3564 78.0296 34.6123 77.3205 34.6123C76.6113 34.6123 76.0485 35.3564 76.0485 36.2786C76.0485 37.2008 76.6145 37.9449 77.3205 37.9449C77.8547 37.9449 78.3094 37.5029 78.4907 36.8828L79.4988 36.9973C79.591 37.805 80.1602 38.4315 80.8567 38.4315C81.1711 38.4094 81.4695 38.2844 81.7057 38.0757C81.942 37.8671 82.1029 37.5864 82.1636 37.2771H86.6538C86.2245 39.0643 85.7284 41.3603 85.2133 41.7069C84.3737 42.2729 81.6167 42.1044 80.5577 41.9263C79.9631 41.8245 77.7307 40.1805 77.2664 40.6003C76.8021 41.02 76.7067 43.7803 77.6162 44.4449C78.5257 45.1095 80.2843 45.6183 81.0602 45.7169C81.8361 45.8155 84.9048 44.9346 85.3946 44.6579C85.8843 44.3813 87.6397 39.2901 87.4234 37.9004C87.3726 37.5411 87.3662 37.1769 87.4043 36.816C87.4043 37.01 87.4043 37.2072 87.3853 37.4139C87.6842 36.851 88.9562 37.3058 88.9753 37.1817C90.2473 36.5457 91.3857 35.3532 90.3426 34.431C91.214 33.2639 90.7879 31.8775 89.4459 31.3369Z" fill="black"/>
<path d="M60.333 58.3893C60.333 58.3893 64.9631 75.6504 68.7092 76.4773C72.8432 76.9861 73.7495 73.0746 72.9895 71.9966C71.6126 70.0473 65.5133 61.3753 62.2601 58.0872C61.2902 57.1046 61.3506 57.5148 60.333 58.3893Z" fill="#EFB595"/>
<path d="M61.7896 128.671H60.5176L60.6416 62.571C60.6424 62.4605 60.6865 62.3547 60.7643 62.2763C60.8422 62.1978 60.9476 62.1529 61.0582 62.1513H61.4875C61.5422 62.1508 61.5964 62.1612 61.6471 62.1818C61.6978 62.2023 61.744 62.2327 61.783 62.2711C61.822 62.3094 61.853 62.3551 61.8743 62.4055C61.8956 62.4559 61.9068 62.51 61.9072 62.5647L61.7896 128.671Z" fill="#FF0008"/>
<path d="M61.8351 49.8585L60.6712 49.8636C60.3674 49.8649 60.1222 50.1123 60.1235 50.4161L60.1827 63.9915C60.1841 64.2953 60.4314 64.5406 60.7353 64.5392L61.8992 64.5342C62.203 64.5328 62.4482 64.2855 62.4469 63.9816L62.3876 50.4062C62.3863 50.1024 62.1389 49.8572 61.8351 49.8585Z" fill="black"/>
<path d="M63.3065 54.3348C63.2047 54.1631 61.2872 52.0547 60.8833 53.4158C60.4795 54.7768 62.1553 55.9121 62.3907 56.4272C62.626 56.9424 63.0521 57.5689 63.0871 57.3812C63.1221 57.1936 64.0315 55.5273 63.3065 54.3348Z" fill="#EFB595"/>
<path d="M59.201 52.2455C59.201 52.2455 62.8962 53.5811 62.5909 55.718C62.2856 57.855 62.9089 59.8298 60.8514 60.2241C59.0357 60.5676 57.9481 57.0441 57.77 56.2332" fill="#EFB595"/>
<path d="M70.7984 140.125C71.5712 142.565 74.4077 142.158 76.5002 141.079C79.0442 139.769 80.507 138.249 82.574 137.737C84.7746 137.19 85.0322 136.084 84.9749 135.257C84.9177 134.43 83.5344 130.779 82.2783 131.279C82.2179 131.597 83.2323 132.659 80.7074 133.085C80.3003 133.155 78.2301 132.649 77.6386 133.253C76.0963 134.834 70.2069 138.249 70.7984 140.125Z" fill="black"/>
<path d="M50.3285 136.745C50.2903 137.664 50.0105 139.06 53.2223 139.06C56.4341 139.06 59.3502 137.54 61.2201 137.378C63.2744 137.196 63.939 137.257 64.4001 135.944C64.8612 134.63 64.8421 131.657 63.5224 131.196C63.1821 132.004 61.9546 133.104 60.2088 131.972C59.0036 131.196 58.5902 131.161 56.4882 132.436C54.3862 133.711 50.3667 135.826 50.3285 136.745Z" fill="black"/>
</svg>
