<svg width="1200" height="318" viewBox="0 0 1200 318" fill="none" xmlns="http://www.w3.org/2000/svg">
<g clip-path="url(#clip0_1643_13201)">
<path fill-rule="evenodd" clip-rule="evenodd" d="M907.595 135.202C907.517 126.15 907.424 118.824 907.32 113.762C907.268 111.23 907.214 109.265 907.158 107.932C907.101 106.599 907.043 105.9 906.983 105.9C906.983 105.9 906.982 105.902 906.982 105.902V105.901H821.211V224.688H821.215C821.215 224.688 821.213 224.689 821.213 224.689C821.213 224.739 821.79 224.788 822.895 224.836C824 224.883 825.634 224.93 827.747 224.974C831.972 225.063 838.114 225.144 845.783 225.215C861.121 225.358 882.564 225.459 906.983 225.495L907.833 225.496L907.833 224.689C907.838 218.618 907.843 212.351 907.848 205.944C907.848 178.318 907.752 153.307 907.595 135.202Z" fill="white"/>
<path fill-rule="evenodd" clip-rule="evenodd" d="M792.969 135.202C792.891 126.15 792.797 118.824 792.694 113.762C792.642 111.23 792.588 109.265 792.532 107.932C792.475 106.599 792.417 105.9 792.357 105.9C792.357 105.9 792.356 105.902 792.356 105.902V105.901H706.585V224.688H706.589C706.589 224.688 706.587 224.689 706.587 224.689C706.587 224.739 707.164 224.788 708.269 224.836C709.374 224.883 711.007 224.93 713.12 224.974C717.346 225.063 723.488 225.144 731.157 225.215C746.495 225.358 767.937 225.459 792.357 225.495L793.207 225.496L793.207 224.689C793.212 218.618 793.217 212.351 793.222 205.944C793.222 178.318 793.126 153.307 792.969 135.202Z" fill="white"/>
<path fill-rule="evenodd" clip-rule="evenodd" d="M666.78 135.202C666.702 126.15 666.609 118.824 666.505 113.762C666.453 111.23 666.399 109.265 666.343 107.932C666.287 106.599 666.228 105.9 666.168 105.9C666.168 105.9 666.167 105.902 666.167 105.902V105.901H580.396V224.688H580.4C580.4 224.688 580.398 224.689 580.398 224.689C580.398 224.739 580.975 224.788 582.08 224.836C583.186 224.883 584.819 224.93 586.932 224.974C591.157 225.063 597.299 225.144 604.969 225.215C620.306 225.358 641.749 225.459 666.168 225.495L667.018 225.496L667.018 224.689C667.024 218.618 667.028 212.351 667.034 205.944C667.034 178.318 666.937 153.307 666.78 135.202Z" fill="white"/>
<path fill-rule="evenodd" clip-rule="evenodd" d="M861.978 250.518C856.668 246.806 848.423 250.948 842.795 247.684C837.726 244.743 837.93 237.29 841.344 232.678C844.758 228.066 850.269 225.362 855.089 222.065C858.96 219.417 862.539 216.22 864.745 212.207C866.95 208.193 867.631 203.261 865.734 199.109C862.806 192.702 854.298 189.771 847.106 191.272C839.913 192.774 834.041 197.797 829.802 203.507C825.564 209.216 822.649 215.695 819.051 221.786C818.1 223.396 816.977 225.084 815.172 225.774C812.703 226.719 809.825 225.392 808.124 223.451C806.423 221.51 805.556 219.054 804.385 216.788C798.458 205.317 783.369 198.901 770.389 202.331C764.197 203.968 758.169 208.273 757.272 214.307C756.339 220.596 761.227 226.407 766.79 229.945C772.354 233.483 778.85 235.654 784.043 239.666C786.675 241.699 788.967 244.252 790.054 247.301C791.142 250.35 790.873 253.938 788.823 256.503C785.936 260.116 780.629 260.808 775.931 261.651C771.233 262.494 765.891 264.423 764.642 268.797C763.473 272.897 766.853 277.2 771.047 278.693C775.241 280.187 779.924 279.54 784.286 278.57C788.648 277.599 793.037 276.314 797.507 276.591C802.431 276.896 807.052 279.271 810.227 282.788C803.341 283.106 796.488 284.236 789.836 286.177C789.416 286.299 788.998 286.423 788.579 286.55C787.61 298.7 789.687 311.045 794.482 322.347C795.911 325.718 797.584 328.996 799.489 332.148C804.302 332.774 809.248 333.099 814.291 333.099C819.334 333.099 824.281 332.774 829.094 332.148C837.388 318.425 841.262 302.324 840.003 286.55C839.585 286.423 839.167 286.299 838.746 286.177C837.932 285.941 837.114 285.715 836.296 285.502C829.836 283.821 823.21 282.898 816.566 282.725C818.104 279.757 820.342 277.112 823.057 274.99C825.772 272.868 828.963 271.269 832.409 270.394C837.452 269.113 842.768 269.405 847.972 269.005C853.176 268.606 858.663 267.323 862.191 263.675C865.72 260.027 866.18 253.455 861.978 250.518Z" fill="#E5E5E5"/>
<path fill-rule="evenodd" clip-rule="evenodd" d="M852.604 66.1198H760.631L803.401 45.5739V30H809.834V45.5739L852.604 66.1198Z" fill="#E5E5E5"/>
<path fill-rule="evenodd" clip-rule="evenodd" d="M551.289 140.829C559.192 140.829 598.501 147.345 608.214 196.638C618.276 247.706 619.426 358.644 619.456 358.644C619.482 358.644 463.34 368.724 477.31 347.184C479.076 344.549 477.148 340.644 478.707 336.841C486.872 316.922 495.023 282.891 487.586 246.827C487.586 246.827 450.946 277.774 415.023 272.96C379.101 268.146 362.577 254.392 362.577 254.392C362.577 254.392 353.956 239.95 376.946 240.638C399.936 241.326 450.226 242.702 461.003 205.565C471.78 168.429 483.037 131.889 551.289 140.829Z" fill="#FF454B"/>
<path fill-rule="evenodd" clip-rule="evenodd" d="M516.192 305.681L419.49 313.314L362.284 317.829C362.284 317.829 363.938 336.913 363.982 337.419C364.374 341.899 388.986 343.758 422.021 342.265C428.345 341.98 434.974 341.573 441.805 341.037C484.318 337.698 518.404 330.664 517.938 325.327C517.894 324.822 516.192 305.681 516.192 305.681Z" fill="#E5E5E5"/>
<path fill-rule="evenodd" clip-rule="evenodd" d="M516.291 305.835C516.758 311.172 482.672 318.206 440.158 321.545C397.644 324.884 362.802 323.264 362.335 317.927C361.869 312.59 395.955 305.557 438.469 302.218C480.982 298.879 515.825 300.498 516.291 305.835Z" fill="#C5C5C5"/>
<path fill-rule="evenodd" clip-rule="evenodd" d="M464.25 333.444C493.007 329.998 508.326 325.769 512.749 323.33C512.569 321.288 512.317 318.428 512.073 315.648C504.862 318.909 490.803 322.335 463.561 325.557L464.25 333.444Z" fill="white"/>
<path fill-rule="evenodd" clip-rule="evenodd" d="M514.107 281.792L417.406 289.426L360.199 293.941C360.199 293.941 361.853 313.025 361.897 313.531C362.289 318.011 386.901 319.87 419.936 318.377C426.261 318.092 432.889 317.685 439.72 317.149C482.234 313.809 516.32 306.777 515.853 301.44C515.809 300.933 514.107 281.792 514.107 281.792Z" fill="#E5E5E5"/>
<path fill-rule="evenodd" clip-rule="evenodd" d="M514.205 281.946C514.671 287.283 480.585 294.317 438.071 297.656C395.558 300.995 360.716 299.375 360.249 294.038C359.783 288.701 393.868 281.668 436.382 278.329C478.896 274.99 513.738 276.609 514.205 281.946Z" fill="#C5C5C5"/>
<path fill-rule="evenodd" clip-rule="evenodd" d="M458.699 310.672C487.456 307.226 502.775 302.997 507.198 300.557C507.018 298.515 506.766 295.656 506.521 292.876C499.311 296.137 485.252 299.563 458.009 302.785L458.699 310.672Z" fill="white"/>
<path fill-rule="evenodd" clip-rule="evenodd" d="M512.092 258.742L415.39 266.376L358.184 270.891C358.184 270.891 359.838 289.975 359.882 290.481C360.274 294.961 384.886 296.82 417.921 295.327C424.245 295.041 430.874 294.635 437.705 294.098C480.218 290.759 514.304 283.726 513.838 278.389C513.794 277.883 512.092 258.742 512.092 258.742Z" fill="#E5E5E5"/>
<path fill-rule="evenodd" clip-rule="evenodd" d="M512.191 258.897C512.658 264.234 478.572 271.267 436.058 274.606C393.544 277.945 358.702 276.326 358.235 270.989C357.769 265.652 391.855 258.619 434.368 255.279C476.882 251.94 511.724 253.56 512.191 258.897Z" fill="#C5C5C5"/>
<path fill-rule="evenodd" clip-rule="evenodd" d="M460.151 286.505C488.908 283.059 504.226 278.83 508.65 276.39C508.47 274.348 508.217 271.489 507.973 268.709C500.763 271.97 486.704 275.397 459.461 278.618L460.151 286.505Z" fill="white"/>
<path fill-rule="evenodd" clip-rule="evenodd" d="M510.077 235.692L413.375 243.326L356.168 247.841C356.168 247.841 357.823 266.925 357.867 267.431C358.259 271.91 382.871 273.77 415.906 272.277C422.23 271.991 428.859 271.585 435.69 271.048C478.203 267.709 512.289 260.676 511.823 255.339C511.778 254.833 510.077 235.692 510.077 235.692Z" fill="#E5E5E5"/>
<path fill-rule="evenodd" clip-rule="evenodd" d="M510.176 235.846C510.643 241.183 476.556 248.216 434.043 251.556C391.529 254.894 356.687 253.275 356.22 247.938C355.754 242.601 389.84 235.568 432.353 232.229C474.867 228.89 509.709 230.509 510.176 235.846Z" fill="#C5C5C5"/>
<path fill-rule="evenodd" clip-rule="evenodd" d="M458.135 263.455C486.892 260.009 502.211 255.78 506.634 253.341C506.454 251.299 506.202 248.439 505.957 245.659C498.747 248.92 484.688 252.347 457.445 255.568L458.135 263.455Z" fill="white"/>
<path fill-rule="evenodd" clip-rule="evenodd" d="M508.061 212.642L411.359 220.276L354.153 224.791C354.153 224.791 355.807 243.875 355.851 244.381C356.243 248.86 380.855 250.72 413.89 249.227C420.214 248.942 426.843 248.535 433.674 247.998C476.188 244.659 510.273 237.626 509.807 232.289C509.763 231.783 508.061 212.642 508.061 212.642Z" fill="#E5E5E5"/>
<path fill-rule="evenodd" clip-rule="evenodd" d="M508.161 212.797C508.627 218.134 474.541 225.167 432.027 228.506C389.514 231.845 354.672 230.226 354.205 224.889C353.739 219.552 387.824 212.518 430.338 209.179C472.852 205.84 507.694 207.46 508.161 212.797Z" fill="#C5C5C5"/>
<path fill-rule="evenodd" clip-rule="evenodd" d="M456.12 240.405C484.877 236.959 500.196 232.73 504.619 230.291C504.439 228.249 504.187 225.389 503.942 222.609C496.732 225.87 482.673 229.297 455.43 232.518L456.12 240.405Z" fill="white"/>
<path fill-rule="evenodd" clip-rule="evenodd" d="M506.046 189.592L409.344 197.226L352.138 201.741C352.138 201.741 353.792 220.825 353.836 221.331C354.228 225.811 378.84 227.669 411.875 226.177C418.2 225.891 424.828 225.485 431.659 224.948C474.172 221.609 508.259 214.576 507.792 209.239C507.748 208.733 506.046 189.592 506.046 189.592Z" fill="#E5E5E5"/>
<path fill-rule="evenodd" clip-rule="evenodd" d="M506.145 189.746C506.612 195.083 472.526 202.116 430.012 205.455C387.498 208.794 352.656 207.175 352.189 201.838C351.723 196.501 385.809 189.468 428.323 186.128C470.836 182.789 505.679 184.409 506.145 189.746Z" fill="#C5C5C5"/>
<path fill-rule="evenodd" clip-rule="evenodd" d="M454.142 217.774C482.899 214.328 498.218 210.099 502.641 207.659C502.462 205.617 502.209 202.758 501.965 199.979C494.754 203.24 480.695 206.666 453.453 209.887L454.142 217.774Z" fill="white"/>
<path fill-rule="evenodd" clip-rule="evenodd" d="M487.406 165.528L390.704 173.161L333.498 177.676C333.498 177.676 335.152 196.76 335.196 197.266C335.587 201.746 360.2 203.605 393.235 202.113C399.559 201.827 406.188 201.42 413.018 200.884C455.532 197.545 489.618 190.511 489.152 185.174C489.108 184.669 487.406 165.528 487.406 165.528Z" fill="#E5E5E5"/>
<path fill-rule="evenodd" clip-rule="evenodd" d="M488.366 164.437C488.833 169.773 454.746 176.807 412.233 180.146C369.719 183.485 334.876 181.865 334.41 176.528C333.943 171.191 368.029 164.158 410.543 160.819C453.057 157.48 487.899 159.1 488.366 164.437Z" fill="#C5C5C5"/>
<path fill-rule="evenodd" clip-rule="evenodd" d="M436.361 192.464C465.118 189.018 480.437 184.789 484.861 182.349C484.681 180.307 484.428 177.448 484.184 174.668C476.974 177.929 462.915 181.356 435.672 184.576L436.361 192.464Z" fill="white"/>
<path fill-rule="evenodd" clip-rule="evenodd" d="M470.908 142.058L374.207 149.692L317 154.207C317 154.207 318.654 173.291 318.698 173.797C319.09 178.277 343.702 180.136 376.737 178.643C383.062 178.358 389.69 177.951 396.521 177.415C439.035 174.075 473.121 167.042 472.654 161.705C472.61 161.199 470.908 142.058 470.908 142.058Z" fill="#E5E5E5"/>
<path fill-rule="evenodd" clip-rule="evenodd" d="M471.007 142.213C471.474 147.55 437.388 154.583 394.874 157.922C352.361 161.261 317.518 159.642 317.052 154.305C316.585 148.968 350.671 141.934 393.185 138.595C435.699 135.256 470.541 136.876 471.007 142.213Z" fill="#C5C5C5"/>
<path fill-rule="evenodd" clip-rule="evenodd" d="M471.007 142.213C471.002 143.019 470.371 143.65 469.732 144.1C469.087 144.577 468.363 144.95 467.629 145.296C466.158 145.984 464.607 146.514 463.048 147.006C459.924 147.98 456.727 148.742 453.514 149.421C447.095 150.816 440.598 151.887 434.084 152.825C421.051 154.691 407.944 156.108 394.8 157.085C381.666 158.168 368.492 158.821 355.313 159.008C348.725 159.1 342.13 159.059 335.557 158.683C332.27 158.514 328.984 158.262 325.733 157.79C324.111 157.547 322.488 157.268 320.918 156.818C320.134 156.591 319.356 156.337 318.637 155.967C317.927 155.623 317.195 155.099 317.051 154.305C317.146 155.107 317.871 155.694 318.569 156.077C319.28 156.491 320.054 156.789 320.835 157.059C322.405 157.58 324.028 157.921 325.652 158.229C328.906 158.829 332.197 159.21 335.492 159.506C342.088 160.05 348.705 160.237 355.318 160.302C368.548 160.382 381.764 159.714 394.947 158.759C408.114 157.64 421.267 156.244 434.302 154.095C440.814 153 447.308 151.785 453.719 150.218C456.918 149.412 460.099 148.524 463.204 147.424C464.752 146.867 466.295 146.278 467.752 145.52C468.475 145.132 469.187 144.717 469.817 144.198C470.439 143.71 471.052 143.019 471.007 142.213Z" fill="#C5C5C5"/>
<path fill-rule="evenodd" clip-rule="evenodd" d="M371.911 172.008C342.936 172.782 327.115 170.83 322.349 169.062C322.196 167.018 321.984 164.156 321.775 161.373C329.428 163.548 343.875 164.89 371.316 164.114L371.911 172.008Z" fill="white"/>
<path fill-rule="evenodd" clip-rule="evenodd" d="M516.418 141.915L518.088 162.014C518.088 162.014 513.8 171.101 518.891 171.675C530.08 172.946 545.007 160.023 545.007 160.023L542.457 129.332L516.418 141.915Z" fill="#FAC7AC"/>
<path fill-rule="evenodd" clip-rule="evenodd" d="M500.813 89.2648C500.813 89.2648 496.785 108.445 499.043 124.792C500.646 136.397 526.468 145.688 539.64 125.429C552.812 105.169 541.09 82.2686 541.09 82.2686L500.813 89.2648Z" fill="#FAC7AC"/>
<path fill-rule="evenodd" clip-rule="evenodd" d="M545.619 108.529C546.884 105.894 552.953 107.769 553.035 107.2C558.899 104.107 563.866 98.4146 558.751 94.3608C562.473 88.9032 560.133 82.6226 553.696 80.3622C554.775 75.3303 551.234 71.7685 547.538 70.6723C546.645 64.8464 539.154 61.0344 535.305 64.1286C533.768 62.8158 531.851 61.8975 529.601 61.6871C528.03 61.544 526.756 61.8268 525.659 62.3617C525.161 60.9607 524.188 59.7497 522.448 58.9905C518.588 57.3122 514.909 59.9017 512.05 62.7038C507.668 58.4171 499.019 60.0177 495.874 64.8633C485.464 67.2206 478.683 76.2773 488.689 85.0197C499.922 94.8432 520.644 90.7953 536.081 87.0972C536.081 87.0972 545.812 90.9236 545.619 108.529Z" fill="black"/>
<path fill-rule="evenodd" clip-rule="evenodd" d="M514.752 130.384C511.927 130.02 501.046 122.85 498.978 124.863C496.91 126.875 500.496 138.465 504.92 141.318C509.344 144.171 514.39 147.365 518.051 147.647C521.713 147.929 535.88 143.419 538.113 142.062C540.345 140.706 547.285 117.082 545.92 110.752C544.555 104.423 547.462 96.8501 545.014 98.058C542.567 99.266 540.321 125.872 536.526 128.607C532.732 131.343 519.762 131.03 514.752 130.384Z" fill="black"/>
<path fill-rule="evenodd" clip-rule="evenodd" d="M498.259 104.505C498.259 104.505 514.71 107.027 555.792 94.0614L495.92 90.9102C495.92 90.9102 494.687 98.9243 498.259 104.505Z" fill="#F5F5F5"/>
<path fill-rule="evenodd" clip-rule="evenodd" d="M499.792 91.0416C499.792 91.0416 545.428 83.2851 553.828 76.6849C557.051 78.3179 558.852 84.2688 558.852 84.2688C558.852 84.2688 508.059 94.3341 499.792 91.0416Z" fill="#F5F5F5"/>
<path fill-rule="evenodd" clip-rule="evenodd" d="M495.967 89.1951C495.967 89.1951 516.129 94.0799 558.529 83.124C558.773 82.6844 562.266 88.7176 560.203 92.1039C559.46 93.3247 525.295 105.351 496.329 96.6944C496.329 96.6944 494.479 93.102 495.967 89.1951Z" fill="white"/>
<path fill-rule="evenodd" clip-rule="evenodd" d="M499.19 302.129C496.272 303.864 469.398 327.442 469.398 327.442C477.223 335.351 479.027 336.89 479.027 336.89L581.168 286.865C594.345 278.684 599.534 256.583 591.708 248.694C583.87 240.799 563.228 243.842 550.041 252.021L499.19 302.129Z" fill="#FAC7AC"/>
</g>
<defs>
<clipPath id="clip0_1643_13201">
<rect width="1200" height="320" fill="white"/>
</clipPath>
</defs>
</svg>
