<svg width="360" height="120" viewBox="0 0 360 120" fill="none" xmlns="http://www.w3.org/2000/svg">
<g clip-path="url(#clip0_1643_16484)">
<rect width="360" height="120" fill="#F5F5F5"/>
<path fill-rule="evenodd" clip-rule="evenodd" d="M286.794 40.3645C286.765 36.8913 286.731 34.0805 286.694 32.1381C286.675 31.1669 286.655 30.4128 286.635 29.9014C286.614 29.3901 286.593 29.1216 286.571 29.1216C286.571 29.1216 286.571 29.1224 286.571 29.1224V29.1221H255.377V74.699H255.378C255.378 74.6992 255.377 74.6993 255.377 74.6995C255.377 74.7187 255.587 74.7375 255.989 74.7557C256.391 74.774 256.985 74.7917 257.754 74.8088C259.29 74.8427 261.524 74.874 264.313 74.9013C269.892 74.956 277.69 74.9949 286.571 75.0087L286.88 75.0091L286.88 74.6994C286.882 72.3699 286.884 69.9657 286.886 67.5074C286.886 56.9074 286.851 47.311 286.794 40.3645Z" fill="white"/>
<path fill-rule="evenodd" clip-rule="evenodd" d="M245.105 40.3645C245.077 36.8913 245.043 34.0805 245.005 32.1381C244.987 31.1669 244.967 30.4128 244.946 29.9014C244.926 29.3901 244.905 29.1216 244.883 29.1216C244.883 29.1216 244.883 29.1224 244.882 29.1224V29.1221H213.688V74.699H213.69C213.69 74.6992 213.689 74.6993 213.689 74.6995C213.689 74.7187 213.899 74.7375 214.301 74.7557C214.703 74.774 215.297 74.7917 216.065 74.8088C217.602 74.8427 219.836 74.874 222.625 74.9013C228.203 74.956 236.002 74.9949 244.883 75.0087L245.192 75.0091L245.192 74.6994C245.194 72.3699 245.196 69.9657 245.198 67.5074C245.198 56.9074 245.162 47.311 245.105 40.3645Z" fill="white"/>
<path fill-rule="evenodd" clip-rule="evenodd" d="M199.212 40.3645C199.183 36.8913 199.149 34.0805 199.112 32.1381C199.093 31.1669 199.073 30.4128 199.052 29.9014C199.032 29.3901 199.011 29.1216 198.989 29.1216C198.989 29.1216 198.989 29.1224 198.988 29.1224V29.1221H167.795V74.699H167.796C167.796 74.6992 167.795 74.6993 167.795 74.6995C167.795 74.7187 168.005 74.7375 168.407 74.7557C168.809 74.774 169.403 74.7917 170.171 74.8088C171.708 74.8427 173.942 74.874 176.731 74.9013C182.309 74.956 190.108 74.9949 198.989 75.0087L199.298 75.0091L199.298 74.6994C199.3 72.3699 199.302 69.9657 199.304 67.5074C199.304 56.9074 199.268 47.311 199.212 40.3645Z" fill="white"/>
<path fill-rule="evenodd" clip-rule="evenodd" d="M270.203 84.6094C268.272 83.185 265.273 84.7746 263.227 83.5219C261.383 82.3935 261.457 79.534 262.699 77.7644C263.94 75.9948 265.945 74.9575 267.698 73.6923C269.105 72.6763 270.407 71.4499 271.209 69.9099C272.011 68.37 272.259 66.4776 271.569 64.8843C270.504 62.4264 267.41 61.3015 264.794 61.8777C262.178 62.4539 260.043 64.3812 258.501 66.5718C256.96 68.7624 255.899 71.2481 254.591 73.5852C254.245 74.203 253.837 74.8506 253.18 75.1156C252.282 75.478 251.235 74.9689 250.617 74.2241C249.998 73.4793 249.683 72.5372 249.257 71.6677C247.101 67.2665 241.614 64.8046 236.893 66.1209C234.641 66.7489 232.449 68.4007 232.123 70.7158C231.783 73.1286 233.561 75.3584 235.584 76.7159C237.608 78.0733 239.97 78.9062 241.859 80.4456C242.816 81.2257 243.65 82.2054 244.045 83.3752C244.441 84.5449 244.343 85.9216 243.597 86.9059C242.547 88.292 240.617 88.5577 238.909 88.881C237.2 89.2043 235.257 89.9444 234.803 91.6229C234.378 93.1958 235.607 94.8468 237.132 95.4199C238.658 95.9929 240.361 95.7449 241.947 95.3725C243.534 95.0002 245.13 94.5071 246.756 94.6133C248.546 94.7303 250.227 95.6417 251.382 96.9909C248.877 97.1131 246.385 97.5464 243.966 98.2914C243.813 98.338 243.661 98.3858 243.509 98.4344C243.156 103.096 243.912 107.833 245.656 112.169C246.175 113.463 246.784 114.72 247.476 115.93C249.227 116.17 251.026 116.295 252.86 116.295C254.694 116.295 256.493 116.17 258.243 115.93C261.26 110.665 262.669 104.487 262.211 98.4344C262.059 98.3858 261.907 98.338 261.754 98.2914C261.458 98.2005 261.16 98.114 260.863 98.0324C258.514 97.3875 256.104 97.0331 253.687 96.967C254.247 95.8279 255.061 94.8131 256.048 93.9989C257.035 93.1848 258.196 92.5714 259.449 92.2355C261.283 91.7439 263.217 91.8559 265.109 91.7028C267.002 91.5496 268.997 91.0573 270.281 89.6577C271.564 88.258 271.731 85.7363 270.203 84.6094Z" fill="#E5E5E5"/>
<path fill-rule="evenodd" clip-rule="evenodd" d="M266.794 13.8587H233.344L248.899 5.97547V0H251.239V5.97547L266.794 13.8587Z" fill="#E5E5E5"/>
<path fill-rule="evenodd" clip-rule="evenodd" d="M157.208 42.5234C160.083 42.5234 174.379 45.0235 177.912 63.9368C181.571 83.5305 181.989 126.096 182 126.096C182.01 126.096 125.222 129.964 130.303 121.699C130.945 120.688 130.244 119.19 130.811 117.731C133.781 110.088 136.745 97.0308 134.04 83.1936C134.04 83.1936 120.715 95.0675 107.65 93.2203C94.5855 91.3733 88.5759 86.096 88.5759 86.096C88.5759 86.096 85.4404 80.555 93.8016 80.8188C102.163 81.0826 120.453 81.6105 124.373 67.3617C128.292 53.1131 132.386 39.0932 157.208 42.5234Z" fill="#FF454B"/>
<path fill-rule="evenodd" clip-rule="evenodd" d="M144.444 105.775L109.275 108.704L88.4692 110.436C88.4692 110.436 89.0708 117.758 89.0869 117.953C89.2293 119.671 98.1806 120.385 110.195 119.812C112.495 119.702 114.906 119.546 117.39 119.341C132.852 118.059 145.249 115.361 145.079 113.313C145.063 113.119 144.444 105.775 144.444 105.775Z" fill="#E5E5E5"/>
<path fill-rule="evenodd" clip-rule="evenodd" d="M144.48 105.834C144.65 107.882 132.253 110.581 116.791 111.862C101.33 113.143 88.6578 112.521 88.488 110.474C88.3184 108.426 100.715 105.727 116.177 104.446C131.639 103.165 144.311 103.787 144.48 105.834Z" fill="#C5C5C5"/>
<path fill-rule="evenodd" clip-rule="evenodd" d="M125.554 116.427C136.012 115.105 141.583 113.482 143.192 112.546C143.127 111.763 143.035 110.666 142.946 109.599C140.324 110.85 135.211 112.165 125.303 113.401L125.554 116.427Z" fill="white"/>
<path fill-rule="evenodd" clip-rule="evenodd" d="M143.686 96.6089L108.516 99.5377L87.7107 101.27C87.7107 101.27 88.3124 108.592 88.3285 108.787C88.4709 110.505 97.4222 111.219 109.437 110.646C111.737 110.536 114.147 110.38 116.632 110.175C132.094 108.893 144.49 106.195 144.321 104.147C144.304 103.953 143.686 96.6089 143.686 96.6089Z" fill="#E5E5E5"/>
<path fill-rule="evenodd" clip-rule="evenodd" d="M143.722 96.6682C143.891 98.7159 131.495 101.415 116.033 102.696C100.571 103.977 87.8992 103.355 87.7295 101.308C87.5599 99.2599 99.9566 96.5613 115.418 95.2802C130.88 93.9991 143.552 94.6205 143.722 96.6682Z" fill="#C5C5C5"/>
<path fill-rule="evenodd" clip-rule="evenodd" d="M123.534 107.69C133.993 106.367 139.564 104.745 141.173 103.809C141.108 103.025 141.016 101.928 140.927 100.862C138.305 102.113 133.192 103.428 123.284 104.664L123.534 107.69Z" fill="white"/>
<path fill-rule="evenodd" clip-rule="evenodd" d="M142.953 87.7651L107.783 90.694L86.978 92.4264C86.978 92.4264 87.5796 99.7486 87.5957 99.9427C87.7382 101.662 96.6894 102.375 108.704 101.802C111.004 101.693 113.415 101.537 115.899 101.331C131.361 100.05 143.758 97.3511 143.588 95.3033C143.572 95.1092 142.953 87.7651 142.953 87.7651Z" fill="#E5E5E5"/>
<path fill-rule="evenodd" clip-rule="evenodd" d="M142.989 87.8245C143.159 89.8722 130.762 92.5708 115.3 93.8519C99.8384 95.133 87.1666 94.5116 86.9968 92.4639C86.8272 90.4162 99.2239 87.7176 114.686 86.4365C130.148 85.1553 142.819 85.7768 142.989 87.8245Z" fill="#C5C5C5"/>
<path fill-rule="evenodd" clip-rule="evenodd" d="M124.062 98.4173C134.521 97.095 140.092 95.4726 141.701 94.5364C141.636 93.7529 141.544 92.6559 141.455 91.5894C138.833 92.8406 133.719 94.1552 123.812 95.3911L124.062 98.4173Z" fill="white"/>
<path fill-rule="evenodd" clip-rule="evenodd" d="M142.22 78.9209L107.051 81.8498L86.2451 83.5822C86.2451 83.5822 86.8467 90.9044 86.8629 91.0985C87.0053 92.8173 95.9566 93.5306 107.971 92.958C110.271 92.8483 112.682 92.6923 115.166 92.4865C130.628 91.2054 143.025 88.5068 142.855 86.4591C142.839 86.265 142.22 78.9209 142.22 78.9209Z" fill="#E5E5E5"/>
<path fill-rule="evenodd" clip-rule="evenodd" d="M142.256 78.9803C142.426 81.028 130.029 83.7265 114.567 85.0077C99.1055 86.2887 86.4336 85.6674 86.2639 83.6197C86.0943 81.5719 98.491 78.8734 113.953 77.5922C129.415 76.3111 142.086 76.9325 142.256 78.9803Z" fill="#C5C5C5"/>
<path fill-rule="evenodd" clip-rule="evenodd" d="M123.33 89.5736C133.788 88.2512 139.36 86.6289 140.968 85.6928C140.903 84.9093 140.811 83.8122 140.722 82.7456C138.1 83.9968 132.987 85.3115 123.079 86.5473L123.33 89.5736Z" fill="white"/>
<path fill-rule="evenodd" clip-rule="evenodd" d="M141.487 70.0771L106.318 73.006L85.5125 74.7384C85.5125 74.7384 86.114 82.0606 86.1301 82.2549C86.2726 83.9736 95.2238 84.6869 107.238 84.1143C109.538 84.0047 111.949 83.8486 114.433 83.6428C129.895 82.3616 142.292 79.6632 142.122 77.6153C142.106 77.4212 141.487 70.0771 141.487 70.0771Z" fill="#E5E5E5"/>
<path fill-rule="evenodd" clip-rule="evenodd" d="M141.523 70.1365C141.693 72.1842 129.296 74.8828 113.834 76.1639C98.3726 77.4451 85.7007 76.8236 85.531 74.7759C85.3614 72.7282 97.7581 70.0296 113.22 68.7485C128.682 67.4673 141.354 68.0888 141.523 70.1365Z" fill="#C5C5C5"/>
<path fill-rule="evenodd" clip-rule="evenodd" d="M122.597 80.7293C133.055 79.4071 138.627 77.7846 140.235 76.8486C140.17 76.0651 140.078 74.9681 139.989 73.9014C137.367 75.1526 132.254 76.4672 122.346 77.7031L122.597 80.7293Z" fill="white"/>
<path fill-rule="evenodd" clip-rule="evenodd" d="M140.754 61.2334L105.585 64.1623L84.7795 65.8947C84.7795 65.8947 85.3811 73.217 85.3973 73.4111C85.5397 75.1299 94.491 75.8431 106.506 75.2705C108.806 75.1609 111.216 75.0048 113.701 74.799C129.162 73.5179 141.559 70.8194 141.389 68.7716C141.373 68.5776 140.754 61.2334 140.754 61.2334Z" fill="#E5E5E5"/>
<path fill-rule="evenodd" clip-rule="evenodd" d="M140.791 61.2923C140.96 63.34 128.563 66.0385 113.102 67.3197C97.6399 68.6009 84.9681 67.9794 84.7984 65.9317C84.6288 63.8839 97.0254 61.1854 112.487 59.9042C127.949 58.6231 140.621 59.2446 140.791 61.2923Z" fill="#C5C5C5"/>
<path fill-rule="evenodd" clip-rule="evenodd" d="M121.877 72.0462C132.336 70.7239 137.907 69.1015 139.516 68.1653C139.451 67.3819 139.359 66.2848 139.27 65.2183C136.647 66.4695 131.534 67.7841 121.626 69.02L121.877 72.0462Z" fill="white"/>
<path fill-rule="evenodd" clip-rule="evenodd" d="M133.975 52L98.8054 54.9289L78 56.6613C78 56.6613 78.6016 63.9835 78.6177 64.1776C78.7601 65.8964 87.7114 66.6097 99.7259 66.0371C102.026 65.9274 104.437 65.7714 106.921 65.5656C122.383 64.2845 134.779 61.5859 134.61 59.5382C134.594 59.3441 133.975 52 133.975 52Z" fill="#E5E5E5"/>
<path fill-rule="evenodd" clip-rule="evenodd" d="M134.324 51.5813C134.494 53.6291 122.097 56.3276 106.635 57.6088C91.1733 58.8898 78.5014 58.2685 78.3318 56.2207C78.1621 54.173 90.5589 51.4745 106.021 50.1933C121.482 48.9121 134.154 49.5336 134.324 51.5813Z" fill="#C5C5C5"/>
<path fill-rule="evenodd" clip-rule="evenodd" d="M115.411 62.3353C125.869 61.0131 131.441 59.3906 133.049 58.4545C132.984 57.671 132.892 56.574 132.803 55.5073C130.181 56.7585 125.068 58.0732 115.16 59.309L115.411 62.3353Z" fill="white"/>
<path fill-rule="evenodd" clip-rule="evenodd" d="M127.975 42.9951L92.8054 45.924L72 47.6564C72 47.6564 72.6016 54.9787 72.6177 55.1728C72.7601 56.8917 81.7114 57.6048 93.7259 57.0323C96.0259 56.9227 98.4366 56.7667 100.921 56.5609C116.383 55.2796 128.779 52.5812 128.61 50.5333C128.594 50.3393 127.975 42.9951 127.975 42.9951Z" fill="#E5E5E5"/>
<path fill-rule="evenodd" clip-rule="evenodd" d="M128.011 43.0545C128.181 45.1022 115.784 47.8008 100.322 49.0819C84.8604 50.363 72.1885 49.7416 72.0188 47.6939C71.8492 45.6462 84.2459 42.9476 99.7077 41.6665C115.17 40.3853 127.841 41.0068 128.011 43.0545Z" fill="#C5C5C5"/>
<path fill-rule="evenodd" clip-rule="evenodd" d="M128.011 43.0542C128.009 43.3633 127.78 43.6055 127.547 43.7784C127.313 43.9614 127.049 44.1045 126.783 44.237C126.248 44.5013 125.683 44.7044 125.117 44.8934C123.98 45.2668 122.818 45.5592 121.649 45.8198C119.315 46.3549 116.952 46.7662 114.582 47.1257C109.843 47.8419 105.076 48.3857 100.296 48.7604C95.5188 49.1758 90.7273 49.4264 85.9344 49.4982C83.5384 49.5337 81.1399 49.5176 78.7492 49.3737C77.5538 49.3089 76.3589 49.2119 75.1765 49.031C74.5864 48.9378 73.9963 48.8305 73.4252 48.6578C73.1403 48.5709 72.8571 48.4733 72.5955 48.3315C72.3375 48.1994 72.0712 47.9982 72.0188 47.6936C72.0535 48.0015 72.3169 48.2265 72.5709 48.3735C72.8296 48.5326 73.1112 48.6469 73.395 48.7506C73.966 48.9504 74.5563 49.0812 75.147 49.1994C76.3305 49.4297 77.5275 49.5756 78.7258 49.6891C81.1247 49.898 83.5311 49.9699 85.9363 49.9948C90.748 50.0255 95.5544 49.769 100.349 49.4028C105.138 48.9732 109.921 48.4376 114.662 47.6134C117.03 47.1931 119.392 46.7268 121.724 46.1256C122.887 45.8163 124.044 45.4757 125.173 45.0538C125.736 44.84 126.297 44.6141 126.827 44.3229C127.09 44.174 127.349 44.0149 127.578 43.8157C127.805 43.6288 128.028 43.3635 128.011 43.0542Z" fill="#C5C5C5"/>
<path fill-rule="evenodd" clip-rule="evenodd" d="M91.9708 54.4867C81.4331 54.7836 75.679 54.0347 73.9457 53.3564C73.8902 52.5721 73.8128 51.4739 73.7371 50.4062C76.5202 51.2406 81.7743 51.7557 91.7546 51.4577L91.9708 54.4867Z" fill="white"/>
<path fill-rule="evenodd" clip-rule="evenodd" d="M130.872 117.751C130.872 117.751 124.086 122.233 121.495 122.624C118.903 123.015 114.492 120.107 114.492 120.107L127.522 114.027L130.872 117.751Z" fill="#FAC7AC"/>
<path fill-rule="evenodd" clip-rule="evenodd" d="M127.212 114.793C127.212 114.793 123.011 114.109 121.722 115.097C120.434 116.084 118.337 117.438 118.337 117.438C118.337 117.438 118.621 118.213 119.933 117.621C121.244 117.028 123.601 116.716 125.05 117.105C126.499 117.495 127.212 114.793 127.212 114.793Z" fill="#FAC7AC"/>
<path fill-rule="evenodd" clip-rule="evenodd" d="M144.526 42.9401L145.134 50.6521C145.134 50.6521 143.574 54.1386 145.426 54.3588C149.495 54.8462 154.924 49.8879 154.924 49.8879L153.997 38.1123L144.526 42.9401Z" fill="#FAC7AC"/>
<path fill-rule="evenodd" clip-rule="evenodd" d="M138.851 22.739C138.851 22.739 137.386 30.098 138.207 36.3705C138.79 40.8229 148.182 44.3879 152.972 36.6146C157.762 28.8414 153.499 20.0547 153.499 20.0547L138.851 22.739Z" fill="#FAC7AC"/>
<path fill-rule="evenodd" clip-rule="evenodd" d="M155.147 30.1305C155.607 29.1195 157.814 29.839 157.844 29.6206C159.977 28.4339 161.783 26.2497 159.923 24.6943C161.277 22.6003 160.425 20.1905 158.084 19.3233C158.477 17.3926 157.189 16.026 155.845 15.6054C155.52 13.37 152.796 11.9074 151.396 13.0946C150.837 12.5909 150.139 12.2386 149.321 12.1579C148.75 12.103 148.286 12.2115 147.887 12.4167C147.707 11.8792 147.353 11.4145 146.72 11.1232C145.316 10.4793 143.978 11.4729 142.938 12.548C141.344 10.9032 138.199 11.5174 137.055 13.3765C133.269 14.281 130.803 17.7559 134.442 21.1103C138.527 24.8794 146.063 23.3263 151.678 21.9074C151.678 21.9074 155.217 23.3755 155.147 30.1305Z" fill="black"/>
<path fill-rule="evenodd" clip-rule="evenodd" d="M143.921 38.5157C142.893 38.376 138.936 35.6249 138.184 36.3972C137.431 37.1694 138.736 41.6164 140.345 42.711C141.954 43.8055 143.789 45.031 145.12 45.1392C146.452 45.2474 151.605 43.5169 152.417 42.9964C153.228 42.476 155.752 33.4119 155.256 30.9833C154.76 28.5547 155.817 25.6492 154.927 26.1126C154.037 26.5761 153.22 36.7844 151.84 37.834C150.46 38.8835 145.743 38.7634 143.921 38.5157Z" fill="black"/>
<path fill-rule="evenodd" clip-rule="evenodd" d="M137.922 28.5866C137.922 28.5866 143.905 29.5545 158.846 24.5797L137.071 23.3706C137.071 23.3706 136.623 26.4455 137.922 28.5866Z" fill="#F5F5F5"/>
<path fill-rule="evenodd" clip-rule="evenodd" d="M138.479 23.4206C138.479 23.4206 155.077 20.4445 158.132 17.9121C159.304 18.5387 159.959 20.8219 159.959 20.8219C159.959 20.8219 141.486 24.6839 138.479 23.4206Z" fill="#F5F5F5"/>
<path fill-rule="evenodd" clip-rule="evenodd" d="M137.088 22.7122C137.088 22.7122 144.421 24.5864 159.842 20.3828C159.93 20.2141 161.201 22.5289 160.451 23.8282C160.18 24.2967 147.755 28.9111 137.22 25.5895C137.22 25.5895 136.547 24.2112 137.088 22.7122Z" fill="white"/>
<path fill-rule="evenodd" clip-rule="evenodd" d="M138.261 104.412C137.199 105.078 127.426 114.124 127.426 114.124C130.271 117.159 130.927 117.749 130.927 117.749L168.075 98.5554C172.867 95.4166 174.755 86.9367 171.908 83.9099C169.058 80.8805 161.55 82.048 156.754 85.1865L138.261 104.412Z" fill="#FAC7AC"/>
</g>
<defs>
<clipPath id="clip0_1643_16484">
<rect width="360" height="120" fill="white"/>
</clipPath>
</defs>
</svg>
