<svg width="360" height="120" viewBox="0 0 360 120" fill="none" xmlns="http://www.w3.org/2000/svg">
<g clip-path="url(#clip0_1643_15485)">
<rect width="360" height="120" fill="#F5F5F5"/>
<path d="M110.14 79.7366C110.14 79.7366 104.183 108.612 133.903 105.974C179.058 101.965 240.29 24.8182 265.684 68.253" stroke="#E5E5E5" stroke-width="4" stroke-miterlimit="10"/>
<path d="M276.9 72.8547C275.883 70.6376 274.231 68.7719 272.154 67.4934C270.077 66.2148 267.667 65.5809 265.229 65.6716C262.792 65.7624 260.436 66.5738 258.459 68.0033C256.483 69.4328 254.974 71.4161 254.125 73.7027C253.275 75.9893 253.123 78.4763 253.686 80.8496C254.25 83.2228 255.505 85.3757 257.292 87.036C259.079 88.6963 261.318 89.7896 263.726 90.1775C266.134 90.5655 268.604 90.2308 270.822 89.2157C272.296 88.542 273.624 87.5841 274.727 86.3967C275.831 85.2094 276.69 83.8159 277.255 82.2962C277.82 80.7764 278.079 79.1602 278.018 77.5401C277.957 75.92 277.577 74.3278 276.9 72.8547ZM268.72 84.6142C267.406 85.221 265.943 85.4242 264.514 85.198C263.085 84.9717 261.755 84.3262 260.694 83.3434C259.632 82.3605 258.886 81.0845 258.551 79.6772C258.215 78.27 258.305 76.7948 258.81 75.4387C259.314 74.0827 260.209 72.9069 261.382 72.0605C262.556 71.214 263.954 70.735 265.4 70.6842C266.845 70.6335 268.274 71.0132 269.503 71.7752C270.733 72.5373 271.709 73.6474 272.307 74.9647C273.104 76.7209 273.174 78.7211 272.502 80.5288C271.83 82.3366 270.47 83.8052 268.72 84.6142Z" fill="#FF0008"/>
<path d="M101.976 8.18948H96.8954C94.387 8.18483 91.9133 8.77501 89.6772 9.91155C87.4411 11.0481 85.5063 12.6986 84.0316 14.7277C82.5569 16.7568 81.5843 19.1066 81.1936 21.5844C80.8029 24.0622 81.0053 26.5973 81.7841 28.9817L94.55 68.0422C99.3139 82.6503 119.944 82.6503 124.708 68.0422L137.474 28.9817C138.251 26.5999 138.454 24.0677 138.065 21.5924C137.676 19.1172 136.707 16.7693 135.236 14.7409C133.765 12.7125 131.834 11.0613 129.602 9.92262C127.37 8.7839 124.9 8.18997 122.395 8.18948H117.176" stroke="#E5E5E5" stroke-width="4" stroke-miterlimit="10"/>
<path d="M112.851 73.2672L103.786 72.9952C102.777 72.965 101.935 73.758 101.905 74.7664L101.685 82.1029C101.655 83.1114 102.448 83.9535 103.456 83.9837L112.521 84.2557C113.53 84.2859 114.372 83.4929 114.402 82.4845L114.622 75.148C114.653 74.1395 113.86 73.2974 112.851 73.2672Z" fill="#231F20"/>
<path d="M103.477 5H100.742C100.249 5 99.8496 5.39968 99.8496 5.89272V10.3888C99.8496 10.8818 100.249 11.2815 100.742 11.2815H103.477C103.97 11.2815 104.37 10.8818 104.37 10.3888V5.89272C104.37 5.39968 103.97 5 103.477 5Z" fill="#FF0008"/>
<path d="M118.581 5H115.846C115.353 5 114.953 5.39968 114.953 5.89272V10.3888C114.953 10.8818 115.353 11.2815 115.846 11.2815H118.581C119.074 11.2815 119.474 10.8818 119.474 10.3888V5.89272C119.474 5.39968 119.074 5 118.581 5Z" fill="#FF0008"/>
<path fill-rule="evenodd" clip-rule="evenodd" d="M204.476 102.208L205.117 102.509C205.538 102.676 205.901 102.962 206.162 103.333C206.423 103.703 206.57 104.142 206.586 104.594C206.583 105.008 206.49 105.416 206.313 105.791C206.137 106.165 205.881 106.496 205.563 106.761C204.298 107.799 202.682 108.31 201.051 108.19H200.345V106.778H201.083C202.372 106.894 203.657 106.511 204.67 105.706C204.831 105.575 204.962 105.41 205.054 105.224C205.146 105.038 205.198 104.835 205.206 104.627C205.19 104.443 205.12 104.267 205.005 104.122C204.889 103.978 204.733 103.871 204.557 103.815L203.916 103.523L204.476 102.208Z" fill="#7C3038"/>
<path d="M172.679 47.4447C172.679 47.4447 174.205 44.3526 174.164 43.5086C173.174 42.6159 169.839 41.642 168.207 43.3788C165.773 45.9514 169.295 52.9552 170.074 52.3059C170.853 51.6567 172.679 47.4447 172.679 47.4447Z" fill="#E7A991"/>
<path d="M167.541 57.6945C167.541 57.6945 169.083 54.6431 169.034 53.799C168.036 52.9225 164.855 51.9 162.964 53.2796C160.132 55.3572 164.141 63.1401 164.92 62.4665C165.699 61.7929 167.541 57.6945 167.541 57.6945Z" fill="#E7A991"/>
<path d="M162.94 68.1149C163.367 67.308 163.694 66.4523 163.914 65.5666C163.265 64.9904 161.325 64.1545 160.01 65.4854C158.249 67.2709 160.725 71.6939 161.236 71.2475C161.747 70.8012 162.94 68.1149 162.94 68.1149Z" fill="#E7A991"/>
<path d="M214.563 91.3258C215.375 87.4466 214.62 52.3222 207.6 35.3687C207.6 35.3687 157.21 66.1431 164.587 88.2419C166.567 94.1825 167.371 104.473 170.179 106.226C170.99 111.177 170.179 126.304 170.179 126.304H211.633C211.374 124.429 208.436 109.992 210.067 105.504C211.698 101.016 214.303 93.233 214.563 91.3258Z" fill="#FFCBA6"/>
<path d="M195.906 103.629L190.753 99.7986L165.684 92.5757L166.146 94.3205C172.062 96.9013 189.771 104.871 191.67 105.471C192.479 105.741 193.359 105.702 194.141 105.362C194.923 105.022 195.551 104.405 195.906 103.629Z" fill="#2F1313" fill-opacity="0.25"/>
<path fill-rule="evenodd" clip-rule="evenodd" d="M170.179 106.258C170.141 106.298 170.12 106.35 170.12 106.405C170.12 106.459 170.141 106.511 170.179 106.551C170.849 107.214 171.693 107.675 172.614 107.882C173.59 108.169 174.616 108.246 175.624 108.109C175.651 108.104 175.677 108.094 175.699 108.079C175.722 108.065 175.742 108.046 175.757 108.024C175.773 108.001 175.784 107.976 175.789 107.95C175.795 107.923 175.796 107.896 175.791 107.869C175.786 107.843 175.776 107.817 175.761 107.795C175.747 107.772 175.728 107.752 175.706 107.737C175.683 107.721 175.658 107.71 175.632 107.704C175.605 107.699 175.578 107.698 175.551 107.703C174.605 107.829 173.643 107.755 172.727 107.484C171.901 107.289 171.144 106.874 170.536 106.283C170.521 106.249 170.497 106.22 170.467 106.199C170.437 106.178 170.401 106.166 170.365 106.164C170.328 106.161 170.291 106.169 170.259 106.185C170.226 106.202 170.198 106.227 170.179 106.258Z" fill="#2F1313" fill-opacity="0.25"/>
<path d="M145.613 17.5954C145.613 17.0402 145.723 16.4903 145.935 15.9773C146.148 15.4644 146.459 14.9982 146.852 14.6056C147.244 14.213 147.71 13.9015 148.223 13.689C148.736 13.4765 149.286 13.3672 149.842 13.3672H203.364C204.486 13.3672 205.562 13.8124 206.357 14.6051C207.151 15.3978 207.598 16.4733 207.6 17.5954V101.43C207.6 102.553 207.154 103.631 206.36 104.425C205.565 105.22 204.488 105.666 203.364 105.666H149.842C148.719 105.664 147.644 105.217 146.851 104.422C146.059 103.628 145.613 102.552 145.613 101.43V17.5954Z" fill="#C5C5C5"/>
<path d="M149.054 19.8351C149.054 19.1614 149.322 18.5153 149.798 18.0389C150.275 17.5625 150.921 17.2949 151.595 17.2949H201.611C202.285 17.2949 202.931 17.5625 203.407 18.0389C203.884 18.5153 204.151 19.1614 204.151 19.8351V99.1896C204.151 99.8633 203.884 100.509 203.407 100.986C202.931 101.462 202.285 101.73 201.611 101.73H151.578C150.905 101.73 150.258 101.462 149.782 100.986C149.306 100.509 149.038 99.8633 149.038 99.1896L149.054 19.8351Z" fill="white"/>
<path fill-rule="evenodd" clip-rule="evenodd" d="M176.607 17.7902C177.872 17.7902 179.108 17.4152 180.16 16.7125C181.212 16.0098 182.031 15.011 182.515 13.8424C182.999 12.6739 183.126 11.388 182.879 10.1475C182.632 8.90696 182.023 7.76746 181.129 6.87308C180.235 5.97871 179.095 5.36964 177.855 5.12288C176.614 4.87612 175.328 5.00278 174.16 5.48681C172.991 5.97084 171.992 6.79052 171.29 7.84219C170.587 8.89386 170.212 10.1303 170.212 11.3951C170.212 13.0912 170.886 14.7178 172.085 15.9171C173.284 17.1165 174.911 17.7902 176.607 17.7902ZM176.607 14.3492C177.191 14.3492 177.762 14.176 178.248 13.8514C178.734 13.5268 179.113 13.0654 179.336 12.5256C179.56 11.9858 179.618 11.3918 179.504 10.8188C179.39 10.2458 179.109 9.71939 178.696 9.30626C178.283 8.89312 177.756 8.61178 177.183 8.49779C176.61 8.38381 176.016 8.44232 175.477 8.66591C174.937 8.8895 174.475 9.26812 174.151 9.75392C173.826 10.2397 173.653 10.8109 173.653 11.3951C173.652 11.7834 173.728 12.168 173.876 12.5269C174.024 12.8858 174.241 13.2118 174.516 13.4864C174.79 13.7609 175.116 13.9784 175.475 14.1265C175.834 14.2746 176.219 14.3503 176.607 14.3492Z" fill="#E5E5E5"/>
<path d="M160.441 12.7341C160.563 12.3471 160.804 12.0089 161.131 11.7682C161.458 11.5275 161.853 11.3969 162.258 11.395H190.452C190.858 11.3943 191.254 11.524 191.582 11.7651C191.909 12.0061 192.15 12.3457 192.27 12.7341L193.544 16.7919C193.633 17.0772 193.654 17.3794 193.605 17.6742C193.555 17.969 193.438 18.2481 193.261 18.4889C193.084 18.7298 192.853 18.9257 192.586 19.0609C192.32 19.1961 192.025 19.2667 191.726 19.2672H160.992C160.694 19.2667 160.399 19.1961 160.132 19.0609C159.866 18.9257 159.635 18.7298 159.458 18.4889C159.281 18.2481 159.163 17.969 159.114 17.6742C159.065 17.3794 159.085 17.0772 159.174 16.7919L160.441 12.7341Z" fill="#E5E5E5"/>
<path fill-rule="evenodd" clip-rule="evenodd" d="M180.064 35.4825H187.425V42.4051H180.064V49.7659H173.142V42.4051H165.781V35.4825H173.142V28.1216H180.064V35.4825ZM155.498 61.8663H197.318C197.607 61.819 197.869 61.6706 198.059 61.4476C198.248 61.2246 198.352 60.9416 198.352 60.649C198.352 60.3564 198.248 60.0733 198.059 59.8503C197.869 59.6273 197.607 59.479 197.318 59.4317H155.498C155.322 59.4027 155.141 59.4125 154.969 59.4604C154.797 59.5083 154.637 59.593 154.5 59.7088C154.364 59.8246 154.255 59.9687 154.179 60.131C154.104 60.2934 154.065 60.4701 154.065 60.649C154.065 60.8279 154.104 61.0046 154.179 61.1669C154.255 61.3293 154.364 61.4733 154.5 61.5891C154.637 61.7049 154.797 61.7897 154.969 61.8376C155.141 61.8854 155.322 61.8953 155.498 61.8663ZM155.693 69.4463H197.513C197.675 69.4463 197.835 69.4143 197.984 69.3523C198.133 69.2902 198.269 69.1992 198.382 69.0845C198.496 68.9699 198.586 68.8338 198.648 68.6842C198.709 68.5346 198.74 68.3744 198.738 68.2128C198.738 67.5392 198.195 66.9873 197.318 66.7925H155.498C155.209 66.9056 154.957 67.0995 154.775 67.3513C154.592 67.6031 154.485 67.9021 154.468 68.2128C154.468 68.5385 154.597 68.851 154.826 69.0821C155.056 69.3133 155.367 69.4442 155.693 69.4463ZM155.498 76.6286H197.318C197.607 76.5813 197.869 76.4329 198.059 76.2099C198.248 75.9869 198.352 75.7039 198.352 75.4113C198.352 75.1187 198.248 74.8356 198.059 74.6126C197.869 74.3897 197.607 74.2413 197.318 74.194H155.498C155.322 74.165 155.141 74.1749 154.969 74.2227C154.797 74.2706 154.637 74.3554 154.5 74.4712C154.364 74.587 154.255 74.731 154.179 74.8934C154.104 75.0557 154.065 75.2324 154.065 75.4113C154.065 75.5902 154.104 75.7669 154.179 75.9292C154.255 76.0916 154.364 76.2356 154.5 76.3514C154.637 76.4672 154.797 76.552 154.969 76.5999C155.141 76.6478 155.322 76.6576 155.498 76.6286Z" fill="#FF0008"/>
<path d="M198.965 60.2428C202.211 59.5286 205.052 66.0941 206.05 69.6894C219.595 95.8703 203.826 114.374 199.631 107.573C195.435 100.772 197.415 87.8846 197.058 84.5734C196.701 81.2622 194.729 72.4 194.323 69.4134C193.917 66.4269 194.932 61.1274 198.965 60.2428Z" fill="#FFCBA6"/>
<path fill-rule="evenodd" clip-rule="evenodd" d="M198.332 63.1804C198.31 63.1652 198.285 63.1547 198.258 63.1493C198.232 63.144 198.205 63.1439 198.178 63.1492C198.152 63.1545 198.127 63.165 198.104 63.1801C198.082 63.1952 198.063 63.2147 198.048 63.2372C197.831 63.6069 197.688 64.0159 197.63 64.4408C197.571 64.8656 197.598 65.2978 197.707 65.7125C197.786 66.0969 197.985 66.4463 198.275 66.7107C198.43 66.8367 198.615 66.9196 198.811 66.951C199.008 66.9823 199.209 66.961 199.395 66.8893C200.069 66.6938 200.764 66.5767 201.465 66.5403L202.098 66.4835C202.445 66.4636 202.785 66.3724 203.096 66.2157C203.234 66.1309 203.346 66.0103 203.421 65.8667C203.488 65.7052 203.513 65.5293 203.494 65.3554C203.385 64.7433 203.12 64.1699 202.723 63.6917C202.395 63.2588 202.022 62.8616 201.611 62.5068C201.568 62.4826 201.518 62.4741 201.47 62.4828C201.421 62.4914 201.378 62.5167 201.346 62.5542C201.314 62.5917 201.296 62.6391 201.296 62.6883C201.295 62.7374 201.312 62.7852 201.343 62.8233C201.73 63.1589 202.081 63.5343 202.39 63.9433C202.744 64.358 202.982 64.8593 203.08 65.396C203.096 65.4952 203.082 65.5971 203.039 65.6881C203.006 65.7617 202.949 65.8217 202.877 65.8586C202.624 65.9833 202.347 66.0551 202.065 66.0696L201.481 66.1264C200.736 66.1629 199.997 66.2882 199.282 66.4997C199.162 66.5485 199.032 66.5637 198.905 66.5437C198.777 66.5236 198.658 66.4692 198.559 66.3861C198.329 66.1707 198.175 65.8857 198.121 65.5745C197.934 64.8506 198.036 64.0823 198.405 63.432C198.425 63.3882 198.428 63.3389 198.415 63.2928C198.401 63.2468 198.372 63.207 198.332 63.1804Z" fill="#2F1313" fill-opacity="0.25"/>
<path fill-rule="evenodd" clip-rule="evenodd" d="M205.742 68.7968C205.694 68.8226 205.659 68.8657 205.642 68.917C205.625 68.9683 205.629 69.024 205.652 69.0727C205.855 69.446 207.048 72.1647 208.314 75.1513C209.58 78.1378 210.911 81.376 211.374 82.78C211.394 82.8314 211.433 82.8733 211.482 82.8973C211.532 82.9214 211.589 82.9259 211.642 82.9098C211.692 82.8914 211.734 82.8542 211.758 82.8059C211.783 82.7575 211.787 82.7018 211.772 82.6501C211.301 81.2299 209.962 77.9755 208.696 74.9971C207.43 72.0187 206.261 69.2756 206.026 68.886C206.014 68.8608 205.997 68.8382 205.976 68.8199C205.954 68.8015 205.93 68.7877 205.903 68.7793C205.876 68.771 205.848 68.7682 205.821 68.7712C205.793 68.7742 205.766 68.7829 205.742 68.7968Z" fill="#2F1313" fill-opacity="0.25"/>
<path fill-rule="evenodd" clip-rule="evenodd" d="M198.527 105.56C198.502 105.573 198.48 105.59 198.463 105.612C198.445 105.633 198.432 105.658 198.425 105.685C198.417 105.711 198.415 105.739 198.419 105.767C198.422 105.794 198.431 105.82 198.446 105.844L198.608 106.144C199.027 107.169 199.749 108.041 200.677 108.644C200.7 108.659 200.726 108.669 200.752 108.674C200.779 108.678 200.807 108.678 200.833 108.672C200.86 108.666 200.885 108.654 200.907 108.638C200.929 108.623 200.947 108.602 200.961 108.579C200.988 108.532 200.996 108.475 200.982 108.422C200.969 108.369 200.935 108.324 200.888 108.295C199.963 107.735 199.639 107.151 198.965 105.917L198.803 105.641C198.79 105.618 198.773 105.597 198.752 105.58C198.731 105.563 198.707 105.551 198.682 105.543C198.656 105.536 198.629 105.533 198.602 105.536C198.576 105.539 198.55 105.547 198.527 105.56Z" fill="#2F1313" fill-opacity="0.25"/>
</g>
<defs>
<clipPath id="clip0_1643_15485">
<rect width="360" height="120" fill="white"/>
</clipPath>
</defs>
</svg>
