<svg width="1200" height="318" viewBox="0 0 1200 318" fill="none" xmlns="http://www.w3.org/2000/svg">
<g clip-path="url(#clip0_1643_13620)">
<path d="M413.388 201.042C413.388 201.042 397.364 278.717 477.31 271.622C598.778 260.837 763.493 53.3114 831.802 170.151" stroke="#E5E5E5" stroke-width="4" stroke-miterlimit="10"/>
<path d="M861.97 182.529C859.234 176.565 854.791 171.547 849.203 168.107C843.615 164.668 837.133 162.963 830.575 163.207C824.018 163.451 817.681 165.634 812.364 169.479C807.047 173.324 802.99 178.66 800.704 184.811C798.419 190.961 798.009 197.652 799.525 204.036C801.042 210.42 804.417 216.211 809.224 220.677C814.031 225.143 820.054 228.084 826.532 229.128C833.01 230.172 839.652 229.271 845.619 226.541C849.586 224.728 853.156 222.152 856.126 218.958C859.095 215.764 861.406 212.015 862.924 207.927C864.443 203.839 865.141 199.491 864.977 195.133C864.813 190.775 863.792 186.492 861.97 182.529ZM839.965 214.163C836.432 215.795 832.494 216.341 828.65 215.733C824.807 215.124 821.23 213.388 818.375 210.744C815.519 208.1 813.513 204.668 812.61 200.882C811.708 197.097 811.95 193.128 813.306 189.48C814.662 185.833 817.071 182.67 820.227 180.393C823.383 178.116 827.144 176.827 831.033 176.691C834.923 176.554 838.765 177.576 842.073 179.626C845.381 181.676 848.005 184.662 849.614 188.205C851.758 192.929 851.947 198.31 850.14 203.173C848.332 208.036 844.674 211.986 839.965 214.163Z" fill="#FF0008"/>
<path d="M391.425 8.57954H377.759C371.011 8.56704 364.357 10.1546 358.342 13.2119C352.326 16.2692 347.122 20.7091 343.155 26.1674C339.188 31.6257 336.572 37.9467 335.521 44.612C334.47 51.2772 335.014 58.0966 337.109 64.5107L371.45 169.584C384.264 208.879 439.759 208.879 452.574 169.584L486.914 64.5107C489.007 58.1036 489.552 51.292 488.506 44.6336C487.46 37.9751 484.851 31.6592 480.894 26.2028C476.937 20.7465 471.744 16.3049 465.74 13.2417C459.736 10.1785 453.092 8.58085 446.352 8.57954H432.315" stroke="#E5E5E5" stroke-width="4" stroke-miterlimit="10"/>
<path d="M420.675 183.639L396.29 182.907C393.577 182.826 391.312 184.959 391.231 187.672L390.639 207.407C390.557 210.12 392.69 212.385 395.403 212.466L419.788 213.198C422.501 213.279 424.766 211.146 424.848 208.433L425.44 188.698C425.521 185.985 423.388 183.72 420.675 183.639Z" fill="#231F20"/>
<path d="M395.465 0H388.107C386.781 0 385.706 1.07515 385.706 2.40142V14.4958C385.706 15.8221 386.781 16.8972 388.107 16.8972H395.465C396.791 16.8972 397.866 15.8221 397.866 14.4958V2.40142C397.866 1.07515 396.791 0 395.465 0Z" fill="#FF0008"/>
<path d="M436.093 0H428.736C427.41 0 426.335 1.07515 426.335 2.40142V14.4958C426.335 15.8221 427.41 16.8972 428.736 16.8972H436.093C437.42 16.8972 438.495 15.8221 438.495 14.4958V2.40142C438.495 1.07515 437.42 0 436.093 0Z" fill="#FF0008"/>
<path fill-rule="evenodd" clip-rule="evenodd" d="M667.152 261.492L668.877 262.299C670.01 262.749 670.987 263.519 671.689 264.516C672.391 265.512 672.787 266.692 672.828 267.91C672.82 269.023 672.57 270.121 672.095 271.128C671.62 272.134 670.932 273.025 670.077 273.739C666.674 276.529 662.328 277.904 657.939 277.581H656.04V273.783H658.027C661.494 274.097 664.949 273.065 667.676 270.901C668.108 270.546 668.459 270.104 668.708 269.604C668.956 269.103 669.096 268.556 669.117 267.997C669.075 267.501 668.887 267.029 668.576 266.64C668.265 266.251 667.845 265.964 667.37 265.814L665.646 265.028L667.152 261.492Z" fill="#7C3038"/>
<path d="M581.617 114.176C581.617 114.176 585.721 105.858 585.612 103.588C582.948 101.187 573.976 98.5668 569.588 103.239C563.038 110.159 572.513 128.999 574.609 127.253C576.705 125.506 581.617 114.176 581.617 114.176Z" fill="#E7A991"/>
<path d="M567.797 141.748C567.797 141.748 571.945 133.54 571.814 131.27C569.129 128.912 560.571 126.161 555.485 129.872C547.866 135.461 558.65 156.397 560.746 154.585C562.842 152.773 567.797 141.748 567.797 141.748Z" fill="#E7A991"/>
<path d="M555.42 169.779C556.568 167.609 557.447 165.307 558.04 162.924C556.293 161.374 551.076 159.126 547.539 162.706C542.802 167.509 549.46 179.407 550.835 178.206C552.211 177.005 555.42 169.779 555.42 169.779Z" fill="#E7A991"/>
<path d="M694.288 232.217C696.471 221.781 694.441 127.297 675.557 81.6915C675.557 81.6915 540.008 164.475 559.852 223.921C565.179 239.901 567.34 267.583 574.894 272.298C577.077 285.615 574.894 326.308 574.894 326.308H686.407C685.708 321.265 677.805 282.428 682.194 270.355C686.582 258.283 693.589 237.347 694.288 232.217Z" fill="#FFCBA6"/>
<path d="M644.1 265.312L630.237 255.008L562.801 235.579L564.045 240.272C579.96 247.215 627.595 268.653 632.704 270.268C634.88 270.993 637.247 270.888 639.351 269.973C641.454 269.058 643.146 267.398 644.1 265.312Z" fill="#2F1313" fill-opacity="0.25"/>
<path fill-rule="evenodd" clip-rule="evenodd" d="M574.895 272.385C574.794 272.491 574.737 272.632 574.737 272.778C574.737 272.925 574.794 273.066 574.895 273.171C576.699 274.956 578.969 276.197 581.445 276.752C584.071 277.524 586.831 277.732 589.544 277.363C589.616 277.35 589.684 277.323 589.745 277.284C589.807 277.245 589.86 277.193 589.901 277.134C589.943 277.074 589.972 277.006 589.988 276.935C590.003 276.864 590.004 276.791 589.992 276.719C589.979 276.647 589.952 276.579 589.912 276.518C589.873 276.456 589.822 276.403 589.762 276.362C589.702 276.32 589.635 276.291 589.564 276.275C589.493 276.26 589.419 276.258 589.347 276.271C586.802 276.612 584.213 276.411 581.75 275.682C579.529 275.159 577.492 274.042 575.856 272.451C575.815 272.361 575.751 272.283 575.67 272.227C575.589 272.17 575.494 272.137 575.395 272.13C575.297 272.124 575.198 272.144 575.11 272.189C575.022 272.234 574.948 272.302 574.895 272.385Z" fill="#2F1313" fill-opacity="0.25"/>
<path d="M508.809 33.8819C508.809 32.3882 509.103 30.9092 509.674 29.5293C510.246 28.1493 511.084 26.8955 512.14 25.8393C513.196 24.7831 514.45 23.9453 515.83 23.3737C517.21 22.8021 518.689 22.5079 520.183 22.5079H664.158C667.177 22.5079 670.072 23.7055 672.209 25.838C674.345 27.9704 675.548 30.8633 675.554 33.8819V259.397C675.554 262.419 674.354 265.318 672.216 267.455C670.079 269.592 667.181 270.792 664.158 270.792H520.183C517.164 270.787 514.271 269.584 512.139 267.447C510.006 265.311 508.809 262.415 508.809 259.397V33.8819Z" fill="#C5C5C5"/>
<path d="M518.062 39.907C518.062 38.0947 518.782 36.3567 520.064 35.0752C521.345 33.7938 523.083 33.0739 524.895 33.0739H659.44C661.252 33.0739 662.99 33.7938 664.272 35.0752C665.553 36.3567 666.273 38.0947 666.273 39.907V253.371C666.273 255.183 665.553 256.921 664.272 258.203C662.99 259.484 661.252 260.204 659.44 260.204H524.852C523.039 260.204 521.301 259.484 520.02 258.203C518.738 256.921 518.019 255.183 518.019 253.371L518.062 39.907Z" fill="white"/>
<path fill-rule="evenodd" clip-rule="evenodd" d="M592.178 34.4058C595.581 34.4058 598.907 33.3968 601.736 31.5066C604.565 29.6163 606.77 26.9296 608.072 23.7861C609.374 20.6427 609.715 17.1838 609.051 13.8468C608.387 10.5097 606.749 7.44447 604.343 5.0386C601.937 2.63274 598.872 0.994328 595.535 0.330552C592.198 -0.333225 588.739 0.00746673 585.595 1.30951C582.452 2.61156 579.765 4.8165 577.875 7.6455C575.985 10.4745 574.976 13.8005 574.976 17.2029C574.976 21.7654 576.788 26.141 580.014 29.3672C583.24 32.5933 587.616 34.4058 592.178 34.4058ZM592.178 25.1494C593.75 25.1494 595.286 24.6834 596.593 23.8102C597.9 22.937 598.919 21.696 599.52 20.2439C600.122 18.7919 600.279 17.1941 599.972 15.6526C599.666 14.1111 598.909 12.6952 597.797 11.5839C596.686 10.4725 595.27 9.7157 593.729 9.40908C592.187 9.10246 590.589 9.25986 589.137 9.86132C587.685 10.4628 586.444 11.4813 585.571 12.7881C584.698 14.0949 584.232 15.6312 584.232 17.2029C584.229 18.2473 584.433 19.2819 584.831 20.2473C585.229 21.2127 585.815 22.0899 586.553 22.8284C587.291 23.5668 588.169 24.152 589.134 24.5504C590.099 24.9487 591.134 25.1523 592.178 25.1494Z" fill="#E5E5E5"/>
<path d="M548.694 20.8052C549.023 19.7642 549.673 18.8544 550.552 18.207C551.431 17.5596 552.493 17.2081 553.584 17.2031H629.425C630.519 17.2012 631.584 17.5502 632.464 18.1985C633.344 18.8469 633.993 19.7606 634.316 20.8052L637.743 31.7208C637.983 32.4882 638.038 33.3012 637.906 34.0941C637.773 34.8871 637.456 35.6378 636.981 36.2858C636.505 36.9337 635.883 37.4608 635.166 37.8244C634.449 38.1881 633.657 38.3781 632.853 38.3792H550.179C549.375 38.3781 548.582 38.1881 547.865 37.8244C547.148 37.4608 546.527 36.9337 546.051 36.2858C545.575 35.6378 545.258 34.8871 545.126 34.0941C544.993 33.3012 545.049 32.4882 545.289 31.7208L548.694 20.8052Z" fill="#E5E5E5"/>
<path fill-rule="evenodd" clip-rule="evenodd" d="M601.479 81.9973H621.28V100.619H601.479V120.42H582.858V100.619H563.057V81.9973H582.858V62.1965H601.479V81.9973ZM535.397 152.97H647.892C648.669 152.843 649.375 152.444 649.885 151.844C650.394 151.244 650.674 150.482 650.674 149.695C650.674 148.908 650.394 148.147 649.885 147.547C649.375 146.947 648.669 146.548 647.892 146.421H535.397C534.922 146.343 534.436 146.369 533.972 146.498C533.509 146.627 533.079 146.855 532.712 147.166C532.345 147.478 532.051 147.865 531.849 148.302C531.647 148.739 531.542 149.214 531.542 149.695C531.542 150.177 531.647 150.652 531.849 151.089C532.051 151.525 532.345 151.913 532.712 152.224C533.079 152.536 533.509 152.764 533.972 152.893C534.436 153.021 534.922 153.048 535.397 152.97ZM535.921 173.36H648.416C648.851 173.36 649.281 173.274 649.683 173.107C650.084 172.94 650.448 172.695 650.755 172.387C651.061 172.079 651.304 171.713 651.468 171.31C651.632 170.908 651.716 170.477 651.713 170.042C651.713 168.23 650.25 166.745 647.892 166.222H535.397C534.617 166.526 533.941 167.047 533.45 167.725C532.958 168.402 532.672 169.206 532.624 170.042C532.624 170.918 532.971 171.759 533.588 172.381C534.206 173.002 535.045 173.354 535.921 173.36ZM535.397 192.681H647.892C648.669 192.553 649.375 192.154 649.885 191.554C650.394 190.955 650.674 190.193 650.674 189.406C650.674 188.619 650.394 187.858 649.885 187.258C649.375 186.658 648.669 186.259 647.892 186.131H535.397C534.922 186.054 534.436 186.08 533.972 186.209C533.509 186.338 533.079 186.566 532.712 186.877C532.345 187.189 532.051 187.576 531.849 188.013C531.647 188.45 531.542 188.925 531.542 189.406C531.542 189.887 531.647 190.363 531.849 190.799C532.051 191.236 532.345 191.624 532.712 191.935C533.079 192.247 533.509 192.475 533.972 192.603C534.436 192.732 534.922 192.759 535.397 192.681Z" fill="#FF0008"/>
<path d="M652.325 148.604C661.058 146.683 668.699 164.344 671.384 174.015C707.82 244.442 665.402 294.217 654.115 275.923C642.829 257.628 648.156 222.96 647.195 214.053C646.234 205.146 640.929 181.307 639.838 173.273C638.746 165.239 641.475 150.983 652.325 148.604Z" fill="#FFCBA6"/>
<path fill-rule="evenodd" clip-rule="evenodd" d="M650.621 156.506C650.561 156.466 650.493 156.437 650.422 156.423C650.351 156.408 650.278 156.408 650.207 156.422C650.136 156.437 650.068 156.465 650.008 156.505C649.948 156.546 649.896 156.598 649.857 156.659C649.272 157.653 648.889 158.754 648.732 159.897C648.575 161.04 648.645 162.202 648.94 163.318C649.153 164.352 649.688 165.292 650.468 166.003C650.883 166.342 651.38 166.565 651.91 166.649C652.439 166.733 652.981 166.676 653.481 166.483C655.294 165.957 657.162 165.642 659.048 165.544L660.75 165.392C661.685 165.338 662.599 165.093 663.436 164.671C663.806 164.443 664.108 164.119 664.309 163.732C664.49 163.298 664.558 162.825 664.505 162.357C664.214 160.71 663.5 159.168 662.431 157.882C661.549 156.717 660.547 155.649 659.441 154.694C659.326 154.629 659.191 154.606 659.061 154.63C658.931 154.653 658.813 154.721 658.728 154.822C658.643 154.923 658.595 155.05 658.594 155.182C658.592 155.315 658.637 155.443 658.72 155.546C659.762 156.448 660.706 157.458 661.536 158.558C662.49 159.674 663.13 161.022 663.392 162.466C663.436 162.733 663.398 163.007 663.283 163.252C663.193 163.45 663.039 163.611 662.846 163.711C662.165 164.046 661.422 164.239 660.663 164.278L659.091 164.431C657.086 164.529 655.1 164.866 653.175 165.435C652.854 165.566 652.503 165.607 652.161 165.554C651.818 165.5 651.497 165.353 651.232 165.13C650.611 164.55 650.197 163.784 650.053 162.947C649.55 160.999 649.824 158.932 650.817 157.183C650.87 157.065 650.879 156.933 650.843 156.809C650.807 156.685 650.728 156.578 650.621 156.506Z" fill="#2F1313" fill-opacity="0.25"/>
<path fill-rule="evenodd" clip-rule="evenodd" d="M670.556 171.614C670.429 171.683 670.333 171.799 670.288 171.937C670.244 172.075 670.254 172.225 670.316 172.356C670.862 173.36 674.071 180.674 677.477 188.708C680.882 196.741 684.462 205.452 685.707 209.229C685.761 209.367 685.865 209.48 685.999 209.545C686.132 209.609 686.285 209.621 686.427 209.578C686.564 209.529 686.676 209.428 686.741 209.298C686.806 209.168 686.819 209.019 686.777 208.88C685.51 205.059 681.908 196.305 678.503 188.293C675.097 180.281 671.953 172.902 671.32 171.854C671.288 171.786 671.242 171.726 671.185 171.676C671.129 171.627 671.062 171.59 670.991 171.567C670.919 171.545 670.843 171.537 670.768 171.545C670.694 171.553 670.621 171.577 670.556 171.614Z" fill="#2F1313" fill-opacity="0.25"/>
<path fill-rule="evenodd" clip-rule="evenodd" d="M651.148 270.508C651.082 270.542 651.023 270.59 650.976 270.647C650.929 270.705 650.894 270.772 650.874 270.843C650.853 270.915 650.848 270.99 650.857 271.064C650.867 271.137 650.891 271.208 650.929 271.272L651.366 272.08C652.494 274.836 654.436 277.182 656.933 278.804C656.994 278.844 657.063 278.871 657.135 278.884C657.207 278.897 657.281 278.895 657.352 278.878C657.423 278.862 657.49 278.832 657.55 278.789C657.609 278.746 657.659 278.692 657.697 278.629C657.77 278.501 657.79 278.35 657.753 278.208C657.717 278.065 657.626 277.942 657.501 277.865C655.012 276.359 654.139 274.787 652.327 271.469L651.89 270.727C651.856 270.663 651.809 270.608 651.753 270.562C651.697 270.517 651.633 270.483 651.564 270.463C651.495 270.443 651.423 270.436 651.351 270.444C651.28 270.452 651.211 270.474 651.148 270.508Z" fill="#2F1313" fill-opacity="0.25"/>
</g>
<defs>
<clipPath id="clip0_1643_13620">
<rect width="1200" height="320" fill="white"/>
</clipPath>
</defs>
</svg>
