<svg width="360" height="120" viewBox="0 0 360 120" fill="none" xmlns="http://www.w3.org/2000/svg">
<g clip-path="url(#clip0_1643_15501)">
<rect width="360" height="120" fill="#F5F5F5"/>
<path d="M367.1 92.0098H-7.83984V93.0098H367.1V92.0098Z" fill="#E5E5E5"/>
<path d="M254 -28V92.59H324V-28H254ZM267 92.54H258.27V71.26H267V92.54ZM267 60.98H258.27V50.5H267V60.98ZM267 14.62H258.27V4.10999H267V14.62ZM283.68 33.82H274.95V23.35H283.68V33.82ZM283.68 14.62H274.95V4.10999H283.68V14.62ZM283.68 -2.08002H274.96V-12.55H283.68V-2.08002ZM300.35 33.82H291.62V23.35H300.35V33.82ZM300.35 -2.08002H291.63V-12.55H300.35V-2.08002Z" fill="#E5E5E5"/>
<path d="M333.06 66.2698H274.76V55.7998H320.73L333.06 66.2698Z" fill="#C5C5C5"/>
<path d="M332.68 65.1602H274.76V92.5402H332.68V65.1602Z" fill="#E5E5E5"/>
<path d="M286.73 84.84H278.01V69.52H286.73V84.84ZM307.84 69.52H291.1V84.84H307.84V69.52ZM320.62 69.52H312.17V84.84H320.62V69.52Z" fill="white"/>
<path d="M212.37 46.1103C206.5 45.8803 199.87 56.1103 204.37 65.1103C200.37 70.3703 200.63 73.0003 201.46 75.7703C202.29 78.5403 210.87 86.0203 221.95 79.7703C233.03 73.5203 222.64 65.6502 221.53 63.8502C220.42 62.0502 223.16 46.5603 212.37 46.1103Z" fill="#C5C5C5"/>
<path d="M212.91 58.3105H212.72C212.582 58.3105 212.47 58.4225 212.47 58.5605V92.2505C212.47 92.3886 212.582 92.5005 212.72 92.5005H212.91C213.048 92.5005 213.16 92.3886 213.16 92.2505V58.5605C213.16 58.4225 213.048 58.3105 212.91 58.3105Z" fill="#C5C5C5"/>
<path d="M219.529 66.75H219.379C219.275 66.75 219.189 66.8351 219.189 66.94V92.5C219.189 92.6049 219.275 92.69 219.379 92.69H219.529C219.634 92.69 219.719 92.6049 219.719 92.5V66.94C219.719 66.8351 219.634 66.75 219.529 66.75Z" fill="#C5C5C5"/>
<path d="M219.11 56.8904C214.66 56.7204 209.63 64.5004 213.02 71.2804C209.97 75.2804 210.18 77.2804 210.81 79.3604C211.44 81.4404 218 87.1104 226.35 82.4104C234.7 77.7104 226.88 71.7004 226.04 70.3304C225.2 68.9604 227.3 57.2004 219.11 56.8904Z" fill="#E5E5E5"/>
<path d="M112.18 46.1103C118.05 45.8803 124.67 56.1103 120.18 65.1103C124.18 70.3703 123.92 73.0003 123.09 75.7703C122.26 78.5403 113.67 86.0203 102.6 79.7703C91.5305 73.5203 101.91 65.6502 103.01 63.8502C104.11 62.0502 101.38 46.5603 112.18 46.1103Z" fill="#C5C5C5"/>
<path d="M111.63 92.5H111.82C111.958 92.5 112.07 92.3881 112.07 92.25V58.56C112.07 58.4219 111.958 58.31 111.82 58.31H111.63C111.492 58.31 111.38 58.4219 111.38 58.56V92.25C111.38 92.3881 111.492 92.5 111.63 92.5Z" fill="#C5C5C5"/>
<path d="M105.02 92.6904H105.17C105.275 92.6904 105.36 92.6054 105.36 92.5005V66.9404C105.36 66.8355 105.275 66.7505 105.17 66.7505H105.02C104.915 66.7505 104.83 66.8355 104.83 66.9404V92.5005C104.83 92.6054 104.915 92.6904 105.02 92.6904Z" fill="#C5C5C5"/>
<path d="M105.44 56.8904C109.89 56.7204 114.91 64.5004 111.53 71.2804C114.53 75.2804 114.36 77.2804 113.73 79.3604C113.1 81.4404 106.59 87.1304 98.1903 82.4104C89.7903 77.6904 97.6703 71.7004 98.5103 70.3304C99.3503 68.9604 97.2503 57.2004 105.44 56.8904Z" fill="#E5E5E5"/>
<path d="M88.8298 33.2899V85.7099C88.8271 87.616 88.0688 89.4432 86.7209 90.791C85.3731 92.1389 83.5459 92.8972 81.6398 92.8999H57.8898C57.8898 92.7699 57.8898 92.6399 57.8898 92.5099C57.8611 91.0547 57.6289 89.6106 57.1998 88.2198C56.3281 85.3275 54.6612 82.7383 52.3892 80.7474C50.1172 78.7566 47.3315 77.4442 44.3498 76.9599C43.4878 76.8106 42.6145 76.737 41.7398 76.7399C39.907 76.7361 38.0872 77.0473 36.3598 77.6599C32.6508 78.974 29.5475 81.594 27.6298 85.0299C27.0581 86.0375 26.6051 87.108 26.2798 88.2198C25.8506 89.6106 25.6184 91.0547 25.5898 92.5099C25.5898 92.6399 25.5898 92.7699 25.5898 92.8999H8.12976C8.12976 92.7699 8.12976 92.6399 8.12976 92.5099C8.10124 91.219 7.91656 89.9363 7.57977 88.6898C7.00788 86.5739 6.01179 84.5964 4.65201 82.8773C3.29223 81.1583 1.59715 79.7336 -0.330235 78.6898C-2.45778 77.5317 -4.8205 76.8718 -7.24023 76.7599H-7.99023V26.1099H81.6398C83.5449 26.1099 85.3722 26.866 86.7203 28.2122C88.0684 29.5584 88.8271 31.3847 88.8298 33.2899Z" fill="#E5E5E5"/>
<path d="M36.5004 20.6396H64.2404C65.4604 20.6396 66.6304 21.1243 67.4931 21.987C68.3557 22.8496 68.8404 24.0197 68.8404 25.2397V26.0996H31.9004V25.2397C31.9004 24.0197 32.385 22.8496 33.2477 21.987C34.1104 21.1243 35.2804 20.6396 36.5004 20.6396Z" fill="#C5C5C5"/>
<path d="M15.6802 32.5996H1.82023C-0.295016 32.5996 -2.00977 34.3144 -2.00977 36.4296V50.2896C-2.00977 52.4049 -0.295016 54.1196 1.82023 54.1196H15.6802C17.7955 54.1196 19.5102 52.4049 19.5102 50.2896V36.4296C19.5102 34.3144 17.7955 32.5996 15.6802 32.5996Z" fill="white"/>
<path d="M41.19 32.5996H27.33C25.2148 32.5996 23.5 34.3144 23.5 36.4296V50.2896C23.5 52.4049 25.2148 54.1196 27.33 54.1196H41.19C43.3052 54.1196 45.02 52.4049 45.02 50.2896V36.4296C45.02 34.3144 43.3052 32.5996 41.19 32.5996Z" fill="white"/>
<path d="M71.1705 32.5996H57.3105C55.1952 32.5996 53.4805 34.3144 53.4805 36.4296V50.2896C53.4805 52.4049 55.1952 54.1196 57.3105 54.1196H71.1705C73.2857 54.1196 75.0005 52.4049 75.0005 50.2896V36.4296C75.0005 34.3144 73.2857 32.5996 71.1705 32.5996Z" fill="white"/>
<path d="M88.8303 72.1095L83.4803 68.6995C81.9403 68.6995 81.2403 66.7895 81.2403 65.2495V40.7595C81.2389 40.3957 81.3093 40.0353 81.4473 39.6987C81.5853 39.3621 81.7882 39.056 82.0445 38.7979C82.3008 38.5397 82.6054 38.3346 82.941 38.1942C83.2766 38.0538 83.6365 37.9808 84.0003 37.9795H88.8103L88.8303 72.1095Z" fill="white"/>
<path d="M61.0605 58.4897H54.7305V59.4897H61.0605V58.4897Z" fill="#FFE7E8"/>
<path d="M6.39 92.5095C6.3529 91.2128 6.13755 89.9274 5.75 88.6895C4.72656 85.4533 2.56233 82.6992 -0.34 80.9395C-2.42812 79.6784 -4.81114 78.9887 -7.25 78.9395H-8V83.0395H-7.61C-5.72497 83.0322 -3.87697 83.5627 -2.28284 84.5688C-0.688718 85.5749 0.585398 87.0147 1.39 88.7195C1.95318 89.918 2.27269 91.2164 2.33 92.5395C2.33 92.6795 2.33 92.8195 2.33 92.9595C2.33 95.5878 1.28591 98.1084 -0.572572 99.9669C-2.43106 101.825 -4.9517 102.869 -7.58 102.869H-8V106.969H-7.61C-3.89697 106.969 -0.336015 105.494 2.28949 102.869C4.915 100.243 6.39 96.6825 6.39 92.9695C6.4 92.7895 6.4 92.6495 6.39 92.5095Z" fill="#FF0008"/>
<path d="M41.8301 78.8799C39.0611 78.8799 36.3544 79.701 34.0521 81.2393C31.7498 82.7777 29.9554 84.9642 28.8958 87.5223C27.8361 90.0805 27.5589 92.8954 28.0991 95.6111C28.6393 98.3269 29.9727 100.821 31.9306 102.779C33.8885 104.737 36.3831 106.071 39.0988 106.611C41.8146 107.151 44.6295 106.874 47.1877 105.814C49.7458 104.755 51.9323 102.96 53.4707 100.658C55.009 98.3556 55.8301 95.6488 55.8301 92.8799C55.8301 89.1669 54.3551 85.6059 51.7296 82.9804C49.1041 80.3549 45.5431 78.8799 41.8301 78.8799ZM41.8301 102.81C39.8705 102.808 37.9555 102.225 36.3271 101.135C34.6987 100.045 33.4301 98.4964 32.6816 96.6854C31.933 94.8744 31.7382 92.8821 32.1217 90.9604C32.5052 89.0387 33.4499 87.2739 34.8362 85.8889C36.2225 84.504 37.9883 83.5612 39.9104 83.1796C41.8325 82.798 43.8246 82.9949 45.6348 83.7452C47.445 84.4956 48.9922 85.7658 50.0806 87.3952C51.1691 89.0247 51.7501 90.9403 51.7501 92.8999C51.7501 94.2021 51.4934 95.4916 50.9948 96.6946C50.4961 97.8976 49.7653 98.9905 48.844 99.9109C47.9227 100.831 46.829 101.561 45.6255 102.058C44.4221 102.556 43.1323 102.811 41.8301 102.81Z" fill="#FF0008"/>
<path d="M129.62 112.95H253.43C256.43 112.95 259.43 113.43 262.81 113.43C266.05 112.35 267.08 102.64 267.19 97.9099C261.46 93.5299 252.35 87.1199 231.44 87.1199C229.01 84.6899 217.83 80.5999 213.22 78.6799C189.61 69.9199 170.72 72.6799 156.22 75.4199C149.05 76.7499 136.77 81.4199 127.22 85.4199H123.85L123.17 99.5899L121.82 103.97L123.64 108.8C124.096 110.018 124.913 111.068 125.982 111.81C127.05 112.551 128.32 112.949 129.62 112.95Z" fill="#E5E5E5"/>
<path d="M186.91 75.3099C172.54 74.0799 152.84 78.5799 144.75 81.3899C146.37 84.3899 169.49 85.9999 180.84 86.4499C191.97 87.1199 221.32 88.8099 220.65 86.4499C215.36 83.5199 206.48 76.9999 186.91 75.3099Z" fill="white"/>
<path d="M244.59 95.8897C246.927 95.8877 249.211 96.5786 251.154 97.8751C253.098 99.1716 254.613 101.015 255.509 103.173C256.404 105.331 256.639 107.706 256.185 109.998C255.73 112.289 254.606 114.394 252.955 116.047C251.304 117.7 249.199 118.825 246.908 119.282C244.617 119.738 242.242 119.505 240.083 118.612C237.925 117.718 236.08 116.204 234.781 114.262C233.483 112.32 232.79 110.036 232.79 107.7C232.79 104.569 234.033 101.567 236.246 99.3523C238.459 97.1378 241.46 95.8923 244.59 95.8897ZM132.94 107.7C132.94 110.035 133.633 112.319 134.931 114.261C136.228 116.203 138.073 117.717 140.231 118.611C142.389 119.505 144.764 119.738 147.054 119.283C149.345 118.827 151.45 117.702 153.101 116.051C154.753 114.399 155.878 112.295 156.333 110.004C156.789 107.713 156.555 105.338 155.661 103.18C154.768 101.022 153.254 99.1777 151.312 97.88C149.37 96.5823 147.086 95.8897 144.75 95.8897C143.199 95.8883 141.663 96.1929 140.229 96.786C138.796 97.379 137.493 98.2489 136.397 99.3458C135.3 100.443 134.43 101.745 133.837 103.179C133.244 104.612 132.939 106.148 132.94 107.7Z" fill="#FF0008"/>
<path d="M144.751 116.81C149.782 116.81 153.861 112.731 153.861 107.7C153.861 102.669 149.782 98.5898 144.751 98.5898C139.719 98.5898 135.641 102.669 135.641 107.7C135.641 112.731 139.719 116.81 144.751 116.81Z" fill="white"/>
<path d="M244.6 116.81C249.632 116.81 253.71 112.731 253.71 107.7C253.71 102.669 249.632 98.5898 244.6 98.5898C239.569 98.5898 235.49 102.669 235.49 107.7C235.49 112.731 239.569 116.81 244.6 116.81Z" fill="white"/>
<path d="M225 84.7603C223 83.7603 214.54 79.7003 213.87 79.3603C213.87 78.3603 229.39 84.4203 231.41 87.1203C229.228 86.4628 227.088 85.6747 225 84.7603Z" fill="white"/>
<path d="M164.31 93.87V95.22H158.24L157.24 92.52H158.59L159.1 93.87H164.31ZM196.19 93.87L195.68 92.52H194.33L195.33 95.22H201.4V93.87H196.19Z" fill="#202020"/>
<path d="M380.29 107.65H387V112.29H376.07L374.37 102.49C371.838 99.9357 368.513 98.3173 364.94 97.9001C354.02 97.3301 351.44 112.29 351.44 112.29H348.2C347.797 111.984 347.466 111.594 347.229 111.146C346.993 110.699 346.856 110.205 346.83 109.7C346.83 106.92 348.31 97.7801 352.65 94.0101C352.65 91.9001 352.65 88.8201 352.65 86.7701V84.6201H352.88C354.78 84.7801 367.98 85.8001 376.01 86.3801C379.21 86.6001 381.6 86.7601 382.12 86.7601C382.12 87.0201 382.12 87.2801 382.12 87.5201C381.79 92.2601 378.39 93.2201 378.49 99.3501C378.59 105.8 380.29 107.65 380.29 107.65Z" fill="#E5E5E5"/>
<path d="M364 98.3301C361.955 98.3301 359.956 98.9365 358.256 100.073C356.555 101.209 355.23 102.824 354.447 104.713C353.665 106.603 353.46 108.682 353.859 110.687C354.258 112.693 355.243 114.535 356.689 115.982C358.135 117.428 359.977 118.412 361.983 118.811C363.989 119.21 366.068 119.006 367.957 118.223C369.846 117.44 371.461 116.115 372.598 114.415C373.734 112.714 374.34 110.715 374.34 108.67C374.34 105.928 373.251 103.298 371.312 101.359C369.373 99.4195 366.743 98.3301 364 98.3301ZM363.92 116.11C362.441 116.11 360.995 115.671 359.765 114.849C358.534 114.028 357.576 112.859 357.01 111.493C356.443 110.126 356.295 108.622 356.584 107.171C356.873 105.72 357.585 104.387 358.631 103.341C359.677 102.295 361.01 101.582 362.461 101.294C363.912 101.005 365.416 101.153 366.783 101.719C368.149 102.286 369.318 103.244 370.14 104.474C370.961 105.705 371.4 107.151 371.4 108.63C371.4 109.612 371.207 110.585 370.831 111.493C370.455 112.4 369.904 113.225 369.209 113.919C368.515 114.614 367.69 115.165 366.783 115.541C365.875 115.917 364.902 116.11 363.92 116.11Z" fill="#E5E5E5"/>
<path d="M363.2 96.1699C363.48 96.1699 363.76 96.1699 364.05 96.1699C364.34 96.1699 364.62 96.1699 364.91 96.1699C368.23 96.4382 371.324 97.9561 373.568 100.417C375.812 102.879 377.038 106.1 377 109.43C377.003 110.388 376.902 111.344 376.7 112.28H373.7C373.961 111.352 374.096 110.394 374.1 109.43C374.131 106.784 373.134 104.23 371.319 102.305C369.504 100.379 367.013 99.2341 364.37 99.1099H363.77C361.12 99.2241 358.618 100.365 356.795 102.291C354.971 104.217 353.969 106.778 354 109.43C354 110.393 354.132 111.352 354.39 112.28H351.39C351.193 111.343 351.092 110.388 351.09 109.43C351.051 106.096 352.281 102.873 354.529 100.411C356.777 97.9493 359.876 96.4334 363.2 96.1699Z" fill="#FF0008"/>
<path d="M382.13 86.7696H352.66C352.66 86.7696 352.66 81.8496 354.9 81.8496H367.44C369.85 81.8496 372.83 82.9096 377.99 82.9096C383.15 82.9096 382.13 86.7696 382.13 86.7696Z" fill="#E5E5E5"/>
</g>
<defs>
<clipPath id="clip0_1643_15501">
<rect width="360" height="120" fill="white"/>
</clipPath>
</defs>
</svg>
