<svg width="1200" height="318" viewBox="0 0 1200 318" fill="none" xmlns="http://www.w3.org/2000/svg">
<g clip-path="url(#clip0_1643_13669)">
<path d="M954.553 273.308H202.768V275.344H954.553V273.308Z" fill="#E5E5E5"/>
<path d="M727.777 29V274.488H868.133V29H727.777ZM753.843 274.387H736.339V231.066H753.843V274.387ZM753.843 210.139H736.339V188.805H753.843V210.139ZM753.843 115.763H736.339V94.3672H753.843V115.763ZM787.288 154.849H769.784V133.535H787.288V154.849ZM787.288 115.763H769.784V94.3672H787.288V115.763ZM787.288 81.766H769.804V60.452H787.288V81.766ZM820.713 154.849H803.209V133.535H820.713V154.849ZM820.713 81.766H803.229V60.452H820.713V81.766Z" fill="#E5E5E5"/>
<path d="M886.301 220.908H769.404V199.594H861.578L886.301 220.908Z" fill="#C5C5C5"/>
<path d="M885.539 218.648H769.404V274.386H885.539V218.648Z" fill="#E5E5E5"/>
<path d="M793.408 258.712H775.924V227.524H793.408V258.712ZM835.735 227.524H802.17V258.712H835.735V227.524ZM861.36 227.524H844.417V258.712H861.36V227.524Z" fill="white"/>
<path d="M644.306 179.868C632.536 179.4 619.242 200.225 628.265 218.547C620.245 229.255 620.766 234.609 622.43 240.248C624.095 245.887 641.298 261.114 663.515 248.39C685.731 235.667 664.898 219.646 662.672 215.982C660.447 212.317 665.941 180.784 644.306 179.868Z" fill="#C5C5C5"/>
<path d="M645.392 204.704H645.011C644.734 204.704 644.51 204.932 644.51 205.213V273.796C644.51 274.078 644.734 274.305 645.011 274.305H645.392C645.669 274.305 645.893 274.078 645.893 273.796V205.213C645.893 204.932 645.669 204.704 645.392 204.704Z" fill="#C5C5C5"/>
<path d="M658.664 221.885H658.363C658.153 221.885 657.982 222.058 657.982 222.272V274.305C657.982 274.519 658.153 274.692 658.363 274.692H658.664C658.875 274.692 659.045 274.519 659.045 274.305V222.272C659.045 222.058 658.875 221.885 658.664 221.885Z" fill="#C5C5C5"/>
<path d="M657.821 201.813C648.899 201.467 638.813 217.305 645.61 231.107C639.495 239.25 639.916 243.321 641.179 247.556C642.442 251.79 655.596 263.333 672.338 253.765C689.081 244.197 673.401 231.962 671.717 229.173C670.032 226.384 674.243 202.444 657.821 201.813Z" fill="#E5E5E5"/>
<path d="M443.416 179.868C455.186 179.4 468.459 200.225 459.456 218.547C467.477 229.255 466.956 234.609 465.291 240.248C463.627 245.887 446.403 261.114 424.207 248.39C402.011 235.667 422.824 219.646 425.029 215.982C427.235 212.317 421.761 180.784 443.416 179.868Z" fill="#C5C5C5"/>
<path d="M442.317 274.305H442.698C442.975 274.305 443.199 274.077 443.199 273.796V205.213C443.199 204.932 442.975 204.704 442.698 204.704H442.317C442.04 204.704 441.816 204.932 441.816 205.213V273.796C441.816 274.077 442.04 274.305 442.317 274.305Z" fill="#C5C5C5"/>
<path d="M429.06 274.692H429.361C429.572 274.692 429.742 274.519 429.742 274.305V222.272C429.742 222.058 429.572 221.885 429.361 221.885H429.06C428.85 221.885 428.679 222.058 428.679 222.272V274.305C428.679 274.519 428.85 274.692 429.06 274.692Z" fill="#C5C5C5"/>
<path d="M429.906 201.813C438.828 201.467 448.894 217.305 442.117 231.107C448.132 239.25 447.791 243.321 446.528 247.556C445.265 251.79 432.212 263.373 415.369 253.765C398.526 244.156 414.326 231.962 416.01 229.173C417.695 226.384 413.484 202.444 429.906 201.813Z" fill="#E5E5E5"/>
<path d="M396.601 153.77V260.483C396.596 264.363 395.075 268.083 392.372 270.827C389.67 273.57 386.006 275.114 382.184 275.12H334.564C334.564 274.855 334.564 274.59 334.564 274.326C334.506 271.363 334.041 268.424 333.18 265.592C331.432 259.704 328.09 254.434 323.535 250.381C318.979 246.328 313.393 243.656 307.415 242.67C305.687 242.366 303.935 242.216 302.182 242.222C298.507 242.215 294.858 242.848 291.394 244.095C283.957 246.77 277.735 252.104 273.89 259.099C272.744 261.15 271.835 263.329 271.183 265.592C270.323 268.424 269.857 271.363 269.799 274.326C269.799 274.59 269.799 274.855 269.799 275.12H234.791C234.791 274.855 234.791 274.59 234.791 274.326C234.733 271.698 234.363 269.087 233.688 266.549C232.541 262.242 230.544 258.216 227.817 254.717C225.091 251.217 221.692 248.317 217.828 246.192C213.562 243.834 208.824 242.491 203.973 242.263H202.469V139.153H382.184C386.004 139.153 389.668 140.693 392.371 143.433C395.074 146.174 396.596 149.892 396.601 153.77Z" fill="#E5E5E5"/>
<path d="M291.665 128.018H347.286C349.732 128.018 352.078 129.004 353.808 130.76C355.537 132.516 356.509 134.898 356.509 137.382V139.133H282.441V137.382C282.441 134.898 283.413 132.516 285.143 130.76C286.873 129.004 289.219 128.018 291.665 128.018Z" fill="#C5C5C5"/>
<path d="M205.391 160.182V188.377C205.391 190.013 204.887 191.608 203.947 192.937C203.519 193.533 203.013 194.067 202.443 194.525L202.443 154.034L202.864 154.401C203.66 155.132 204.296 156.024 204.731 157.02C205.166 158.015 205.391 159.093 205.391 160.182Z" fill="#FFE7E8"/>
<path d="M249.917 152.365H222.127C217.885 152.365 214.447 155.856 214.447 160.162V188.377C214.447 192.683 217.885 196.174 222.127 196.174H249.917C254.158 196.174 257.597 192.683 257.597 188.377V160.162C257.597 155.856 254.158 152.365 249.917 152.365Z" fill="white"/>
<path d="M301.071 152.365H273.281C269.04 152.365 265.602 155.856 265.602 160.162V188.377C265.602 192.683 269.04 196.174 273.281 196.174H301.071C305.313 196.174 308.751 192.683 308.751 188.377V160.162C308.751 155.856 305.313 152.365 301.071 152.365Z" fill="white"/>
<path d="M361.185 152.365H333.394C329.153 152.365 325.715 155.856 325.715 160.162V188.377C325.715 192.683 329.153 196.174 333.394 196.174H361.185C365.426 196.174 368.864 192.683 368.864 188.377V160.162C368.864 155.856 365.426 152.365 361.185 152.365Z" fill="white"/>
<path d="M396.594 232.797L385.866 225.855C382.779 225.855 381.375 221.966 381.375 218.831V168.976C381.372 168.236 381.513 167.502 381.79 166.817C382.067 166.132 382.474 165.509 382.988 164.983C383.501 164.458 384.112 164.04 384.785 163.754C385.458 163.468 386.18 163.32 386.909 163.317H396.554L396.594 232.797Z" fill="white"/>
<path d="M340.919 205.07H328.227V207.106H340.919V205.07Z" fill="#FFE7E8"/>
<path d="M231.296 274.325C231.222 271.686 230.79 269.069 230.013 266.549C227.961 259.961 223.622 254.354 217.802 250.772C213.615 248.205 208.837 246.801 203.947 246.701H202.443V255.047H203.225C207.005 255.032 210.71 256.112 213.907 258.16C217.103 260.208 219.658 263.14 221.271 266.61C222.4 269.05 223.041 271.693 223.156 274.386C223.156 274.671 223.156 274.957 223.156 275.242C223.156 280.592 221.062 285.723 217.336 289.507C213.61 293.29 208.555 295.416 203.285 295.416H202.443V303.762H203.225C210.67 303.762 217.81 300.759 223.075 295.415C228.339 290.07 231.296 282.821 231.296 275.262C231.317 274.895 231.317 274.61 231.296 274.325Z" fill="#FF0008"/>
<path d="M302.354 246.578C296.802 246.578 291.375 248.25 286.759 251.382C282.143 254.513 278.545 258.964 276.42 264.172C274.295 269.38 273.739 275.11 274.823 280.639C275.906 286.167 278.579 291.245 282.505 295.231C286.431 299.217 291.433 301.931 296.878 303.031C302.323 304.131 307.967 303.566 313.097 301.409C318.226 299.252 322.61 295.599 325.695 290.912C328.779 286.226 330.426 280.715 330.426 275.079C330.426 267.52 327.468 260.271 322.204 254.926C316.939 249.581 309.799 246.578 302.354 246.578ZM302.354 295.293C298.425 295.289 294.585 294.103 291.32 291.883C288.055 289.664 285.512 286.512 284.011 282.825C282.51 279.139 282.119 275.083 282.888 271.171C283.657 267.259 285.551 263.666 288.331 260.847C291.111 258.028 294.651 256.108 298.505 255.331C302.359 254.555 306.353 254.955 309.983 256.483C313.613 258.01 316.715 260.596 318.897 263.913C321.08 267.23 322.245 271.13 322.245 275.119C322.245 277.77 321.73 280.395 320.73 282.844C319.731 285.293 318.265 287.518 316.418 289.392C314.571 291.265 312.378 292.751 309.965 293.764C307.551 294.776 304.965 295.296 302.354 295.293Z" fill="#FF0008"/>
<path d="M478.39 315.936H726.639C732.654 315.936 738.669 316.913 745.447 316.913C751.943 314.714 754.008 294.947 754.229 285.318C742.74 276.402 724.473 263.353 682.547 263.353C677.675 258.406 655.258 250.08 646.015 246.171C598.675 228.338 560.799 233.957 531.725 239.535C517.348 242.242 492.726 251.749 473.577 259.892H466.82L465.457 288.738L462.75 297.655L466.399 307.487C467.313 309.967 468.951 312.105 471.094 313.614C473.236 315.124 475.782 315.934 478.39 315.936Z" fill="#FF454B"/>
<path d="M593.261 239.311C564.448 236.807 524.948 245.968 508.727 251.689C511.975 257.796 558.332 261.073 581.09 261.989C603.407 263.353 662.256 266.794 660.912 261.989C650.305 256.025 632.5 242.752 593.261 239.311Z" fill="white"/>
<path d="M708.916 281.206C713.601 281.202 718.181 282.609 722.078 285.248C725.974 287.887 729.013 291.641 730.808 296.033C732.603 300.426 733.075 305.261 732.164 309.926C731.252 314.591 728.999 318.877 725.688 322.241C722.377 325.605 718.158 327.897 713.564 328.826C708.969 329.756 704.207 329.281 699.879 327.462C695.551 325.643 691.851 322.561 689.249 318.607C686.646 314.653 685.256 310.004 685.256 305.248C685.256 298.875 687.748 292.763 692.185 288.255C696.622 283.747 702.639 281.211 708.916 281.206ZM485.049 305.248C485.049 310.003 486.438 314.651 489.04 318.605C491.642 322.559 495.34 325.64 499.667 327.46C503.994 329.28 508.755 329.756 513.349 328.828C517.942 327.9 522.161 325.611 525.473 322.248C528.785 318.886 531.04 314.602 531.954 309.938C532.868 305.275 532.399 300.441 530.606 296.048C528.814 291.654 525.779 287.9 521.885 285.258C517.991 282.616 513.412 281.206 508.729 281.206C505.618 281.203 502.538 281.823 499.664 283.031C496.79 284.238 494.178 286.009 491.979 288.242C489.779 290.475 488.035 293.126 486.846 296.044C485.657 298.962 485.046 302.09 485.049 305.248Z" fill="#FF0008"/>
<path d="M508.729 323.794C518.817 323.794 526.996 315.491 526.996 305.248C526.996 295.006 518.817 286.703 508.729 286.703C498.641 286.703 490.463 295.006 490.463 305.248C490.463 315.491 498.641 323.794 508.729 323.794Z" fill="white"/>
<path d="M708.938 323.794C719.026 323.794 727.204 315.491 727.204 305.248C727.204 295.006 719.026 286.703 708.938 286.703C698.85 286.703 690.672 295.006 690.672 305.248C690.672 315.491 698.85 323.794 708.938 323.794Z" fill="white"/>
<path d="M669.639 258.549C665.629 256.513 648.666 248.248 647.322 247.556C647.322 245.52 678.441 257.857 682.491 263.353C678.116 262.015 673.824 260.41 669.639 258.549Z" fill="white"/>
<path d="M547.949 277.094V279.842H535.779L533.773 274.346H536.48L537.503 277.094H547.949ZM611.871 277.094L610.849 274.346H608.142L610.147 279.842H622.318V277.094H611.871Z" fill="#202020"/>
<path d="M980.989 305.147H994.443V314.592H972.527L969.118 294.642C964.041 289.442 957.374 286.148 950.211 285.298C928.315 284.138 923.142 314.592 923.142 314.592H916.645C915.838 313.969 915.173 313.175 914.699 312.264C914.224 311.353 913.951 310.349 913.898 309.32C913.898 303.661 916.866 285.054 925.568 277.379C925.568 273.084 925.568 266.814 925.568 262.641V258.264H926.029C929.839 258.59 956.306 260.666 972.407 261.847C978.823 262.295 983.615 262.62 984.658 262.62C984.658 263.15 984.658 263.679 984.658 264.168C983.996 273.817 977.179 275.771 977.379 288.25C977.58 301.381 980.989 305.147 980.989 305.147Z" fill="#E5E5E5"/>
<path d="M948.324 286.174C944.224 286.174 940.215 287.408 936.806 289.721C933.397 292.034 930.739 295.321 929.17 299.168C927.601 303.014 927.19 307.246 927.99 311.33C928.79 315.413 930.765 319.163 933.664 322.107C936.564 325.051 940.258 327.056 944.28 327.868C948.301 328.68 952.47 328.263 956.258 326.67C960.047 325.077 963.285 322.379 965.563 318.917C967.841 315.456 969.057 311.386 969.057 307.223C969.057 301.64 966.873 296.286 962.985 292.339C959.096 288.391 953.823 286.174 948.324 286.174ZM948.164 322.369C945.198 322.369 942.298 321.476 939.832 319.803C937.365 318.129 935.443 315.751 934.308 312.969C933.172 310.186 932.875 307.125 933.454 304.171C934.033 301.217 935.461 298.504 937.559 296.374C939.656 294.245 942.329 292.794 945.238 292.207C948.147 291.619 951.163 291.921 953.903 293.073C956.644 294.226 958.986 296.178 960.634 298.682C962.282 301.186 963.162 304.13 963.162 307.142C963.162 309.141 962.774 311.121 962.02 312.969C961.267 314.816 960.162 316.495 958.769 317.909C957.376 319.323 955.723 320.445 953.903 321.21C952.084 321.975 950.134 322.369 948.164 322.369Z" fill="#E5E5E5"/>
<path d="M946.717 281.776C947.278 281.776 947.84 281.776 948.421 281.776C949.003 281.776 949.564 281.776 950.146 281.776C956.802 282.322 963.006 285.412 967.506 290.423C972.005 295.433 974.465 301.99 974.387 308.77C974.393 310.72 974.191 312.665 973.786 314.572H967.77C968.295 312.683 968.565 310.732 968.572 308.77C968.635 303.384 966.637 298.184 962.997 294.265C959.358 290.346 954.362 288.014 949.063 287.761H947.86C942.546 287.993 937.53 290.316 933.874 294.237C930.218 298.159 928.208 303.371 928.27 308.77C928.271 310.731 928.534 312.683 929.052 314.572H923.037C922.641 312.664 922.44 310.72 922.435 308.77C922.359 301.984 924.823 295.421 929.331 290.41C933.839 285.398 940.053 282.312 946.717 281.776Z" fill="#FF0008"/>
<path d="M984.672 262.641H925.582C925.582 262.641 925.582 252.625 930.073 252.625H955.217C960.049 252.625 966.025 254.783 976.371 254.783C986.717 254.783 984.672 262.641 984.672 262.641Z" fill="#E5E5E5"/>
</g>
<defs>
<clipPath id="clip0_1643_13669">
<rect width="1200" height="320" fill="white"/>
</clipPath>
</defs>
</svg>
