<svg width="149" height="148" viewBox="0 0 149 148" fill="none" xmlns="http://www.w3.org/2000/svg">
<mask id="mask0_1862_3477" style="mask-type:alpha" maskUnits="userSpaceOnUse" x="19" y="18" width="112" height="111">
<path d="M74.8062 129C105.458 129 130.306 104.152 130.306 73.5C130.306 42.8482 105.458 18 74.8062 18C44.1543 18 19.3062 42.8482 19.3062 73.5C19.3062 104.152 44.1543 129 74.8062 129Z" fill="white"/>
</mask>
<g mask="url(#mask0_1862_3477)">
<path d="M74.8062 129C105.458 129 130.306 104.152 130.306 73.5C130.306 42.8482 105.458 18 74.8062 18C44.1543 18 19.3062 42.8482 19.3062 73.5C19.3062 104.152 44.1543 129 74.8062 129Z" fill="white"/>
<path d="M17.234 40.0874H97.0699L94.1294 109.354H14.3145L17.234 40.0874Z" fill="white"/>
<path d="M108.933 108.501H108.681L102.111 40.0874H96.9354L96.3514 53.7609H16.3643V55.2774H96.2885L94.0158 108.501H14.1463C13.9235 108.501 13.7098 108.59 13.5522 108.747C13.3947 108.905 13.3062 109.119 13.3062 109.342C13.3062 109.564 13.3947 109.778 13.5522 109.936C13.7098 110.093 13.9235 110.182 14.1463 110.182H108.933C109.156 110.182 109.369 110.093 109.527 109.936C109.684 109.778 109.773 109.564 109.773 109.342C109.773 109.119 109.684 108.905 109.527 108.747C109.369 108.59 109.156 108.501 108.933 108.501V108.501Z" fill="#FF0008"/>
<path d="M15.6083 40.0874H97.658L96.9187 54.5171H14.8857L15.6083 40.0874Z" fill="#FF8B8E"/>
<path d="M22.6028 47.3044C22.6137 47.7453 22.4929 48.1793 22.2559 48.5512C22.0189 48.923 21.6764 49.2158 21.2722 49.3921C20.8679 49.5684 20.4203 49.6202 19.9865 49.5409C19.5527 49.4616 19.1525 49.2547 18.8368 48.9468C18.5211 48.6389 18.3044 48.2439 18.2143 47.8122C18.1242 47.3805 18.1648 46.9318 18.3309 46.5233C18.4971 46.1148 18.7813 45.7652 19.1471 45.5189C19.5129 45.2727 19.9438 45.1411 20.3848 45.141C20.9657 45.1343 21.5255 45.3583 21.9413 45.7639C22.3572 46.1695 22.5951 46.7236 22.6028 47.3044ZM34.8397 45.141C34.4143 45.1517 34.0015 45.2877 33.653 45.5318C33.3045 45.776 33.0358 46.1175 32.8804 46.5137C32.725 46.9098 32.6898 47.3429 32.7794 47.7589C32.8689 48.1749 33.0791 48.5553 33.3838 48.8524C33.6884 49.1495 34.0739 49.3502 34.492 49.4294C34.9101 49.5085 35.3422 49.4626 35.7343 49.2974C36.1265 49.1321 36.4612 48.855 36.6966 48.5005C36.932 48.146 37.0576 47.7299 37.0578 47.3044C37.05 46.7236 36.812 46.1695 36.3962 45.7639C35.9804 45.3583 35.4206 45.1343 34.8397 45.141V45.141ZM49.6265 45.141C49.2009 45.1509 48.7877 45.2862 48.4386 45.5298C48.0895 45.7735 47.8201 46.1148 47.6641 46.5108C47.508 46.9069 47.4723 47.3402 47.5614 47.7565C47.6504 48.1728 47.8604 48.5536 48.1649 48.8511C48.4693 49.1486 48.8548 49.3497 49.273 49.4292C49.6912 49.5087 50.1236 49.463 50.516 49.2979C50.9084 49.1327 51.2433 48.8555 51.4789 48.5009C51.7144 48.1463 51.8402 47.7301 51.8403 47.3044C51.8336 46.7254 51.5978 46.1726 51.1844 45.7672C50.7711 45.3617 50.2139 45.1365 49.6349 45.141H49.6265ZM64.409 45.141C63.9837 45.1517 63.5709 45.2877 63.2223 45.5318C62.8738 45.776 62.6051 46.1175 62.4497 46.5137C62.2943 46.9098 62.2591 47.3429 62.3487 47.7589C62.4382 48.1749 62.6485 48.5553 62.9531 48.8524C63.2577 49.1495 63.6432 49.3502 64.0613 49.4294C64.4794 49.5085 64.9115 49.4626 65.3037 49.2974C65.6958 49.1321 66.0305 48.855 66.2659 48.5005C66.5013 48.146 66.6269 47.7299 66.627 47.3044C66.6193 46.7236 66.3814 46.1695 65.9655 45.7639C65.5497 45.3583 64.9899 45.1343 64.409 45.141V45.141ZM78.4564 45.141C78.0311 45.1517 77.6183 45.2877 77.2698 45.5318C76.9213 45.776 76.6525 46.1175 76.4971 46.5137C76.3417 46.9098 76.3066 47.3429 76.3961 47.7589C76.4856 48.1749 76.6959 48.5553 77.0005 48.8524C77.3051 49.1495 77.6906 49.3502 78.1087 49.4294C78.5268 49.5085 78.9589 49.4626 79.3511 49.2974C79.7432 49.1321 80.0779 48.855 80.3133 48.5005C80.5487 48.146 80.6743 47.7299 80.6745 47.3044C80.6712 47.0166 80.6112 46.7323 80.4979 46.4678C80.3846 46.2032 80.2202 45.9636 80.0141 45.7627C79.8081 45.5617 79.5645 45.4034 79.2972 45.2967C79.0299 45.19 78.7442 45.1371 78.4564 45.141V45.141ZM92.4997 45.141C92.0743 45.1517 91.6615 45.2877 91.313 45.5318C90.9645 45.776 90.6957 46.1175 90.5403 46.5137C90.3849 46.9098 90.3497 47.3429 90.4393 47.7589C90.5288 48.1749 90.7391 48.5553 91.0437 48.8524C91.3483 49.1495 91.7338 49.3502 92.1519 49.4294C92.57 49.5085 93.0022 49.4626 93.3943 49.2974C93.7864 49.1321 94.1212 48.855 94.3565 48.5005C94.5919 48.146 94.7175 47.7299 94.7177 47.3044C94.7144 47.0152 94.6539 46.7295 94.5395 46.4638C94.4252 46.1981 94.2593 45.9578 94.0514 45.7566C93.8436 45.5555 93.598 45.3975 93.3288 45.2918C93.0595 45.1861 92.772 45.1349 92.4829 45.141H92.4997Z" fill="#FF8B8E"/>
<path fill-rule="evenodd" clip-rule="evenodd" d="M19.3386 35.3826C18.2855 38.4323 18.2855 41.7469 19.3386 44.7966C19.5007 45.2398 19.7443 45.6487 20.0569 46.0022C20.1275 46.0836 20.2131 46.1506 20.3089 46.1997C20.3337 46.2139 20.3607 46.2239 20.3888 46.2291C20.674 46.2291 20.9475 46.3424 21.1492 46.544C21.3509 46.7457 21.4642 47.0193 21.4642 47.3045C21.4642 47.5897 21.3509 47.8632 21.1492 48.0649C20.9475 48.2666 20.674 48.3799 20.3888 48.3799C20.016 48.3703 19.6491 48.2849 19.3103 48.1289C18.9716 47.9729 18.6682 47.7495 18.4186 47.4725C17.9183 46.9213 17.5251 46.2816 17.2592 45.5863C15.9989 42.0302 15.9989 38.149 17.2592 34.5929C17.5251 33.8976 17.9183 33.258 18.4186 32.7067C18.6611 32.4208 18.963 32.1911 19.3032 32.0336C19.6434 31.876 20.0139 31.7944 20.3888 31.7944C20.7637 31.7944 21.1341 31.876 21.4744 32.0336C21.8146 32.1911 22.1164 32.4208 22.3589 32.7067C22.8592 33.258 23.2524 33.8976 23.5184 34.5929C24.177 36.3485 24.4977 38.2128 24.4635 40.0875H22.2287C22.26 38.4838 21.9922 36.8883 21.439 35.3826C21.2769 34.9395 21.0333 34.5305 20.7207 34.177C20.6484 34.0963 20.5632 34.0282 20.4686 33.9754C20.4452 33.9589 20.4174 33.9501 20.3888 33.9501C20.3602 33.9501 20.3323 33.9589 20.3089 33.9754C20.2144 34.0282 20.1292 34.0963 20.0569 34.177C19.7443 34.5305 19.5007 34.9395 19.3386 35.3826ZM33.9489 34.2232C34.0078 34.1392 34.0861 34.0705 34.1771 34.0231C34.2682 33.9757 34.3693 33.951 34.4719 33.951C34.5746 33.951 34.6757 33.9757 34.7667 34.0231C34.8578 34.0705 34.936 34.1392 34.9949 34.2232C35.3392 34.5676 35.6131 34.9756 35.8014 35.4246C36.4149 36.901 36.7139 38.4891 36.6794 40.0875H38.9184C38.9516 38.1875 38.5867 36.3015 37.8472 34.5509C37.5384 33.841 37.093 33.1987 36.5366 32.6605C36.2672 32.3863 35.9459 32.1685 35.5914 32.0198C35.2369 31.8711 34.8563 31.7946 34.4719 31.7946C34.0875 31.7946 33.7069 31.8711 33.3525 32.0198C32.998 32.1685 32.6766 32.3863 32.4072 32.6605C31.8508 33.1987 31.4055 33.841 31.0966 34.5509C29.6682 38.1052 29.6682 42.074 31.0966 45.6284C31.4065 46.3376 31.8517 46.9797 32.4072 47.5187C32.964 48.0491 33.7009 48.3493 34.4698 48.3589C34.755 48.3589 35.0286 48.2456 35.2302 48.0439C35.4319 47.8422 35.5452 47.5687 35.5452 47.2835C35.5452 46.9983 35.4319 46.7247 35.2302 46.523C35.0286 46.3213 34.755 46.2081 34.4698 46.2081C34.2679 46.1863 34.0817 46.0887 33.9489 45.935C33.6033 45.5918 33.3291 45.1834 33.1424 44.7336C31.9718 41.7337 31.9718 38.4035 33.1424 35.4036C33.3316 34.9613 33.6056 34.5602 33.9489 34.2232ZM48.7357 34.2232C48.7946 34.1392 48.8728 34.0705 48.9639 34.0231C49.0549 33.9757 49.156 33.951 49.2587 33.951C49.3613 33.951 49.4624 33.9757 49.5535 34.0231C49.6445 34.0705 49.7228 34.1392 49.7817 34.2232C50.1245 34.5687 50.3983 34.9765 50.5882 35.4246C51.2017 36.901 51.5007 38.4891 51.4662 40.0875H53.701C53.7363 38.1873 53.3713 36.3009 52.6298 34.5509C52.3239 33.8404 51.8798 33.1978 51.3234 32.6605C51.0533 32.3867 50.7316 32.1692 50.3768 32.0208C50.022 31.8724 49.6412 31.796 49.2566 31.796C48.872 31.796 48.4912 31.8724 48.1364 32.0208C47.7816 32.1692 47.4599 32.3867 47.1898 32.6605C46.6359 33.2 46.1922 33.8421 45.8833 34.5509C44.455 38.1052 44.455 42.074 45.8833 45.6284C46.1933 46.3366 46.6369 46.9784 47.1898 47.5187C47.7484 48.049 48.4864 48.3491 49.2566 48.3589C49.5418 48.3589 49.8153 48.2456 50.017 48.0439C50.2187 47.8422 50.332 47.5687 50.332 47.2835C50.332 46.9983 50.2187 46.7247 50.017 46.523C49.8153 46.3213 49.5418 46.2081 49.2566 46.2081C49.0546 46.1863 48.8685 46.0887 48.7357 45.935C48.39 45.5918 48.1159 45.1834 47.9291 44.7336C46.7586 41.7337 46.7586 38.4035 47.9291 35.4036C48.1183 34.9613 48.3923 34.5602 48.7357 34.2232ZM63.5141 34.2232C63.5734 34.1391 63.6521 34.0705 63.7434 34.0232C63.8348 33.9758 63.9362 33.9511 64.0392 33.9511C64.1421 33.9511 64.2435 33.9758 64.3348 34.0232C64.4262 34.0705 64.5049 34.1391 64.5643 34.2232C64.9071 34.5687 65.1809 34.9765 65.3708 35.4246C65.9842 36.901 66.2833 38.4891 66.2488 40.0875H68.4836C68.5188 38.1873 68.1538 36.3009 67.4123 34.5509C67.1065 33.8404 66.6624 33.1978 66.1059 32.6605C65.8359 32.3867 65.5141 32.1692 65.1593 32.0208C64.8045 31.8724 64.4237 31.796 64.0392 31.796C63.6546 31.796 63.2738 31.8724 62.919 32.0208C62.5642 32.1692 62.2424 32.3867 61.9723 32.6605C61.4159 33.1978 60.9718 33.8404 60.6659 34.5509C59.2376 38.1052 59.2376 42.074 60.6659 45.6284C60.9729 46.3382 61.4168 46.9806 61.9723 47.5187C62.5309 48.049 63.269 48.3491 64.0392 48.3589C64.3244 48.3589 64.5979 48.2456 64.7996 48.0439C65.0012 47.8422 65.1145 47.5687 65.1145 47.2835C65.1145 46.9983 65.0012 46.7247 64.7996 46.523C64.5979 46.3213 64.3244 46.2081 64.0392 46.2081C63.8358 46.1869 63.6482 46.0893 63.5141 45.935C63.1712 45.5895 62.8974 45.1818 62.7075 44.7336C61.537 41.7337 61.537 38.4035 62.7075 35.4036C62.8947 34.9643 63.1626 34.5639 63.4972 34.2232H63.5141ZM78.1202 34.177C78.1934 34.0973 78.2784 34.0293 78.3722 33.9754C78.3977 33.9602 78.4266 33.9516 78.4562 33.9502C78.4844 33.9524 78.5117 33.961 78.5361 33.9754C78.6299 34.0293 78.7149 34.0973 78.7881 34.177C79.0995 34.5314 79.343 34.9401 79.5064 35.3826C80.058 36.8886 80.3244 38.4841 80.292 40.0875H82.531C82.5631 38.2129 82.2424 36.349 81.5858 34.5929C81.3201 33.8966 80.9253 33.2566 80.4222 32.7067C80.1801 32.4209 79.8786 32.1912 79.5387 32.0337C79.1988 31.8762 78.8287 31.7946 78.4541 31.7946C78.0795 31.7946 77.7094 31.8762 77.3696 32.0337C77.0297 32.1912 76.7282 32.4209 76.4861 32.7067C75.983 33.2566 75.5882 33.8966 75.3225 34.5929C74.0679 38.15 74.0679 42.0292 75.3225 45.5863C75.5882 46.2827 75.983 46.9226 76.4861 47.4725C76.7354 47.7499 77.0387 47.9735 77.3775 48.1295C77.7163 48.2855 78.0833 48.3707 78.4562 48.3799C78.7414 48.3799 79.015 48.2666 79.2166 48.0649C79.4183 47.8632 79.5316 47.5897 79.5316 47.3045C79.5316 47.0193 79.4183 46.7457 79.2166 46.544C79.015 46.3424 78.7414 46.2291 78.4562 46.2291C78.4266 46.2249 78.398 46.2149 78.3722 46.1997C78.2772 46.1492 78.1919 46.0824 78.1202 46.0022C77.8104 45.6474 77.5684 45.2387 77.406 44.7966C76.353 41.7469 76.353 38.4323 77.406 35.3826C77.5684 34.9405 77.8104 34.5318 78.1202 34.177ZM92.1634 34.177C92.2375 34.0983 92.3223 34.0304 92.4154 33.9754C92.4411 33.9607 92.4699 33.952 92.4995 33.9502C92.5276 33.9524 92.5549 33.961 92.5793 33.9754C92.6731 34.0293 92.7581 34.0973 92.8313 34.177C93.1427 34.5314 93.3862 34.9401 93.5497 35.3826C94.1012 36.8886 94.3676 38.4841 94.3352 40.0875H96.5742C96.6084 38.2128 96.2877 36.3485 95.629 34.5929C95.3633 33.8966 94.9685 33.2566 94.4654 32.7067C94.2233 32.4209 93.9218 32.1912 93.5819 32.0337C93.242 31.8762 92.872 31.7946 92.4974 31.7946C92.1228 31.7946 91.7526 31.8762 91.4128 32.0337C91.0729 32.1912 90.7714 32.4209 90.5293 32.7067C90.0262 33.2566 89.6314 33.8966 89.3656 34.5929C88.1111 38.15 88.1111 42.0292 89.3656 45.5863C89.6314 46.2827 90.0262 46.9226 90.5293 47.4725C90.7786 47.7499 91.0819 47.9735 91.4207 48.1295C91.7595 48.2855 92.1266 48.3707 92.4995 48.3799C92.7847 48.3799 93.0582 48.2666 93.2599 48.0649C93.4616 47.8632 93.5748 47.5897 93.5748 47.3045C93.5748 47.0193 93.4616 46.7457 93.2599 46.544C93.0582 46.3424 92.7847 46.2291 92.4995 46.2291C92.4699 46.2243 92.4415 46.2144 92.4154 46.1997C92.3211 46.1481 92.236 46.0814 92.1634 46.0022C91.8536 45.6474 91.6116 45.2387 91.4493 44.7966C90.3962 41.7469 90.3962 38.4323 91.4493 35.3826C91.6116 34.9405 91.8536 34.5318 92.1634 34.177Z" fill="black"/>
<path d="M36.5613 82.4441L40.2328 79.8018C41.4174 81.835 42.9969 82.6836 45.0007 82.6836C47.0044 82.6836 48.6092 81.562 48.6092 79.6506C48.6092 78.0123 47.5799 76.8907 45.3031 76.8907H42.3878V73.005H45.2401C47.6094 73.005 48.4873 71.5767 48.4873 70.0308C48.4873 68.7706 47.3069 67.4515 45.0595 67.4515C42.6314 67.4515 41.5392 68.2917 40.5983 70.182L36.9268 68.3589C38.5357 65.2671 41.2956 63.78 45.0301 63.78C49.3989 63.78 52.5915 66.2669 52.5915 69.8502C52.6251 70.8356 52.4056 71.8133 51.9541 72.6898C51.5026 73.5664 50.8341 74.3127 50.0122 74.8575C51.7724 75.8279 52.8309 77.4368 52.8309 79.7724C52.8309 83.5531 49.9198 86.5399 44.9713 86.5399C41.115 86.5399 38.6869 85.2964 36.5613 82.4441ZM54.6499 78.8609C54.6479 76.875 55.2325 74.9329 56.3302 73.278L62.0265 64.0783H67.0002L62.3289 71.3289C62.7226 71.2095 63.1316 71.1487 63.5429 71.1482C67.4875 71.1482 70.6843 74.303 70.6843 78.8272C70.6843 83.3515 67.2522 86.5357 62.7028 86.5357C58.0357 86.5399 54.6499 83.1415 54.6499 78.8609ZM66.5171 78.739C66.5052 77.7016 66.0899 76.7096 65.359 75.9732C64.6282 75.2369 63.6393 74.8141 62.602 74.7945C61.5829 74.8414 60.6211 75.2793 59.9166 76.017C59.212 76.7548 58.8189 77.7357 58.8189 78.7558C58.8189 79.776 59.212 80.7569 59.9166 81.4946C60.6211 82.2324 61.5829 82.6702 62.602 82.7172C63.6461 82.7006 64.6418 82.2742 65.3743 81.53C66.1067 80.7857 66.5172 79.7833 66.5171 78.739V78.739ZM36.0908 93.6728H37.2166V94.3239C37.4234 94.0748 37.6861 93.878 37.9834 93.7497C38.2807 93.6215 38.6041 93.5653 38.9273 93.5857C39.2504 93.6062 39.5641 93.7028 39.8429 93.8676C40.1216 94.0324 40.3574 94.2607 40.531 94.534C40.722 94.2335 40.9877 93.9876 41.3021 93.8205C41.6165 93.6534 41.9688 93.5706 42.3248 93.5804C43.7698 93.5804 44.5218 94.45 44.5218 95.811V98.9952H43.3666V95.8824C43.3666 95.0885 42.9465 94.5676 42.1358 94.5676C41.4216 94.5676 40.8755 95.0549 40.8755 96.0001V98.9952H39.7287V95.832C39.7475 95.667 39.7298 95.4999 39.677 95.3425C39.6241 95.185 39.5373 95.0411 39.4227 94.9209C39.3081 94.8007 39.1685 94.7072 39.0138 94.6468C38.8591 94.5865 38.693 94.5609 38.5273 94.5718C37.7838 94.5718 37.2334 95.0717 37.2334 96.0463V98.9868H36.095L36.0908 93.6728ZM45.4165 96.3277C45.4174 95.7827 45.5798 95.2501 45.8833 94.7974C46.1868 94.3447 46.6177 93.9922 47.1216 93.7844C47.6254 93.5766 48.1796 93.5228 48.714 93.63C49.2484 93.7371 49.739 94.0003 50.1238 94.3863C50.5086 94.7723 50.7704 95.2637 50.8759 95.7984C50.9814 96.3331 50.9259 96.8871 50.7166 97.3904C50.5073 97.8936 50.1534 98.3234 49.6998 98.6255C49.2461 98.9277 48.7131 99.0885 48.1681 99.0876C47.8068 99.0877 47.4491 99.0161 47.1157 98.8771C46.7822 98.7381 46.4796 98.5344 46.2254 98.2778C45.9711 98.0212 45.7702 97.7167 45.6343 97.382C45.4983 97.0473 45.43 96.689 45.4334 96.3277H45.4165ZM49.8022 96.3277C49.7882 96.009 49.6809 95.7013 49.4937 95.4429C49.3065 95.1845 49.0476 94.9867 48.7491 94.8741C48.4505 94.7615 48.1255 94.739 47.8143 94.8094C47.5031 94.8798 47.2194 95.0399 46.9983 95.2701C46.7773 95.5002 46.6287 95.7901 46.5709 96.1039C46.5131 96.4177 46.5487 96.7416 46.6732 97.0354C46.7978 97.3291 47.0058 97.5799 47.2716 97.7565C47.5373 97.9332 47.849 98.0279 48.1681 98.029C48.6093 98.0169 49.0281 97.8317 49.3339 97.5133C49.6396 97.195 49.8079 96.7691 49.8022 96.3277V96.3277ZM51.8311 93.6728H52.957V94.3618C53.1473 94.1087 53.3951 93.9046 53.6801 93.7666C53.965 93.6285 54.2788 93.5604 54.5953 93.5678C55.9311 93.5678 56.7502 94.4374 56.7502 95.8824V98.9826H55.6034V95.9791C55.6034 95.1053 55.1834 94.555 54.318 94.555C53.5535 94.555 52.9695 95.1263 52.9695 96.0631V99.0036H51.8311V93.6728ZM57.3342 93.6728H58.2373V92.4126L59.3841 91.7825V93.6644H60.51V94.6852H59.3841V96.7856C59.3841 97.7392 59.5354 97.8904 60.51 97.8904V98.9616H60.3419C58.7288 98.9616 58.2415 98.4533 58.2415 96.794V94.6936H57.3384L57.3342 93.6728ZM61.4678 91.2322H62.5936V94.3239C62.7883 94.0783 63.037 93.8808 63.3204 93.7467C63.6038 93.6127 63.9142 93.5457 64.2277 93.551C65.5677 93.551 66.3869 94.4206 66.3869 95.8656V98.9658H65.2275V96.0043C65.2275 95.1221 64.8074 94.5718 63.942 94.5718C63.1901 94.5718 62.602 95.1431 62.602 96.0799V99.0204H61.4678V91.2322ZM67.0548 97.8904L68.0756 97.3359C68.2163 97.5793 68.4212 97.7794 68.6679 97.9143C68.9146 98.0491 69.1936 98.1135 69.4744 98.1004C70.134 98.1004 70.4742 97.7812 70.4742 97.4115C70.4742 96.9914 69.8357 96.8822 69.1594 96.731C68.2562 96.5504 67.2985 96.2521 67.2985 95.1599C67.2985 94.3197 68.105 93.5468 69.3694 93.5552C69.7887 93.5259 70.2085 93.6053 70.5882 93.7856C70.9679 93.9659 71.2947 94.241 71.537 94.5844L70.5792 95.1053C70.4484 94.9071 70.2677 94.7469 70.0554 94.6407C69.843 94.5346 69.6064 94.4861 69.3694 94.5004C68.7435 94.5004 68.4453 94.7902 68.4453 95.1389C68.4453 95.4876 68.9032 95.6052 69.7055 95.7858C70.5961 95.979 71.6085 96.2731 71.6085 97.3905C71.6085 98.1887 70.8943 99.1002 69.4198 99.0708C68.2772 99.0876 67.5127 98.676 67.0548 97.8904V97.8904Z" fill="black"/>
</g>
<path fill-rule="evenodd" clip-rule="evenodd" d="M118.19 118.085V118.023C118.19 118 118.19 117.982 118.19 117.963C118.19 117.945 118.19 117.923 118.19 117.9L118.22 112.683L72.3394 112.413L72.3062 117.815C72.6022 120.405 82.7365 122.54 95.2055 122.625C107.674 122.71 117.849 120.672 118.19 118.085Z" fill="#F5F5F5"/>
<path d="M118.256 113.072C118.272 110.427 108.017 108.223 95.3523 108.148C82.6872 108.073 72.4074 110.155 72.3917 112.799C72.376 115.444 82.6304 117.648 95.2955 117.723C107.961 117.798 118.24 115.716 118.256 113.072Z" fill="#F5F5F5"/>
<path d="M116.776 112.918C116.789 110.766 107.195 108.965 95.3471 108.894C83.4994 108.824 73.8845 110.511 73.8718 112.663C73.859 114.815 83.4531 116.616 95.3009 116.686C107.149 116.757 116.763 115.069 116.776 112.918Z" fill="#E5E5E5"/>
<path fill-rule="evenodd" clip-rule="evenodd" d="M118.19 111.092V111.029C118.19 111.007 118.19 110.989 118.19 110.97C118.19 110.952 118.19 110.929 118.19 110.907L118.22 105.69L72.3396 105.42L72.3101 110.837C72.6061 113.427 82.7404 115.562 95.2094 115.647C107.678 115.732 117.85 113.675 118.19 111.092Z" fill="#F5F5F5"/>
<path d="M118.256 106.078C118.272 103.434 108.017 101.229 95.3523 101.154C82.6872 101.079 72.4074 103.161 72.3917 105.806C72.376 108.45 82.6304 110.654 95.2955 110.729C107.961 110.805 118.24 108.722 118.256 106.078Z" fill="#F5F5F5"/>
<path d="M116.776 105.924C116.788 103.772 107.194 101.971 95.3466 101.901C83.4989 101.83 73.884 103.518 73.8713 105.669C73.8585 107.821 83.4526 109.622 95.3004 109.693C107.148 109.763 116.763 108.076 116.776 105.924Z" fill="#E5E5E5"/>
<path fill-rule="evenodd" clip-rule="evenodd" d="M118.19 103.848V103.785C118.19 103.763 118.19 103.744 118.19 103.726C118.19 103.707 118.19 103.685 118.19 103.663L118.22 98.4458L72.3396 98.1757L72.3101 103.578C72.6061 106.168 82.7404 108.303 95.2094 108.388C107.678 108.473 117.85 106.43 118.19 103.848Z" fill="#F5F5F5"/>
<path d="M118.256 98.8309C118.272 96.1867 108.017 93.9822 95.3523 93.9071C82.6872 93.8319 72.4074 95.9146 72.3917 98.5587C72.376 101.203 82.6304 103.407 95.2955 103.483C107.961 103.558 118.24 101.475 118.256 98.8309Z" fill="#F5F5F5"/>
<path d="M116.776 98.677C116.789 96.5252 107.195 94.7239 95.3471 94.6536C83.4994 94.5833 73.8845 96.2706 73.8718 98.4224C73.859 100.574 83.4531 102.375 95.3009 102.446C107.149 102.516 116.763 100.829 116.776 98.677Z" fill="#E5E5E5"/>
<path d="M98.4316 100.94L97.5658 100.385C94.6539 100.385 91.9566 99.9627 90.7837 99.2116L89.5072 98.3939L83.7796 98.9008L82.7251 98.2237L92.7854 97.332L92.0158 96.8362L93.6919 96.6882L94.4652 97.184L95.8527 97.0582L95.0794 96.5661L96.7592 96.4144L97.5288 96.9102L101.854 96.5402L104.185 98.0202C104.677 98.3384 104.81 98.6492 104.637 98.9415C104.392 99.3411 103.564 99.7037 102.294 99.9627L103.16 100.521L101.484 100.669L100.744 100.2C100.522 100.229 100.293 100.255 100.056 100.277L99.3566 100.322L100.097 100.792L98.4316 100.94ZM96.922 97.7353L95.5308 97.8574L98.3058 99.6334L99.0051 99.589C99.2419 99.5668 99.4676 99.5409 99.6933 99.5113L96.922 97.7353ZM93.3626 98.9341C93.9472 99.3041 95.0609 99.5446 96.3855 99.626L93.8547 98.0054L92.1527 98.1571L93.3626 98.9341V98.9341ZM100.3 97.4356L98.5981 97.5873L101.125 99.2079C101.388 99.1414 101.624 98.9938 101.799 98.7861C101.906 98.6085 101.825 98.4161 101.51 98.2089L100.3 97.4356Z" fill="#F8FDFC"/>
<path fill-rule="evenodd" clip-rule="evenodd" d="M132.361 123.539L132.413 123.51L132.464 123.48L132.516 123.45L137.023 120.812L113.861 81.2223L109.199 83.9492C107.123 85.5254 110.453 95.3304 116.751 106.094C123.048 116.857 129.971 124.579 132.361 123.539Z" fill="#F5F5F5"/>
<path d="M136.71 121.005C138.993 119.67 135.658 109.726 129.262 98.7938C122.867 87.862 115.832 80.0824 113.549 81.4177C111.267 82.753 114.602 92.6974 120.997 103.629C127.393 114.561 134.428 122.341 136.71 121.005Z" fill="#F5F5F5"/>
<path d="M136.086 119.656C137.943 118.57 134.598 109.399 128.615 99.1723C122.633 88.946 116.277 81.5368 114.419 82.6234C112.562 83.71 115.907 92.8809 121.89 103.107C127.873 113.334 134.228 120.743 136.086 119.656Z" fill="#E5E5E5"/>
<path d="M124.946 96.5403L124.839 97.5652C126.156 100.155 126.985 102.745 126.84 104.147L126.7 105.657L129.719 110.53L129.589 111.777L124.269 103.189L124.176 104.099L123.288 102.667L123.385 101.757L122.645 100.573L122.552 101.483L121.664 100.052L121.757 99.1414L119.474 95.4414L119.759 92.6886C119.821 92.1077 120.04 91.8487 120.38 91.8746C120.846 91.9079 121.538 92.4888 122.345 93.5063L122.452 92.4814L123.34 93.9133L123.248 94.7754C123.373 94.9641 123.499 95.1454 123.618 95.3563C123.736 95.5672 123.866 95.7707 123.988 95.9631L124.076 95.0973L124.946 96.5403ZM122.759 99.3301L123.499 100.518L123.84 97.2396C123.729 97.0509 123.607 96.8363 123.47 96.6365C123.333 96.4367 123.222 96.2443 123.1 96.0556L122.759 99.3301ZM125.431 101.972C125.505 101.28 125.212 100.177 124.691 98.9601L124.376 101.946L125.279 103.4L125.427 101.972H125.431ZM120.968 96.4478L121.89 97.8871L122.201 94.9012C122.024 94.6955 121.787 94.5516 121.523 94.4905C121.313 94.472 121.176 94.6348 121.153 95.0048L121.002 96.4367" fill="#F8FDFC"/>
<path d="M116.543 72.2538C116.657 72.9585 116.92 73.6307 117.314 74.2259C117.709 74.8211 118.225 75.3256 118.829 75.7059C118.884 75.7373 118.928 75.7846 118.955 75.8414C118.982 75.8982 118.991 75.9619 118.981 76.0241L118.959 76.1906C118.952 76.253 118.927 76.312 118.887 76.3602C118.847 76.4083 118.793 76.4433 118.733 76.4607C118.047 76.6908 117.416 77.0622 116.882 77.551C116.348 78.0398 115.922 78.6351 115.632 79.2986C115.603 79.3628 115.555 79.4172 115.496 79.4552C115.436 79.4932 115.367 79.5133 115.296 79.5132C115.226 79.4995 115.161 79.4638 115.113 79.4112C115.064 79.3586 115.034 79.292 115.026 79.2209C114.926 78.4751 114.656 77.7624 114.236 77.1385C113.815 76.5145 113.256 75.9964 112.602 75.6245C112.548 75.5927 112.505 75.5453 112.478 75.4886C112.45 75.4319 112.441 75.3684 112.45 75.3063V75.2656C112.458 75.203 112.484 75.1441 112.525 75.0961C112.565 75.0481 112.619 75.0131 112.68 74.9955C113.395 74.7923 114.057 74.4344 114.619 73.9472C115.181 73.4601 115.63 72.8555 115.932 72.1761C115.959 72.1145 116.007 72.064 116.067 72.033C116.127 72.0021 116.195 71.9925 116.261 72.0059C116.326 72.0184 116.386 72.048 116.436 72.0916C116.485 72.1352 116.522 72.1911 116.543 72.2538ZM120.202 108.181C120.136 108.169 120.068 108.179 120.008 108.21C119.949 108.241 119.901 108.29 119.873 108.351C119.569 109.031 119.12 109.636 118.558 110.124C117.995 110.611 117.333 110.97 116.617 111.174C116.557 111.191 116.503 111.225 116.463 111.273C116.423 111.32 116.398 111.379 116.391 111.44V111.485C116.383 111.547 116.393 111.611 116.421 111.667C116.449 111.724 116.492 111.771 116.546 111.803C117.201 112.174 117.76 112.692 118.18 113.316C118.6 113.94 118.869 114.654 118.966 115.399C118.976 115.47 119.007 115.536 119.057 115.588C119.106 115.64 119.17 115.675 119.24 115.688C119.31 115.688 119.378 115.668 119.437 115.631C119.496 115.593 119.543 115.54 119.573 115.477C119.863 114.813 120.289 114.216 120.823 113.727C121.358 113.237 121.99 112.866 122.677 112.636C122.737 112.618 122.79 112.584 122.83 112.537C122.871 112.489 122.896 112.431 122.903 112.369L122.925 112.199C122.933 112.137 122.923 112.074 122.896 112.018C122.869 111.961 122.827 111.914 122.773 111.881C122.169 111.501 121.652 110.998 121.257 110.403C120.862 109.809 120.598 109.137 120.483 108.432C120.463 108.369 120.427 108.312 120.377 108.268C120.328 108.224 120.267 108.194 120.202 108.181ZM86.6207 109.091C86.5853 109.096 86.5527 109.113 86.5285 109.139C86.5042 109.166 86.4897 109.2 86.4876 109.235C86.458 109.627 86.3433 110.007 86.1516 110.349C85.9599 110.692 85.6957 110.989 85.3776 111.218C85.35 111.237 85.3288 111.264 85.3169 111.295C85.305 111.326 85.3029 111.36 85.3109 111.392V111.415C85.318 111.447 85.3343 111.477 85.3579 111.501C85.3816 111.524 85.4115 111.541 85.4441 111.548C85.8368 111.615 86.2084 111.773 86.5296 112.008C86.8507 112.244 87.1124 112.551 87.2941 112.906C87.3104 112.94 87.3373 112.967 87.3706 112.985C87.404 113.002 87.442 113.008 87.4791 113.002C87.5148 112.99 87.5463 112.968 87.5693 112.938C87.5924 112.909 87.6061 112.873 87.6087 112.835C87.6354 112.453 87.7417 112.081 87.9208 111.743C88.0998 111.405 88.3476 111.108 88.6483 110.871C88.6741 110.851 88.6937 110.824 88.7048 110.793C88.716 110.762 88.7182 110.729 88.7113 110.697V110.608C88.7049 110.576 88.6893 110.546 88.6663 110.522C88.6433 110.498 88.6139 110.482 88.5818 110.475C88.2126 110.394 87.8649 110.235 87.5618 110.009C87.2588 109.783 87.0074 109.496 86.8243 109.165C86.8024 109.133 86.771 109.108 86.7345 109.095C86.6979 109.082 86.6581 109.08 86.6207 109.091Z" fill="#FFD600"/>
<path d="M102.823 81.2761C102.858 81.2419 102.904 81.2208 102.953 81.2165C103.006 81.212 103.059 81.2236 103.105 81.25C103.151 81.2764 103.187 81.3163 103.21 81.3642C103.409 81.8437 103.708 82.2753 104.086 82.6301C104.465 82.985 104.916 83.2549 105.407 83.4218C105.451 83.4318 105.491 83.4544 105.523 83.4868C105.554 83.5191 105.576 83.56 105.584 83.6042L105.597 83.7267C105.602 83.7723 105.593 83.8183 105.573 83.8593C105.552 83.9004 105.521 83.9349 105.482 83.9589C105.035 84.2371 104.65 84.6059 104.354 85.0415C104.058 85.4771 103.856 85.97 103.761 86.4883C103.75 86.5383 103.724 86.5839 103.687 86.6197C103.65 86.6555 103.604 86.68 103.553 86.6904C103.501 86.6915 103.45 86.6765 103.407 86.6476C103.363 86.6186 103.33 86.5771 103.311 86.5285C103.117 86.0166 102.807 85.5568 102.404 85.1856C102.002 84.8144 101.519 84.542 100.993 84.39C100.95 84.3757 100.912 84.3491 100.884 84.3136C100.855 84.278 100.838 84.235 100.834 84.1899L100.816 84.1716C100.81 84.1269 100.818 84.0815 100.839 84.0413C100.859 84.0012 100.891 83.9682 100.931 83.9466C101.402 83.6813 101.81 83.3164 102.126 82.8774C102.442 82.4383 102.658 81.9356 102.76 81.4044C102.765 81.3556 102.788 81.3103 102.823 81.2761Z" fill="#FFD600"/>
<path d="M124.974 82.0089C125.003 81.989 125.038 81.9794 125.074 81.9816C125.106 81.9844 125.136 81.9949 125.163 82.0123C125.19 82.0297 125.212 82.0535 125.228 82.0814C125.334 82.4437 125.517 82.779 125.763 83.065C126.01 83.3509 126.314 83.581 126.657 83.7396C126.687 83.753 126.712 83.7749 126.729 83.8026C126.747 83.8302 126.756 83.8624 126.755 83.895L126.766 83.9831C126.767 84.0164 126.758 84.0492 126.74 84.0774C126.723 84.1055 126.697 84.1277 126.667 84.1411C126.321 84.3075 126.014 84.5444 125.766 84.8365C125.518 85.1287 125.334 85.4696 125.225 85.8373C125.214 85.8732 125.193 85.905 125.164 85.9287C125.135 85.9523 125.1 85.9666 125.063 85.9697C125.026 85.9674 124.99 85.9533 124.962 85.9294C124.933 85.9054 124.913 85.873 124.904 85.8368C124.802 85.4523 124.612 85.0966 124.35 84.7972C124.088 84.4979 123.76 84.2631 123.392 84.1109C123.362 84.0963 123.337 84.0738 123.319 84.0459C123.301 84.0179 123.291 83.9855 123.29 83.9522L123.287 83.9302C123.287 83.897 123.297 83.8645 123.315 83.837C123.334 83.8094 123.36 83.7879 123.391 83.7754C123.752 83.6221 124.074 83.3921 124.337 83.1012C124.6 82.8104 124.796 82.4658 124.912 82.0915C124.923 82.0578 124.945 82.0288 124.974 82.0089Z" fill="#FFD600"/>
<path d="M34.1772 34.0231C34.0862 34.0705 34.0079 34.1391 33.949 34.2232C33.6057 34.5602 33.3316 34.9613 33.1424 35.4036C31.9719 38.4035 31.9719 41.7337 33.1424 44.7336C33.3292 45.1834 33.6034 45.5918 33.949 45.935C34.0818 46.0887 34.268 46.1863 34.4699 46.2081C34.7551 46.2081 35.0286 46.3213 35.2303 46.523C35.432 46.7247 35.5453 46.9982 35.5453 47.2835C35.5453 47.5687 35.432 47.8422 35.2303 48.0439C35.0286 48.2456 34.7551 48.3589 34.4699 48.3589C33.701 48.3493 32.9641 48.0491 32.4073 47.5187C31.8518 46.9797 31.4066 46.3376 31.0967 45.6284C29.6683 42.074 29.6683 38.1052 31.0967 34.5509C31.4055 33.841 31.8508 33.1987 32.4073 32.6605C32.6767 32.3863 32.998 32.1685 33.3525 32.0198C33.707 31.8711 34.0876 31.7946 34.472 31.7946C34.8564 31.7946 35.237 31.8711 35.5915 32.0198C35.946 32.1685 36.2673 32.3863 36.5367 32.6605C37.0931 33.1987 37.5384 33.841 37.8473 34.5509C38.5867 36.3015 38.9516 38.1874 38.9185 40.0875H36.6795C36.714 38.4891 36.415 36.901 35.8015 35.4246C35.6132 34.9756 35.3393 34.5675 34.995 34.2232C34.9361 34.1391 34.8578 34.0705 34.7668 34.0231C34.6758 33.9757 34.5746 33.951 34.472 33.951C34.3694 33.951 34.2682 33.9757 34.1772 34.0231Z" fill="black"/>
</svg>
