<svg width="149" height="148" viewBox="0 0 149 148" fill="none" xmlns="http://www.w3.org/2000/svg">
<mask id="mask0_1862_3417" style="mask-type:alpha" maskUnits="userSpaceOnUse" x="18" y="18" width="112" height="112">
<path d="M74.3062 129.5C104.958 129.5 129.806 104.652 129.806 74C129.806 43.3482 104.958 18.5 74.3062 18.5C43.6544 18.5 18.8062 43.3482 18.8062 74C18.8062 104.652 43.6544 129.5 74.3062 129.5Z" fill="white"/>
</mask>
<g mask="url(#mask0_1862_3417)">
<path d="M74.3062 129.5C104.958 129.5 129.806 104.652 129.806 74C129.806 43.3482 104.958 18.5 74.3062 18.5C43.6544 18.5 18.8062 43.3482 18.8062 74C18.8062 104.652 43.6544 129.5 74.3062 129.5Z" fill="white"/>
<path d="M32.015 62.7853C31.8448 62.715 31.4044 62.5337 30.9382 62.3265C31.2231 62.6484 31.5081 62.9777 31.7967 63.3107C32.3332 63.3366 32.829 63.3366 32.8586 63.2552C32.8993 63.0998 32.4035 62.9481 32.015 62.7853ZM74.935 97.6134C74.3911 91.2864 68.6893 88.467 68.4377 88.3634C67.6941 86.6216 66.7238 84.9856 65.5518 83.4979C65.3816 80.6933 63.465 76.194 59.765 74.2811C57.7263 73.2266 54.5147 72.6273 53.6156 73.8742C53.4511 74.1142 53.361 74.3973 53.3566 74.6882C50.3416 73.2512 47.6444 71.2258 45.4238 68.7311C45.0612 68.3365 44.7022 67.9308 44.347 67.5139C43.1482 66.1079 41.9939 64.5982 40.7581 62.9961C39.4483 61.3015 38.0534 59.5033 36.4254 57.6274C32.2306 52.8234 27.4925 48.5224 22.3062 44.8107V53.3614C23.0018 53.9904 23.4532 54.4381 23.6456 54.6268C25.5215 56.4768 27.6082 58.6487 29.8282 61.1277C30.1859 61.5224 30.5461 61.9268 30.9087 62.3412C31.1936 62.6631 31.4784 62.9925 31.767 63.3255L32.4516 64.1209C35.0934 67.2178 37.8869 70.7366 40.7211 74.6808H12.8062V111.329H31.0863C31.3076 114.528 32.7612 117.516 35.1411 119.664C37.521 121.813 40.6416 122.954 43.846 122.848C47.0504 122.742 50.0888 121.397 52.3216 119.096C54.5544 116.795 55.8074 113.718 55.817 110.512C55.8174 110.084 55.7952 109.657 55.7505 109.231C56.0206 110.293 56.2056 110.981 56.5349 110.952C56.9789 110.915 57.6449 109.546 58.0149 107.518H58.0926L70.8206 107.352C71.1869 107.026 75.4493 103.404 74.935 97.6134ZM76.3404 120.609L149.675 120.62C149.724 120.631 149.768 120.659 149.799 120.698C149.831 120.737 149.848 120.786 149.848 120.836C149.848 120.887 149.831 120.936 149.799 120.975C149.768 121.014 149.724 121.042 149.675 121.053L76.3552 121.042C76.3062 121.031 76.2624 121.003 76.231 120.964C76.1996 120.924 76.1825 120.876 76.1825 120.825C76.1825 120.775 76.1996 120.726 76.231 120.687C76.2624 120.647 76.3062 120.62 76.3552 120.609H76.3404ZM98.5298 112.388L164.231 112.395C164.283 112.401 164.33 112.428 164.362 112.469C164.395 112.509 164.41 112.561 164.405 112.613C164.41 112.665 164.395 112.717 164.362 112.758C164.33 112.798 164.283 112.825 164.231 112.832L98.5446 112.825C98.4929 112.819 98.4457 112.792 98.4132 112.751C98.3807 112.71 98.3655 112.659 98.3707 112.607C98.3655 112.555 98.3807 112.503 98.4132 112.462C98.4457 112.421 98.4929 112.395 98.5446 112.388H98.5298ZM98.652 56.2622H137.705C137.757 56.2687 137.804 56.2952 137.837 56.336C137.869 56.3767 137.885 56.4286 137.879 56.4805C137.885 56.5324 137.869 56.5842 137.837 56.625C137.804 56.6658 137.757 56.6922 137.705 56.6987H98.6668C98.615 56.6922 98.5679 56.6658 98.5354 56.625C98.5029 56.5842 98.4876 56.5324 98.4929 56.4805C98.4876 56.4286 98.5029 56.3767 98.5354 56.336C98.5679 56.2952 98.615 56.2687 98.6668 56.2622H98.652ZM98.8407 38.7316H137.89C137.943 38.7372 137.991 38.7632 138.024 38.8041C138.057 38.845 138.073 38.8974 138.068 38.9498C138.072 39.0021 138.056 39.054 138.023 39.0946C137.99 39.1353 137.942 39.1617 137.89 39.1682H98.8555C98.8031 39.1626 98.755 39.1365 98.7217 39.0956C98.6884 39.0547 98.6727 39.0023 98.6779 38.9498C98.6727 38.8974 98.6884 38.845 98.7217 38.8041C98.755 38.7632 98.8031 38.7372 98.8555 38.7316H98.8407ZM94.3377 48.5995H133.395C133.447 48.606 133.494 48.6323 133.528 48.673C133.561 48.7137 133.577 48.7655 133.573 48.8178C133.578 48.8703 133.562 48.9226 133.529 48.9635C133.495 49.0044 133.447 49.0304 133.395 49.036H94.3377C94.2853 49.0304 94.2373 49.0044 94.204 48.9635C94.1707 48.9226 94.155 48.8703 94.1601 48.8178C94.1559 48.7655 94.172 48.7137 94.2051 48.673C94.2382 48.6323 94.2857 48.606 94.3377 48.5995ZM72.9426 21.1949C72.9478 21.2474 72.9321 21.2997 72.8988 21.3406C72.8656 21.3815 72.8175 21.4077 72.7651 21.4133L22.321 21.4156V20.979L72.7799 20.9767C72.8062 20.979 72.8317 20.9865 72.8551 20.9987C72.8784 21.011 72.8991 21.0278 72.916 21.048C72.9329 21.0683 72.9455 21.0918 72.9533 21.117C72.961 21.1422 72.9637 21.1687 72.9612 21.1949H72.9426ZM59.8998 28.2252C59.905 28.2771 59.8897 28.329 59.8573 28.3698C59.8248 28.4105 59.7776 28.4371 59.7259 28.4436L22.321 28.4456V28.0127L59.737 28.0107C59.765 28.0127 59.7922 28.0206 59.8168 28.0341C59.8415 28.0475 59.8629 28.0661 59.8797 28.0886C59.8966 28.111 59.9084 28.1368 59.9144 28.1643C59.9204 28.1917 59.9205 28.22 59.9146 28.2474L59.8998 28.2252ZM83.841 94.0448L157.175 94.0503C157.227 94.0559 157.275 94.082 157.309 94.1228C157.342 94.1637 157.358 94.2161 157.352 94.2685C157.357 94.3208 157.341 94.3727 157.307 94.4133C157.274 94.454 157.227 94.4804 157.175 94.4869L83.8559 94.4813C83.8038 94.4748 83.7563 94.4485 83.7232 94.4078C83.6902 94.3671 83.674 94.3153 83.6783 94.263C83.677 94.213 83.6946 94.1644 83.7274 94.1267C83.7603 94.089 83.8062 94.065 83.8559 94.0595L83.841 94.0448Z" fill="#E5E5E5"/>
</g>
<path d="M115.656 111.161L114.123 107.242L111.119 108.06L112.901 111.724L113.059 112.178L115.146 112.529L115.728 111.571L115.656 111.161Z" fill="#EFB595"/>
<path d="M123.22 113.523C123.343 113.007 122.827 112.311 121.721 112.152C120.228 111.955 119.625 112.201 118.455 112.154L118.407 112.147C118.39 112.114 118.29 112.109 118.225 112.117C118.021 112.09 117.82 112.047 117.624 111.988C117.633 111.929 117.479 111.908 117.401 111.951C117.23 111.893 117.046 111.829 116.91 111.765C116.921 111.755 116.934 111.747 116.948 111.741C116.988 111.681 116.747 111.596 116.707 111.657C116.536 111.576 116.388 111.496 116.279 111.433C116.029 111.287 115.6 110.863 115.457 111.297C115.457 111.297 113.682 112.149 112.897 111.727C112.777 112.307 112.705 112.896 112.682 113.488C112.731 113.984 112.89 114.463 113.145 114.892C113.246 115.212 113.371 115.476 113.489 115.533C113.978 115.614 114.518 115.414 116.643 115.167C118.768 114.921 119.046 115.15 120.621 114.967C121.412 114.921 122.19 114.741 122.921 114.434C123.001 114.395 123.073 114.341 123.132 114.273C123.191 114.206 123.236 114.127 123.264 114.042C123.292 113.957 123.303 113.868 123.295 113.779C123.288 113.689 123.262 113.603 123.22 113.523Z" fill="black"/>
<path d="M131.262 80.4239L127.262 79.1134L125.982 81.9476L129.946 82.9071L130.398 83.0753L131.995 81.6882L131.625 80.6299L131.262 80.4239Z" fill="#EFB595"/>
<path d="M137.902 76.0942C137.597 75.6691 136.716 75.6217 135.897 76.3867C134.797 77.417 134.6 78.0482 133.82 78.9099L133.789 78.9386C133.753 78.9326 133.684 79.0075 133.659 79.0708C133.507 79.2102 133.344 79.3376 133.173 79.452C133.175 79.445 133.176 79.4376 133.176 79.4301C133.147 79.3803 133.024 79.4913 133.003 79.5704C132.849 79.665 132.692 79.7517 132.544 79.8286C132.544 79.8286 132.549 79.7994 132.552 79.7848C132.554 79.7702 132.313 79.8467 132.335 79.9142C132.332 79.9211 132.331 79.9287 132.332 79.9361C132.186 80.006 132.037 80.0678 131.885 80.1214C131.613 80.2229 131.018 80.2825 131.249 80.6579C131.249 80.6579 130.777 82.5714 129.949 82.9076C130.32 83.3698 130.73 83.7997 131.174 84.1928C131.588 84.4713 132.058 84.655 132.551 84.7307C132.772 84.8537 133.026 84.9047 133.277 84.8764C133.648 84.5624 133.84 84.009 135.002 82.2092C136.165 80.4093 136.52 80.3477 137.38 79.0156C137.85 78.3766 138.206 77.6615 138.433 76.9016C138.454 76.8135 138.457 76.722 138.442 76.6328C138.426 76.5436 138.392 76.4585 138.342 76.3829C138.293 76.3072 138.228 76.2426 138.152 76.1929C138.077 76.1433 137.991 76.1097 137.902 76.0942Z" fill="black"/>
<path fill-rule="evenodd" clip-rule="evenodd" d="M129.735 79.5389C129.735 79.5389 117.417 72.6112 111.56 70.9238C108.699 70.0781 98.4537 79.0641 98.4537 79.0641L94.8928 75.2723L92.9095 80.6718C93.0652 81.4122 93.1447 82.1665 93.1465 82.9231L92.1771 77.4202L82.2361 84.7839C82.051 86.4784 83.6891 90.0139 85.8175 92.6439C90.1796 98.0376 107.905 95.4383 108.432 95.3599C107.743 99.1126 108.792 103.196 111.94 110.752C112.552 112.226 115.508 109.438 115.508 109.438C115.508 109.438 114.733 95.3919 112.784 91.2876C111.945 89.5484 107.416 88.2896 102.972 87.4533C107.067 83.755 111.035 78.1457 111.809 77.0431C117.26 82.0422 122.384 80.8193 128.349 82.8806C129.573 83.2996 129.735 79.5389 129.735 79.5389Z" fill="black"/>
<path d="M97.6922 72.8455L97.101 72.587C96.8903 71.1727 96.4103 69.8119 95.687 68.5784C92.5584 62.8889 90.2133 59.5258 88.4466 57.6377C88.1834 56.5977 87.7433 55.6108 87.1455 54.7201C90.6033 53.4404 93.6255 51.8003 94.2405 50.3416C95.814 46.4757 93.8808 44.0954 90.5955 43.8248C89.0381 43.696 83.4284 45.9753 79.1666 50.5687C77.5575 50.5238 75.9712 50.957 74.6083 51.8135C69.6167 53.527 62.9563 57.1559 62.3153 59.5702C61.2464 63.6053 63.4673 65.7182 66.7566 65.5769C67.5126 65.5401 69.1692 64.8152 71.0826 63.4876C72.2644 72.554 77.7702 82.9617 79.5759 85.16C85.4727 92.3023 103.863 75.4994 97.6922 72.8455Z" fill="#FF0008"/>
<path d="M86.6017 47.2661C88.9766 45.2983 92.4901 42.0853 92.4901 42.0853C92.4901 42.0853 95.6201 43.459 94.8293 45.7813C94.0385 48.1035 87.0266 54.4605 87.0266 54.4605L86.6017 47.2661Z" fill="#EFB595"/>
<path d="M92.33 42.4228C93.421 39.94 98.2682 33.6804 98.5242 33.3551C98.7802 33.0297 100.052 34.0977 99.8559 34.9016C99.6599 35.7056 95.8358 46.0481 93.9152 47.1007C92.3616 47.9513 92.33 42.4228 92.33 42.4228Z" fill="#EFB595"/>
<path fill-rule="evenodd" clip-rule="evenodd" d="M87.1282 46.5953C85.2841 47.5705 82.6653 48.6508 80.2795 50.3431C76.5927 52.9913 78.7633 56.0257 80.0694 56.3831C84.6511 57.6394 88.9721 53.4157 90.271 52.062C91.5699 50.7084 87.1282 46.5953 87.1282 46.5953Z" fill="#FF0008"/>
<path d="M97.6053 30.3016C97.6053 30.3016 98.1364 32.9763 97.9886 34.4894L99.749 35.049C100.082 34.6687 101.286 33.6182 101.509 33.1974C101.601 33.0214 102.171 31.019 102.169 30.9624C102.155 30.6151 101.816 29.4345 101.669 29.444C101.562 29.477 101.47 29.5459 101.408 29.6389C101.346 29.7319 101.319 29.8433 101.33 29.9544C101.304 30.1078 101.374 30.5991 101.348 30.7299C101.213 31.1204 100.96 31.459 100.623 31.6981C100.398 31.766 100.152 31.0281 100.062 30.3908C99.9715 29.7535 101.198 28.0429 100.979 27.8718C100.617 27.6062 99.607 29.3711 99.607 29.3711C100.013 28.7268 100.359 28.0471 100.642 27.3403C100.711 27.1804 100.716 27.0004 100.658 26.8366C100.51 26.7073 99.7365 27.8775 99.7365 27.8775C99.8246 27.6024 99.9339 27.3345 100.063 27.0763C100.097 26.9916 100.109 26.9 100.099 26.8095C100.089 26.719 100.057 26.6323 100.006 26.5569C99.8961 26.4975 98.812 28.4828 98.812 28.4828C98.812 28.4828 99.0153 27.7026 98.7405 27.4361C98.6047 27.395 97.6053 30.3016 97.6053 30.3016Z" fill="#EFB595"/>
<path fill-rule="evenodd" clip-rule="evenodd" d="M67.5166 63.9432C66.266 64.5474 64.2956 60.616 64.6047 59.5119C64.9139 58.4078 67.6676 57.5335 67.6676 57.5335L69.4734 61.8728L67.5166 63.9432Z" fill="#6FCADB"/>
<path d="M50.9207 56.2817C50.2566 55.76 50.2359 54.8379 50.0516 54.5451C49.83 54.1771 49.5895 53.8208 49.331 53.4778C48.8234 53.0187 48.257 52.6292 47.6467 52.3195C47.3753 52.1688 47.1221 51.9874 46.8919 51.7791C46.7956 51.8444 46.7288 51.9448 46.7059 52.0588C46.6829 52.1728 46.7056 52.2913 46.7691 52.3888C46.9882 52.7072 47.2706 52.977 47.5986 53.1815C47.8405 53.375 48.0679 53.6337 47.7769 53.5334C47.486 53.433 46.4244 53.1159 45.8651 52.6864C45.3059 52.2569 43.8401 51.4569 43.5531 51.5147C43.2661 51.5725 43.2283 51.8025 43.3947 51.9761C43.5611 52.1498 44.7277 52.9904 45.405 53.4318C46.0824 53.8733 45.8354 53.8476 45.4699 53.6075C45.0289 53.3249 43.0156 51.6363 42.5555 51.8118C42.5169 51.8257 42.4814 51.8472 42.4511 51.8749C42.4208 51.9026 42.3963 51.9361 42.379 51.9734C42.3618 52.0106 42.352 52.0509 42.3504 52.092C42.3488 52.133 42.3553 52.1739 42.3697 52.2124C42.7453 52.6014 43.1568 52.9542 43.5987 53.2658C43.9302 53.5303 45.2274 54.625 45.2274 54.625L42.8458 53.3294C42.7465 53.2579 42.6277 53.2185 42.5054 53.2165C42.3831 53.2144 42.263 53.2499 42.1615 53.3181C42.0303 53.4315 42.0518 53.5063 42.2219 53.703C42.9585 54.2543 43.7224 54.768 44.5109 55.2421C44.8861 55.4688 45.3501 55.7026 45.2701 55.847C45.1901 55.9913 43.0826 55.4682 42.9012 55.4084C42.6346 55.3195 42.3537 55.3859 42.3431 55.5416C42.3266 55.7789 42.5117 55.8843 42.9762 56.092C43.7973 56.3802 44.6336 56.623 45.4814 56.8192C46.2312 57.025 49.029 58.0478 49.3851 58.1626C49.7411 58.2775 51.7481 56.9278 50.9207 56.2817Z" fill="#EFB595"/>
<path d="M61.7444 64.9059C63.1895 64.5325 69.883 62.2291 73.2202 60.5433C73.2202 60.5433 76.2563 53.5996 75.1717 53.2411C73.194 52.5895 64.2177 58.4658 60.5986 60.3152C59.1378 58.7099 50.7169 56.0832 50.7169 56.0832C50.7169 56.0832 47.9598 57.6844 49.3557 58.1803C50.0746 58.4374 58.6013 65.7087 61.7444 64.9059Z" fill="#EFB595"/>
<path fill-rule="evenodd" clip-rule="evenodd" d="M65.1655 57.7218C66.8949 56.5551 69.0882 54.7562 71.7151 53.4673C75.7938 51.4685 76.8652 54.8021 77.1155 56.1295C77.7317 59.3807 76.927 62.608 75.9015 63.5079C73.7879 65.3688 72.0218 62.0184 71.5242 62.3077C70.8559 62.6777 67.5057 63.9413 67.5057 63.9413C68.279 60.2438 65.1655 57.7218 65.1655 57.7218Z" fill="#FF0008"/>
<path d="M75.7291 48.0982L77.5379 50.6194C77.5379 50.6194 78.9279 51.2869 78.4072 51.8311C77.2868 53.0342 74.34 52.9168 74.34 52.9168L71.5979 49.0721L75.7291 48.0982Z" fill="#EFB595"/>
<path d="M71.8798 41.0714C71.8798 41.0714 74.7718 42.616 76.664 44.6297C78.007 46.0619 76.6099 50.2229 72.6556 49.6885C68.7013 49.1542 66.9128 45.2789 66.9128 45.2789L71.8798 41.0714Z" fill="#EFB595"/>
<path d="M69.8609 48.6249C69.394 48.4994 69.0244 49.4472 68.9427 49.3963C67.9521 49.7883 66.7124 49.7793 66.7011 48.7312C66.459 48.7155 66.2243 48.6422 66.0163 48.5173C65.8084 48.3924 65.6334 48.2196 65.5059 48.0133C65.3783 47.807 65.302 47.5732 65.2832 47.3314C65.2645 47.0895 65.3038 46.8468 65.398 46.6233C65.0855 46.4619 64.846 46.1877 64.7279 45.8564C64.6097 45.5251 64.6218 45.1613 64.7617 44.8386C64.0948 44.1064 64.3499 42.7835 65.144 42.6516C65.1223 42.3126 65.2119 41.9758 65.3994 41.6925C65.5159 41.5101 65.6845 41.3667 65.8833 41.2809C65.8114 41.1681 65.7644 41.0412 65.7454 40.9088C65.7265 40.7763 65.736 40.6413 65.7734 40.5129C65.9448 39.8586 66.6598 39.6838 67.3009 39.6393C67.1869 38.6456 68.2671 37.7546 69.2096 37.8834C70.5639 36.8539 72.4213 36.9833 72.5499 39.1418C72.6911 41.5649 70.0781 43.681 68.0417 45.187C68.0435 45.1761 67.5589 46.7763 69.8609 48.6249Z" fill="black"/>
<path d="M75.804 47.1655C76.0399 46.7806 76.2125 44.6829 76.6772 44.6393C77.1418 44.5958 78.2834 46.2723 78.2115 47.1192C78.1397 47.9661 78.0413 48.9285 77.7078 49.4061C77.3742 49.8837 75.3628 51.1464 74.9622 51.2793C74.5616 51.4121 70.8003 49.7507 70.1026 48.9085C69.405 48.0662 68.1437 47.6187 68.5473 47.4451C68.9508 47.2715 72.6289 49.8266 73.3627 49.6511C74.0965 49.4756 75.3663 47.8434 75.804 47.1655Z" fill="black"/>
<path d="M81.2488 32.9525L80.3783 31.3525L86.1093 27.0138L87.4978 29.2767L82.6405 31.7504L83.7604 33.5198L77.9629 36.5768L81.2488 32.9525ZM76.9073 35.7358L78.6205 30.3446L76.959 30.0712L78.4486 25.5993L77.3977 25.5356L75.2133 30.6759L77.051 30.9783L76.9073 35.7358ZM81.0622 38.1907L86.3829 37.6285L86.0171 35.8934L90.5743 35.8668L90.0911 34.1122L84.3878 34.8745L84.7539 36.3145L81.0622 38.1907Z" fill="#FFD600"/>
</svg>
