<svg width="360" height="120" viewBox="0 0 360 120" fill="none" xmlns="http://www.w3.org/2000/svg">
<g clip-path="url(#clip0_1643_15687)">
<rect width="360" height="120" fill="#F5F5F5"/>
<path d="M143.89 48.0699H143.34L143.24 41.6899H143.99L143.89 48.0699ZM126.66 47.64C126.43 47.83 126.31 47.9299 126.09 48.1299L130.51 52.8799L130.93 52.5099L126.66 47.64ZM134.42 43.2299L133.72 43.49C134.22 44.68 134.47 45.28 134.98 46.49L135.59 46.2599L134.42 43.2299ZM130.18 45.17L129.54 45.55C130.25 46.64 130.61 47.18 131.33 48.27L131.89 47.9399L130.18 45.17ZM138.94 42.0699L138.21 42.21C138.48 43.46 138.62 44.0899 138.9 45.3499L139.54 45.24L138.94 42.0699ZM120.63 55.6299C120.49 55.9199 120.43 56.0699 120.3 56.3799L123.3 57.7199C123.4 57.4599 123.46 57.3299 123.58 57.0699L120.63 55.6299ZM123.14 51.42C122.95 51.66 122.86 51.7899 122.69 52.0399L125.35 53.95C125.5 53.72 125.58 53.62 125.74 53.4L123.14 51.42ZM118.98 60.71C118.9 61.06 118.87 61.23 118.8 61.58L121.96 62.2799C121.96 61.9699 122.04 61.8099 122.11 61.5099L118.98 60.71ZM152.84 43.2299L152.14 42.9999C151.7 44.2199 151.49 44.8299 151.06 45.9999L151.67 46.21L152.84 43.2299ZM157.08 45.17L156.43 44.81C155.78 45.94 155.43 46.4999 154.8 47.6299C155.03 47.7499 155.15 47.8099 155.37 47.9399L157.08 45.17ZM148.32 42.0699L147.58 41.96L147.08 45.14C147.34 45.14 147.46 45.14 147.72 45.24L148.32 42.0699ZM166.63 55.6299C166.5 55.3299 166.43 55.18 166.29 54.9L163.38 56.42L163.68 57.06L166.63 55.6299ZM168.28 60.6299C168.21 60.2899 168.17 60.1099 168.08 59.7799L164.98 60.6899C165.05 60.9799 165.09 61.13 165.15 61.43L168.28 60.6299ZM164.09 51.42C163.91 51.17 163.81 51.05 163.62 50.81L161.08 52.87C161.24 53.08 161.33 53.18 161.49 53.4L164.09 51.42ZM118.34 65.9799C118.34 66.3699 118.34 66.57 118.34 66.9799H124.72C124.72 66.68 124.72 66.53 124.72 66.24L118.34 65.9799ZM161.14 48.1299C160.92 47.9299 160.8 47.83 160.57 47.64L156.3 52.5099L156.72 52.8799L161.14 48.1299ZM168.9 66.9699C168.9 66.5699 168.9 66.3699 168.9 65.9699L162.52 66.2199C162.52 66.5099 162.52 66.66 162.52 66.96L168.9 66.9699Z" fill="#231F20"/>
<path d="M187.77 52.5H173.77C171.039 46.797 166.75 41.9826 161.399 38.6127C156.048 35.2428 149.854 33.4546 143.53 33.4546C137.207 33.4546 131.012 35.2428 125.661 38.6127C120.311 41.9826 116.022 46.797 113.29 52.5H99.2903C97.1375 52.4995 95.0078 52.9434 93.0345 53.804C91.0612 54.6645 89.2868 55.9232 87.8224 57.5012C86.358 59.0791 85.2352 60.9425 84.5242 62.9744C83.8131 65.0064 83.5293 67.1633 83.6903 69.31L88.3403 131.31H198.72L203.37 69.31C203.531 67.1633 203.247 65.0064 202.536 62.9744C201.825 60.9425 200.703 59.0791 199.238 57.5012C197.774 55.9232 195.999 54.6645 194.026 53.804C192.053 52.9434 189.923 52.4995 187.77 52.5ZM122.77 52.5C125.754 48.2275 129.985 44.9815 134.884 43.2062C139.784 41.4309 145.112 41.213 150.14 42.5825C155.168 43.952 159.65 46.8418 162.973 50.8565C166.295 54.8712 168.295 59.8146 168.7 65.01C168.724 65.2634 168.694 65.5189 168.614 65.7603C168.533 66.0016 168.403 66.2235 168.232 66.4117C168.06 66.5999 167.852 66.7503 167.619 66.8533C167.386 66.9564 167.135 67.0097 166.88 67.01H120.15C119.896 67.0082 119.645 66.9538 119.413 66.8503C119.181 66.7468 118.973 66.5963 118.802 66.4084C118.632 66.2206 118.501 65.9993 118.42 65.7587C118.339 65.518 118.308 65.2631 118.33 65.01C118.68 60.51 120.238 56.1878 122.84 52.5H122.77Z" fill="#E5E5E5"/>
<path d="M194.921 86.3L191.421 131.3H97.0107L93.5107 86.3C93.4139 84.641 93.6612 82.9798 94.2372 81.421C94.8132 79.8622 95.7054 78.4394 96.8577 77.2419C98.0101 76.0445 99.3976 75.0984 100.933 74.463C102.469 73.8277 104.119 73.5168 105.781 73.55H182.651C184.314 73.5093 185.968 73.815 187.507 74.4477C189.046 75.0805 190.437 76.0264 191.591 77.2254C192.745 78.4245 193.637 79.8504 194.21 81.4126C194.783 82.9748 195.025 84.6392 194.921 86.3Z" fill="white"/>
<path d="M143.54 54.3301L141.42 66.9701H145.65L143.54 54.3301Z" fill="#FF0008"/>
<path d="M275.35 -5.22H243.84V-6.22H275.34L275.35 -5.22ZM275.35 0.570007H252.53V1.57001H275.35V0.570007ZM275.35 7.35001H252.53V8.35001H275.35V7.35001ZM275.35 14.14H252.53V15.14H275.35V14.14ZM275.35 20.93H243.84V21.93H275.34L275.35 20.93ZM275.35 -13H252.53V-12H275.35V-13ZM275.35 -6.22H243.84V-5.22H275.34L275.35 -6.22ZM275.35 -6.22H243.84V-5.22H275.34L275.35 -6.22ZM275.35 27.71H252.53V28.71H275.35V27.71ZM275.35 34.5H252.53V35.5H275.35V34.5ZM275.35 41.28H252.53V42.28H275.35V41.28ZM275.35 48.07H243.84V49.07H275.34L275.35 48.07ZM275.35 48.07H243.84V49.07H275.34L275.35 48.07ZM275.35 54.85H252.53V55.85H275.35V54.85ZM275.35 61.64H252.53V62.64H275.35V61.64ZM275.35 68.42H252.53V69.42H275.35V68.42ZM275.35 75.21H243.84V76.21H275.34L275.35 75.21ZM275.35 75.21H243.84V76.21H275.34L275.35 75.21ZM275.35 75.21H243.84V76.21H275.34L275.35 75.21ZM275.35 81.99H252.53V82.99H275.35V81.99ZM275.35 88.78H252.53V89.78H275.35V88.78ZM275.35 95.56H252.53V96.56H275.35V95.56ZM275.35 102.35H243.84V103.35H275.34L275.35 102.35ZM275.35 102.35H243.84V103.35H275.34L275.35 102.35ZM275.35 102.35H243.84V103.35H275.34L275.35 102.35ZM275.35 109.13H252.53V110.13H275.35V109.13ZM275.35 115.92H252.53V116.92H275.35V115.92ZM275.35 122.7H252.53V123.7H275.35V122.7ZM275.35 129.49H243.84V130.49H275.34L275.35 129.49Z" fill="#C5C5C5"/>
<path d="M275.35 20.9302H243.85V21.9302H275.35V20.9302Z" fill="#FF1A28"/>
</g>
<defs>
<clipPath id="clip0_1643_15687">
<rect width="360" height="120" fill="white"/>
</clipPath>
</defs>
</svg>
