<svg width="1200" height="320" viewBox="0 0 1200 320" fill="none" xmlns="http://www.w3.org/2000/svg">
<g clip-path="url(#clip0_1643_13597)">
<path d="M517.268 129.193H515.987L515.754 114.338H517.501L517.268 129.193ZM477.15 128.192C476.615 128.634 476.335 128.867 475.823 129.333L486.114 140.392L487.092 139.531L477.15 128.192ZM495.218 117.924L493.588 118.529C494.753 121.3 495.335 122.697 496.522 125.514L497.942 124.979L495.218 117.924ZM485.346 122.441L483.856 123.325C485.509 125.863 486.347 127.121 488.024 129.659L489.328 128.89L485.346 122.441ZM505.743 115.223L504.043 115.549C504.671 118.459 504.997 119.926 505.649 122.86L507.14 122.604L505.743 115.223ZM463.11 146.795C462.784 147.47 462.645 147.82 462.342 148.541L469.327 151.661C469.56 151.056 469.7 150.753 469.979 150.148L463.11 146.795ZM468.954 136.993C468.512 137.552 468.303 137.854 467.907 138.436L474.1 142.884C474.449 142.348 474.636 142.115 475.008 141.603L468.954 136.993ZM459.268 158.623C459.082 159.438 459.012 159.834 458.849 160.649L466.207 162.279C466.207 161.557 466.393 161.184 466.556 160.486L459.268 158.623ZM538.107 117.924L536.477 117.388C535.452 120.229 534.963 121.649 533.962 124.373L535.382 124.862L538.107 117.924ZM547.979 122.441L546.465 121.602C544.952 124.233 544.137 125.537 542.67 128.168C543.206 128.448 543.485 128.587 543.997 128.89L547.979 122.441ZM527.582 115.223L525.86 114.967L524.695 122.371C525.301 122.371 525.58 122.371 526.185 122.604L527.582 115.223ZM570.215 146.795C569.912 146.097 569.749 145.747 569.423 145.096L562.648 148.635L563.346 150.125L570.215 146.795ZM574.057 158.437C573.894 157.645 573.8 157.226 573.591 156.458L566.373 158.577C566.536 159.252 566.629 159.601 566.769 160.3L574.057 158.437ZM564.301 136.993C563.882 136.411 563.649 136.131 563.206 135.573L557.292 140.369C557.665 140.858 557.874 141.091 558.247 141.603L564.301 136.993ZM457.778 170.894C457.778 171.802 457.778 172.267 457.778 173.222H472.633C472.633 172.524 472.633 172.174 472.633 171.499L457.778 170.894ZM557.432 129.333C556.92 128.867 556.64 128.634 556.105 128.192L546.163 139.531L547.141 140.392L557.432 129.333ZM575.5 173.199C575.5 172.267 575.5 171.802 575.5 170.87L560.645 171.453C560.645 172.128 560.645 172.477 560.645 173.176L575.5 173.199Z" fill="#231F20"/>
<path d="M619.438 139.507H586.84C580.48 126.229 570.495 115.019 558.036 107.173C545.578 99.3264 531.154 95.1628 516.431 95.1628C501.708 95.1628 487.284 99.3264 474.826 107.173C462.367 115.019 452.382 126.229 446.021 139.507H413.424C408.412 139.506 403.453 140.54 398.859 142.543C394.264 144.547 390.133 147.478 386.723 151.152C383.313 154.826 380.699 159.164 379.044 163.896C377.388 168.627 376.727 173.649 377.102 178.647L387.929 323.005H644.933L655.76 178.647C656.135 173.649 655.474 168.627 653.818 163.896C652.163 159.164 649.548 154.826 646.139 151.152C642.729 147.478 638.598 144.547 634.003 142.543C629.409 140.54 624.45 139.506 619.438 139.507ZM468.094 139.507C475.041 129.559 484.893 122.002 496.3 117.868C507.708 113.734 520.114 113.227 531.821 116.416C543.528 119.605 553.964 126.333 561.699 135.681C569.435 145.028 574.093 156.538 575.036 168.635C575.091 169.225 575.022 169.82 574.834 170.382C574.646 170.944 574.343 171.461 573.945 171.899C573.546 172.337 573.06 172.687 572.518 172.927C571.976 173.167 571.391 173.291 570.798 173.292H461.994C461.403 173.288 460.818 173.161 460.278 172.92C459.738 172.679 459.254 172.329 458.856 171.891C458.458 171.454 458.154 170.939 457.965 170.378C457.776 169.818 457.705 169.224 457.756 168.635C458.57 158.157 462.198 148.094 468.257 139.507H468.094Z" fill="#E5E5E5"/>
<path d="M636.086 218.206L627.937 322.982H408.117L399.968 218.206C399.742 214.343 400.318 210.475 401.659 206.846C403 203.216 405.078 199.904 407.761 197.116C410.444 194.328 413.674 192.125 417.25 190.645C420.825 189.166 424.668 188.442 428.537 188.519H607.517C611.391 188.425 615.242 189.136 618.825 190.61C622.409 192.083 625.647 194.285 628.333 197.077C631.02 199.869 633.097 203.189 634.431 206.826C635.766 210.464 636.33 214.339 636.086 218.206Z" fill="white"/>
<path d="M516.454 143.768L511.518 173.199H521.367L516.454 143.768Z" fill="#FF0008"/>
<path d="M823.355 5.11462H749.988V2.78627H823.332L823.355 5.11462ZM823.355 18.5958H770.222V20.9242H823.355V18.5958ZM823.355 34.3821H770.222V36.7105H823.355V34.3821ZM823.355 50.1917H770.222V52.52H823.355V50.1917ZM823.355 66.0012H749.988V68.3296H823.332L823.355 66.0012ZM823.355 -13H770.222V-10.6716H823.355V-13ZM823.355 2.78627H749.988V5.11462H823.332L823.355 2.78627ZM823.355 2.78627H749.988V5.11462H823.332L823.355 2.78627ZM823.355 81.7875H770.222V84.1159H823.355V81.7875ZM823.355 97.597H770.222V99.9254H823.355V97.597ZM823.355 113.383H770.222V115.712H823.355V113.383ZM823.355 129.193H749.988V131.521H823.332L823.355 129.193ZM823.355 129.193H749.988V131.521H823.332L823.355 129.193ZM823.355 144.979H770.222V147.307H823.355V144.979ZM823.355 160.789H770.222V163.117H823.355V160.789ZM823.355 176.575H770.222V178.903H823.355V176.575ZM823.355 192.385H749.988V194.713H823.332L823.355 192.385ZM823.355 192.385H749.988V194.713H823.332L823.355 192.385ZM823.355 192.385H749.988V194.713H823.332L823.355 192.385ZM823.355 208.171H770.222V210.499H823.355V208.171ZM823.355 223.98H770.222V226.309H823.355V223.98ZM823.355 239.767H770.222V242.095H823.355V239.767ZM823.355 255.576H749.988V257.904H823.332L823.355 255.576ZM823.355 255.576H749.988V257.904H823.332L823.355 255.576ZM823.355 255.576H749.988V257.904H823.332L823.355 255.576ZM823.355 271.362H770.222V273.691H823.355V271.362ZM823.355 287.172H770.222V289.5H823.355V287.172ZM823.355 302.958H770.222V305.287H823.355V302.958ZM823.355 318.768H749.988V321.096H823.332L823.355 318.768Z" fill="#C5C5C5"/>
<path d="M823.354 66.0012H750.011V68.3296H823.354V66.0012Z" fill="#FF1A28"/>
</g>
<defs>
<clipPath id="clip0_1643_13597">
<rect width="1200" height="320" fill="white"/>
</clipPath>
</defs>
</svg>
