<svg width="78" height="24" viewBox="0 0 78 24" fill="none" xmlns="http://www.w3.org/2000/svg">
<g clip-path="url(#clip0_1407_5534)">
<path d="M6.73737 3.06648H6.04039V1.87622H6.74067C8.21186 1.87767 9.66428 2.20667 10.9925 2.83935C12.3207 3.47203 13.4914 4.39251 14.4195 5.53397L13.5034 6.28821C12.6864 5.28242 11.6555 4.47139 10.4857 3.91409C9.31582 3.35679 8.03647 3.06723 6.74067 3.06648H6.73737ZM18.4715 20.9346C17.1755 20.9339 15.896 20.6443 14.726 20.087C13.5559 19.5297 12.5248 18.7187 11.7076 17.7129L10.7915 18.4671C11.7195 19.6091 12.8903 20.5299 14.2187 21.1626C15.5472 21.7953 17 22.1241 18.4715 22.1249H19.1706V20.9346H18.4715ZM10.0703 1.58994C11.2926 2.03145 12.4014 2.73926 13.3164 3.6621C14.2315 4.58494 14.9298 5.69973 15.3609 6.92572L16.4763 6.52824C15.9868 5.13649 15.1937 3.87107 14.1547 2.82366C13.1157 1.77625 11.8567 0.973088 10.4689 0.472359L9.81485 0.23673L9.41516 1.35652L10.0703 1.59215V1.58994ZM15.1352 22.409C13.9128 21.9675 12.8038 21.2598 11.8885 20.3369C10.9733 19.4141 10.2748 18.2992 9.84348 17.0732L8.7281 17.4707C9.21787 18.8623 10.011 20.1276 11.05 21.175C12.089 22.2224 13.3479 23.0256 14.7355 23.5265L15.3907 23.7622L15.7893 22.6424L15.1352 22.4068V22.409ZM13.836 1.36092C14.8286 2.20265 15.6224 3.25389 16.1602 4.43903C16.698 5.62417 16.9666 6.91376 16.9465 8.21508L18.1301 8.23269C18.1525 6.75517 17.8474 5.29103 17.2366 3.94544C16.6259 2.59986 15.7248 1.40625 14.5979 0.450338L14.0661 0L13.3074 0.905079L13.836 1.36092ZM11.3718 22.6424C10.3787 21.8003 9.58467 20.7485 9.04682 19.5628C8.50897 18.377 8.24067 17.0868 8.26124 15.7849L7.0776 15.7673C7.05498 17.2449 7.36001 18.7091 7.97075 20.0547C8.5815 21.4003 9.48279 22.5939 10.6098 23.5497L11.1416 24L11.9036 23.0905L11.3718 22.6402V22.6424ZM17.2195 2.33757C17.8852 3.45757 18.2948 4.71099 18.4189 6.00794C18.543 7.30489 18.3786 8.61323 17.9374 9.83915L19.0506 10.2443C19.5509 8.85277 19.7373 7.36774 19.5962 5.89569C19.4551 4.42364 18.9902 3.00102 18.2347 1.72978L17.878 1.1297L16.8628 1.73969L17.2195 2.33977V2.33757ZM7.98818 21.6569C7.32286 20.5372 6.91348 19.2842 6.78936 17.9876C6.66525 16.6911 6.82948 15.3832 7.27028 14.1575L6.1571 13.7524C5.65677 15.1439 5.47046 16.629 5.61152 18.101C5.75257 19.5731 6.2175 20.9957 6.97299 22.2669L7.32974 22.867L8.34492 22.257L7.98818 21.6569ZM20.275 4.55953C20.5119 5.84012 20.4623 7.15729 20.1298 8.41644C19.7972 9.67558 19.1899 10.8454 18.3514 11.842L19.2554 12.6127C20.2068 11.4811 20.896 10.1529 21.2735 8.72341C21.6509 7.29395 21.7074 5.79868 21.4388 4.34482L21.3122 3.65775L20.1484 3.87797L20.275 4.56503V4.55953ZM4.93271 19.4372C4.69542 18.1561 4.74485 16.8383 5.07744 15.5786C5.41003 14.3188 6.01753 13.1484 6.85628 12.1514L5.9534 11.3806C5.00199 12.5121 4.31272 13.8401 3.93504 15.2693C3.55736 16.6986 3.50061 18.1937 3.76888 19.6475L3.89551 20.3356L5.05934 20.1154L4.93271 19.4273V19.4372ZM22.3494 7.64582C22.1354 8.92878 21.6392 10.1482 20.8966 11.216C20.154 12.2839 19.1835 13.1735 18.0553 13.8206L18.641 14.8545C19.9204 14.1211 21.0213 13.1132 21.8643 11.9032C22.7074 10.6933 23.2717 9.31145 23.5166 7.85723L23.6267 7.16796L22.4595 6.96977L22.3439 7.65904L22.3494 7.64582ZM2.8583 16.3355C3.07228 15.0525 3.56849 13.8331 4.31111 12.7652C5.05372 11.6974 6.0242 10.8078 7.15247 10.1607L6.5667 9.12676C5.28586 9.86165 4.18412 10.8717 3.34099 12.084C2.49786 13.2964 1.93437 14.6807 1.69117 16.1373L1.58106 16.8265L2.74819 17.0247L2.8583 16.3355ZM23.2358 11.2331C22.6026 12.367 21.7247 13.3457 20.666 14.0978C19.6072 14.8499 18.3941 15.3567 17.1149 15.5812L17.3175 16.7539C18.7694 16.4992 20.1463 15.9243 21.3482 15.0711C22.5502 14.2179 23.547 13.1077 24.2664 11.8211L24.6077 11.2122L23.576 10.6286L23.2358 11.2375V11.2331ZM1.97194 12.7625C2.60547 11.6288 3.48345 10.6505 4.54217 9.89839C5.60088 9.1463 6.81376 8.63936 8.09278 8.41437L7.89018 7.24173C6.43799 7.49705 5.0609 8.07262 3.85893 8.92662C2.65697 9.78063 1.6603 10.8916 0.941338 12.1789L0.600006 12.7878L1.63171 13.3714L1.97194 12.7625ZM22.8163 15.0648C21.824 15.9002 20.6578 16.5035 19.4026 16.8306C18.1474 17.1576 16.8351 17.2003 15.5613 16.9554L15.3411 18.1236C16.7873 18.4016 18.2772 18.3532 19.7023 17.9819C21.1274 17.6106 22.4515 16.9259 23.5782 15.9776L24.1111 15.5284L23.3525 14.6156L22.8185 15.0648H22.8163ZM2.39365 8.93187C3.38576 8.09626 4.55202 7.49287 5.80722 7.16578C7.06243 6.83869 8.37485 6.79618 9.64859 7.04134L9.86881 5.8731C8.42334 5.59556 6.93415 5.6442 5.50987 6.01546C4.0856 6.38672 2.76216 7.07124 1.63611 8.01909L1.1032 8.46832L1.86293 9.38001L2.39585 8.93187H2.39365ZM21.1724 18.3768C19.9547 18.8227 18.6527 18.9908 17.3617 18.8688C16.0706 18.7469 14.8232 18.3381 13.7104 17.6722L13.1059 18.694C14.369 19.4505 15.7853 19.9151 17.251 20.0538C18.7168 20.1925 20.195 20.0017 21.5776 19.4955L22.2305 19.2555L21.8253 18.1379L21.1724 18.3768ZM4.03865 5.61986C5.25638 5.1738 6.55844 5.00569 7.84954 5.12781C9.14063 5.24992 10.3881 5.65919 11.5006 6.32564L12.1051 5.30275C10.8418 4.54662 9.42557 4.08234 7.95985 3.94384C6.49412 3.80535 5.01597 3.99614 3.63345 4.50227L2.98052 4.7412L3.38571 5.85879L4.03865 5.61986ZM18.4715 20.9346C17.1755 20.9339 15.896 20.6443 14.726 20.087C13.5559 19.5297 12.5248 18.7187 11.7076 17.7129L10.7915 18.4671C11.7195 19.6091 12.8903 20.5299 14.2187 21.1626C15.5472 21.7953 17 22.1241 18.4715 22.1249H19.1706V20.9346H18.4715Z" fill="#FF0008"/>
<path d="M58.9019 6.44771H60.559V17.8548H58.9019V6.44771ZM34.1902 11.0986C32.8466 10.6483 31.6217 10.2882 31.6217 9.16185C31.6217 8.24686 32.3837 7.55649 33.5778 7.55649C34.6235 7.55649 35.3998 7.99141 35.9221 8.8018L37.3405 7.75138C36.4455 6.71527 35.3404 6.0249 33.5635 6.0249C31.4127 6.0249 29.8305 7.43647 29.8305 9.20699C29.8305 11.3541 31.548 11.9839 33.1149 12.4948C34.4585 12.9297 35.7428 13.3052 35.7428 14.5053C35.7428 15.5414 34.9215 16.3772 33.6383 16.3772C32.4584 16.3772 31.5326 15.7925 30.8454 14.6815L29.306 15.8817C30.2956 17.1578 31.6502 18.0133 33.6504 18.0133C36.0694 18.0133 37.5329 16.3023 37.5329 14.5163C37.5329 12.3252 35.8011 11.6348 34.1881 11.0942L34.1902 11.0986ZM45.2387 9.74652C47.2388 9.76193 48.9113 11.0524 48.9266 13.2138V17.8669H47.1959V13.6641C47.1959 12.5631 46.6582 11.3673 45.2695 11.3673C44.0303 11.3673 43.2386 12.268 43.2386 13.6641V17.8669H41.52V13.4725C41.476 12.1215 42.282 9.70468 45.2387 9.74982V9.74652ZM62.7669 7.36931C62.9481 7.36844 63.1254 7.42145 63.2765 7.52163C63.4275 7.62181 63.5455 7.76464 63.6153 7.93202C63.6852 8.0994 63.7039 8.28378 63.669 8.46181C63.6341 8.63983 63.5472 8.80347 63.4194 8.93199C63.2915 9.0605 63.1284 9.1481 62.9507 9.18368C62.7731 9.21926 62.5889 9.20123 62.4215 9.13185C62.2541 9.06248 62.111 8.94489 62.0104 8.794C61.9098 8.64311 61.8563 8.46572 61.8565 8.2843C61.8411 7.74477 62.2292 7.36931 62.7669 7.36931ZM61.9312 10.0559H63.6026V17.8614H61.9301L61.9312 10.0559ZM39.5341 7.40344C39.7153 7.40257 39.8927 7.45558 40.0437 7.55576C40.1948 7.65594 40.3127 7.79877 40.3826 7.96615C40.4525 8.13353 40.4712 8.31792 40.4363 8.49594C40.4014 8.67396 40.3145 8.83761 40.1866 8.96612C40.0587 9.09464 39.8956 9.18223 39.718 9.21782C39.5403 9.2534 39.3561 9.23536 39.1887 9.16598C39.0213 9.09661 38.8782 8.97902 38.7777 8.82814C38.6771 8.67725 38.6235 8.49985 38.6237 8.31843C38.6094 7.7778 38.9976 7.40344 39.5341 7.40344ZM38.6831 10.09H40.3555V17.8944H38.6831V10.09ZM64.59 10.0658H65.904V9.66063C65.904 7.22947 66.6506 6.47854 69.085 6.47854H69.2192V8.02554C67.7402 8.02554 67.5764 8.27989 67.5764 9.67715V10.0669H69.2192V11.5677H67.5764V17.8768H65.904V11.5677H64.59V10.0658ZM69.4567 13.8601C69.4567 11.5644 71.216 9.76303 73.4877 9.76303C75.788 9.76303 77.4747 11.4289 77.4747 13.7401V14.4007H71.039C71.2589 15.602 72.1891 16.397 73.5328 16.397C74.5928 16.397 75.402 15.8464 75.8023 14.9865L77.1756 15.7517C76.4895 17.0279 75.2646 17.868 73.5471 17.868C71.0983 17.8834 69.4556 16.1272 69.4556 13.8601H69.4567ZM71.1423 12.9903H75.8012C75.5472 11.8639 74.7016 11.2286 73.502 11.2286C72.9693 11.2188 72.4485 11.3866 72.0214 11.7054C71.5943 12.0243 71.285 12.4763 71.1423 12.9903ZM53.8835 9.7289C51.6591 9.7289 49.8371 11.5897 49.8371 13.8711C49.8371 16.1525 51.6591 18.0144 53.8835 18.0144C54.7132 18.0148 55.5204 17.7442 56.1827 17.2437V18.1444C56.1827 19.4954 55.1524 20.3806 53.8384 20.3806C52.6289 20.3806 51.8823 19.8301 51.4798 18.9548L49.9119 19.7057C50.5089 20.9961 51.8526 21.942 53.8384 21.942C56.1684 21.942 57.7969 20.5909 57.7969 18.01L57.8111 13.8073C57.7672 11.495 56.065 9.72449 53.8846 9.72449L53.8835 9.7289ZM53.8846 16.3739C52.5409 16.3739 51.4513 15.2475 51.4513 13.8667C51.4513 12.486 52.5409 11.3607 53.8846 11.3607C55.1986 11.3607 56.1838 12.4408 56.1838 13.8667C56.1838 15.2926 55.1942 16.3739 53.8846 16.3739Z" fill="#FF0008"/>
</g>
<defs>
<clipPath id="clip0_1407_5534">
<rect width="77.4" height="24" fill="white" transform="translate(0.600006)"/>
</clipPath>
</defs>
</svg>
