<svg width="355" height="48" viewBox="0 0 355 48" fill="none" xmlns="http://www.w3.org/2000/svg">
<path d="M12.2747 6.13296H10.8808V3.75244H12.2813C15.2237 3.75534 18.1285 4.41335 20.785 5.67871C23.4414 6.94407 25.7827 8.78502 27.639 11.0679L25.8069 12.5764C24.1728 10.5648 22.111 8.94278 19.7713 7.82817C17.4316 6.71357 14.8729 6.13446 12.2813 6.13296H12.2747ZM35.7429 41.8692C33.151 41.8678 30.592 41.2887 28.2519 40.1741C25.9119 39.0595 23.8496 37.4374 22.2152 35.4258L20.383 36.9343C22.2389 39.2182 24.5805 41.0598 27.2375 42.3252C29.8944 43.5907 32.8 44.2481 35.7429 44.2498H37.1413V41.8692H35.7429ZM18.9406 3.17989C21.3852 4.06291 23.6028 5.47852 25.4329 7.3242C27.2629 9.16989 28.6596 11.3995 29.5219 13.8514L31.7526 13.0565C30.7735 10.273 29.1874 7.74214 27.1094 5.64732C25.0313 3.5525 22.5133 1.94618 19.7378 0.944717L18.4297 0.47346L17.6303 2.71303L18.9406 3.18429V3.17989ZM29.0704 44.8179C26.6255 43.935 24.4075 42.5195 22.5771 40.6738C20.7466 38.8281 19.3495 36.5985 18.4869 34.1464L16.2562 34.9413C17.2357 37.7246 18.8219 40.2552 20.8999 42.35C22.9779 44.4447 25.4957 46.0512 28.271 47.0531L29.5813 47.5243L30.3785 45.2848L29.0704 44.8135V44.8179ZM26.4719 2.72184C28.4572 4.40531 30.0447 6.50778 31.1204 8.87805C32.196 11.2483 32.7331 13.8275 32.6929 16.4302L35.0602 16.4654C35.105 13.5103 34.4947 10.5821 33.2733 7.89089C32.0518 5.19973 30.2495 2.81249 27.9958 0.900675L26.9321 0L25.4149 1.81016L26.4719 2.72184ZM21.5435 45.2848C19.5574 43.6006 17.9693 41.4971 16.8936 39.1256C15.8179 36.7541 15.2813 34.1736 15.3225 31.5699L12.9552 31.5346C12.9099 34.4897 13.52 37.4182 14.7415 40.1094C15.963 42.8006 17.7656 45.1878 20.0196 47.0993L21.0833 48L22.6071 46.181L21.5435 45.2804V45.2848ZM33.2391 4.67514C34.5704 6.91514 35.3895 9.42197 35.6377 12.0159C35.886 14.6098 35.5572 17.2265 34.6749 19.6783L36.9012 20.4887C37.9019 17.7055 38.2745 14.7355 37.9924 11.7914C37.7103 8.84729 36.7804 6.00204 35.2694 3.45956L34.556 2.25939L32.5256 3.47938L33.2391 4.67954V4.67514ZM14.7763 43.3138C13.4457 41.0744 12.6269 38.5683 12.3787 35.9753C12.1305 33.3822 12.4589 30.7663 13.3406 28.3151L11.1142 27.5047C10.1135 30.2879 9.74091 33.2579 10.023 36.202C10.3051 39.1461 11.235 41.9913 12.746 44.5338L13.4595 45.734L15.4898 44.514L14.7763 43.3138V43.3138ZM39.35 9.11905C39.8239 11.6802 39.7247 14.3146 39.0595 16.8329C38.3943 19.3512 37.1797 21.6909 35.5029 23.684L37.3108 25.2255C39.2136 22.9621 40.5919 20.3057 41.3469 17.4468C42.1019 14.5879 42.2148 11.5974 41.6777 8.68964L41.4244 7.3155L39.0968 7.75593L39.35 9.13007V9.11905ZM8.66541 38.8743C8.19083 36.3121 8.28968 33.6766 8.95486 31.1571C9.62004 28.6377 10.835 26.2968 12.5125 24.3028L10.7068 22.7613C8.80396 25.0242 7.42543 27.6802 6.67006 30.5387C5.9147 33.3972 5.80121 36.3874 6.33775 39.2949L6.591 40.6713L8.91866 40.2309L8.66541 38.8545V38.8743ZM43.4988 15.2916C43.0709 17.8576 42.0785 20.2964 40.5932 22.4321C39.108 24.5678 37.167 26.347 34.9105 27.6412L36.082 29.709C38.6408 28.2423 40.8425 26.2263 42.5287 23.8064C44.2148 21.3866 45.3433 18.6229 45.8331 15.7145L46.0533 14.3359L43.719 13.9395L43.4878 15.3181L43.4988 15.2916ZM4.51659 32.6709C4.94454 30.105 5.93697 27.6662 7.4222 25.5305C8.90743 23.3948 10.8484 21.6156 13.1049 20.3213L11.9334 18.2535C9.3717 19.7233 7.16823 21.7434 5.48197 24.1681C3.79571 26.5927 2.66872 29.3615 2.18232 32.2745L1.96211 33.6531L4.29637 34.0495L4.51659 32.6709V32.6709ZM45.2716 22.4662C44.0052 24.7341 42.2495 26.6913 40.1319 28.1956C38.0144 29.6998 35.5882 30.7134 33.0299 31.1625L33.4351 33.5077C36.3388 32.9984 39.0926 31.8487 41.4965 30.1422C43.9004 28.4357 45.8941 26.2153 47.3328 23.6422L48.0154 22.4244L45.952 21.2572L45.2716 22.475V22.4662ZM2.74387 25.525C4.01093 23.2577 5.7669 21.301 7.88432 19.7968C10.0018 18.2926 12.4275 17.2787 14.9855 16.8287L14.5804 14.4835C11.676 14.9941 8.92179 16.1452 6.51785 17.8532C4.11392 19.5613 2.12059 21.7833 0.682664 24.3578L0 25.5756L2.0634 26.7428L2.74387 25.525ZM44.4325 30.1297C42.4481 31.8005 40.1155 33.007 37.6052 33.6611C35.0949 34.3153 32.4701 34.4006 29.9227 33.9107L29.4822 36.2472C32.3745 36.8032 35.3545 36.7063 38.2046 35.9638C41.0547 35.2213 43.7031 33.8518 45.9564 31.9552L47.0223 31.0568L45.505 29.2312L44.4369 30.1297H44.4325ZM3.58728 17.8637C5.5715 16.1925 7.90403 14.9857 10.4144 14.3316C12.9248 13.6774 15.5497 13.5924 18.0972 14.0827L18.5376 11.7462C15.6467 11.1911 12.6683 11.2884 9.81974 12.0309C6.97118 12.7734 4.32431 14.1425 2.07221 16.0382L1.00638 16.9366L2.52585 18.76L3.59169 17.8637H3.58728ZM41.1447 36.7537C38.7093 37.6453 36.1054 37.9815 33.5233 37.7377C30.9413 37.4938 28.4463 36.6761 26.2209 35.3443L25.0119 37.3879C27.538 38.901 30.3705 39.8302 33.302 40.1076C36.2336 40.3849 39.19 40.0035 41.9551 38.9911L43.261 38.511L42.4506 36.2758L41.1447 36.7537ZM6.87728 11.2397C9.31275 10.3476 11.9169 10.0114 14.4991 10.2556C17.0812 10.4998 19.5762 11.3184 21.8012 12.6513L23.0101 10.6055C20.4836 9.09324 17.6511 8.16468 14.7197 7.88769C11.7882 7.6107 8.83193 7.99228 6.06689 9.00454L4.76102 9.48241L5.57141 11.7176L6.87728 11.2397ZM35.7429 41.8692C33.151 41.8678 30.592 41.2887 28.2519 40.1741C25.9119 39.0595 23.8496 37.4374 22.2152 35.4258L20.383 36.9343C22.2389 39.2182 24.5805 41.0598 27.2375 42.3252C29.8944 43.5907 32.8 44.2481 35.7429 44.2498H37.1413V41.8692H35.7429Z" fill="#FF0008"/>
<path d="M116.604 12.8957H119.918V35.7099H116.604V12.8957ZM67.1804 22.1976C64.4931 21.2969 62.0432 20.5768 62.0432 18.324C62.0432 16.494 63.5672 15.1133 65.9555 15.1133C68.0469 15.1133 69.5995 15.9831 70.6441 17.6039L73.4809 15.5031C71.6908 13.4308 69.4807 12.0501 65.9269 12.0501C61.6254 12.0501 58.4609 14.8732 58.4609 18.4143C58.4609 22.7085 61.8959 23.9681 65.0297 24.9899C67.717 25.8597 70.2856 26.6106 70.2856 29.011C70.2856 31.0832 68.6429 32.7546 66.0765 32.7546C63.7168 32.7546 61.8651 31.5853 60.4907 29.3633L57.4119 31.7637C59.3911 34.3159 62.1004 36.027 66.1006 36.027C70.9387 36.027 73.8658 32.6049 73.8658 29.033C73.8658 24.6507 70.4022 23.27 67.176 22.1888L67.1804 22.1976ZM89.2773 19.4933C93.2776 19.5242 96.6224 22.1051 96.6532 26.4279V35.7341H93.1918V27.3285C93.1918 25.1264 92.1164 22.7349 89.3389 22.7349C86.8605 22.7349 85.2771 24.5362 85.2771 27.3285V35.7341H81.8399V26.9454C81.7519 24.2433 83.3639 19.4097 89.2773 19.4999V19.4933ZM124.334 14.7389C124.696 14.7372 125.051 14.8432 125.353 15.0436C125.655 15.2439 125.891 15.5296 126.031 15.8643C126.17 16.1991 126.208 16.5679 126.138 16.9239C126.068 17.28 125.894 17.6073 125.639 17.8643C125.383 18.1213 125.057 18.2965 124.701 18.3677C124.346 18.4388 123.978 18.4028 123.643 18.264C123.308 18.1253 123.022 17.8901 122.821 17.5883C122.62 17.2865 122.512 16.9317 122.513 16.5689C122.482 15.4899 123.258 14.7389 124.334 14.7389ZM122.662 20.1121H126.005V35.7231H122.66L122.662 20.1121ZM77.8682 14.8072C78.2306 14.8054 78.5853 14.9115 78.8873 15.1118C79.1894 15.3122 79.4253 15.5978 79.5651 15.9326C79.7049 16.2674 79.7422 16.6361 79.6724 16.9922C79.6027 17.3482 79.4289 17.6755 79.1731 17.9325C78.9174 18.1896 78.5912 18.3648 78.2359 18.4359C77.8806 18.5071 77.5122 18.471 77.1773 18.3323C76.8425 18.1935 76.5564 17.9584 76.3552 17.6566C76.1541 17.3548 76.0469 17 76.0473 16.6372C76.0187 15.5559 76.795 14.8072 77.8682 14.8072ZM76.1661 20.1804H79.511V35.7892H76.1661V20.1804ZM127.98 20.132H130.608V19.3216C130.608 14.4592 132.101 12.9574 136.97 12.9574H137.238V16.0514C134.28 16.0514 133.953 16.5601 133.953 19.3546V20.1342H137.238V23.1357H133.953V35.7539H130.608V23.1357H127.98V20.132ZM137.713 27.7205C137.713 23.1291 141.232 19.5264 145.775 19.5264C150.376 19.5264 153.749 22.8582 153.749 27.4805V28.8018H140.878C141.318 31.2043 143.178 32.7943 145.865 32.7943C147.985 32.7943 149.604 31.6932 150.404 29.9733L153.151 31.5038C151.779 34.0561 149.329 35.7363 145.894 35.7363C140.997 35.7671 137.711 32.2547 137.711 27.7205H137.713ZM141.085 25.9808H150.402C149.894 23.728 148.203 22.4574 145.804 22.4574C144.739 22.4379 143.697 22.7734 142.843 23.4112C141.988 24.049 141.37 24.9529 141.085 25.9808ZM106.567 19.4581C102.118 19.4581 98.4741 23.1797 98.4741 27.7425C98.4741 32.3054 102.118 36.0292 106.567 36.0292C108.226 36.03 109.841 35.4888 111.165 34.4877V36.289C111.165 38.9911 109.105 40.7616 106.477 40.7616C104.058 40.7616 102.565 39.6605 101.76 37.9098L98.6237 39.4117C99.8178 41.9926 102.505 43.8842 106.477 43.8842C111.137 43.8842 114.394 41.1822 114.394 36.0204L114.422 27.6148C114.334 22.9903 110.93 19.4493 106.569 19.4493L106.567 19.4581ZM106.569 32.748C103.882 32.748 101.702 30.4952 101.702 27.7337C101.702 24.9723 103.882 22.7217 106.569 22.7217C109.197 22.7217 111.168 24.882 111.168 27.7337C111.168 30.5855 109.188 32.748 106.569 32.748Z" fill="#FF0008"/>
<path fill-rule="evenodd" clip-rule="evenodd" d="M190.8 22.9393L196.27 17.4697L197.33 18.5303L191.861 24L197.33 29.4697L196.27 30.5303L190.8 25.0607L185.33 30.5303L184.27 29.4697L189.739 24L184.27 18.5303L185.33 17.4697L190.8 22.9393Z" fill="black"/>
<g clip-path="url(#clip0_1407_577)">
<rect width="128" height="32" transform="translate(226.8 8)" fill="none"/>
<path d="M227.402 18.7474C227.717 18.6616 228.167 18.5759 228.752 18.4904C229.384 18.4014 230.022 18.3584 230.661 18.3617C232.089 18.3617 233.117 18.5974 233.746 19.0687C234.374 19.5401 234.688 20.4471 234.688 21.7898V39.2283C234.374 39.3138 233.924 39.3995 233.339 39.4853C232.706 39.5745 232.069 39.6175 231.43 39.614C230.002 39.614 228.973 39.3783 228.345 38.907C227.717 38.4356 227.403 37.5287 227.402 36.1863V18.7474ZM257.652 39.2283C257.338 39.3138 256.888 39.3995 256.303 39.4853C255.671 39.5745 255.033 39.6175 254.394 39.614C252.966 39.614 251.937 39.3783 251.309 38.907C250.681 38.4356 250.367 37.5287 250.367 36.1863V26.0745C250.367 25.1893 250.103 24.5393 249.575 24.1248C249.046 23.7103 248.354 23.5032 247.496 23.5034C246.953 23.4998 246.413 23.5719 245.89 23.7178C245.395 23.8588 244.915 24.0453 244.456 24.2748V39.2283C244.141 39.3138 243.691 39.3995 243.106 39.4853C242.474 39.5745 241.836 39.6175 241.198 39.614C239.769 39.614 238.74 39.3783 238.112 38.907C237.485 38.4356 237.17 37.5287 237.17 36.1863V23.2891C237.17 22.518 237.334 21.8897 237.662 21.4041C237.991 20.9186 238.441 20.4758 239.013 20.0758C239.983 19.3902 241.204 18.8403 242.676 18.426C244.147 18.0118 245.783 17.8047 247.582 17.8047C250.81 17.8047 253.295 18.5117 255.038 19.9257C256.781 21.3398 257.652 23.3179 257.652 25.8602L257.652 39.2283ZM275.991 18.0191C276.991 18.0191 277.834 18.2333 278.521 18.6617C279.208 19.0902 279.551 19.8328 279.55 20.8897C279.55 21.3469 279.45 22.011 279.25 22.8821C279.05 23.7532 278.778 24.7388 278.436 25.8389C278.093 26.9387 277.707 28.1027 277.279 29.3309C276.85 30.5591 276.407 31.7517 275.951 32.9086C275.493 34.0652 275.036 35.1507 274.579 36.165C274.123 37.1793 273.723 38.0005 273.381 38.6287C272.981 38.9435 272.395 39.2005 271.624 39.3996C270.853 39.5987 269.981 39.6988 269.008 39.6996C267.894 39.6996 266.93 39.5569 266.116 39.2714C265.302 38.9858 264.738 38.5288 264.423 37.9004C264.166 37.4148 263.859 36.7435 263.502 35.8863C263.145 35.0291 262.766 34.0578 262.366 32.9725C261.966 31.8875 261.551 30.745 261.123 29.5448C260.695 28.3447 260.288 27.1451 259.902 25.9458C259.517 24.746 259.167 23.5891 258.852 22.4751C258.537 21.3611 258.28 20.3756 258.081 19.5188C258.481 19.1181 259.017 18.7682 259.688 18.4691C260.359 18.17 261.094 18.0199 261.895 18.0191C262.894 18.0191 263.715 18.2262 264.358 18.6404C265.001 19.0547 265.48 19.833 265.794 20.9754L267.465 27.5312C267.778 28.8165 268.078 29.9805 268.364 31.0232C268.65 32.0659 268.865 32.8728 269.008 33.4439H269.223C269.764 31.3304 270.335 28.9886 270.935 26.4185C271.535 23.8484 272.078 21.3204 272.564 18.8344C273.086 18.5643 273.64 18.3628 274.213 18.2348C274.796 18.0951 275.393 18.0227 275.991 18.0191ZM286.704 31.7303C287.104 32.7588 287.775 33.48 288.717 33.8939C289.66 34.3079 290.717 34.515 291.888 34.5153C293.046 34.5208 294.199 34.3694 295.316 34.0652C296.401 33.7652 297.273 33.4153 297.929 33.0156C298.386 33.3014 298.772 33.7009 299.087 34.2139C299.393 34.7019 299.556 35.2661 299.558 35.8423C299.558 36.5566 299.358 37.1707 298.958 37.6847C298.558 38.1986 297.994 38.6277 297.266 38.9718C296.537 39.3144 295.673 39.5643 294.673 39.7214C293.581 39.885 292.478 39.9638 291.374 39.9571C289.688 39.9571 288.124 39.7215 286.682 39.2505C285.241 38.7794 283.991 38.0724 282.933 37.1294C281.876 36.1867 281.048 35.0013 280.448 33.573C279.847 32.1448 279.547 30.473 279.548 28.5578C279.548 26.6724 279.855 25.0514 280.469 23.6947C281.083 22.3381 281.896 21.2239 282.91 20.3523C283.919 19.4847 285.093 18.8296 286.362 18.426C287.635 18.014 288.965 17.8043 290.304 17.8047C291.818 17.8047 293.196 18.0333 294.438 18.4904C295.681 18.9475 296.752 19.576 297.652 20.3758C298.547 21.1689 299.256 22.1489 299.73 23.2465C300.216 24.3605 300.458 25.5745 300.458 26.8885C300.458 27.8602 300.187 28.6029 299.644 29.1166C299.102 29.6302 298.344 29.9588 297.372 30.1023L286.704 31.7303ZM290.346 23.12C289.26 23.12 288.353 23.4486 287.625 24.1057C286.898 24.7629 286.462 25.6905 286.318 26.8885L293.602 25.6902C293.567 25.3848 293.48 25.0877 293.345 24.8119C293.194 24.5011 292.991 24.2184 292.745 23.9761C292.488 23.719 292.159 23.5119 291.759 23.3548C291.359 23.1976 290.888 23.1186 290.346 23.1178V23.12ZM319.396 33.0617C319.396 35.2324 318.582 36.9319 316.955 38.1604C315.327 39.389 312.927 40.002 309.755 39.9997C308.636 40.006 307.518 39.92 306.413 39.7427C305.385 39.5714 304.506 39.3072 303.778 38.95C303.05 38.5929 302.479 38.143 302.064 37.6003C301.65 37.058 301.443 36.4152 301.443 35.6719C301.443 34.9866 301.586 34.4083 301.872 33.937C302.14 33.485 302.488 33.0857 302.9 32.7586C303.728 33.2157 304.678 33.6227 305.749 33.9796C306.82 34.3364 308.056 34.515 309.455 34.5153C310.34 34.5153 311.019 34.3867 311.491 34.1296C311.963 33.8725 312.198 33.5297 312.198 33.1012C312.198 32.7012 312.026 32.387 311.683 32.1586C311.34 31.9301 310.769 31.7445 309.97 31.6015L308.683 31.3446C306.197 30.859 304.348 30.0949 303.135 29.0522C301.922 28.0095 301.315 26.517 301.315 24.5748C301.315 23.5182 301.543 22.5612 302 21.7037C302.46 20.8439 303.122 20.1087 303.929 19.5614C304.757 18.9906 305.75 18.5479 306.906 18.2334C308.063 17.9189 309.341 17.7618 310.741 17.7621C311.739 17.7575 312.735 17.8364 313.719 17.9977C314.647 18.1549 315.454 18.3905 316.14 18.7048C316.826 19.019 317.368 19.426 317.768 19.9257C318.168 20.4261 318.368 21.0187 318.368 21.7037C318.368 22.3615 318.247 22.9257 318.004 23.3965C317.778 23.8463 317.464 24.2468 317.082 24.5748C316.853 24.4319 316.511 24.2819 316.054 24.1248C315.598 23.9677 315.098 23.8249 314.554 23.6965C314.011 23.5678 313.462 23.4607 312.905 23.3752C312.402 23.2937 311.894 23.2507 311.384 23.2465C310.441 23.2465 309.713 23.3536 309.199 23.5678C308.684 23.782 308.427 24.1177 308.427 24.5748C308.427 24.8897 308.57 25.1466 308.856 25.3458C309.142 25.5449 309.685 25.7306 310.484 25.9028L311.812 26.2028C314.554 26.8316 316.504 27.6957 317.661 28.7952C318.818 29.8947 319.397 31.3159 319.396 33.0586V33.0617ZM344.204 17.8078C345.746 17.8078 347.153 17.9649 348.424 18.2791C349.695 18.5934 350.78 19.0718 351.68 19.7145C352.566 20.3414 353.281 21.1807 353.758 22.1555C354.244 23.1408 354.487 24.3049 354.487 25.6476V35.2436C354.487 35.9866 354.279 36.5931 353.865 37.0633C353.439 37.5446 352.94 37.9565 352.387 38.2843C350.53 39.3983 347.917 39.9553 344.548 39.9553C343.034 39.9553 341.67 39.8125 340.456 39.527C339.243 39.2415 338.2 38.8124 337.328 38.2399C336.481 37.6954 335.788 36.943 335.315 36.0545C334.842 35.1716 334.606 34.1442 334.606 32.9725C334.606 31.0019 335.192 29.488 336.363 28.4308C337.534 27.3736 339.348 26.7166 341.805 26.4598L347.417 25.8602V25.5601C347.417 24.7317 347.053 24.139 346.325 23.7822C345.597 23.4253 344.546 23.2468 343.174 23.2465C342.114 23.2467 341.058 23.3616 340.023 23.5891C338.98 23.8181 338.044 24.1038 337.216 24.4461C336.845 24.189 336.531 23.7962 336.274 23.2678C336.02 22.7548 335.888 22.1903 335.888 21.6181C335.888 20.876 336.067 20.2833 336.424 19.8401C336.781 19.3968 337.331 19.0184 338.073 18.7048C338.902 18.3905 339.88 18.162 341.008 18.0191C342.068 17.8808 343.135 17.8092 344.204 17.8047V17.8078ZM344.546 34.6467C345.085 34.6421 345.622 34.5921 346.153 34.4971C346.738 34.3974 347.174 34.2616 347.46 34.0897V30.6589L344.375 30.9163C343.576 30.9734 342.919 31.1447 342.404 31.4302C341.889 31.7158 341.632 32.1448 341.633 32.7173C341.633 33.289 341.855 33.7532 342.299 34.1101C342.742 34.4669 343.492 34.6447 344.548 34.6435L344.546 34.6467ZM333.099 33.9259C332.714 34.0461 332.319 34.1352 331.919 34.1922C331.494 34.2643 331.063 34.2984 330.632 34.2938C329.796 34.2938 329.136 34.1411 328.679 33.8362C328.223 33.5313 327.985 33.0178 327.985 32.2952V25.2495L331.796 24.7018C332.519 24.5606 333.101 24.4874 333.547 24.0582C333.976 23.6233 334.303 22.8666 334.303 21.8897C334.31 21.371 334.233 20.8546 334.078 20.3598C333.925 19.9022 333.648 19.2059 333.479 18.8916L327.985 19.8006V16.5708C327.985 15.1763 327.642 14.2653 326.957 13.8377C326.274 13.3939 325.325 13.1773 324.095 13.1773C323.483 13.1744 322.873 13.2254 322.27 13.3296C321.689 13.4312 321.26 13.516 320.944 13.5959V32.7821C320.944 35.3062 321.615 37.1135 322.941 38.231C324.257 39.3548 326.16 39.914 328.616 39.914C330.632 39.914 332.038 39.5692 332.823 38.903C333.619 38.231 334.025 37.3673 334.025 36.3057C334.025 35.7731 333.936 35.3177 333.743 34.9507C333.576 34.5806 333.359 34.2349 333.099 33.9228V33.9259ZM229.348 12.3456L227.385 14.3845C227.092 13.8882 226.905 13.3374 226.833 12.7659C226.54 10.4429 228.214 8.30364 230.54 8.02935C231.284 7.94125 232.039 8.05232 232.726 8.3512C233.413 8.65009 234.009 9.12608 234.452 9.73055L231.471 12.7117C231.387 12.796 231.276 12.849 231.158 12.862C231.039 12.875 230.92 12.8472 230.819 12.7832L230.006 12.267C229.904 12.2023 229.783 12.1747 229.663 12.189C229.543 12.2033 229.432 12.2586 229.348 12.3456ZM235.239 11.7167C235.52 13.9944 233.912 16.1013 231.64 16.4279C230.961 16.5264 230.268 16.4582 229.621 16.2291C228.974 16 228.393 15.6169 227.927 15.1129L229.485 13.4947C229.569 13.4074 229.68 13.3518 229.8 13.3371C229.92 13.3225 230.042 13.3498 230.144 13.4143L230.943 13.9234C231.043 13.9874 231.163 14.0152 231.281 14.0022C231.4 13.9892 231.51 13.9362 231.594 13.8519L234.914 10.5339C235.079 10.9102 235.189 11.3087 235.239 11.7167Z" fill="url(#paint0_linear_1407_577)"/>
</g>
<defs>
<linearGradient id="paint0_linear_1407_577" x1="225.744" y1="23.9996" x2="383.366" y2="23.9996" gradientUnits="userSpaceOnUse">
<stop stop-color="#0D8CFF"/>
<stop offset="0.09" stop-color="#0B94FE"/>
<stop offset="0.42" stop-color="#05ABFB"/>
<stop offset="0.73" stop-color="#01B9F9"/>
<stop offset="1" stop-color="#00BEF8"/>
</linearGradient>
<clipPath id="clip0_1407_577">
<rect width="128" height="32" fill="white" transform="translate(226.8 8)"/>
</clipPath>
</defs>
</svg>
