<svg width="125" height="124" viewBox="0 0 125 124" fill="none" xmlns="http://www.w3.org/2000/svg">
<path d="M62.3062 124C96.5478 124 124.306 96.2417 124.306 62C124.306 27.7583 96.5478 0 62.3062 0C28.0645 0 0.306152 27.7583 0.306152 62C0.306152 96.2417 28.0645 124 62.3062 124Z" fill="#FFE7E8"/>
<path d="M6.74876 56.0151C6.72488 56.0151 6.70123 56.0198 6.67916 56.0289C6.6571 56.0381 6.63705 56.0515 6.62016 56.0684C6.60328 56.0853 6.58988 56.1053 6.58074 56.1274C6.5716 56.1494 6.56689 56.1731 6.56689 56.1969C6.56688 56.1461 6.58678 56.0974 6.62233 56.0611C6.65787 56.0247 6.70623 56.0038 6.75703 56.0027" fill="#73CAC4"/>
<path d="M6.74623 56.0416H6.71316H6.74623C6.71377 56.0424 6.68221 56.0524 6.65529 56.0706C6.63286 56.099 6.61986 56.1336 6.6181 56.1698C6.61801 56.1404 6.62664 56.1116 6.6429 56.0871C6.61663 56.1152 6.60187 56.1521 6.60156 56.1905C6.60161 56.1575 6.61201 56.1254 6.6313 56.0987C6.65058 56.072 6.67778 56.052 6.70903 56.0416C6.72671 56.0376 6.74508 56.0376 6.76276 56.0416H6.74623Z" fill="#73CAC4"/>
<path d="M6.73883 56.0892C6.71214 56.0892 6.68654 56.0999 6.66766 56.1187C6.64879 56.1376 6.63818 56.1632 6.63818 56.1899C6.63817 56.1618 6.64905 56.1348 6.66855 56.1146C6.68805 56.0944 6.71463 56.0825 6.7427 56.0815" fill="#73CAC4"/>
<path fill-rule="evenodd" clip-rule="evenodd" d="M89.0648 100.437V100.338C89.0648 100.304 89.0648 100.275 89.0648 100.246C89.0648 100.217 89.0648 100.182 89.0648 100.147L89.1112 91.9823L17.306 91.5596L17.2539 100.014C17.7172 104.068 33.578 107.409 53.0928 107.542C72.6075 107.675 88.532 104.484 89.0648 100.437Z" fill="#F5F5F5"/>
<path d="M89.1674 92.5916C89.192 88.4533 73.1432 85.0031 53.3215 84.8855C33.4999 84.7679 17.4113 88.0273 17.3868 92.1656C17.3622 96.304 33.4109 99.754 53.2326 99.8717C73.0543 99.9893 89.1428 96.7299 89.1674 92.5916Z" fill="#F5F5F5"/>
<path d="M86.8528 92.3513C86.8728 88.9837 71.8573 86.1645 53.3149 86.0545C34.7724 85.9445 19.7246 88.5852 19.7046 91.9528C19.6847 95.3204 34.7001 98.1395 53.2425 98.2495C71.785 98.3596 86.8328 95.7189 86.8528 92.3513Z" fill="#E5E5E5"/>
<path fill-rule="evenodd" clip-rule="evenodd" d="M89.0648 89.4939V89.3955C89.0648 89.3607 89.0648 89.3318 89.0648 89.3028C89.0648 89.2738 89.0648 89.2391 89.0648 89.2044L89.1112 81.0394L17.3061 80.6167L17.2598 89.0943C17.723 93.1479 33.5838 96.4891 53.0986 96.6223C72.6134 96.7555 88.5321 93.5358 89.0648 89.4939Z" fill="#F5F5F5"/>
<path d="M89.1674 81.6443C89.192 77.506 73.1432 74.0559 53.3215 73.9383C33.4999 73.8206 17.4113 77.0801 17.3868 81.2184C17.3622 85.3567 33.4109 88.8068 53.2326 88.9244C73.0543 89.042 89.1429 85.7827 89.1674 81.6443Z" fill="#F5F5F5"/>
<path d="M86.8533 81.404C86.8732 78.0364 71.8578 75.2173 53.3154 75.1072C34.7729 74.9972 19.7251 77.638 19.7051 81.0055C19.6851 84.3731 34.7006 87.1922 53.243 87.3023C71.7855 87.4123 86.8333 84.7716 86.8533 81.404Z" fill="#E5E5E5"/>
<path fill-rule="evenodd" clip-rule="evenodd" d="M89.0648 78.1538V78.0553C89.0648 78.0206 89.0648 77.9917 89.0648 77.9627C89.0648 77.9338 89.0648 77.899 89.0648 77.8642L89.1112 69.6993L17.3061 69.2766L17.2598 77.7311C17.723 81.7846 33.5838 85.1258 53.0986 85.259C72.6134 85.3922 88.5321 82.1957 89.0648 78.1538Z" fill="#F5F5F5"/>
<path d="M89.1674 70.304C89.192 66.1657 73.1433 62.7155 53.3216 62.5979C33.4999 62.4803 17.4113 65.7397 17.3868 69.8781C17.3622 74.0164 33.411 77.4664 53.2326 77.5841C73.0543 77.7017 89.1429 74.4423 89.1674 70.304Z" fill="#F5F5F5"/>
<path d="M86.8533 70.063C86.8732 66.6954 71.8578 63.8762 53.3154 63.7662C34.7729 63.6561 19.7251 66.2969 19.7051 69.6645C19.6851 73.0321 34.7006 75.8512 53.243 75.9612C71.7855 76.0712 86.8333 73.4305 86.8533 70.063Z" fill="#E5E5E5"/>
<path d="M58.1407 73.603L56.7857 72.7344C52.2284 72.7344 48.007 72.0743 46.1713 70.8988L44.1735 69.619L35.2094 70.4124L33.5591 69.3526L49.304 67.9571L48.0996 67.1811L50.7228 66.9495L51.9331 67.7254L54.1046 67.5286L52.8943 66.7584L55.5233 66.521L56.7278 67.2969L63.4971 66.7179L67.1453 69.0342C67.9154 69.5322 68.124 70.0186 67.8518 70.476C67.4697 71.1014 66.1725 71.6689 64.1863 72.0743L65.5412 72.9487L62.9181 73.1803L61.7599 72.4449C61.4125 72.4912 61.0535 72.5318 60.6828 72.5665L59.5884 72.636L60.7465 73.3714L58.1407 73.603ZM55.7781 68.5883L53.6008 68.7794L57.9438 71.5589L59.0383 71.4894C59.4089 71.4547 59.7621 71.4142 60.1154 71.3678L55.7781 68.5883ZM50.2074 70.4645C51.1224 71.0436 52.8653 71.42 54.9384 71.5473L50.9776 69.011L48.3139 69.2484L50.2074 70.4645ZM61.0651 68.1192L58.4013 68.3566L62.3564 70.893C62.7682 70.7888 63.1368 70.5579 63.4103 70.2328C63.5782 69.9549 63.4509 69.6538 62.9586 69.3295L61.0651 68.1192Z" fill="#F8FDFC"/>
<path fill-rule="evenodd" clip-rule="evenodd" d="M107.685 107.385L107.764 107.34L107.843 107.295L107.922 107.25L114.799 103.239L79.4541 43.0471L72.3398 47.193C69.1723 49.5894 74.254 64.4967 83.8639 80.8609C93.4737 97.2251 104.038 108.965 107.685 107.385Z" fill="#F5F5F5"/>
<path d="M114.306 103.533C117.776 101.504 112.707 86.3872 102.984 69.7697C93.2623 53.1522 82.5685 41.3265 79.0992 43.3563C75.6298 45.3861 80.6987 60.5026 90.4209 77.1201C100.143 93.7375 110.837 105.563 114.306 103.533Z" fill="#F5F5F5"/>
<path d="M113.358 101.481C116.181 99.8288 111.097 85.8881 102.002 70.3431C92.9075 54.798 83.2461 43.5353 80.4229 45.187C77.5997 46.8387 82.6838 60.7795 91.7785 76.3245C100.873 91.8696 110.535 103.132 113.358 101.481Z" fill="#E5E5E5"/>
<path d="M96.3225 66.2409L96.158 67.7946C98.1773 71.7208 99.4479 75.6471 99.2267 77.7729L99.0112 80.0614L103.64 87.4484L103.441 89.3386L95.2844 76.3202L95.1426 77.7L93.7813 75.5293L93.9288 74.1495L92.7943 72.3547L92.6525 73.7344L91.2911 71.5638L91.4329 70.184L87.9331 64.575L88.3699 60.4019C88.4663 59.5213 88.8009 59.1287 89.3228 59.168C90.0375 59.2184 91.0983 60.099 92.3348 61.6415L92.4994 60.0878L93.8607 62.2585L93.7189 63.5654C93.9117 63.8515 94.1046 64.1263 94.2861 64.446C94.4676 64.7657 94.6661 65.0742 94.8533 65.3659L94.9895 64.0534L96.3225 66.2409ZM92.9702 70.4701L94.1047 72.2705L94.6265 67.301C94.4563 67.0149 94.2691 66.6896 94.0593 66.3867C93.8494 66.0838 93.6792 65.7921 93.492 65.5061L92.9702 70.4701ZM97.0656 74.4748C97.1791 73.426 96.731 71.7545 95.9312 69.9092L95.449 74.4356L96.833 76.6399L97.0599 74.4748H97.0656ZM90.2248 66.1006L91.6372 68.2825L92.1137 63.7561C91.8437 63.4444 91.4799 63.2262 91.0756 63.1335C90.7523 63.1055 90.5424 63.3523 90.5084 63.9132L90.2759 66.0838" fill="#F8FDFC"/>
<path d="M21.8645 67.7923C21.7548 67.8128 21.6549 67.8688 21.5802 67.9517C21.5055 68.0346 21.4602 68.1398 21.4512 68.2511C21.3555 69.5015 20.9869 70.7158 20.3714 71.8084C19.7558 72.901 18.9082 73.8454 17.8883 74.5751C17.8026 74.6363 17.7372 74.7218 17.7004 74.8204C17.6636 74.9191 17.657 75.0265 17.6816 75.1289V75.1992C17.7028 75.3009 17.7532 75.3941 17.8266 75.4675C17.9 75.541 17.9933 75.5914 18.095 75.6126C19.3444 75.8298 20.5263 76.334 21.5477 77.0857C22.569 77.8374 23.4019 78.8159 23.9808 79.9443C24.036 80.051 24.1228 80.138 24.2293 80.1935C24.3359 80.249 24.457 80.2703 24.576 80.2543C24.6893 80.2165 24.7889 80.1461 24.8624 80.052C24.9359 79.9579 24.9801 79.8442 24.9893 79.7252C25.0716 78.507 25.4084 77.3195 25.9779 76.2395C26.5475 75.1595 27.3372 74.2109 28.296 73.455C28.3816 73.3927 28.4469 73.3064 28.4836 73.2072C28.5204 73.1079 28.527 72.9999 28.5027 72.8969L28.4448 72.62C28.4227 72.5188 28.372 72.426 28.2987 72.3528C28.2255 72.2795 28.1327 72.2288 28.0315 72.2067C26.8568 71.9466 25.751 71.4394 24.7875 70.7189C23.8239 69.9984 23.0248 69.0811 22.4432 68.0279C22.376 67.9412 22.2871 67.8738 22.1855 67.8325C22.0839 67.7911 21.9732 67.7772 21.8645 67.7923Z" fill="#FFD600"/>
<path d="M75.3992 75.6616C75.3423 75.6378 75.2788 75.6344 75.2197 75.652C75.1605 75.6696 75.1094 75.7072 75.0751 75.7582C74.6884 76.3186 74.1825 76.7878 73.5934 77.1328C73.0042 77.4778 72.346 77.6901 71.6652 77.7548C71.6072 77.7601 71.5521 77.7826 71.507 77.8193C71.4619 77.8561 71.429 77.9053 71.4124 77.9608V77.9995C71.3959 78.0537 71.3951 78.1114 71.41 78.166C71.4249 78.2207 71.4549 78.2701 71.4967 78.3087C72.0269 78.7506 72.4468 79.3086 72.7235 79.9389C73.0002 80.5691 73.1261 81.2544 73.0914 81.9412C73.0891 82.0069 73.1071 82.0718 73.143 82.127C73.179 82.1823 73.2311 82.2253 73.2924 82.2503C73.3562 82.2599 73.4215 82.2517 73.481 82.2267C73.5405 82.2017 73.5919 82.1608 73.6295 82.1086C73.9989 81.5647 74.4775 81.1026 75.0353 80.7512C75.5931 80.3999 76.218 80.1669 76.8708 80.0669C76.9286 80.0638 76.984 80.043 77.0293 80.0072C77.0746 79.9714 77.1075 79.9226 77.1236 79.8673L77.169 79.7191C77.1889 79.6653 77.1915 79.6066 77.1764 79.5513C77.1613 79.4959 77.1293 79.4465 77.0847 79.41C76.6019 78.9669 76.219 78.4275 75.9609 77.827C75.7028 77.2265 75.5755 76.5785 75.5872 75.9257C75.5835 75.8687 75.5639 75.8139 75.5308 75.7673C75.4976 75.7206 75.452 75.6841 75.3992 75.6616Z" fill="#FFD600"/>
<path d="M57.2236 97.9303C57.1873 97.915 57.1469 97.9128 57.1091 97.9241C57.0714 97.9354 57.0388 97.9596 57.017 97.9923C56.7704 98.3519 56.4479 98.653 56.0722 98.8744C55.6966 99.0958 55.2769 99.2321 54.8428 99.2736C54.8062 99.2781 54.7715 99.2928 54.743 99.3163C54.7144 99.3397 54.6931 99.3708 54.6816 99.4059V99.4307C54.6711 99.4655 54.6706 99.5025 54.6801 99.5376C54.6896 99.5726 54.7087 99.6043 54.7353 99.6291C55.0739 99.9125 55.3423 100.27 55.5194 100.675C55.6965 101.079 55.7776 101.519 55.7563 101.96C55.7526 102.002 55.7627 102.044 55.7851 102.08C55.8074 102.116 55.8409 102.144 55.8803 102.159C55.9207 102.166 55.9624 102.162 56.0005 102.147C56.0385 102.131 56.0714 102.105 56.0952 102.072C56.3328 101.719 56.6416 101.42 57.0019 101.195C57.3622 100.969 57.7658 100.822 58.1867 100.762C58.223 100.757 58.2572 100.743 58.2851 100.719C58.3131 100.696 58.3334 100.664 58.3438 100.629L58.3768 100.534C58.3878 100.5 58.3886 100.462 58.3791 100.427C58.3695 100.392 58.3501 100.36 58.3231 100.336C58.0134 100.053 57.7679 99.7071 57.6032 99.3214C57.4385 98.9356 57.3584 98.519 57.3683 98.0997C57.3624 98.0608 57.3457 98.0243 57.3202 97.9943C57.2946 97.9644 57.2612 97.9422 57.2236 97.9303Z" fill="#FFD600"/>
<path d="M84.3067 50.0188C84.2534 50.0316 84.2059 50.0616 84.1715 50.1042C84.1371 50.1468 84.1178 50.1996 84.1166 50.2544C84.117 50.8555 83.9863 51.4494 83.7335 51.9948C83.4808 52.5402 83.1122 53.0239 82.6534 53.4122C82.6139 53.4442 82.5852 53.4875 82.5712 53.5363C82.5572 53.5851 82.5584 53.637 82.5748 53.6851V53.7181C82.5891 53.7672 82.6174 53.811 82.6564 53.8441C82.6953 53.8772 82.7432 53.8981 82.7939 53.9041C83.3995 53.9612 83.9835 54.1582 84.5 54.4795C85.0164 54.8009 85.4512 55.2378 85.7699 55.7559C85.8003 55.805 85.8454 55.8434 85.8988 55.8657C85.9522 55.8879 86.0112 55.8929 86.0675 55.8799C86.1195 55.8565 86.1638 55.8188 86.1952 55.7713C86.2267 55.7237 86.244 55.6682 86.2452 55.6112C86.2384 55.0256 86.3548 54.4452 86.587 53.9075C86.8191 53.3699 87.1618 52.8871 87.5927 52.4905C87.6308 52.4575 87.6585 52.4142 87.6724 52.3658C87.6863 52.3174 87.6859 52.2659 87.6712 52.2177L87.6299 52.0855C87.6164 52.0367 87.5888 51.993 87.5506 51.9599C87.5123 51.9268 87.4652 51.9058 87.415 51.8995C86.8426 51.8206 86.2938 51.62 85.8054 51.3113C85.317 51.0026 84.9004 50.5929 84.5836 50.1097C84.5491 50.0721 84.5055 50.044 84.4571 50.028C84.4086 50.0121 84.3568 50.0089 84.3067 50.0188Z" fill="#FFD600"/>
<path d="M55.1548 20.311H25.8081V41.7713H55.1548V20.311Z" fill="black"/>
<path d="M55.1541 41.1677C55.1541 49.2732 40.4973 55.841 40.4973 55.841C40.4973 55.841 25.8198 49.2732 25.8198 41.1677C25.8198 39.2408 26.1994 37.3327 26.9368 35.5525C27.6742 33.7722 28.755 32.1546 30.1175 30.7921C31.4801 29.4296 33.0977 28.3487 34.8779 27.6113C36.6582 26.8739 38.5662 26.4944 40.4932 26.4944C42.4201 26.4944 44.3281 26.8739 46.1084 27.6113C47.8886 28.3487 49.5062 29.4296 50.8688 30.7921C52.2313 32.1546 53.3121 33.7722 54.0495 35.5525C54.7869 37.3327 55.1665 39.2408 55.1665 41.1677H55.1541Z" fill="black"/>
<path d="M52.8571 23.1047H28.2886V41.0847H52.8654L52.8571 23.1047Z" fill="#FF0008"/>
<path d="M52.8571 40.6187C52.8571 47.4056 40.5687 52.9195 40.5687 52.9195C40.5687 52.9195 28.2886 47.4056 28.2886 40.6187C28.2886 37.3596 29.5832 34.234 31.8878 31.9295C34.1923 29.625 37.3179 28.3303 40.577 28.3303C43.8361 28.3303 46.9617 29.625 49.2662 31.9295C51.5707 34.234 52.8654 37.3596 52.8654 40.6187H52.8571Z" fill="#FF0008"/>
<path d="M42.2138 23.1047L28.2886 28.7385V33.3223L49.3272 23.1047H42.2138Z" fill="#FF454B"/>
<path d="M52.8571 25.6023L28.2886 36.7995V40.6187L52.8654 29.4215L52.8571 25.6023Z" fill="#FF454B"/>
<path d="M42.5738 29.7014H38.4404V42.3453H42.5738V29.7014Z" fill="white"/>
<path d="M46.8156 38.1009V33.9675H34.1841V38.1009H46.8156Z" fill="white"/>
</svg>
