<svg width="1200" height="318" viewBox="0 0 1200 318" fill="none" xmlns="http://www.w3.org/2000/svg">
<path d="M855.79 184.007C845.098 183.588 833.022 202.221 841.218 218.615C833.933 228.195 834.406 232.986 835.918 238.031C837.43 243.077 853.058 256.701 873.24 245.317C893.421 233.933 874.496 219.598 872.475 216.319C870.453 213.041 875.443 184.827 855.79 184.007Z" fill="#E5E5E5"/>
<path d="M856.776 206.229H856.43C856.178 206.229 855.975 206.433 855.975 206.684V268.049C855.975 268.3 856.178 268.504 856.43 268.504H856.776C857.028 268.504 857.231 268.3 857.231 268.049V206.684C857.231 206.433 857.028 206.229 856.776 206.229Z" fill="#E5E5E5"/>
<path d="M907.207 221.602H907.48C907.671 221.602 907.826 221.757 907.826 221.948V268.504C907.826 268.695 907.671 268.85 907.48 268.85H907.207C907.016 268.85 906.861 268.695 906.861 268.504V221.948C906.861 221.757 907.016 221.602 907.207 221.602Z" fill="#E5E5E5"/>
<path d="M907.971 203.642C916.076 203.333 925.238 217.503 919.064 229.853C924.619 237.139 924.236 240.782 923.089 244.57C921.941 248.359 909.993 258.686 894.784 250.126C879.574 241.565 893.818 230.618 895.348 228.123C896.878 225.627 893.053 204.207 907.971 203.642Z" fill="#E5E5E5"/>
<path d="M336.677 184.007C325.985 183.588 313.909 202.221 322.105 218.615C314.819 228.195 315.293 232.986 316.805 238.031C318.317 243.077 333.945 256.701 354.126 245.317C374.308 233.933 355.383 219.598 353.361 216.319C351.339 213.041 356.33 184.827 336.677 184.007Z" fill="#E5E5E5"/>
<path d="M338.017 206.229H337.515C337.151 206.229 336.855 206.433 336.855 206.684V268.049C336.855 268.3 337.151 268.504 337.515 268.504H338.017C338.381 268.504 338.677 268.3 338.677 268.049V206.684C338.677 206.433 338.381 206.229 338.017 206.229Z" fill="#E5E5E5"/>
<path d="M382.629 232.986H382.114C381.753 232.986 381.461 233.105 381.461 233.253V269.148C381.461 269.295 381.753 269.415 382.114 269.415H382.629C382.99 269.415 383.282 269.295 383.282 269.148V233.253C383.282 233.105 382.99 232.986 382.629 232.986Z" fill="#E5E5E5"/>
<path d="M380.728 218.418C374.57 218.18 367.61 229.066 372.3 238.552C368.08 244.148 368.371 246.947 369.242 249.857C370.114 252.767 379.192 260.7 390.746 254.124C402.3 247.548 391.479 239.139 390.317 237.223C389.155 235.306 392.06 218.852 380.728 218.418Z" fill="#E5E5E5"/>
<path d="M949.935 267.612H267V269.433H949.935V267.612Z" fill="#E5E5E5"/>
<path fill-rule="evenodd" clip-rule="evenodd" d="M490.804 266.448V317.952H482.018V266.448C482.018 263.946 483.98 261.913 486.406 261.913C487.298 261.913 488.128 262.189 488.815 262.658C488.877 262.695 488.931 262.732 488.984 262.778C489.172 262.916 489.35 263.072 489.511 263.238C490.197 263.946 490.661 264.885 490.768 265.924C490.768 265.924 490.777 265.924 490.768 265.933C490.786 265.997 490.786 266.062 490.786 266.136C490.804 266.237 490.804 266.338 490.804 266.448Z" fill="black"/>
<path fill-rule="evenodd" clip-rule="evenodd" d="M487.373 284.334H474.703C472.815 284.334 471.283 282.756 471.283 280.808C471.283 278.86 472.815 277.281 474.703 277.281H487.373C489.262 277.281 490.793 278.86 490.793 280.808C490.793 282.756 489.262 284.334 487.373 284.334Z" fill="#C5C5C5"/>
<path fill-rule="evenodd" clip-rule="evenodd" d="M474.99 161.983C477.548 195.357 480.106 228.731 482.664 262.105C491.886 264.877 505.444 267.717 521.826 266.845C532.539 266.275 541.686 264.264 548.838 262.103C550.311 224.705 551.783 187.306 553.256 149.908C545.347 143.783 537.439 137.657 529.53 131.532L498.922 131.532L474.99 161.983Z" fill="#E5E5E5"/>
<mask id="mask0_1643_13728" style="mask-type:alpha" maskUnits="userSpaceOnUse" x="480" y="260" width="72" height="57">
<path fill-rule="evenodd" clip-rule="evenodd" d="M480.422 260.899H551.842V316.748H480.422V260.899Z" fill="white"/>
</mask>
<g mask="url(#mask0_1643_13728)">
<path fill-rule="evenodd" clip-rule="evenodd" d="M480.626 316.748C480.568 309.528 480.509 288.503 480.451 281.283C480.441 279.888 480.432 278.492 480.422 277.096L480.5 276.202L480.724 273.692L481.035 270.238L481.055 270.047L481.863 260.899C482.486 261.01 483.109 261.12 483.742 261.231C486.459 261.693 489.302 262.115 492.272 262.476C493.216 262.596 494.17 262.697 495.134 262.807C498.834 263.199 502.71 263.5 506.77 263.671C508.318 263.741 509.886 263.791 511.483 263.822C511.726 263.822 511.989 263.831 512.252 263.831C513.936 263.852 515.65 263.852 517.383 263.831C519.146 263.811 520.889 263.761 522.593 263.691C527.062 263.51 531.336 263.179 535.406 262.727C536.38 262.617 537.334 262.506 538.279 262.386C540.84 262.064 543.313 261.703 545.689 261.301C546.477 261.171 547.266 261.04 548.035 260.899C548.055 261.02 548.074 261.13 548.094 261.251V261.261C548.434 263.33 548.775 265.398 549.126 267.456C549.282 268.42 549.437 269.374 549.603 270.338L549.632 270.519C549.778 271.393 549.924 272.276 550.06 273.15C550.275 274.455 550.489 275.76 550.703 277.056C550.732 277.347 550.83 277.909 550.83 277.909C550.869 278.723 550.898 279.526 550.937 280.339C551.268 287.82 551.57 309.167 551.842 316.748H480.626Z" fill="#C5C5C5"/>
</g>
<path fill-rule="evenodd" clip-rule="evenodd" d="M476.738 256.388C472.685 262.316 478.842 271.788 482.76 275.601C484.421 277.217 485.254 277.432 485.865 277.28C488.41 276.648 488.709 269.462 488.927 264.155C489.191 257.754 489.286 254.526 487.468 253.154C484.74 251.096 479.125 252.899 476.738 256.388Z" fill="#E5E5E5"/>
<path fill-rule="evenodd" clip-rule="evenodd" d="M487.198 161.983C476.697 177.158 466.18 192.349 455.678 207.524C458.547 211.551 461.431 215.729 464.316 220.091C464.446 220.291 464.575 220.492 464.705 220.693C465.256 221.528 465.806 222.364 466.358 223.199C466.99 224.168 467.622 225.138 468.237 226.107C468.432 226.425 468.626 226.726 468.837 227.043C462.711 231.789 456.586 236.536 450.476 241.282C448.434 238.775 446.538 236.469 444.788 234.296C436.41 223.784 431.629 216.515 431.03 207.524C430.592 200.956 435 192.85 443.767 176.607C454.56 156.602 462.565 142.13 474.768 138.32C474.93 138.269 479.192 137.066 487.717 134.659C490.147 133.974 498.85 131.517 501.216 130.849L487.198 161.983Z" fill="#E5E5E5"/>
<path fill-rule="evenodd" clip-rule="evenodd" d="M512.927 147.048C510.96 152.944 508.994 158.841 507.027 164.737C507.119 191.586 507.21 218.435 507.301 245.283C510.086 250.14 512.87 254.997 515.655 259.854C518.325 254.982 520.996 250.109 523.667 245.237C523.119 218.404 522.571 191.571 522.023 164.737C520.029 158.841 518.036 152.944 516.043 147.048H512.927Z" fill="#C5C5C5"/>
<path fill-rule="evenodd" clip-rule="evenodd" d="M481.428 177.064L481.603 193.873L485.011 195.871L491.632 199.747L501.837 193.863V177.064H481.428Z" fill="#D2D2D2"/>
<path fill-rule="evenodd" clip-rule="evenodd" d="M525.889 177.064L526.064 193.873L529.472 195.871L536.093 199.747L546.297 193.863V177.064H525.889Z" fill="#D2D2D2"/>
<path fill-rule="evenodd" clip-rule="evenodd" d="M550.428 271.53C546.636 272.382 542.827 273.034 539.068 273.519C538.096 273.653 537.156 273.77 536.199 273.87C520.821 275.575 506.333 274.706 495.929 273.469C494.924 273.352 493.968 273.235 493.06 273.118C487.842 272.416 483.92 271.681 481.83 271.246L482.657 262.105C485.93 262.69 489.398 263.208 493.06 263.642C494 263.759 494.956 263.859 495.929 263.96C501.05 264.495 506.511 264.862 512.28 264.962C512.523 264.962 512.782 264.979 513.042 264.979C514.727 264.996 516.445 264.996 518.179 264.979C524.564 264.896 530.576 264.495 536.199 263.893C537.172 263.793 538.128 263.692 539.068 263.575C542.487 263.141 545.745 262.656 548.823 262.105C549.358 265.246 549.893 268.388 550.428 271.53Z" fill="#C5C5C5"/>
<path fill-rule="evenodd" clip-rule="evenodd" d="M507.566 274.823H523.389V264.862H507.566V274.823Z" fill="#C5C5C5"/>
<path fill-rule="evenodd" clip-rule="evenodd" d="M540.708 294.175C536.541 294.175 533.153 290.681 533.153 286.383C533.153 282.085 536.541 278.591 540.708 278.591C544.876 278.591 548.264 282.085 548.264 286.383C548.264 290.681 544.876 294.175 540.708 294.175ZM549.836 280.428C549.67 280.167 549.495 279.906 549.31 279.655C548.19 278.139 546.71 276.934 544.997 276.161C543.682 275.579 542.231 275.247 540.712 275.247C538.424 275.247 536.301 275.99 534.549 277.245C531.754 279.264 529.914 282.607 529.914 286.383C529.914 292.518 534.763 297.519 540.712 297.519C546.662 297.519 551.511 292.518 551.511 286.383C551.511 284.194 550.897 282.156 549.836 280.428Z" fill="white"/>
<path fill-rule="evenodd" clip-rule="evenodd" d="M536.562 273.219C536.757 272.095 537.857 271.12 539.074 270.97C539.113 270.96 539.152 270.95 539.191 270.95C539.269 270.94 539.337 270.94 539.415 270.94C540.681 270.94 541.946 271.863 542.307 273.058C542.326 273.098 542.336 273.149 542.346 273.189C542.56 274.123 542.278 275.127 542.171 275.268C542.093 275.257 541.859 275.187 541.693 275.137C541.041 274.936 540.058 274.635 538.733 274.936C537.974 275.117 537.477 275.428 537.156 275.639C536.883 275.358 536.543 274.635 536.523 273.832C536.514 273.801 536.514 273.771 536.514 273.741C536.514 273.57 536.533 273.39 536.562 273.219ZM545.277 272.566C545.277 272.526 545.267 272.496 545.258 272.456C544.595 269.674 541.889 267.686 539.074 267.857C539.036 267.857 538.987 267.867 538.948 267.867C537.945 267.947 537.01 268.289 536.202 268.821C535.939 268.992 535.696 269.182 535.472 269.383C534.518 270.227 533.846 271.361 533.612 272.636C533.525 273.119 533.495 273.631 533.525 274.143C533.603 275.257 533.963 276.382 534.557 277.245C535.092 278.009 535.803 278.581 536.679 278.772C536.855 278.812 537.03 278.832 537.186 278.832C537.887 278.832 538.374 278.511 538.685 278.29C538.919 278.139 539.084 278.029 539.406 277.959C539.951 277.828 540.321 277.938 540.827 278.099C541.48 278.3 542.375 278.581 543.388 278.069C544.138 277.687 544.673 276.994 545.004 276.161C545.452 275.056 545.53 273.721 545.277 272.566Z" fill="white"/>
<path fill-rule="evenodd" clip-rule="evenodd" d="M472.525 138.418L473.963 143.553L495.738 135.503C495.19 134.303 494.643 133.102 494.095 131.902C486.905 134.074 479.715 136.246 472.525 138.418Z" fill="#C5C5C5"/>
<path fill-rule="evenodd" clip-rule="evenodd" d="M477.687 232.453C477.687 232.453 465.625 241.864 459.562 246.555C459.419 246.665 458.695 247.225 458.552 247.335C456.711 245.268 454.87 243.186 453.029 241.12C453.252 240.959 453.471 240.798 453.69 240.637C453.69 240.637 454.024 240.393 454.351 240.155C455.43 239.366 473.233 226.243 473.233 226.243C473.604 226.526 477.687 232.453 477.687 232.453Z" fill="#C5C5C5"/>
<path fill-rule="evenodd" clip-rule="evenodd" d="M484.659 252.295L473.88 235.448L462.123 244.564C467.039 250.317 471.954 256.069 476.87 261.823C479.466 258.647 482.063 255.471 484.659 252.295Z" fill="#E5E5E5"/>
<path fill-rule="evenodd" clip-rule="evenodd" d="M562.133 252.61C566.558 259.08 559.837 269.419 555.559 273.582C553.747 275.346 552.838 275.58 552.17 275.415C549.393 274.725 549.066 266.881 548.828 261.087C548.54 254.1 548.437 250.577 550.421 249.079C553.398 246.832 559.528 248.8 562.133 252.61Z" fill="#C5C5C5"/>
<path fill-rule="evenodd" clip-rule="evenodd" d="M544.164 162.577C554.665 177.752 565.183 192.943 575.684 208.117C572.816 212.145 569.931 216.323 567.046 220.684C566.917 220.885 566.787 221.086 566.657 221.286C566.106 222.122 565.555 222.957 565.004 223.793C564.372 224.762 563.741 225.732 563.125 226.701C562.93 227.018 562.736 227.319 562.525 227.637C568.651 232.383 574.776 237.129 580.886 241.875C582.928 239.369 584.824 237.062 586.574 234.89C594.952 224.378 599.733 217.108 600.333 208.117C600.77 201.549 596.362 193.444 587.595 177.2C576.802 157.196 568.797 142.723 556.594 138.913C556.432 138.863 552.17 137.66 543.646 135.253C541.215 134.568 532.512 132.111 530.146 131.443L544.164 162.577Z" fill="#C5C5C5"/>
<path fill-rule="evenodd" clip-rule="evenodd" d="M561.105 226.483C561.105 226.483 574.272 236.755 580.891 241.875C581.046 241.996 581.837 242.607 581.993 242.728C584.002 240.472 586.012 238.199 588.021 235.942C587.778 235.767 587.539 235.592 587.3 235.416C587.3 235.416 586.935 235.15 586.579 234.89C585.401 234.029 565.967 219.704 565.967 219.704C565.562 220.013 561.105 226.483 561.105 226.483Z" fill="white"/>
<path fill-rule="evenodd" clip-rule="evenodd" d="M553.496 248.142L565.262 229.751L578.096 239.703C572.73 245.982 567.364 252.262 561.998 258.541C559.164 255.075 556.33 251.608 553.496 248.142Z" fill="#C5C5C5"/>
<path fill-rule="evenodd" clip-rule="evenodd" d="M556.074 136.119L554.964 141.341L532.727 134.773C533.198 133.538 533.668 132.304 534.139 131.069C541.451 132.752 548.763 134.436 556.074 136.119Z" fill="#C5C5C5"/>
<path fill-rule="evenodd" clip-rule="evenodd" d="M502.274 131.989C504.197 129.26 503.924 125.93 504.359 122.794C508.751 120.551 512.866 117.85 515.873 113.306C517.159 111.361 518.281 110.764 519.333 113.508C520.421 116.346 522.474 117.529 525.153 117.378C525.364 120.521 525.289 123.604 524.942 126.63C524.343 131.845 522.934 136.889 520.778 141.777C516.791 145.378 512.75 148.63 507.466 145.651C504.399 143.922 502.207 141.143 500.296 137.992C498.457 134.957 501.814 134.072 502.274 131.989Z" fill="#E5E5E5"/>
<path fill-rule="evenodd" clip-rule="evenodd" d="M493.06 87.1789C494.744 86.8802 496.426 86.5717 498.112 86.2843C504.052 85.2715 507.19 87.6729 507.846 94.0523C508.049 96.0245 508.488 97.6451 509.6 99.3089C513.03 104.441 512.032 109.941 507.064 114.677C503.704 117.879 499.11 117.694 494.558 114.143C493.78 113.535 493.226 112.558 492.064 112.651C485.857 110.995 485.749 110.842 488.497 104.599C489.768 101.714 490.478 98.7229 490.633 95.593C490.783 92.5675 491.502 89.7524 493.06 87.1789Z" fill="#E5E5E5"/>
<path fill-rule="evenodd" clip-rule="evenodd" d="M518.86 104.149C518.579 104.941 518.359 105.975 517.867 106.843C517.298 107.845 516.509 109.071 515.338 108.975C513.654 108.836 514.603 107.096 514.231 106.123C513.98 105.465 513.984 104.678 513.975 103.948C513.957 102.455 512.909 100.699 514.99 99.7071C515.805 99.3185 516.637 99.013 517.404 99.5454C518.925 100.603 518.668 102.361 518.86 104.149Z" fill="#C5C5C5"/>
<path fill-rule="evenodd" clip-rule="evenodd" d="M517.867 106.843C517.298 107.845 516.509 109.072 515.338 108.975C513.654 108.836 514.603 107.096 514.232 106.123C513.98 105.465 513.984 104.678 513.976 103.948C513.958 102.455 512.909 100.699 514.99 99.7074C515.805 99.3188 516.638 99.0133 517.404 99.5457C518.926 100.603 518.668 102.361 518.86 104.15C518.579 104.941 518.36 105.976 517.867 106.843ZM533.79 74.5889C533.784 74.5936 533.778 74.5981 533.772 74.6026L532.376 73.197C532.376 73.197 521.668 57.779 496.16 69.152C496.146 69.189 496.132 69.2244 496.119 69.2613C491.503 71.2571 488.842 75.035 488.203 79.9822C487.751 83.4816 490.377 85.5426 493.066 87.179C494.75 86.8803 496.432 86.5718 498.118 86.2844C504.058 85.2716 507.196 87.673 507.852 94.0524C508.055 96.0246 508.494 97.6452 509.606 99.309C513.036 104.441 512.038 109.941 507.07 114.677C503.71 117.879 499.116 117.694 494.564 114.143C493.786 113.536 493.232 112.558 492.07 112.651C491.67 113.891 491.258 115.125 490.875 116.37C489.24 121.695 491.378 124.688 496.766 124.457C498.866 124.366 500.953 123.963 503.046 123.703C507.926 121.52 512.491 118.874 515.79 114.366C517.203 112.437 518.448 111.855 519.662 114.619C520.918 117.477 523.229 118.693 526.221 118.58C533.825 114.715 538.133 108.616 538.383 99.6366C538.474 96.3677 538.749 93.0914 539.155 89.8472C539.917 83.7553 538.036 78.7419 533.79 74.5889Z" fill="#C5C5C5"/>
<path fill-rule="evenodd" clip-rule="evenodd" d="M503.467 125.444C501.196 127.675 498.924 129.905 496.652 132.135C499.153 138.554 501.654 144.973 504.154 151.391C507.064 147.59 509.973 143.789 512.882 139.988C512.882 139.988 504.565 134.915 503.467 125.444Z" fill="#C5C5C5"/>
<path fill-rule="evenodd" clip-rule="evenodd" d="M524.994 125.444C527.333 127.585 529.672 129.726 532.01 131.867C529.436 138.375 526.862 144.883 524.288 151.391C521.398 147.59 518.507 143.789 515.617 139.988C515.617 139.988 523.9 134.915 524.994 125.444Z" fill="#C5C5C5"/>
<path fill-rule="evenodd" clip-rule="evenodd" d="M512.008 140.22H516.679L520.884 145.218L516.446 150.276H512.008L507.352 145.903L512.008 140.22Z" fill="#C5C5C5"/>
<path fill-rule="evenodd" clip-rule="evenodd" d="M644.319 249.31C640.523 250.311 638.817 258.164 640.035 264.123C641.452 271.06 647.222 277.342 650.115 276.339C652.529 275.501 652.587 269.714 652.651 263.335C652.734 254.969 650.755 252.601 650.115 251.909C649.781 251.546 646.994 248.604 644.319 249.31Z" fill="#D2D2D2"/>
<path fill-rule="evenodd" clip-rule="evenodd" d="M699.452 88.3342L703.314 121.501C703.314 121.501 688.976 134.985 682.124 135.334C674.159 135.739 683.958 89.7982 683.958 89.7982L699.452 88.3342Z" fill="#D2D2D2"/>
<path fill-rule="evenodd" clip-rule="evenodd" d="M694.915 55.7881C696.116 56.7482 712.821 67.8553 702.812 91.3566C699.435 103.02 682.677 105.985 677.65 88.8664C672.623 71.7484 681.575 45.1295 694.915 55.7881Z" fill="#FBFBFB"/>
<path fill-rule="evenodd" clip-rule="evenodd" d="M704.036 62.2048C704.036 62.2048 698.956 39.0111 674.409 44.9828C673.358 45.2386 672.353 45.7883 671.669 46.6513C669.108 49.8839 673.403 53.4193 677.17 54.0143C671.652 53.4348 666.571 58.6333 674.792 61.8611C672.3 63.2066 672.903 68.9424 677.231 70.1782C677.136 69.7449 678.653 62.8418 683.595 61.5091C686.558 60.7093 694.806 59.3823 697.721 62.0994C703.984 67.9379 706.036 78.1743 706.036 78.1743C706.036 78.1743 706.829 68.4162 704.036 62.2048Z" fill="#C5C5C5"/>
<path fill-rule="evenodd" clip-rule="evenodd" d="M703.635 72.4236C703.635 72.4236 709.515 67.4627 708.998 74.2828C708.588 79.694 703.584 79.3619 703.584 79.3619L703.635 72.4236Z" fill="#FBFBFB"/>
<path fill-rule="evenodd" clip-rule="evenodd" d="M768.453 253.42C769.117 257.294 766.133 260.809 763.413 262.543C759.005 265.353 752.051 265.553 747.788 261.859C747.343 261.473 743.678 258.208 744.512 254.561C745.977 248.15 760.389 244.711 765.933 249.087C767.911 250.648 768.362 252.891 768.453 253.42Z" fill="#FBFBFB"/>
<path fill-rule="evenodd" clip-rule="evenodd" d="M701.434 115.72C701.821 116.442 702.283 117.304 702.82 118.288C707.294 126.638 711.767 135.002 716.24 143.352C716.33 143.368 716.911 144.106 717.806 145.259C720.415 148.626 725.56 155.438 727.766 157.315C729.764 158.991 731.255 160.636 732.24 161.835C732.806 162.512 733.209 163.035 733.447 163.358C736.4 167.248 742.722 174.614 756.336 189.222C757.081 210.749 757.827 232.262 758.587 253.79C757.135 257.629 757.017 261.316 758.518 262.435C760.093 263.607 763.915 262.303 767.437 258.289C768.174 257.449 768.684 256.419 768.9 255.308C770.685 246.127 773.034 233.025 775.215 217.148C777.907 197.543 779.217 187.608 777.45 181.133C775.758 174.937 772.967 171.614 749.984 140.861C745.824 135.294 741.947 130.282 739.054 126.638C738.383 126.038 737.682 125.438 736.966 124.823C736.072 124.054 733.432 121.779 731.927 120.656C728.169 117.842 719.535 113.198 701.434 115.72Z" fill="#FBFBFB"/>
<path fill-rule="evenodd" clip-rule="evenodd" d="M701.434 115.72C701.821 116.442 702.283 117.304 702.82 118.288C706.294 124.685 712.587 136.11 717.806 145.259C722.025 152.686 725.515 158.621 726.231 159.206C727.826 160.528 729.347 161.851 730.793 163.158C731.27 162.727 731.748 162.297 732.24 161.835C735.714 158.606 739.427 154.731 743.14 150.164C745.764 146.966 748.03 143.829 749.984 140.861C750.506 140.092 750.998 139.339 751.46 138.601C748.597 135.571 744.437 131.374 739.054 126.638C738.383 126.038 737.682 125.438 736.966 124.823C736.072 124.054 733.432 121.779 731.927 120.656C728.169 117.842 719.535 113.198 701.434 115.72Z" fill="#D2D2D2"/>
<path fill-rule="evenodd" clip-rule="evenodd" d="M642.17 199.143V257.106H653.92L667.966 155.355C667.966 155.355 644.287 141.522 643.78 154.025C642.945 174.571 642.17 199.143 642.17 199.143Z" fill="#ECF7F9"/>
<path fill-rule="evenodd" clip-rule="evenodd" d="M641.203 161.986C649.688 162.852 658.172 163.719 666.657 164.585H672.453C674.071 148.01 675.688 131.434 677.306 114.859L675.01 115.166L674.696 115.212C673.165 115.487 670.988 115.912 668.395 116.536C664.124 117.563 660.775 118.368 657.344 119.914C654.372 121.253 650.473 123.015 647.572 126.575C645.463 129.163 644.47 131.981 642.967 144.054C642.39 148.693 641.727 154.781 641.203 161.986Z" fill="#D2D2D2"/>
<path fill-rule="evenodd" clip-rule="evenodd" d="M654.373 317.952H682.222C683.667 292.655 685.04 292.711 685.888 282.647C685.977 282.537 686.521 281.939 687.386 281.967C688.466 282.013 689.019 282.969 689.046 283.034C689.465 292.656 690.731 292.554 692.284 317.952H721.033C721.265 289.399 721.488 282.942 721.711 254.379C721.72 252.88 721.738 251.39 721.746 249.89L721.72 249.596L721.666 249.081L721.176 243.58L720.418 234.997C719.062 235.237 717.67 235.476 716.234 235.696C709.348 236.764 701.614 237.527 693.158 237.684C692.935 237.684 692.703 237.692 692.462 237.692C690.91 237.711 689.331 237.711 687.734 237.692H687.538C677.075 237.545 667.655 236.46 659.538 234.997C659.413 235.761 659.288 236.524 659.154 237.279C658.798 239.468 658.432 241.657 658.057 243.847C657.736 245.861 657.406 247.867 657.076 249.863C657.067 249.982 657.04 250.148 657.014 250.295C656.987 250.488 656.96 250.645 656.96 250.645C656.71 256.228 656.478 261.849 656.264 267.506C656.246 267.938 656.228 268.371 656.219 268.803C656.104 271.508 656.005 274.221 655.907 276.944C655.747 281.59 655.595 286.263 655.452 290.954C655.399 292.72 655.345 294.495 655.292 296.28C655.203 299.426 655.113 302.591 655.042 305.755C654.98 308.23 654.917 310.713 654.864 313.206C654.801 315.543 654.757 309.608 654.712 311.963C654.569 318.522 654.462 311.31 654.373 317.952Z" fill="#B3B3B3"/>
<path fill-rule="evenodd" clip-rule="evenodd" d="M728.653 119.364C727.645 162.766 726.637 206.168 725.629 249.57C715.57 249.61 664.431 250.003 655.064 250.349C656.001 207.576 656.937 164.802 657.874 122.029C661.703 120.95 665.725 119.963 669.933 119.104C677.608 117.538 684.636 125.971 691.618 125.482C699.611 124.922 707.438 115.583 714.289 115.985C715.145 116.102 716.41 116.279 717.943 116.505C720.174 116.835 721.29 117 722.101 117.155C723.673 117.455 725.924 118.051 728.653 119.364Z" fill="#D2D2D2"/>
<path fill-rule="evenodd" clip-rule="evenodd" d="M716.236 254.378H763.679V185.713H716.236V254.378Z" fill="#C5C5C5"/>
<path fill-rule="evenodd" clip-rule="evenodd" d="M734.951 254.378H744.387V185.917H734.951V254.378Z" fill="#FEFEFE"/>
<path fill-rule="evenodd" clip-rule="evenodd" d="M662.371 164.585H677.305V156.24H662.371V164.585Z" fill="white"/>
<path fill-rule="evenodd" clip-rule="evenodd" d="M701.274 109.252C703.33 111.14 705.386 113.027 707.443 114.914C705.175 120.985 702.908 127.056 700.641 133.126C697.587 130.618 694.533 128.11 691.479 125.601C693.066 123.968 694.855 121.856 696.563 119.21C698.952 115.511 700.389 111.995 701.274 109.252Z" fill="#FEFEFE"/>
<path fill-rule="evenodd" clip-rule="evenodd" d="M681.467 109.252C679.316 111.222 677.164 113.192 675.012 115.162C677.38 121.15 679.749 127.138 682.117 133.126C685.237 130.618 688.357 128.11 691.478 125.601C689.847 124.032 687.954 121.927 686.159 119.21C683.694 115.481 682.29 111.926 681.467 109.252Z" fill="#FEFEFE"/>
<path fill-rule="evenodd" clip-rule="evenodd" d="M684.178 86.4132C684.61 85.9301 685.205 85.6389 685.841 85.621C686.284 85.6085 686.767 85.5856 687.061 85.5502C687.782 85.4623 688.491 85.755 688.99 86.2991C692.238 89.8354 697.886 93.5477 702.397 83.7485C704.504 78.7417 705.874 79.0895 705.874 79.0895C705.874 79.0895 712.624 107.038 692.856 115.542C680.717 120.764 664.867 104.956 676.867 84.6642C678.773 90.3202 681.939 88.9146 684.178 86.4132Z" fill="#C5C5C5"/>
<path fill-rule="evenodd" clip-rule="evenodd" d="M532.246 130.024C531.188 151.031 530.748 167.009 530.722 174.434C530.714 176.639 530.733 180.574 531.722 185.568C532.605 190.031 533.854 193.278 534.425 194.74C546.455 225.572 552.499 241.213 556.053 240.602C556.053 240.602 557.817 240.193 563.893 214.388L549.229 136.38C543.568 134.261 537.907 132.142 532.246 130.024Z" fill="#FAFAFA"/>
<path fill-rule="evenodd" clip-rule="evenodd" d="M616.351 130.024C617.408 151.031 617.848 167.009 617.874 174.434C617.882 176.639 617.863 180.574 616.874 185.568C615.991 190.031 614.742 193.278 614.171 194.74C602.141 225.572 596.097 241.213 592.543 240.602C592.543 240.602 590.779 240.193 584.703 214.388L599.368 136.38C605.029 134.261 610.69 132.142 616.351 130.024Z" fill="#E5E5E5"/>
<path fill-rule="evenodd" clip-rule="evenodd" d="M573.06 305.377V317.952H544.356C544.132 312.065 543.918 306.168 543.696 300.281C543.669 299.572 543.642 298.855 543.615 298.147C553.436 300.557 563.248 302.967 573.06 305.377Z" fill="#E5E5E5"/>
<path fill-rule="evenodd" clip-rule="evenodd" d="M607.872 298.147C607.872 298.193 607.872 298.248 607.863 298.294C607.622 304.844 607.381 311.402 607.131 317.952H578.436V305.377C579.096 305.212 579.747 305.055 580.407 304.889C589.487 302.663 598.559 300.437 607.64 298.202C607.72 298.184 607.792 298.165 607.872 298.147Z" fill="#E5E5E5"/>
<path fill-rule="evenodd" clip-rule="evenodd" d="M620.765 136.643C614.975 137.689 609.186 138.734 603.396 139.78C602.916 144.487 602.435 149.195 601.954 153.902C585.936 149.944 544.942 152.529 544.942 152.529L542.878 140.034L527.949 137.324C527.949 137.324 528.554 128.117 532.656 120.365C533.356 119.035 535.121 115.909 537.713 113.294C542.976 107.971 550.354 106.068 556.079 105.434C558.766 105.14 561.088 105.124 562.678 105.155C563.139 105.17 563.536 105.186 563.87 105.202C571.869 105.588 579.04 103.886 587.484 104.443C589.217 104.567 591.014 104.784 592.89 105.124C593.304 105.202 593.701 105.279 594.083 105.356C602.192 106.965 605.484 108.822 607.186 110.029C612.751 113.959 615.311 119.236 616.901 122.516C619.62 128.117 620.479 133.224 620.765 136.643Z" fill="#C5C5C5"/>
<path fill-rule="evenodd" clip-rule="evenodd" d="M566.66 94.3129C566.535 96.5097 566.489 98.2557 566.47 99.4126C566.422 102.353 566.187 102.96 565.805 103.532C564.485 105.502 561.186 105.334 559.893 105.203C560.558 113.97 567.897 120.581 576.075 120.166C583.785 119.775 590.233 113.24 590.732 104.981C590.31 104.882 589.68 104.738 588.913 104.573C586.564 104.067 586.457 104.125 586.156 103.924C585.893 103.748 585.164 103.152 584.919 98.8242C584.852 97.6267 584.818 96.0216 584.946 94.1163C578.851 94.1821 572.756 94.2474 566.66 94.3129Z" fill="#E5E5E5"/>
<path fill-rule="evenodd" clip-rule="evenodd" d="M570.039 89.2736H581.129C581.129 89.2736 575.815 97.3304 570.039 89.2736Z" fill="white"/>
<path fill-rule="evenodd" clip-rule="evenodd" d="M563.319 105.058C560.479 117.366 557.639 129.674 554.799 141.981L551.153 157.749L545.316 156.31L548.887 140.852C552.553 128.969 556.219 117.086 559.885 105.203C560.046 105.196 560.435 105.179 560.596 105.172C561.505 105.133 562.412 105.095 563.319 105.058Z" fill="#E5E5E5"/>
<path fill-rule="evenodd" clip-rule="evenodd" d="M601.286 157.733L595.359 158.739L592.703 142.028C590.688 129.389 588.673 116.75 586.658 104.111C587.778 104.34 588.938 104.539 590.137 104.703C590.339 104.73 590.54 104.757 590.741 104.782C593.426 117.197 596.11 129.613 598.795 142.028L601.286 157.733Z" fill="#E5E5E5"/>
<path fill-rule="evenodd" clip-rule="evenodd" d="M551.53 134.68C558.25 135.976 566.783 136.971 576.636 136.576C584.206 136.273 590.87 135.216 596.416 133.961C600.197 140.133 601.363 145.39 601.742 148.999C603.069 161.664 597.233 178.192 599.459 185.742C599.521 185.954 600.013 187.588 600.581 189.46C601.15 191.336 601.904 193.803 602.891 196.972C603.671 199.478 604.554 202.683 605.545 207.187C606.785 212.82 607.539 217.51 607.985 220.625C608.603 226.402 609.183 232.238 609.722 238.132C611.535 257.929 612.788 277.21 613.566 295.932C613.566 295.932 569.405 317.275 535.283 295.932C536.586 271.911 537.889 247.891 539.191 223.871C539.539 220.819 540.13 216.289 541.132 210.848C541.761 207.43 542.382 204.579 542.972 202.129C543.893 198.305 544.734 195.163 545.341 192.976C545.805 191.302 546.151 190.113 546.204 189.926C548.712 181.171 542.398 161.432 546.204 146.253C546.876 143.572 548.267 139.425 551.53 134.68Z" fill="#E5E5E5"/>
<path fill-rule="evenodd" clip-rule="evenodd" d="M586.154 155.493H600.389V147.037H586.154V155.493Z" fill="white"/>
<path fill-rule="evenodd" clip-rule="evenodd" d="M545.372 96.223C547.342 100.226 558.152 104.754 566.728 102.839C566.748 102.732 566.786 102.625 566.802 102.517C567.692 97.0878 566.921 91.0292 566.901 81.2247C566.879 70.5077 567.665 62.706 571.453 62.4032C571.453 62.4032 581.847 70.1169 593.17 72.9907C593.349 73.0383 593.531 73.0815 593.709 73.1253C592.972 81.2416 591.275 90.4825 588.291 90.7567L583.955 91.1549L584.847 104.057C595.42 103.816 603.624 102.073 605.186 99.9919C609.369 94.4098 607.828 84.0272 599.88 73.6815C602.012 73.4969 604.045 72.8632 605.891 71.6345C618.978 62.9211 581.291 42.5966 568.448 48.5311C555.606 54.4691 540.42 86.1505 545.372 96.223Z" fill="#E5E5E5"/>
<path fill-rule="evenodd" clip-rule="evenodd" d="M566.666 105.125C571.669 105.012 578.506 105.433 585.08 105.848L583.946 91.1549L588.282 90.7564C591.267 90.4825 592.964 81.2416 593.701 73.125C593.523 73.0815 593.341 73.038 593.162 72.9907C581.839 70.1169 571.444 62.4032 571.444 62.4032C567.657 62.7061 566.87 70.5077 566.893 81.2247C566.913 91.0292 566.715 104.516 566.666 105.125Z" fill="#FAFAFA"/>
<path fill-rule="evenodd" clip-rule="evenodd" d="M667.051 246.277C666.427 248.25 665.01 261.982 665.01 261.982C671.642 262.823 672.272 260.296 672.272 260.296L697.801 207.194C700.483 198.116 694.087 185.327 687.462 184.496C680.828 183.667 672.769 193.118 670.083 202.199L667.051 246.277Z" fill="#FAC7AC"/>
<path fill-rule="evenodd" clip-rule="evenodd" d="M681.873 148.695C677.469 145.436 672.364 143.571 670.021 142.709C669.321 142.448 668.62 142.207 667.93 141.987C663.35 140.503 659.053 139.751 655.3 139.42C655.241 139.41 655.183 139.4 655.124 139.4C654.668 139.36 654.22 139.32 653.773 139.289C653.287 139.259 652.791 139.229 652.295 139.219C652.208 139.209 652.12 139.209 652.033 139.209C652.013 139.199 651.984 139.199 651.964 139.199C651.702 139.189 651.439 139.179 651.177 139.179C650.768 139.169 650.36 139.169 649.971 139.169C648.853 139.169 647.813 139.199 646.869 139.249C639.937 139.209 633.004 139.179 626.071 139.139C625.235 139.149 624.301 139.179 623.3 139.239C622.882 139.269 622.454 139.3 622.026 139.339C621.803 139.36 621.589 139.38 621.365 139.4C620.976 139.44 620.587 139.48 620.189 139.53C620.169 139.53 620.15 139.54 620.13 139.54C619.732 139.59 619.343 139.641 618.964 139.7C618.827 139.721 618.701 139.741 618.565 139.761C618.419 139.781 618.263 139.801 618.117 139.831C617.777 139.881 617.427 139.941 617.077 140.001C616.951 140.021 616.824 140.051 616.698 140.071C616.649 140.082 616.61 140.092 616.562 140.102C616.095 140.192 615.619 140.282 615.132 140.403C613.266 140.814 611.282 141.355 609.24 142.077C607.441 142.699 605.584 143.461 603.708 144.373C601.189 145.607 595.978 148.143 591.544 152.646C591.213 152.987 590.892 153.338 590.591 153.698C585.369 159.916 583.59 170.454 581.11 189.546C581.052 189.957 581.004 190.378 580.945 190.799L603.921 201.674L598.486 295.192V295.393C598.253 302.502 598.019 309.611 597.796 316.721H635.853C635.931 316.34 636.008 315.959 636.086 315.568C637.448 308.909 638.935 302.532 640.51 296.456C642.426 303.204 644.342 309.962 646.257 316.721H684.022C682.34 289.086 680.648 261.441 678.966 233.816" fill="#FF454B"/>
<path fill-rule="evenodd" clip-rule="evenodd" d="M655.122 139.397L636.018 202.248L617.078 140.005C618.042 139.83 619.06 139.672 620.128 139.54C621.231 139.404 628.229 138.008 629.235 137.943C630.997 143.729 630.296 144.176 635.953 144.57C642.278 145.01 644.191 145.071 646.175 138.546C646.472 138.546 650.565 139.167 650.867 139.172C652.337 139.196 653.756 139.274 655.122 139.397Z" fill="#FF454B"/>
<path fill-rule="evenodd" clip-rule="evenodd" d="M630.511 128.196L629.582 142.115C629.582 142.115 625.988 147.922 629.135 148.806C636.05 150.753 646.715 143.345 646.715 143.345L648.134 122.091L630.511 128.196Z" fill="#FAC7AC"/>
<path fill-rule="evenodd" clip-rule="evenodd" d="M618.857 97.5679C618.857 97.5679 616.699 112.146 618.8 124.389C620.293 133.08 638.479 139.248 646.933 123.562C655.386 107.876 646.515 91.001 646.515 91.001L618.857 97.5679Z" fill="#FAC7AC"/>
<path fill-rule="evenodd" clip-rule="evenodd" d="M650.51 110.638C651.3 108.612 655.563 109.829 655.602 109.398C659.561 106.879 662.812 102.431 659.136 99.5418C661.534 95.3104 659.707 90.6544 655.176 89.1589C655.757 85.3334 653.188 82.7641 650.592 82.0571C649.782 77.6971 644.47 75.0664 641.906 77.5214C640.799 76.5819 639.441 75.9518 637.877 75.8657C636.784 75.8085 635.911 76.0628 635.169 76.5009C634.778 75.4613 634.065 74.5804 632.835 74.0649C630.106 72.9244 627.644 74.994 625.757 77.1968C622.581 74.1084 616.645 75.5926 614.627 79.3445C607.497 81.455 603.099 88.4963 610.316 94.7601C618.418 101.799 632.633 98.0823 643.2 94.7994C643.2 94.7994 650.064 97.3688 650.51 110.638Z" fill="black"/>
<path fill-rule="evenodd" clip-rule="evenodd" d="M629.868 128.095C627.9 127.912 620.129 122.861 618.764 124.444C617.398 126.026 620.263 134.642 623.42 136.649C626.577 138.656 630.177 140.899 632.721 140.994C635.266 141.089 644.927 137.235 646.428 136.141C647.929 135.047 651.956 117.027 650.803 112.303C649.65 107.579 651.413 101.78 649.758 102.769C648.103 103.758 647.424 123.873 644.887 126.056C642.35 128.239 633.359 128.421 629.868 128.095Z" fill="black"/>
<path fill-rule="evenodd" clip-rule="evenodd" d="M623.141 270.701L623.23 273.494C623.334 276.744 621.145 279.609 618.05 280.23C611.992 281.447 602.947 281.085 602.947 268.062C602.947 253.796 611.632 263.36 617.701 264.355C620.756 264.856 623.04 267.512 623.141 270.701Z" fill="#CF3C41"/>
<path fill-rule="evenodd" clip-rule="evenodd" d="M654.083 271.303L653.994 274.096C653.891 277.346 656.079 280.211 659.174 280.832C665.231 282.049 674.277 281.687 674.277 268.665C674.277 254.398 665.592 263.962 659.523 264.957C656.468 265.458 654.184 268.115 654.083 271.303Z" fill="#CF3C41"/>
<path fill-rule="evenodd" clip-rule="evenodd" d="M580.497 237.8C580.141 239.854 580.58 253.736 580.58 253.736C587.3 253.623 587.587 251.015 587.587 251.015L605.863 194.461C607.311 185.034 599.216 173.211 592.505 173.333C585.786 173.458 579.031 184.026 577.578 193.457L580.497 237.8Z" fill="#FAC7AC"/>
<path fill-rule="evenodd" clip-rule="evenodd" d="M604.713 144.6C578.654 150.452 573.295 178.479 578.745 207.436C579.969 213.941 612.425 207.874 612.828 202.871C620.489 190.962 617.453 141.74 604.713 144.6Z" fill="#FF454B"/>
<path fill-rule="evenodd" clip-rule="evenodd" d="M599.397 270.415H594.049C594.001 270.415 593.962 270.373 593.962 270.321V260.193C593.962 260.141 593.923 260.099 593.876 260.099L576.796 260.019C576.748 260.019 576.708 260.061 576.708 260.113V270.321C576.708 270.373 576.67 270.415 576.622 270.415H571.274C571.226 270.415 571.188 270.373 571.188 270.321V259.484C571.188 258.142 571.581 256.805 572.412 255.806C573.343 254.687 574.634 254.068 576.013 254.068H576.034L594.678 254.154C597.328 254.168 599.483 256.5 599.483 259.354V270.321C599.483 270.373 599.444 270.415 599.397 270.415Z" fill="black"/>
<path fill-rule="evenodd" clip-rule="evenodd" d="M592.681 260.116C590.813 259.542 590.408 255.313 593.713 254.121C593.019 251.234 592.092 250.357 589.12 248.606C588.47 248.224 587.136 248.012 586.774 248.027C583.954 248.613 583.382 247.939 580.514 248.144C578.857 249.082 577.334 251.151 576.797 252.968C575.912 255.96 576.431 259.459 577.955 262.159C578.093 262.402 578.25 262.648 578.489 262.793C579.071 263.146 579.864 262.762 580.488 263.033C581.016 263.261 581.3 263.907 581.854 264.061C582.647 264.281 583.426 263.357 584.22 263.573C584.903 263.759 585.163 264.675 585.829 264.918C586.355 265.109 586.918 264.811 587.469 264.717C588.18 264.596 588.933 264.867 589.442 265.373C589.944 265.87 590.056 266.387 590.915 266.217C591.429 266.116 591.836 265.697 592.062 265.222C592.374 264.566 592.397 263.804 592.521 263.107C592.681 262.212 592.771 261.305 592.702 260.398L592.681 260.116Z" fill="#FAC7AC"/>
<path fill-rule="evenodd" clip-rule="evenodd" d="M620.451 316.384H569.697C568.641 316.384 567.785 315.501 567.785 314.412V270.899C567.785 269.81 568.641 268.927 569.697 268.927H620.451C621.507 268.927 622.363 269.81 622.363 270.899V314.412C622.363 315.501 621.507 316.384 620.451 316.384Z" fill="#1F1F1F"/>
<path fill-rule="evenodd" clip-rule="evenodd" d="M600.31 316.384H549.432C548.41 316.384 547.582 315.53 547.582 314.477V270.835C547.582 269.782 548.41 268.927 549.432 268.927H600.31C601.332 268.927 602.16 269.782 602.16 270.835V314.477C602.16 315.53 601.332 316.384 600.31 316.384Z" fill="black"/>
<path fill-rule="evenodd" clip-rule="evenodd" d="M623.926 279.865V272.86C623.926 270.141 621.789 267.937 619.152 267.937H571.843C569.206 267.937 567.068 270.141 567.068 272.86V281.69H622.156C623.134 281.69 623.926 280.873 623.926 279.865Z" fill="black"/>
<path fill-rule="evenodd" clip-rule="evenodd" d="M602.883 280.121V272.699C602.883 270.069 600.815 267.937 598.265 267.937H550.644C548.093 267.937 546.025 270.069 546.025 272.699V280.335C546.025 281.084 546.614 281.69 547.34 281.69H601.361C602.202 281.69 602.883 280.988 602.883 280.121Z" fill="black"/>
<path fill-rule="evenodd" clip-rule="evenodd" d="M584.729 294.913H579.476V289.187C579.476 288.778 578.967 288.459 578.571 288.459H573.404C573.008 288.459 572.649 288.778 572.649 289.187V294.913H567.247C566.85 294.913 566.391 295.128 566.391 295.537V300.865C566.391 301.274 566.85 301.366 567.247 301.366H572.649V307.215C572.649 307.624 573.008 308.407 573.404 308.407H578.571C578.967 308.407 579.476 307.624 579.476 307.215V301.366H584.729C585.125 301.366 585.734 301.274 585.734 300.865V295.537C585.734 295.128 585.125 294.913 584.729 294.913Z" fill="#ECECEC"/>
<path fill-rule="evenodd" clip-rule="evenodd" d="M673.879 145.532C699.938 151.383 705.296 179.41 699.846 208.368C698.622 214.872 666.166 208.805 665.763 203.803C658.103 191.894 661.138 142.671 673.879 145.532Z" fill="#FF454B"/>
</svg>
