<svg width="360" height="120" viewBox="0 0 360 120" fill="none" xmlns="http://www.w3.org/2000/svg">
<g clip-path="url(#clip0_1643_15521)">
<rect width="360" height="120" fill="#F5F5F5"/>
<path d="M315.414 46.1103C309.544 45.8803 302.914 56.1103 307.414 65.1103C303.414 70.3703 303.674 73.0003 304.504 75.7703C305.334 78.5403 313.914 86.0203 324.994 79.7703C336.074 73.5203 325.684 65.6502 324.574 63.8502C323.464 62.0502 326.204 46.5603 315.414 46.1103Z" fill="#E5E5E5"/>
<path d="M315.954 58.3105H315.764C315.626 58.3105 315.514 58.4225 315.514 58.5605V92.2505C315.514 92.3886 315.626 92.5005 315.764 92.5005H315.954C316.092 92.5005 316.204 92.3886 316.204 92.2505V58.5605C316.204 58.4225 316.092 58.3105 315.954 58.3105Z" fill="#E5E5E5"/>
<path d="M343.639 66.7505H343.789C343.894 66.7505 343.979 66.8356 343.979 66.9405V92.5005C343.979 92.6054 343.894 92.6905 343.789 92.6905H343.639C343.535 92.6905 343.449 92.6054 343.449 92.5005V66.9405C343.449 66.8356 343.535 66.7505 343.639 66.7505Z" fill="#E5E5E5"/>
<path d="M344.06 56.8904C348.51 56.7204 353.54 64.5004 350.15 71.2804C353.2 75.2804 352.99 77.2804 352.36 79.3604C351.73 81.4404 345.17 87.1104 336.82 82.4104C328.47 77.7104 336.29 71.7004 337.13 70.3304C337.97 68.9604 335.87 57.2004 344.06 56.8904Z" fill="#E5E5E5"/>
<path d="M30.414 46.1103C24.544 45.8803 17.914 56.1103 22.414 65.1103C18.414 70.3703 18.674 73.0003 19.504 75.7703C20.334 78.5403 28.914 86.0203 39.994 79.7703C51.074 73.5203 40.684 65.6502 39.574 63.8502C38.464 62.0502 41.204 46.5603 30.414 46.1103Z" fill="#E5E5E5"/>
<path d="M31.1514 58.3105H30.876C30.6759 58.3105 30.5137 58.4225 30.5137 58.5605V92.2505C30.5137 92.3886 30.6759 92.5005 30.876 92.5005H31.1514C31.3515 92.5005 31.5137 92.3886 31.5137 92.2505V58.5605C31.5137 58.4225 31.3515 58.3105 31.1514 58.3105Z" fill="#E5E5E5"/>
<path d="M55.6415 73H55.3585C55.1605 73 55 73.0656 55 73.1465V92.8535C55 92.9344 55.1605 93 55.3585 93H55.6415C55.8395 93 56 92.9344 56 92.8535V73.1465C56 73.0656 55.8395 73 55.6415 73Z" fill="#E5E5E5"/>
<path d="M54.5983 65.0021C51.2177 64.8715 47.3964 70.8478 49.9718 76.0559C47.6547 79.1285 47.8142 80.6648 48.2928 82.2626C48.7714 83.8603 53.7551 88.2158 60.0985 84.6055C66.442 80.9951 60.5012 76.3785 59.863 75.3261C59.2249 74.2738 60.8203 65.2402 54.5983 65.0021Z" fill="#E5E5E5"/>
<path d="M367.1 92.0103H-7.83984V93.0103H367.1V92.0103Z" fill="#E5E5E5"/>
<path fill-rule="evenodd" clip-rule="evenodd" d="M134.454 100.964V122.025H130.861V100.964C130.861 99.9407 131.664 99.1094 132.656 99.1094C133.021 99.1094 133.36 99.2223 133.641 99.4141C133.666 99.429 133.688 99.4443 133.71 99.463C133.787 99.5194 133.86 99.5833 133.925 99.651C134.206 99.9407 134.396 100.324 134.44 100.749C134.44 100.749 134.443 100.749 134.44 100.753C134.447 100.78 134.447 100.806 134.447 100.836C134.454 100.877 134.454 100.919 134.454 100.964Z" fill="black"/>
<path fill-rule="evenodd" clip-rule="evenodd" d="M133.054 108.278H127.873C127.101 108.278 126.475 107.632 126.475 106.835C126.475 106.039 127.101 105.393 127.873 105.393H133.054C133.827 105.393 134.453 106.039 134.453 106.835C134.453 107.632 133.827 108.278 133.054 108.278Z" fill="#C5C5C5"/>
<path fill-rule="evenodd" clip-rule="evenodd" d="M127.986 58.2456C129.032 71.8928 130.078 85.5401 131.124 99.1873C134.896 100.321 140.44 101.482 147.139 101.126C151.519 100.893 155.26 100.07 158.184 99.1866C158.786 83.8937 159.389 68.6008 159.991 53.3079C156.757 50.8031 153.523 48.2982 150.289 45.7935L137.773 45.7936L127.986 58.2456Z" fill="#E5E5E5"/>
<mask id="mask0_1643_15521" style="mask-type:alpha" maskUnits="userSpaceOnUse" x="130" y="98" width="30" height="24">
<path fill-rule="evenodd" clip-rule="evenodd" d="M130.209 98.6943H159.414V121.532H130.209V98.6943Z" fill="white"/>
</mask>
<g mask="url(#mask0_1643_15521)">
<path fill-rule="evenodd" clip-rule="evenodd" d="M130.293 121.532C130.269 118.58 130.245 109.982 130.221 107.03C130.217 106.459 130.213 105.888 130.209 105.318L130.241 104.952L130.332 103.926L130.46 102.513L130.468 102.435L130.798 98.6943C131.053 98.7396 131.308 98.7847 131.567 98.8299C132.678 99.0189 133.84 99.1913 135.055 99.339C135.441 99.3883 135.831 99.4294 136.225 99.4745C137.738 99.6347 139.323 99.7579 140.983 99.8277C141.616 99.8564 142.257 99.8769 142.91 99.8893C143.01 99.8893 143.117 99.8933 143.225 99.8933C143.914 99.9016 144.615 99.9016 145.323 99.8933C146.044 99.8852 146.757 99.8646 147.454 99.836C149.281 99.7621 151.029 99.6265 152.693 99.4417C153.091 99.3966 153.482 99.3514 153.868 99.3021C154.915 99.1707 155.926 99.0229 156.898 98.8586C157.22 98.8053 157.543 98.7519 157.858 98.6943C157.865 98.7437 157.873 98.7888 157.881 98.8382V98.8422C158.021 99.6881 158.16 100.534 158.303 101.376C158.367 101.77 158.431 102.16 158.499 102.554L158.511 102.628C158.57 102.985 158.63 103.347 158.686 103.704C158.773 104.238 158.861 104.771 158.949 105.301C158.96 105.42 159 105.65 159 105.65C159.016 105.983 159.028 106.311 159.044 106.644C159.179 109.703 159.303 118.432 159.414 121.532H130.293Z" fill="#C5C5C5"/>
</g>
<path fill-rule="evenodd" clip-rule="evenodd" d="M128.705 96.8501C127.048 99.2739 129.565 103.147 131.168 104.707C131.847 105.367 132.187 105.455 132.437 105.393C133.478 105.135 133.6 102.196 133.69 100.026C133.797 97.4086 133.836 96.0885 133.093 95.5275C131.977 94.6858 129.681 95.423 128.705 96.8501Z" fill="#E5E5E5"/>
<path fill-rule="evenodd" clip-rule="evenodd" d="M132.981 58.2457C128.686 64.4508 124.386 70.6627 120.091 76.868C121.264 78.5149 122.444 80.2233 123.624 82.007C123.677 82.089 123.729 82.171 123.783 82.2531C124.008 82.5948 124.233 82.9365 124.459 83.2781C124.717 83.6744 124.975 84.0708 125.227 84.4673C125.307 84.597 125.386 84.7201 125.472 84.8499C122.967 86.7907 120.463 88.7316 117.964 90.6724C117.129 89.6473 116.354 88.7043 115.638 87.8158C112.212 83.5173 110.257 80.5446 110.012 76.868C109.833 74.1822 111.636 70.8678 115.221 64.2254C119.634 56.0451 122.908 50.1271 127.898 48.569C127.964 48.5484 129.707 48.0563 133.193 47.0723C134.187 46.7921 137.745 45.7874 138.713 45.5142L132.981 58.2457Z" fill="#E5E5E5"/>
<path fill-rule="evenodd" clip-rule="evenodd" d="M143.503 52.1382C142.699 54.5494 141.895 56.9607 141.091 59.3718C141.128 70.3509 141.165 81.3298 141.203 92.3087C142.341 94.2948 143.48 96.281 144.619 98.2672C145.711 96.2748 146.803 94.2823 147.895 92.2899C147.671 81.3172 147.447 70.3445 147.223 59.3718C146.408 56.9607 145.593 54.5494 144.777 52.1382H143.503Z" fill="#C5C5C5"/>
<path fill-rule="evenodd" clip-rule="evenodd" d="M130.619 64.4126L130.691 71.2861L132.084 72.1032L134.792 73.6881L138.965 71.2821V64.4126H130.619Z" fill="#D2D2D2"/>
<path fill-rule="evenodd" clip-rule="evenodd" d="M148.799 64.4126L148.871 71.2861L150.264 72.1032L152.972 73.6881L157.144 71.2821V64.4126H148.799Z" fill="#D2D2D2"/>
<path fill-rule="evenodd" clip-rule="evenodd" d="M158.838 103.042C157.288 103.39 155.73 103.657 154.193 103.855C153.795 103.91 153.411 103.958 153.02 103.999C146.731 104.696 140.807 104.34 136.552 103.835C136.142 103.787 135.751 103.739 135.379 103.691C133.246 103.404 131.642 103.103 130.787 102.926L131.125 99.1875C132.464 99.4267 133.882 99.6386 135.379 99.8162C135.764 99.864 136.155 99.905 136.552 99.946C138.646 100.165 140.88 100.315 143.239 100.356C143.338 100.356 143.444 100.363 143.55 100.363C144.239 100.37 144.942 100.37 145.651 100.363C148.262 100.329 150.72 100.165 153.02 99.9188C153.418 99.8777 153.808 99.8367 154.193 99.7888C155.591 99.6112 156.923 99.413 158.182 99.1875C158.401 100.472 158.62 101.757 158.838 103.042Z" fill="#C5C5C5"/>
<path fill-rule="evenodd" clip-rule="evenodd" d="M141.309 104.388H147.779V100.315H141.309V104.388Z" fill="#C5C5C5"/>
<path fill-rule="evenodd" clip-rule="evenodd" d="M154.867 112.301C153.162 112.301 151.777 110.873 151.777 109.115C151.777 107.358 153.162 105.929 154.867 105.929C156.571 105.929 157.956 107.358 157.956 109.115C157.956 110.873 156.571 112.301 154.867 112.301ZM158.598 106.68C158.53 106.573 158.458 106.467 158.383 106.364C157.925 105.744 157.32 105.251 156.619 104.935C156.081 104.697 155.488 104.562 154.867 104.562C153.931 104.562 153.063 104.865 152.346 105.379C151.204 106.204 150.451 107.571 150.451 109.115C150.451 111.624 152.434 113.669 154.867 113.669C157.3 113.669 159.282 111.624 159.282 109.115C159.282 108.22 159.032 107.387 158.598 106.68Z" fill="white"/>
<path fill-rule="evenodd" clip-rule="evenodd" d="M153.168 103.732C153.247 103.273 153.697 102.874 154.195 102.813C154.211 102.809 154.227 102.804 154.243 102.804C154.275 102.8 154.302 102.8 154.334 102.8C154.852 102.8 155.369 103.178 155.517 103.667C155.525 103.683 155.529 103.704 155.533 103.72C155.62 104.102 155.505 104.513 155.461 104.57C155.429 104.566 155.334 104.537 155.266 104.517C154.999 104.435 154.597 104.311 154.055 104.435C153.745 104.509 153.542 104.636 153.411 104.722C153.299 104.607 153.16 104.311 153.152 103.983C153.148 103.971 153.148 103.958 153.148 103.946C153.148 103.876 153.156 103.802 153.168 103.732ZM156.731 103.466C156.731 103.449 156.727 103.437 156.723 103.42C156.452 102.283 155.346 101.47 154.195 101.54C154.179 101.54 154.159 101.544 154.143 101.544C153.733 101.577 153.351 101.716 153.02 101.934C152.913 102.004 152.813 102.082 152.722 102.164C152.331 102.509 152.057 102.973 151.961 103.494C151.925 103.691 151.913 103.901 151.925 104.11C151.957 104.566 152.105 105.026 152.347 105.379C152.566 105.691 152.857 105.925 153.215 106.003C153.287 106.02 153.359 106.028 153.422 106.028C153.709 106.028 153.908 105.896 154.036 105.806C154.131 105.744 154.199 105.699 154.33 105.671C154.553 105.617 154.704 105.662 154.912 105.728C155.178 105.81 155.545 105.925 155.959 105.716C156.265 105.56 156.484 105.276 156.62 104.935C156.803 104.484 156.835 103.938 156.731 103.466Z" fill="white"/>
<path fill-rule="evenodd" clip-rule="evenodd" d="M126.979 48.6094L127.567 50.7092L136.471 47.4174C136.247 46.9266 136.023 46.4357 135.799 45.9448C132.859 46.8329 129.919 47.7211 126.979 48.6094Z" fill="#C5C5C5"/>
<path fill-rule="evenodd" clip-rule="evenodd" d="M129.091 87.0624C129.091 87.0624 124.158 90.9107 121.679 92.8288C121.621 92.874 121.325 93.1029 121.266 93.1481C120.513 92.3029 119.761 91.4514 119.008 90.6063C119.099 90.5405 119.188 90.4748 119.278 90.409C119.278 90.409 119.415 90.3093 119.548 90.2119C119.99 89.8894 127.27 84.5229 127.27 84.5229C127.421 84.6389 129.091 87.0624 129.091 87.0624Z" fill="#C5C5C5"/>
<path fill-rule="evenodd" clip-rule="evenodd" d="M131.942 95.176L127.534 88.2866L122.727 92.0146C124.737 94.3669 126.747 96.7194 128.757 99.0719C129.819 97.7732 130.88 96.4746 131.942 95.176Z" fill="#E5E5E5"/>
<path fill-rule="evenodd" clip-rule="evenodd" d="M163.623 95.3046C165.433 97.9504 162.684 102.179 160.935 103.881C160.194 104.602 159.822 104.698 159.55 104.63C158.414 104.348 158.28 101.14 158.183 98.7714C158.065 95.9142 158.023 94.4732 158.834 93.8608C160.052 92.942 162.558 93.7467 163.623 95.3046Z" fill="#C5C5C5"/>
<path fill-rule="evenodd" clip-rule="evenodd" d="M156.277 58.4883C160.571 64.6935 164.872 70.9054 169.166 77.1105C167.993 78.7575 166.814 80.466 165.634 82.2496C165.581 82.3316 165.528 82.4137 165.475 82.4956C165.25 82.8373 165.024 83.179 164.799 83.5207C164.541 83.9171 164.282 84.3135 164.03 84.7098C163.951 84.8397 163.871 84.9627 163.785 85.0926C166.29 87.0334 168.795 88.9741 171.293 90.915C172.128 89.89 172.904 88.9469 173.619 88.0584C177.045 83.7599 179 80.7873 179.245 77.1105C179.424 74.4249 177.622 71.1103 174.037 64.4679C169.623 56.2877 166.35 50.3696 161.36 48.8115C161.294 48.7911 159.551 48.299 156.065 47.3149C155.071 47.0347 151.512 46.0301 150.545 45.7568L156.277 58.4883Z" fill="#C5C5C5"/>
<path fill-rule="evenodd" clip-rule="evenodd" d="M163.203 84.6207C163.203 84.6207 168.587 88.8213 171.294 90.9151C171.357 90.9644 171.681 91.2143 171.744 91.2636C172.566 90.341 173.388 89.4117 174.21 88.489C174.11 88.4173 174.012 88.3455 173.915 88.2738C173.915 88.2738 173.765 88.1648 173.62 88.0585C173.138 87.7066 165.191 81.8486 165.191 81.8486C165.026 81.9752 163.203 84.6207 163.203 84.6207Z" fill="white"/>
<path fill-rule="evenodd" clip-rule="evenodd" d="M160.091 93.4778L164.902 85.9575L170.15 90.0268C167.956 92.5947 165.762 95.1626 163.568 97.7303C162.409 96.3128 161.25 94.8953 160.091 93.4778Z" fill="#C5C5C5"/>
<path fill-rule="evenodd" clip-rule="evenodd" d="M161.144 47.6697L160.69 49.8047L151.597 47.1191C151.789 46.6142 151.982 46.1094 152.174 45.6045C155.164 46.2928 158.154 46.9813 161.144 47.6697Z" fill="#C5C5C5"/>
<path fill-rule="evenodd" clip-rule="evenodd" d="M139.146 45.9803C139.933 44.8644 139.821 43.5028 139.999 42.2206C141.795 41.3032 143.478 40.1986 144.707 38.3407C145.233 37.5454 145.692 37.301 146.122 38.4233C146.567 39.5837 147.407 40.0676 148.502 40.0057C148.588 41.2909 148.558 42.5518 148.416 43.7892C148.171 45.9214 147.595 47.9842 146.713 49.9829C145.083 51.4557 143.43 52.7852 141.269 51.5671C140.015 50.8603 139.119 49.7239 138.338 48.4352C137.585 47.1943 138.958 46.8323 139.146 45.9803Z" fill="#E5E5E5"/>
<path fill-rule="evenodd" clip-rule="evenodd" d="M135.379 27.6564C136.067 27.5343 136.755 27.4081 137.445 27.2906C139.874 26.8765 141.157 27.8585 141.425 30.4671C141.508 31.2736 141.688 31.9363 142.142 32.6167C143.545 34.7152 143.137 36.9642 141.105 38.9008C139.731 40.2103 137.853 40.1348 135.991 38.6825C135.673 38.4341 135.446 38.0346 134.971 38.0724C132.433 37.3954 132.389 37.3327 133.513 34.7799C134.032 33.6001 134.323 32.377 134.386 31.0972C134.448 29.8599 134.741 28.7088 135.379 27.6564Z" fill="#E5E5E5"/>
<path fill-rule="evenodd" clip-rule="evenodd" d="M145.928 34.596C145.814 34.9199 145.724 35.3427 145.522 35.6975C145.29 36.1074 144.967 36.6087 144.488 36.5693C143.8 36.5124 144.187 35.8009 144.036 35.403C143.933 35.1339 143.934 34.8123 143.931 34.5136C143.924 33.9033 143.495 33.1852 144.346 32.7795C144.679 32.6206 145.02 32.4957 145.333 32.7134C145.955 33.1457 145.85 33.8648 145.928 34.596Z" fill="#C5C5C5"/>
<path fill-rule="evenodd" clip-rule="evenodd" d="M145.521 35.6978C145.289 36.1075 144.966 36.609 144.487 36.5695C143.799 36.5127 144.187 35.8011 144.035 35.4033C143.932 35.1341 143.934 34.8125 143.93 34.5138C143.923 33.9035 143.494 33.1854 144.345 32.7798C144.678 32.6209 145.019 32.496 145.332 32.7137C145.954 33.1459 145.849 33.8649 145.928 34.5963C145.813 34.9201 145.723 35.343 145.521 35.6978ZM152.031 22.5083C152.029 22.5102 152.027 22.5121 152.024 22.5139L151.453 21.9391C151.453 21.9391 147.074 15.6344 136.644 20.2851C136.638 20.3002 136.632 20.3146 136.627 20.3297C134.739 21.1459 133.651 22.6907 133.39 24.7137C133.205 26.1447 134.279 26.9875 135.378 27.6567C136.067 27.5345 136.755 27.4084 137.444 27.2908C139.873 26.8767 141.157 27.8587 141.425 30.4673C141.508 31.2738 141.687 31.9365 142.142 32.6169C143.545 34.7155 143.137 36.9645 141.105 38.901C139.731 40.2106 137.853 40.135 135.991 38.6827C135.673 38.4344 135.446 38.0349 134.971 38.0726C134.808 38.5797 134.639 39.0846 134.483 39.5936C133.814 41.771 134.688 42.995 136.891 42.9002C137.75 42.8632 138.604 42.6986 139.46 42.5921C141.455 41.6994 143.322 40.6173 144.671 38.7742C145.248 37.9853 145.758 37.7471 146.254 38.8775C146.768 40.0462 147.713 40.5433 148.936 40.4971C152.046 38.9169 153.807 36.4226 153.91 32.7508C153.947 31.4141 154.059 30.0744 154.225 28.7478C154.537 26.2566 153.768 24.2066 152.031 22.5083Z" fill="#C5C5C5"/>
<path fill-rule="evenodd" clip-rule="evenodd" d="M139.634 43.3042C138.705 44.2162 137.777 45.1281 136.848 46.04C137.87 48.6648 138.893 51.2897 139.915 53.9144C141.105 52.3599 142.295 50.8056 143.484 49.2512C143.484 49.2512 140.084 47.1767 139.634 43.3042Z" fill="#C5C5C5"/>
<path fill-rule="evenodd" clip-rule="evenodd" d="M148.436 43.3042C149.392 44.1796 150.349 45.0551 151.305 45.9305C150.252 48.5918 149.2 51.2531 148.147 53.9144C146.965 52.3599 145.783 50.8056 144.602 49.2512C144.602 49.2512 147.989 47.1767 148.436 43.3042Z" fill="#C5C5C5"/>
<path fill-rule="evenodd" clip-rule="evenodd" d="M143.127 49.3462H145.037L146.756 51.39L144.941 53.4585H143.127L141.223 51.6703L143.127 49.3462Z" fill="#C5C5C5"/>
<path fill-rule="evenodd" clip-rule="evenodd" d="M197.231 93.9556C195.679 94.365 194.981 97.5765 195.479 100.013C196.059 102.85 198.418 105.419 199.601 105.008C200.588 104.666 200.612 102.3 200.638 99.6907C200.672 96.2699 199.863 95.3016 199.601 95.0185C199.464 94.8703 198.325 93.6671 197.231 93.9556Z" fill="#D2D2D2"/>
<path fill-rule="evenodd" clip-rule="evenodd" d="M219.777 28.1294L221.356 41.692C221.356 41.692 215.493 47.2059 212.691 47.3484C209.434 47.5143 213.441 28.728 213.441 28.728L219.777 28.1294Z" fill="#D2D2D2"/>
<path fill-rule="evenodd" clip-rule="evenodd" d="M217.922 14.8206C218.413 15.2132 225.244 19.7551 221.151 29.3653C219.77 34.1348 212.918 35.3471 210.862 28.347C208.806 21.3471 212.467 10.4621 217.922 14.8206Z" fill="#FBFBFB"/>
<path fill-rule="evenodd" clip-rule="evenodd" d="M221.648 17.4443C221.648 17.4443 219.571 7.95994 209.533 10.4019C209.103 10.5065 208.692 10.7313 208.413 11.0842C207.365 12.406 209.121 13.8517 210.662 14.095C208.406 13.8581 206.328 15.9839 209.689 17.3038C208.671 17.854 208.917 20.1995 210.687 20.7048C210.648 20.5277 211.268 17.7048 213.289 17.1599C214.501 16.8328 217.874 16.2902 219.066 17.4012C221.627 19.7887 222.466 23.9746 222.466 23.9746C222.466 23.9746 222.79 19.9843 221.648 17.4443Z" fill="#C5C5C5"/>
<path fill-rule="evenodd" clip-rule="evenodd" d="M221.487 21.6231C221.487 21.6231 223.892 19.5945 223.681 22.3834C223.513 24.5961 221.467 24.4604 221.467 24.4604L221.487 21.6231Z" fill="#FBFBFB"/>
<path fill-rule="evenodd" clip-rule="evenodd" d="M247.993 95.6363C248.264 97.2206 247.044 98.6578 245.932 99.3669C244.129 100.516 241.286 100.598 239.542 99.087C239.36 98.9295 237.862 97.5942 238.203 96.1027C238.802 93.4813 244.695 92.0749 246.962 93.8643C247.771 94.5029 247.956 95.4198 247.993 95.6363Z" fill="#FBFBFB"/>
<path fill-rule="evenodd" clip-rule="evenodd" d="M220.585 39.3278C220.743 39.6232 220.932 39.9754 221.152 40.378C222.981 43.7923 224.81 47.2128 226.64 50.6272C226.676 50.6335 226.914 50.9353 227.28 51.4069C228.347 52.784 230.451 55.5695 231.353 56.3367C232.17 57.0221 232.78 57.6949 233.182 58.1854C233.414 58.4619 233.579 58.6758 233.676 58.8079C234.883 60.3987 237.469 63.4107 243.036 69.3842C243.34 78.1874 243.645 86.9842 243.956 95.7874C243.362 97.3576 243.314 98.8652 243.928 99.3225C244.572 99.802 246.135 99.2687 247.575 97.6273C247.877 97.2838 248.085 96.8626 248.173 96.4084C248.903 92.6539 249.864 87.2965 250.756 80.8041C251.857 72.787 252.392 68.7242 251.67 66.0767C250.978 63.543 249.837 62.184 240.438 49.6086C238.737 47.3322 237.152 45.2824 235.969 43.7923C235.694 43.5469 235.408 43.3018 235.115 43.0502C234.749 42.7359 233.67 41.8053 233.054 41.3462C231.518 40.1955 227.987 38.2966 220.585 39.3278Z" fill="#FBFBFB"/>
<path fill-rule="evenodd" clip-rule="evenodd" d="M220.585 39.3278C220.743 39.6232 220.932 39.9754 221.152 40.378C222.573 42.9937 225.146 47.6655 227.28 51.4069C229.005 54.4441 230.432 56.8711 230.725 57.1101C231.377 57.6509 231.999 58.1916 232.591 58.7261C232.786 58.5501 232.981 58.374 233.182 58.1854C234.603 56.8649 236.121 55.2803 237.639 53.4128C238.713 52.1049 239.639 50.8222 240.438 49.6086C240.652 49.2942 240.853 48.9861 241.042 48.6843C239.871 47.4455 238.17 45.729 235.969 43.7923C235.694 43.5469 235.408 43.3018 235.115 43.0502C234.749 42.7359 233.67 41.8053 233.054 41.3462C231.518 40.1955 227.987 38.2966 220.585 39.3278Z" fill="#D2D2D2"/>
<path fill-rule="evenodd" clip-rule="evenodd" d="M196.351 73.4413V97.1436H201.155L206.899 55.5352C206.899 55.5352 197.216 49.8787 197.009 54.9916C196.668 63.3929 196.351 73.4413 196.351 73.4413Z" fill="#ECF7F9"/>
<path fill-rule="evenodd" clip-rule="evenodd" d="M195.957 58.2471C199.427 58.6012 202.896 58.9556 206.366 59.3098H208.736C209.397 52.5317 210.059 45.7537 210.72 38.9756L209.781 39.1013L209.653 39.1203C209.027 39.2327 208.137 39.4063 207.077 39.6613C205.33 40.0815 203.961 40.4108 202.557 41.0429C201.342 41.5906 199.748 42.3109 198.561 43.7667C197.699 44.8249 197.293 45.9771 196.678 50.9141C196.442 52.8113 196.171 55.3006 195.957 58.2471Z" fill="#D2D2D2"/>
<path fill-rule="evenodd" clip-rule="evenodd" d="M201.344 122.025H212.732C213.323 111.68 213.884 111.703 214.231 107.588C214.267 107.543 214.49 107.299 214.844 107.31C215.285 107.329 215.511 107.72 215.522 107.746C215.693 111.681 216.211 111.639 216.846 122.025H228.602C228.697 110.349 228.788 107.709 228.88 96.0287C228.883 95.4156 228.891 94.8062 228.894 94.1931L228.883 94.0726L228.861 93.8621L228.661 91.6126L228.351 88.103C227.796 88.2008 227.227 88.2986 226.64 88.3888C223.824 88.8253 220.662 89.1375 217.204 89.2014C217.112 89.2014 217.018 89.2051 216.919 89.2051C216.284 89.2126 215.639 89.2126 214.986 89.2051H214.906C210.627 89.1449 206.775 88.7011 203.456 88.103C203.405 88.4153 203.354 88.7274 203.299 89.0359C203.153 89.9311 203.003 90.8264 202.85 91.7217C202.719 92.5455 202.584 93.3655 202.449 94.1818C202.445 94.2307 202.434 94.2984 202.424 94.3586C202.413 94.4376 202.402 94.5015 202.402 94.5015C202.299 96.7848 202.205 99.0832 202.117 101.397C202.11 101.573 202.102 101.75 202.099 101.927C202.051 103.033 202.011 104.143 201.971 105.256C201.905 107.156 201.843 109.066 201.785 110.985C201.763 111.707 201.741 112.433 201.719 113.163C201.683 114.449 201.647 115.743 201.617 117.037C201.592 118.049 201.566 119.065 201.544 120.084C201.519 121.04 201.501 118.613 201.482 119.576C201.424 122.258 201.38 119.309 201.344 122.025Z" fill="#B3B3B3"/>
<path fill-rule="evenodd" clip-rule="evenodd" d="M231.716 40.818C231.304 58.566 230.892 76.3139 230.479 94.0619C226.366 94.0786 205.454 94.239 201.624 94.3807C202.007 76.8897 202.39 59.3986 202.773 41.9077C204.339 41.4667 205.983 41.0629 207.704 40.7117C210.843 40.0714 213.716 43.5198 216.571 43.3198C219.84 43.091 223.041 39.2718 225.842 39.4363C226.192 39.4843 226.709 39.5564 227.336 39.6489C228.249 39.7839 228.705 39.8513 229.037 39.9146C229.679 40.0375 230.6 40.2813 231.716 40.818Z" fill="#D2D2D2"/>
<path fill-rule="evenodd" clip-rule="evenodd" d="M226.641 96.0279H246.041V67.9492H226.641V96.0279Z" fill="#C5C5C5"/>
<path fill-rule="evenodd" clip-rule="evenodd" d="M234.293 96.0279H238.152V68.0327H234.293V96.0279Z" fill="#FEFEFE"/>
<path fill-rule="evenodd" clip-rule="evenodd" d="M204.613 59.3097H210.72V55.8975H204.613V59.3097Z" fill="white"/>
<path fill-rule="evenodd" clip-rule="evenodd" d="M220.521 36.6831C221.362 37.4549 222.203 38.2267 223.044 38.9985C222.117 41.4809 221.19 43.9634 220.263 46.4457C219.014 45.42 217.765 44.3943 216.516 43.3685C217.165 42.7006 217.896 41.837 218.595 40.7552C219.572 39.2423 220.159 37.8048 220.521 36.6831Z" fill="#FEFEFE"/>
<path fill-rule="evenodd" clip-rule="evenodd" d="M212.422 36.6831C211.542 37.4886 210.662 38.2941 209.782 39.0996C210.751 41.5484 211.719 43.9971 212.688 46.4457C213.964 45.42 215.24 44.3943 216.515 43.3685C215.849 42.7268 215.075 41.8662 214.341 40.7552C213.333 39.2303 212.758 37.7765 212.422 36.6831Z" fill="#FEFEFE"/>
<path fill-rule="evenodd" clip-rule="evenodd" d="M213.531 27.3436C213.708 27.1461 213.951 27.027 214.211 27.0197C214.392 27.0146 214.59 27.0052 214.71 26.9907C215.005 26.9548 215.295 27.0745 215.499 27.2969C216.827 28.743 219.137 30.2611 220.981 26.254C221.843 24.2066 222.403 24.3488 222.403 24.3488C222.403 24.3488 225.163 35.7775 217.08 39.2549C212.116 41.3902 205.635 34.926 210.541 26.6284C211.321 28.9413 212.616 28.3665 213.531 27.3436Z" fill="#C5C5C5"/>
<path fill-rule="evenodd" clip-rule="evenodd" d="M151.401 45.1772C150.968 53.7673 150.789 60.3011 150.778 63.3377C150.775 64.2392 150.782 65.8482 151.187 67.8903C151.548 69.7155 152.059 71.0431 152.292 71.6412C157.212 84.249 159.683 90.6447 161.136 90.3949C161.136 90.3949 161.858 90.2276 164.342 79.6754L158.346 47.7763C156.031 46.91 153.716 46.0435 151.401 45.1772Z" fill="#FAFAFA"/>
<path fill-rule="evenodd" clip-rule="evenodd" d="M185.792 45.1772C186.224 53.7673 186.404 60.3011 186.415 63.3377C186.418 64.2392 186.41 65.8482 186.006 67.8903C185.645 69.7155 185.134 71.0431 184.901 71.6412C179.981 84.249 177.51 90.6447 176.056 90.3949C176.056 90.3949 175.335 90.2276 172.851 79.6754L178.847 47.7763C181.162 46.91 183.477 46.0435 185.792 45.1772Z" fill="#E5E5E5"/>
<path fill-rule="evenodd" clip-rule="evenodd" d="M168.09 116.883V122.025H156.352C156.26 119.618 156.173 117.206 156.082 114.799C156.071 114.509 156.06 114.216 156.049 113.926C160.065 114.912 164.077 115.897 168.09 116.883Z" fill="#E5E5E5"/>
<path fill-rule="evenodd" clip-rule="evenodd" d="M182.326 113.926C182.326 113.945 182.326 113.968 182.323 113.986C182.224 116.665 182.126 119.347 182.023 122.025H170.289V116.883C170.559 116.815 170.825 116.751 171.095 116.683C174.808 115.773 178.518 114.863 182.231 113.949C182.264 113.941 182.293 113.934 182.326 113.926Z" fill="#E5E5E5"/>
<path fill-rule="evenodd" clip-rule="evenodd" d="M187.598 47.8839C185.23 48.3114 182.863 48.739 180.496 49.1665C180.299 51.0915 180.102 53.0164 179.906 54.9414C173.356 53.3229 156.592 54.3799 156.592 54.3799L155.748 49.2705L149.644 48.1624C149.644 48.1624 149.891 44.3975 151.568 41.2275C151.854 40.6834 152.576 39.4052 153.636 38.3359C155.788 36.1593 158.805 35.3811 161.146 35.1216C162.245 35.0014 163.195 34.9951 163.845 35.0077C164.033 35.0139 164.196 35.0204 164.333 35.0267C167.603 35.1849 170.536 34.4888 173.988 34.7167C174.697 34.7673 175.432 34.8559 176.199 34.9951C176.368 35.0267 176.531 35.0584 176.687 35.09C180.003 35.748 181.349 36.5072 182.045 37.0008C184.321 38.608 185.368 40.7656 186.018 42.107C187.13 44.3975 187.481 46.4855 187.598 47.8839Z" fill="#C5C5C5"/>
<path fill-rule="evenodd" clip-rule="evenodd" d="M165.472 30.574C165.42 31.4724 165.402 32.1863 165.394 32.6594C165.374 33.8619 165.278 34.1101 165.122 34.3438C164.582 35.1493 163.233 35.0806 162.704 35.0273C162.976 38.6123 165.977 41.3156 169.321 41.1459C172.474 40.9858 175.111 38.3137 175.315 34.9363C175.143 34.896 174.885 34.8371 174.571 34.7695C173.611 34.5627 173.567 34.5866 173.444 34.5042C173.336 34.4323 173.038 34.1884 172.938 32.4188C172.91 31.9291 172.897 31.2728 172.949 30.4937C170.457 30.5206 167.964 30.5472 165.472 30.574Z" fill="#E5E5E5"/>
<path fill-rule="evenodd" clip-rule="evenodd" d="M166.855 28.5137H171.39C171.39 28.5137 169.218 31.8083 166.855 28.5137Z" fill="white"/>
<path fill-rule="evenodd" clip-rule="evenodd" d="M164.108 34.9678C162.946 40.0007 161.785 45.0336 160.624 50.0666L159.133 56.5141L156.746 55.9257L158.206 49.6047C159.705 44.7455 161.204 39.8864 162.703 35.0272C162.769 35.0243 162.928 35.0175 162.994 35.0145C163.366 34.9986 163.737 34.983 164.108 34.9678Z" fill="#E5E5E5"/>
<path fill-rule="evenodd" clip-rule="evenodd" d="M179.632 56.5082L177.208 56.9194L176.122 50.086C175.298 44.9176 174.474 39.7494 173.65 34.5811C174.108 34.6745 174.583 34.756 175.073 34.8229C175.156 34.8342 175.238 34.8451 175.32 34.8553C176.418 39.9321 177.516 45.0091 178.613 50.086L179.632 56.5082Z" fill="#E5E5E5"/>
<path fill-rule="evenodd" clip-rule="evenodd" d="M159.288 47.0813C162.036 47.6109 165.525 48.0181 169.554 47.8567C172.65 47.7326 175.375 47.3004 177.643 46.7871C179.189 49.3109 179.666 51.4606 179.821 52.9363C180.364 58.1154 177.977 64.8742 178.887 67.9616C178.913 68.048 179.114 68.7163 179.346 69.482C179.579 70.2491 179.887 71.258 180.291 72.5538C180.61 73.5783 180.971 74.8892 181.376 76.7308C181.883 79.0344 182.192 80.9522 182.374 82.2257C182.626 84.5883 182.864 86.9748 183.084 89.3849C183.826 97.4805 184.338 105.365 184.656 113.02C184.656 113.02 166.598 121.748 152.645 113.02C153.177 103.198 153.71 93.3756 154.243 83.5532C154.385 82.3054 154.627 80.4529 155.036 78.2279C155.294 76.8303 155.548 75.6644 155.789 74.6627C156.165 73.0986 156.509 71.8141 156.757 70.9196C156.947 70.2351 157.089 69.7489 157.11 69.6726C158.136 66.0925 155.554 58.0204 157.11 51.8135C157.385 50.7174 157.954 49.0213 159.288 47.0813Z" fill="#E5E5E5"/>
<path fill-rule="evenodd" clip-rule="evenodd" d="M173.443 55.5922H179.264V52.1343H173.443V55.5922Z" fill="white"/>
<path fill-rule="evenodd" clip-rule="evenodd" d="M156.766 31.3552C157.571 32.9921 161.992 34.8436 165.498 34.0607C165.507 34.017 165.522 33.973 165.529 33.9292C165.893 31.7089 165.577 29.2314 165.569 25.2221C165.56 20.8397 165.882 17.6494 167.43 17.5256C167.43 17.5256 171.681 20.6799 176.311 21.855C176.384 21.8745 176.459 21.8922 176.532 21.9101C176.23 25.229 175.536 29.0078 174.316 29.1199L172.543 29.2828L172.908 34.5587C177.231 34.4602 180.586 33.7475 181.225 32.8964C182.935 30.6137 182.305 26.3681 179.055 22.1375C179.927 22.062 180.758 21.8029 181.513 21.3005C186.865 17.7373 171.454 9.42625 166.202 11.853C160.95 14.2811 154.741 27.2363 156.766 31.3552Z" fill="#E5E5E5"/>
<path fill-rule="evenodd" clip-rule="evenodd" d="M165.477 34.9951C167.522 34.949 170.318 35.1212 173.006 35.291L172.543 29.2826L174.316 29.1196C175.536 29.0076 176.23 25.2288 176.532 21.9097C176.459 21.892 176.384 21.8742 176.311 21.8548C171.681 20.6797 167.431 17.5254 167.431 17.5254C165.882 17.6492 165.56 20.8395 165.569 25.2219C165.578 29.2312 165.497 34.7461 165.477 34.9951Z" fill="#FAFAFA"/>
<path fill-rule="evenodd" clip-rule="evenodd" d="M206.53 92.7156C206.275 93.5224 205.695 99.1375 205.695 99.1375C208.407 99.4814 208.665 98.4479 208.665 98.4479L219.104 76.7333C220.201 73.0213 217.585 67.7915 214.876 67.452C212.164 67.1129 208.868 70.9776 207.77 74.6908L206.53 92.7156Z" fill="#FAC7AC"/>
<path fill-rule="evenodd" clip-rule="evenodd" d="M212.589 52.8119C210.788 51.4793 208.7 50.7167 207.742 50.364C207.456 50.2573 207.17 50.1589 206.887 50.0688C205.015 49.4619 203.257 49.1544 201.722 49.0191C201.699 49.015 201.675 49.011 201.651 49.011C201.464 48.9945 201.281 48.9781 201.098 48.9658C200.899 48.9535 200.697 48.9412 200.494 48.9371C200.458 48.9329 200.422 48.9329 200.386 48.9329C200.378 48.9289 200.367 48.9289 200.359 48.9289C200.251 48.9249 200.144 48.9207 200.037 48.9207C199.87 48.9166 199.703 48.9166 199.543 48.9166C199.086 48.9166 198.661 48.9289 198.275 48.9494C195.44 48.9329 192.605 48.9207 189.77 48.9043C189.428 48.9084 189.047 48.9207 188.637 48.9453C188.466 48.9576 188.291 48.9699 188.116 48.9863C188.025 48.9945 187.937 49.0027 187.846 49.011C187.687 49.0273 187.528 49.0437 187.365 49.0642C187.357 49.0642 187.349 49.0683 187.341 49.0683C187.178 49.0888 187.019 49.1094 186.864 49.1338C186.808 49.1421 186.757 49.1503 186.701 49.1586C186.641 49.1667 186.578 49.1749 186.518 49.1872C186.379 49.2078 186.236 49.2322 186.092 49.257C186.041 49.2651 185.989 49.2774 185.937 49.2856C185.918 49.2897 185.902 49.2939 185.882 49.298C185.691 49.3348 185.496 49.3718 185.297 49.421C184.534 49.589 183.723 49.8105 182.888 50.1057C182.152 50.3599 181.393 50.6715 180.625 51.0447C179.596 51.549 177.464 52.5864 175.651 54.4275C175.516 54.5669 175.385 54.7104 175.262 54.858C173.126 57.4002 172.399 61.7096 171.385 69.5167C171.361 69.6848 171.341 69.857 171.317 70.0292L180.713 74.476L178.49 112.718V112.8C178.395 115.707 178.299 118.614 178.208 121.521H193.77C193.802 121.365 193.834 121.21 193.866 121.05C194.422 118.327 195.031 115.719 195.675 113.234C196.458 115.994 197.241 118.758 198.025 121.521H213.468C212.78 110.221 212.088 98.916 211.4 87.6196" fill="#FF454B"/>
<path fill-rule="evenodd" clip-rule="evenodd" d="M201.651 49.0093L193.839 74.7105L186.094 49.258C186.488 49.1865 186.904 49.1219 187.341 49.068C187.792 49.0125 190.654 48.4416 191.065 48.415C191.785 50.7811 191.499 50.9635 193.812 51.1248C196.398 51.3049 197.181 51.3298 197.992 48.6614C198.114 48.6614 199.787 48.9154 199.911 48.9175C200.512 48.9271 201.092 48.9592 201.651 49.0093Z" fill="#FF454B"/>
<path fill-rule="evenodd" clip-rule="evenodd" d="M191.584 44.4296L191.204 50.1214C191.204 50.1214 189.734 52.496 191.021 52.8573C193.849 53.6536 198.21 50.6243 198.21 50.6243L198.79 41.9331L191.584 44.4296Z" fill="#FAC7AC"/>
<path fill-rule="evenodd" clip-rule="evenodd" d="M186.819 31.9051C186.819 31.9051 185.937 37.8665 186.796 42.8728C187.406 46.4265 194.843 48.9489 198.3 42.5345C201.757 36.1202 198.129 29.2197 198.129 29.2197L186.819 31.9051Z" fill="#FAC7AC"/>
<path fill-rule="evenodd" clip-rule="evenodd" d="M199.765 37.2495C200.088 36.4212 201.831 36.9189 201.847 36.7424C203.466 35.7126 204.795 33.8935 203.292 32.7121C204.273 30.9818 203.526 29.0778 201.673 28.4663C201.91 26.902 200.86 25.8513 199.798 25.5622C199.467 23.7793 197.295 22.7036 196.246 23.7075C195.794 23.3233 195.238 23.0656 194.599 23.0304C194.152 23.007 193.795 23.111 193.491 23.2902C193.332 22.865 193.04 22.5048 192.537 22.294C191.421 21.8277 190.414 22.674 189.643 23.5747C188.344 22.3118 185.917 22.9187 185.091 24.453C182.176 25.316 180.377 28.1953 183.328 30.7567C186.641 33.635 192.454 32.1153 196.776 30.7728C196.776 30.7728 199.582 31.8235 199.765 37.2495Z" fill="black"/>
<path fill-rule="evenodd" clip-rule="evenodd" d="M191.321 44.3884C190.516 44.3134 187.338 42.2478 186.78 42.8951C186.221 43.5423 187.393 47.0656 188.684 47.8861C189.975 48.7066 191.447 49.6242 192.487 49.6628C193.528 49.7016 197.478 48.1256 198.092 47.6784C198.706 47.2312 200.353 39.8624 199.881 37.9305C199.41 35.9986 200.131 33.6274 199.454 34.0319C198.777 34.4361 198.499 42.6617 197.462 43.5543C196.424 44.447 192.748 44.5214 191.321 44.3884Z" fill="black"/>
<path fill-rule="evenodd" clip-rule="evenodd" d="M188.573 102.702L188.61 103.845C188.652 105.174 187.757 106.345 186.491 106.599C184.014 107.097 180.315 106.949 180.315 101.624C180.315 95.7897 183.867 99.7006 186.349 100.108C187.598 100.313 188.532 101.399 188.573 102.702Z" fill="#CF3C41"/>
<path fill-rule="evenodd" clip-rule="evenodd" d="M201.223 102.949L201.187 104.091C201.145 105.42 202.04 106.592 203.305 106.846C205.782 107.344 209.481 107.195 209.481 101.87C209.481 96.0363 205.93 99.9472 203.448 100.354C202.199 100.559 201.265 101.645 201.223 102.949Z" fill="#CF3C41"/>
<path fill-rule="evenodd" clip-rule="evenodd" d="M171.134 89.2489C170.988 90.089 171.168 95.7657 171.168 95.7657C173.916 95.7195 174.033 94.6531 174.033 94.6531L181.507 71.5267C182.099 67.672 178.789 62.8371 176.044 62.8871C173.297 62.9381 170.535 67.2599 169.94 71.1162L171.134 89.2489Z" fill="#FAC7AC"/>
<path fill-rule="evenodd" clip-rule="evenodd" d="M181.038 51.1374C170.382 53.5302 168.19 64.9909 170.419 76.8322C170.92 79.492 184.191 77.0111 184.356 74.9654C187.489 70.0957 186.247 49.9675 181.038 51.1374Z" fill="#FF454B"/>
<path fill-rule="evenodd" clip-rule="evenodd" d="M178.859 102.586H176.673C176.653 102.586 176.637 102.569 176.637 102.548V98.4058C176.637 98.3846 176.621 98.3675 176.602 98.3674L169.618 98.3348C169.598 98.3348 169.582 98.352 169.582 98.3731V102.548C169.582 102.569 169.566 102.586 169.546 102.586H167.36C167.34 102.586 167.324 102.569 167.324 102.548V98.1162C167.324 97.5674 167.485 97.0207 167.825 96.6119C168.205 96.1545 168.733 95.9014 169.298 95.9014H169.306L176.93 95.9367C178.014 95.9424 178.895 96.8959 178.895 98.0627V102.548C178.895 102.569 178.879 102.586 178.859 102.586Z" fill="black"/>
<path fill-rule="evenodd" clip-rule="evenodd" d="M176.114 98.3743C175.35 98.1396 175.185 96.4105 176.536 95.9228C176.253 94.7423 175.873 94.3838 174.658 93.6679C174.392 93.5114 173.847 93.425 173.699 93.431C172.545 93.6706 172.312 93.395 171.139 93.4787C170.461 93.8623 169.839 94.7086 169.619 95.4516C169.257 96.6748 169.469 98.1056 170.093 99.2097C170.149 99.3094 170.213 99.4098 170.311 99.469C170.549 99.6136 170.873 99.4563 171.128 99.5672C171.344 99.6607 171.46 99.9247 171.687 99.9875C172.011 100.078 172.33 99.6998 172.654 99.7881C172.934 99.8639 173.04 100.239 173.312 100.338C173.527 100.416 173.758 100.294 173.983 100.256C174.274 100.206 174.582 100.317 174.79 100.524C174.995 100.728 175.041 100.939 175.392 100.869C175.602 100.828 175.769 100.657 175.861 100.462C175.989 100.194 175.998 99.8826 176.049 99.5976C176.114 99.2315 176.151 98.8607 176.123 98.4896L176.114 98.3743Z" fill="#FAC7AC"/>
<path fill-rule="evenodd" clip-rule="evenodd" d="M187.472 121.384H166.717C166.286 121.384 165.936 121.023 165.936 120.577V102.784C165.936 102.339 166.286 101.978 166.717 101.978H187.472C187.903 101.978 188.254 102.339 188.254 102.784V120.577C188.254 121.023 187.903 121.384 187.472 121.384Z" fill="#1F1F1F"/>
<path fill-rule="evenodd" clip-rule="evenodd" d="M179.236 121.384H158.431C158.013 121.384 157.675 121.034 157.675 120.604V102.758C157.675 102.327 158.013 101.978 158.431 101.978H179.236C179.654 101.978 179.993 102.327 179.993 102.758V120.604C179.993 121.034 179.654 121.384 179.236 121.384Z" fill="black"/>
<path fill-rule="evenodd" clip-rule="evenodd" d="M188.892 106.45V103.586C188.892 102.474 188.018 101.572 186.94 101.572H167.594C166.516 101.572 165.642 102.474 165.642 103.586V107.196H188.168C188.568 107.196 188.892 106.862 188.892 106.45Z" fill="black"/>
<path fill-rule="evenodd" clip-rule="evenodd" d="M180.288 106.555V103.52C180.288 102.444 179.442 101.572 178.399 101.572H158.926C157.883 101.572 157.037 102.444 157.037 103.52V106.642C157.037 106.948 157.278 107.197 157.575 107.197H179.665C180.009 107.197 180.288 106.909 180.288 106.555Z" fill="black"/>
<path fill-rule="evenodd" clip-rule="evenodd" d="M172.864 112.604H170.716V110.262C170.716 110.095 170.508 109.965 170.346 109.965H168.233C168.071 109.965 167.924 110.095 167.924 110.262V112.604H165.715C165.553 112.604 165.365 112.692 165.365 112.859V115.038C165.365 115.205 165.553 115.243 165.715 115.243H167.924V117.634C167.924 117.802 168.071 118.122 168.233 118.122H170.346C170.508 118.122 170.716 117.802 170.716 117.634V115.243H172.864C173.026 115.243 173.275 115.205 173.275 115.038V112.859C173.275 112.692 173.026 112.604 172.864 112.604Z" fill="#ECECEC"/>
<path fill-rule="evenodd" clip-rule="evenodd" d="M209.32 51.5187C219.976 53.9114 222.167 65.3722 219.939 77.2136C219.438 79.8733 206.166 77.3924 206.002 75.3468C202.869 70.477 204.11 50.3488 209.32 51.5187Z" fill="#FF454B"/>
</g>
<defs>
<clipPath id="clip0_1643_15521">
<rect width="360" height="120" fill="white"/>
</clipPath>
</defs>
</svg>
