<svg width="16" height="16" viewBox="0 0 16 16" fill="none" xmlns="http://www.w3.org/2000/svg">
<path d="M0.516619 0.51662C1.20545 -0.172207 2.32225 -0.172206 3.01108 0.51662L15.4834 12.9889C16.1722 13.6777 16.1722 14.7946 15.4834 15.4834C14.7946 16.1722 13.6777 16.1722 12.9889 15.4834L0.51662 3.01108C-0.172206 2.32225 -0.172207 1.20545 0.516619 0.51662Z" fill="#FF8000"/>
<path d="M15.4834 0.51662C16.1722 1.20545 16.1722 2.32225 15.4834 3.01108L3.01108 15.4834C2.32225 16.1722 1.20545 16.1722 0.516619 15.4834C-0.172207 14.7946 -0.172206 13.6777 0.51662 12.9889L12.9889 0.516621C13.6777 -0.172206 14.7946 -0.172206 15.4834 0.51662Z" fill="#FF8000"/>
</svg>
