<svg width="25" height="24" viewBox="0 0 25 24" fill="none" xmlns="http://www.w3.org/2000/svg">
<path d="M2.55615 2.25C1.31351 2.25 0.306152 3.25736 0.306152 4.5V15.5C0.306152 16.7426 1.31351 17.75 2.55615 17.75H12.8062V16.25H2.55615C2.14194 16.25 1.80615 15.9142 1.80615 15.5V4.5C1.80615 4.08579 2.14194 3.75 2.55615 3.75H22.0562C22.4704 3.75 22.8062 4.08579 22.8062 4.5V15.5C22.8062 15.9142 22.4704 16.25 22.0562 16.25H19.0562V19.1893L16.3365 16.4697L15.2758 17.5303L20.5562 22.8107V17.75H22.0562C23.2988 17.75 24.3062 16.7426 24.3062 15.5V4.5C24.3062 3.25736 23.2988 2.25 22.0562 2.25H2.55615Z" fill="black"/>
<path d="M6.80615 11.5C7.63458 11.5 8.30615 10.8284 8.30615 10C8.30615 9.17157 7.63458 8.5 6.80615 8.5C5.97773 8.5 5.30615 9.17157 5.30615 10C5.30615 10.8284 5.97773 11.5 6.80615 11.5Z" fill="#FF0008"/>
<path d="M17.8062 11.5C18.6346 11.5 19.3062 10.8284 19.3062 10C19.3062 9.17157 18.6346 8.5 17.8062 8.5C16.9777 8.5 16.3062 9.17157 16.3062 10C16.3062 10.8284 16.9777 11.5 17.8062 11.5Z" fill="#FF0008"/>
<path d="M13.8062 10C13.8062 10.8284 13.1346 11.5 12.3062 11.5C11.4777 11.5 10.8062 10.8284 10.8062 10C10.8062 9.17157 11.4777 8.5 12.3062 8.5C13.1346 8.5 13.8062 9.17157 13.8062 10Z" fill="#FF0008"/>
</svg>
