<svg width="25" height="24" viewBox="0 0 25 24" fill="none" xmlns="http://www.w3.org/2000/svg">
<path fill-rule="evenodd" clip-rule="evenodd" d="M12.3066 8L12.5321 8.31312C13.1629 9.18901 14.2721 9.74656 15.7319 9.42031L15.9927 9.36201L16.0619 9.62169C16.4502 11.0794 16.3854 12.7242 15.7964 14.1046C15.2041 15.4927 14.0786 16.6156 12.365 16.9872L12.3061 17L12.2472 16.9872C10.5337 16.6146 9.40818 15.4918 8.81587 14.1039C8.22689 12.7238 8.16211 11.0793 8.5504 9.62169L8.61958 9.36201L8.88045 9.42031C10.3399 9.74649 11.4466 9.18928 12.0805 8.31268L12.3066 8ZM9.02742 10.0202C8.73976 11.3037 8.82766 12.7083 9.3287 13.8824C9.85267 15.1102 10.8254 16.0835 12.3062 16.4252C13.7869 16.0844 14.7596 15.1111 15.2836 13.8831C15.7846 12.7088 15.8725 11.3038 15.5849 10.0202C14.1829 10.2485 13.043 9.75557 12.3058 8.92462C11.5673 9.75529 10.4296 10.2485 9.02742 10.0202Z" fill="black" stroke="#FF0008" stroke-width="0.8"/>
<path fill-rule="evenodd" clip-rule="evenodd" d="M12.3062 2C6.78331 2 2.30615 6.47715 2.30615 12C2.30615 17.5228 6.78331 22 12.3062 22C17.829 22 22.3062 17.5228 22.3062 12C22.3062 6.47715 17.829 2 12.3062 2ZM3.80615 12C3.80615 7.30558 7.61173 3.5 12.3062 3.5C14.4853 3.5 16.4729 4.32002 17.9772 5.66831L5.97446 17.6711C4.62617 16.1667 3.80615 14.1791 3.80615 12ZM7.07036 18.6965C8.51351 19.8264 10.3312 20.5 12.3062 20.5C17.0006 20.5 20.8062 16.6944 20.8062 12C20.8062 10.025 20.1326 8.20736 19.0026 6.76421L7.07036 18.6965Z" fill="black"/>
</svg>
