<svg width="25" height="24" viewBox="0 0 25 24" fill="none" xmlns="http://www.w3.org/2000/svg">
<path fill-rule="evenodd" clip-rule="evenodd" d="M24.3062 12C24.3062 18.6274 18.9336 24 12.3062 24C5.67874 24 0.306152 18.6274 0.306152 12C0.306152 5.37258 5.67874 0 12.3062 0C18.9336 0 24.3062 5.37258 24.3062 12ZM22.8062 12C22.8062 17.799 18.1051 22.5 12.3062 22.5C6.50716 22.5 1.80615 17.799 1.80615 12C1.80615 6.20101 6.50716 1.5 12.3062 1.5C18.1051 1.5 22.8062 6.20101 22.8062 12Z" fill="black"/>
<path d="M9.05615 8.75C9.05615 7.23565 10.5037 6 12.3062 6C14.1077 6 15.5562 7.23149 15.5562 8.75C15.5562 9.51683 15.3589 10.086 15.0155 10.5437C14.7547 10.8916 14.4115 11.1587 14.1547 11.3585C14.1082 11.3948 14.0645 11.4288 14.0247 11.4607C13.7374 11.6905 13.52 11.8954 13.3579 12.1979C13.1958 12.5004 13.0562 12.9652 13.0562 13.75H11.5562C11.5562 12.7848 11.729 12.0621 12.0357 11.4896C12.3423 10.9171 12.7499 10.5595 13.0876 10.2893C13.1551 10.2354 13.217 10.1866 13.2741 10.1416C13.526 9.94321 13.6846 9.8183 13.8155 9.64375C13.9409 9.47653 14.0562 9.23317 14.0562 8.75C14.0562 8.26851 13.5046 7.5 12.3062 7.5C11.1086 7.5 10.5562 8.2712 10.5562 8.75H9.05615Z" fill="#FF0008"/>
<path d="M11.0562 16.5C11.0562 15.8269 11.6331 15.25 12.3062 15.25C12.9792 15.25 13.5562 15.8269 13.5562 16.5C13.5562 17.1731 12.9792 17.75 12.3062 17.75C11.6331 17.75 11.0562 17.1731 11.0562 16.5Z" fill="#FF0008"/>
</svg>
