<svg width="25" height="24" viewBox="0 0 25 24" fill="none" xmlns="http://www.w3.org/2000/svg">
<path d="M9.55936 11.75C9.55936 11.5387 9.63224 11.3474 9.74757 11.2182C9.85121 11.1021 10.0195 11 10.3074 11C10.5956 11 10.7654 11.1023 10.8702 11.2193C10.9864 11.349 11.0594 11.5401 11.0594 11.75V18.2494L12.5594 18.25V17.25C12.5594 17.1969 12.6082 16.9829 12.7699 16.7808C12.9127 16.6024 13.0879 16.5 13.3094 16.5C13.5306 16.5 13.7058 16.6024 13.8487 16.781C14.0106 16.9834 14.0594 17.1974 14.0594 17.25V19.25H15.5594V18.25C15.5594 18.1974 15.6081 17.9834 15.77 17.781C15.9129 17.6024 16.0882 17.5 16.3094 17.5C16.5306 17.5 16.7058 17.6024 16.8487 17.781C17.0106 17.9834 17.0594 18.1974 17.0594 18.25V20.25H18.5594V19.25C18.5594 19.1974 18.6081 18.9834 18.77 18.781C18.9129 18.6024 19.0882 18.5 19.3094 18.5C19.5306 18.5 19.7058 18.6024 19.8487 18.781C19.9218 18.8724 19.978 18.9753 20.0147 19.0717C20.0328 19.1192 20.0446 19.161 20.0516 19.1946C20.0551 19.2111 20.0571 19.2245 20.0582 19.2344C20.0587 19.2394 20.059 19.2432 20.0592 19.2459L20.0593 19.2489L20.0594 19.25V23.75H21.5594V19.25C21.5594 18.8026 21.3581 18.2666 21.02 17.844C20.6629 17.3976 20.0882 17 19.3094 17C18.9173 17 18.5769 17.1008 18.29 17.2578C18.214 17.1131 18.1234 16.9732 18.02 16.844C17.6629 16.3976 17.0882 16 16.3094 16C15.9173 16 15.5769 16.1008 15.29 16.2578C15.214 16.1131 15.1234 15.9732 15.02 15.844C14.6629 15.3976 14.0882 15 13.3094 15C13.0336 15 12.7834 15.0498 12.5594 15.134V11.75C12.5594 11.2099 12.3751 10.651 11.9873 10.2182C11.588 9.77266 11.0068 9.5 10.3074 9.5C9.60783 9.5 9.02709 9.77288 8.62858 10.2193C8.24176 10.6526 8.05936 11.2114 8.05936 11.75V19.441L6.84061 18.2206L6.83969 18.2197C6.5109 17.8909 6.04412 17.5864 5.47102 17.5343C4.86672 17.4794 4.28157 17.7171 3.77903 18.2197C3.2765 18.7222 3.03876 19.3074 3.09369 19.9117C3.14579 20.4848 3.45024 20.9515 3.77903 21.2803L6.27903 23.7803L7.33969 22.7197L4.83969 20.2197C4.66849 20.0485 4.59793 19.8902 4.58753 19.7758C4.57997 19.6926 4.59223 19.5278 4.83969 19.2803C5.08716 19.0329 5.252 19.0206 5.33521 19.0282C5.44961 19.0386 5.60783 19.1091 5.77903 19.2803L6.59126 20.0939C7.02844 20.5316 7.52964 21.0328 7.78099 21.2823L8.00032 21.5H9.55936V20.75V11.75Z" fill="black"/>
<path d="M3.30615 7C3.30615 3.13401 6.44016 0 10.3062 0C14.1721 0 17.3062 3.13401 17.3062 7C17.3062 9.28891 16.2068 11.3213 14.5104 12.5973L13.6087 11.3985C14.9446 10.3937 15.8062 8.79757 15.8062 7C15.8062 3.96243 13.3437 1.5 10.3062 1.5C7.26859 1.5 4.80615 3.96243 4.80615 7C4.80615 8.79764 5.66778 10.3938 7.00374 11.3986L6.1021 12.5974C4.40562 11.3214 3.30615 9.289 3.30615 7Z" fill="#FF0008"/>
<path d="M9.30615 6.93934L12.7758 3.46967L13.8365 4.53033L9.30615 9.06066L6.77582 6.53033L7.83648 5.46967L9.30615 6.93934Z" fill="#FF0008"/>
</svg>
