<svg width="49" height="48" viewBox="0 0 49 48" fill="none" xmlns="http://www.w3.org/2000/svg">
<path d="M12.2747 6.13296H10.8808V3.75244H12.2813C15.2237 3.75534 18.1285 4.41335 20.785 5.67871C23.4414 6.94407 25.7827 8.78502 27.639 11.0679L25.8069 12.5764C24.1728 10.5648 22.111 8.94278 19.7713 7.82817C17.4316 6.71357 14.8729 6.13446 12.2813 6.13296H12.2747ZM35.7429 41.8692C33.151 41.8678 30.592 41.2887 28.2519 40.1741C25.9119 39.0595 23.8496 37.4374 22.2152 35.4258L20.383 36.9343C22.2389 39.2182 24.5805 41.0598 27.2375 42.3252C29.8944 43.5907 32.8 44.2481 35.7429 44.2498H37.1413V41.8692H35.7429ZM18.9406 3.17989C21.3852 4.06291 23.6028 5.47852 25.4329 7.3242C27.2629 9.16989 28.6596 11.3995 29.5219 13.8514L31.7526 13.0565C30.7735 10.273 29.1874 7.74214 27.1094 5.64732C25.0313 3.5525 22.5133 1.94618 19.7378 0.944717L18.4297 0.47346L17.6303 2.71303L18.9406 3.18429V3.17989ZM29.0704 44.8179C26.6255 43.935 24.4075 42.5195 22.5771 40.6738C20.7466 38.8281 19.3495 36.5985 18.4869 34.1464L16.2562 34.9413C17.2357 37.7246 18.8219 40.2552 20.8999 42.35C22.9779 44.4447 25.4957 46.0512 28.271 47.0531L29.5813 47.5243L30.3785 45.2848L29.0704 44.8135V44.8179ZM26.4719 2.72184C28.4572 4.40531 30.0447 6.50778 31.1204 8.87805C32.196 11.2483 32.7331 13.8275 32.6929 16.4302L35.0602 16.4654C35.105 13.5103 34.4947 10.5821 33.2733 7.89089C32.0518 5.19973 30.2495 2.81249 27.9958 0.900675L26.9321 0L25.4149 1.81016L26.4719 2.72184ZM21.5435 45.2848C19.5574 43.6006 17.9693 41.4971 16.8936 39.1256C15.8179 36.7541 15.2813 34.1736 15.3225 31.5699L12.9552 31.5346C12.9099 34.4897 13.52 37.4182 14.7415 40.1094C15.963 42.8006 17.7656 45.1878 20.0196 47.0993L21.0833 48L22.6071 46.181L21.5435 45.2804V45.2848ZM33.2391 4.67514C34.5704 6.91514 35.3895 9.42197 35.6377 12.0159C35.886 14.6098 35.5572 17.2265 34.6749 19.6783L36.9012 20.4887C37.9019 17.7055 38.2745 14.7355 37.9924 11.7914C37.7103 8.84729 36.7804 6.00204 35.2694 3.45956L34.556 2.25939L32.5256 3.47938L33.2391 4.67954V4.67514ZM14.7763 43.3139C13.4457 41.0744 12.6269 38.5683 12.3787 35.9753C12.1305 33.3822 12.4589 30.7663 13.3406 28.3151L11.1142 27.5047C10.1135 30.2879 9.7409 33.2579 10.023 36.202C10.3051 39.1461 11.235 41.9913 12.746 44.5338L13.4595 45.734L15.4898 44.514L14.7763 43.3139ZM39.35 9.11905C39.8239 11.6802 39.7247 14.3146 39.0595 16.8329C38.3943 19.3512 37.1797 21.6909 35.5029 23.684L37.3108 25.2255C39.2136 22.9621 40.5919 20.3057 41.3469 17.4468C42.1019 14.5879 42.2148 11.5974 41.6777 8.68964L41.4244 7.3155L39.0968 7.75593L39.35 9.13007V9.11905ZM8.66541 38.8743C8.19083 36.3121 8.28968 33.6766 8.95486 31.1571C9.62004 28.6377 10.835 26.2968 12.5125 24.3028L10.7068 22.7613C8.80396 25.0242 7.42543 27.6802 6.67006 30.5387C5.9147 33.3972 5.80121 36.3874 6.33775 39.2949L6.591 40.6713L8.91866 40.2309L8.66541 38.8545V38.8743ZM43.4988 15.2916C43.0709 17.8576 42.0785 20.2964 40.5932 22.4321C39.108 24.5678 37.167 26.347 34.9105 27.6412L36.082 29.709C38.6408 28.2423 40.8425 26.2263 42.5287 23.8064C44.2148 21.3866 45.3433 18.6229 45.8331 15.7145L46.0533 14.3359L43.719 13.9395L43.4878 15.3181L43.4988 15.2916ZM4.51659 32.6709C4.94454 30.105 5.93697 27.6662 7.4222 25.5305C8.90743 23.3948 10.8484 21.6156 13.1049 20.3213L11.9334 18.2535C9.3717 19.7233 7.16823 21.7434 5.48197 24.1681C3.79571 26.5927 2.66872 29.3615 2.18232 32.2745L1.96211 33.6531L4.29637 34.0495L4.51659 32.6709ZM45.2716 22.4662C44.0052 24.7341 42.2495 26.6913 40.1319 28.1956C38.0144 29.6998 35.5882 30.7134 33.0299 31.1625L33.4351 33.5077C36.3388 32.9984 39.0926 31.8487 41.4965 30.1422C43.9004 28.4357 45.8941 26.2153 47.3328 23.6422L48.0154 22.4244L45.952 21.2572L45.2716 22.475V22.4662ZM2.74387 25.525C4.01093 23.2577 5.7669 21.301 7.88432 19.7968C10.0017 18.2926 12.4275 17.2787 14.9855 16.8287L14.5804 14.4835C11.676 14.9941 8.92179 16.1452 6.51785 17.8532C4.11392 19.5613 2.12059 21.7833 0.682664 24.3578L0 25.5756L2.0634 26.7428L2.74387 25.525ZM44.4325 30.1297C42.4481 31.8005 40.1155 33.007 37.6052 33.6611C35.0949 34.3153 32.4701 34.4006 29.9227 33.9107L29.4822 36.2472C32.3745 36.8032 35.3545 36.7063 38.2046 35.9638C41.0547 35.2213 43.7031 33.8518 45.9564 31.9552L47.0223 31.0568L45.505 29.2312L44.4369 30.1297H44.4325ZM3.58728 17.8637C5.5715 16.1925 7.90403 14.9857 10.4144 14.3316C12.9248 13.6774 15.5497 13.5924 18.0972 14.0827L18.5376 11.7462C15.6467 11.1911 12.6683 11.2884 9.81974 12.0309C6.97118 12.7734 4.32431 14.1425 2.07221 16.0382L1.00638 16.9366L2.52585 18.76L3.59169 17.8637H3.58728ZM41.1447 36.7537C38.7093 37.6453 36.1054 37.9815 33.5233 37.7377C30.9413 37.4938 28.4463 36.6761 26.2209 35.3443L25.0119 37.3879C27.538 38.901 30.3705 39.8302 33.302 40.1076C36.2336 40.3849 39.19 40.0035 41.9551 38.9911L43.261 38.511L42.4506 36.2758L41.1447 36.7537ZM6.87728 11.2397C9.31275 10.3476 11.9169 10.0114 14.4991 10.2556C17.0812 10.4998 19.5762 11.3184 21.8012 12.6513L23.0101 10.6055C20.4836 9.09324 17.6511 8.16468 14.7197 7.88769C11.7882 7.6107 8.83193 7.99228 6.06689 9.00454L4.76102 9.48241L5.57141 11.7176L6.87728 11.2397ZM35.7429 41.8692C33.151 41.8678 30.592 41.2887 28.2519 40.1741C25.9119 39.0595 23.8496 37.4374 22.2152 35.4258L20.383 36.9343C22.2389 39.2182 24.5805 41.0598 27.2375 42.3252C29.8944 43.5907 32.8 44.2481 35.7429 44.2498H37.1413V41.8692H35.7429Z" fill="#FF0008"/>
</svg>
